<svg id="41c1a209-c167-47b7-9d7a-8fb9ceb208f1" data-name="2623a123-102a-449d-a0ef-3df2721faf5d" xmlns="http://www.w3.org/2000/svg" viewBox="0 0 45 45"><title>logo_pattern</title><g id="52168595-2b20-4e6c-8dec-de3d003657d5" data-name="91c4ab6f-950e-493c-92e6-1ce961d0f62d" style="opacity:0.10000000149011612"><g id="267f5b07-5f1f-45d1-93aa-fc922cd42401" data-name="73eebd14-2790-4805-a658-3a6fd317fd07"><path d="M17.65,17.18l-.43.41a2.54,2.54,0,0,0-.6,1.64,2.62,2.62,0,0,0,2.62,2.62h2.62V19.24h0a2.62,2.62,0,0,0-2.62-2.62h0a2.57,2.57,0,0,0-1.6.55ZM19.3,15.3a3.94,3.94,0,0,1,2.56,1v-5A24.49,24.49,0,0,1,19.3,15.3Zm2.56-7.8c0,3.26-3,6.6-5.21,8.81a4,4,0,0,0-.29.29c-2.17,2.09-5.69,5.26-8.86,5.26ZM7.5,23.16c3.17,0,6.7,3.15,8.86,5.26l.29.27c2.21,2.21,5.21,5.55,5.21,8.81ZM23.16,37.5c0-3.26,3-6.6,5.19-8.81l.29-.27c2.18-2.11,5.69-5.26,8.86-5.26ZM37.5,21.86c-3.17,0-6.68-3.17-8.86-5.26a4,4,0,0,0-.29-.29c-2.21-2.21-5.19-5.55-5.19-8.81ZM21.86,33.65a24.49,24.49,0,0,0-2.56-4,3.94,3.94,0,0,0,2.56-1Zm-4.2-5.82-.43-.43a2.54,2.54,0,0,1-.6-1.64,2.6,2.6,0,0,1,2.6-2.6h2.63v2.6a2.62,2.62,0,0,1-2.62,2.62,2.55,2.55,0,0,1-1.6-.53Zm-2.36-2a36,36,0,0,0-3.86-2.63h4.88a3.82,3.82,0,0,0-1,2.6Zm7.86,7.86a23.29,23.29,0,0,1,2.54-4,3.89,3.89,0,0,1-2.54-1Zm4.2-5.82.43-.43a2.54,2.54,0,0,0,.6-1.64,2.6,2.6,0,0,0-2.6-2.6H23.16v2.6a2.6,2.6,0,0,0,2.58,2.62h0a2.55,2.55,0,0,0,1.6-.53Zm2.34-2a36,36,0,0,1,3.88-2.63H28.67a3.82,3.82,0,0,1,1,2.6ZM23.16,11.35a23.29,23.29,0,0,0,2.54,4,3.89,3.89,0,0,0-2.54,1Zm4.2,5.84.43.41a2.54,2.54,0,0,1,.6,1.64,2.62,2.62,0,0,1-2.62,2.62H23.16V19.24h0a2.6,2.6,0,0,1,2.58-2.62h0a2.57,2.57,0,0,1,1.6.55Zm2.34,2a42.07,42.07,0,0,0,3.88,2.63H28.67a3.89,3.89,0,0,0,1-2.62h0ZM11.44,21.86h4.88a3.89,3.89,0,0,1-1-2.62h0a42.07,42.07,0,0,1-3.88,2.63Z" style="fill:#fff"/></g></g></svg>