<?xml version="1.0" encoding="utf-8"?>
<!-- Generator: Adobe Illustrator 21.1.0, SVG Export Plug-In . SVG Version: 6.00 Build 0)  -->
<svg version="1.1" id="patern" xmlns="http://www.w3.org/2000/svg" xmlns:xlink="http://www.w3.org/1999/xlink" x="0px" y="0px"
	 viewBox="0 0 45 45" style="enable-background:new 0 0 45 45;" xml:space="preserve">
<style type="text/css">
	.st0{fill:#FFFFFF;}
</style>
<title>patern</title>
<path class="st0" d="M17.6,17.2l-0.4,0.4c-0.4,0.5-0.6,1-0.6,1.6c0,1.4,1.2,2.6,2.6,2.6h2.6v-2.6l0,0c0-1.4-1.2-2.6-2.6-2.6l0,0
	C18.7,16.6,18.1,16.8,17.6,17.2L17.6,17.2z"/>
<path class="st0" d="M19.3,15.3c0.9,0,1.9,0.4,2.6,1v-5C21.1,12.7,20.3,14.1,19.3,15.3z"/>
<path class="st0" d="M21.9,7.5c0,3.3-3,6.6-5.2,8.8c-0.1,0.1-0.2,0.2-0.3,0.3c-2.2,2.1-5.7,5.3-8.9,5.3L21.9,7.5z"/>
<path class="st0" d="M7.5,23.2c3.2,0,6.7,3.1,8.9,5.3l0.3,0.3c2.2,2.2,5.2,5.6,5.2,8.8L7.5,23.2z"/>
<path class="st0" d="M23.2,37.5c0-3.3,3-6.6,5.2-8.8l0.3-0.3c2.2-2.1,5.7-5.3,8.9-5.3L23.2,37.5z"/>
<path class="st0" d="M37.5,21.9c-3.2,0-6.7-3.2-8.9-5.3c-0.1-0.1-0.2-0.2-0.3-0.3c-2.2-2.2-5.2-5.6-5.2-8.8L37.5,21.9z"/>
<path class="st0" d="M21.9,33.7c-0.7-1.4-1.6-2.8-2.6-4c0.9,0,1.9-0.4,2.6-1V33.7z"/>
<path class="st0" d="M17.7,27.8l-0.4-0.4c-0.4-0.5-0.6-1-0.6-1.6c0-1.4,1.2-2.6,2.6-2.6c0,0,0,0,0,0h2.6v2.6c0,1.4-1.2,2.6-2.6,2.6
	C18.7,28.4,18.1,28.2,17.7,27.8L17.7,27.8z"/>
<path class="st0" d="M15.3,25.8c-1.2-1-2.5-1.8-3.9-2.6h4.9C15.7,23.9,15.3,24.8,15.3,25.8L15.3,25.8z"/>
<path class="st0" d="M23.2,33.7c0.7-1.4,1.6-2.8,2.5-4c-0.9,0-1.8-0.4-2.5-1V33.7z"/>
<path class="st0" d="M27.4,27.9l0.4-0.4c0.4-0.5,0.6-1,0.6-1.6c0-1.4-1.2-2.6-2.6-2.6c0,0,0,0,0,0h-2.6v2.6c0,1.4,1.1,2.6,2.6,2.6
	c0,0,0,0,0,0l0,0C26.3,28.4,26.9,28.2,27.4,27.9L27.4,27.9z"/>
<path class="st0" d="M29.7,25.9c1.2-1,2.5-1.8,3.9-2.6h-4.9C29.3,23.9,29.7,24.9,29.7,25.9L29.7,25.9z"/>
<path class="st0" d="M23.2,11.4c0.7,1.4,1.6,2.8,2.5,4c-0.9,0-1.8,0.4-2.5,1V11.4z"/>
<path class="st0" d="M27.4,17.2l0.4,0.4c0.4,0.5,0.6,1,0.6,1.6c0,1.4-1.2,2.6-2.6,2.6h0h-2.6v-2.6l0,0c0-1.4,1.1-2.6,2.6-2.6
	c0,0,0,0,0,0l0,0C26.3,16.6,26.9,16.8,27.4,17.2L27.4,17.2z"/>
<path class="st0" d="M29.7,19.2c1.2,0.9,2.5,1.8,3.9,2.6h-4.9C29.3,21.1,29.7,20.2,29.7,19.2L29.7,19.2L29.7,19.2z"/>
<path class="st0" d="M11.4,21.9h4.9c-0.6-0.7-1-1.7-1-2.6l0,0C14.1,20.2,12.8,21.1,11.4,21.9L11.4,21.9z"/>
</svg>
