<?xml version="1.0" encoding="utf-8"?>
<!-- Generator: Adobe Illustrator 21.1.0, SVG Export Plug-In . SVG Version: 6.00 Build 0)  -->
<svg version="1.1" id="Слой_1" xmlns="http://www.w3.org/2000/svg" xmlns:xlink="http://www.w3.org/1999/xlink" x="0px" y="0px"
	 viewBox="0 0 45 45" style="enable-background:new 0 0 45 45;" xml:space="preserve">
<style type="text/css">
	.st0{fill:none;}
	.st1{fill:none;stroke:#FFFFFF;stroke-miterlimit:10;}
</style>
<rect class="st0" width="45" height="45"/>
<g>
	<path class="st1" d="M16,7.6h12.9c4.7,0,8.6,3.7,8.6,8.4V33c0,2.4-2,4.3-4.4,4.3H11.8c-2.4,0-4.3-2-4.3-4.3V16
		C7.5,11.3,11.3,7.6,16,7.6C16,7.6,16,7.6,16,7.6z"/>
	<path class="st1" d="M22.5,24.6H16c0.1,3.5,3,6.4,6.5,6.3c3.5,0,6.3-2.8,6.4-6.3c0,0,0,0,0-0.1H22.5z"/>
	<path class="st1" d="M26.8,17.1c-0.6,0-1,0.5-1,1.1c0,0.6,0.5,1,1.1,1c0.6,0,1-0.5,1-1C27.8,17.6,27.3,17.1,26.8,17.1
		C26.8,17.1,26.8,17.1,26.8,17.1z"/>
	<path class="st1" d="M18.1,17.1c-0.6,0-1,0.5-1,1.1c0,0.6,0.5,1,1.1,1c0.6,0,1-0.5,1-1C19.2,17.6,18.7,17.1,18.1,17.1
		C18.1,17.1,18.1,17.1,18.1,17.1z"/>
</g>
</svg>
