<svg xmlns="http://www.w3.org/2000/svg" xmlns:xlink="http://www.w3.org/1999/xlink" viewBox="0 0 31 30.74"><defs><clipPath id="4ed2bfad-51b3-456b-8f11-5ec9794407ec" transform="translate(-7 -7.13)"><rect width="45" height="45" style="fill:none"/></clipPath></defs><title>Патерн (Адаптив)</title><g id="149e9073-f069-46c6-a856-1f98d8715203" data-name="Слой 2"><g id="75b6a607-7d04-4ca3-95b3-9989a40aaf17" data-name="Слой 1"><g style="clip-path:url(#4ed2bfad-51b3-456b-8f11-5ec9794407ec)"><path d="M16,7.63H28.88a8.53,8.53,0,0,1,8.62,8.43V33a4.42,4.42,0,0,1-4.37,4.33H11.75A4.32,4.32,0,0,1,7.5,33v-17A8.43,8.43,0,0,1,16,7.63Z" transform="translate(-7 -7.13)" style="fill:none;stroke:#fff;stroke-miterlimit:10"/><path d="M22.5,24.61H16a6.43,6.43,0,0,0,6.5,6.32,6.32,6.32,0,0,0,6.38-6.32Z" transform="translate(-7 -7.13)" style="fill:none;stroke:#fff;stroke-miterlimit:10"/><path d="M26.75,17.11a1.05,1.05,0,1,0,1.06,1.05,1.05,1.05,0,0,0-1.06-1.05Z" transform="translate(-7 -7.13)" style="fill:none;stroke:#fff;stroke-miterlimit:10"/><path d="M18.13,17.11a1.05,1.05,0,1,0,1.06,1.05,1.05,1.05,0,0,0-1.06-1.05Z" transform="translate(-7 -7.13)" style="fill:none;stroke:#fff;stroke-miterlimit:10"/></g></g></g></svg>