<?xml version="1.0" encoding="utf-8"?>
<!-- Generator: Adobe Illustrator 21.1.0, SVG Export Plug-In . SVG Version: 6.00 Build 0)  -->
<svg version="1.1" id="Слой_1" xmlns="http://www.w3.org/2000/svg" xmlns:xlink="http://www.w3.org/1999/xlink" x="0px" y="0px"
	 viewBox="0 0 50 50" style="enable-background:new 0 0 50 50;" xml:space="preserve">
<style type="text/css">
	.st0{fill:#2196F3;}
</style>
<title>logo_blue</title>
<g id="_x35_db5a91d-b8ff-42f0-bd34-eb14ba64cb0d">
	<g id="_x39_4ae9ae9-7ed8-4bad-bf12-ed8d43f7b9e3">
		<path class="st0" d="M16.9,16.1l-0.7,0.7c-0.6,0.8-1,1.7-1,2.7c0,2.4,2,4.4,4.4,4.4l0,0h4.4v-4.4l0,0c0-2.4-2-4.4-4.4-4.4l0,0
			C18.6,15.2,17.7,15.5,16.9,16.1L16.9,16.1z M19.7,13c1.6,0,3.1,0.6,4.3,1.7V6.4C22.7,8.7,21.3,10.9,19.7,13z M23.9,0
			c0,5.4-5,11-8.7,14.7c-0.1,0.1-0.3,0.3-0.5,0.5c-3.6,3.5-9.5,8.8-14.8,8.8L23.9,0z M0,26.1c5.3,0,11.2,5.3,14.8,8.8l0.5,0.5
			c3.7,3.7,8.7,9.2,8.7,14.7L0,26.1z M26.1,50c0-5.4,5-11,8.6-14.7l0.5-0.5c3.6-3.5,9.5-8.8,14.8-8.8L26.1,50z M50,23.9
			c-5.3,0-11.1-5.3-14.8-8.8c-0.2-0.2-0.3-0.3-0.5-0.5C31.1,11,26.1,5.4,26.1,0L50,23.9z M23.9,43.6c-1.2-2.3-2.6-4.5-4.3-6.6
			c1.6,0,3.1-0.6,4.3-1.7V43.6z M16.9,33.9l-0.7-0.7c-0.6-0.8-1-1.7-1-2.7c0-2.4,2-4.3,4.3-4.3c0,0,0,0,0,0h4.4v4.3
			c0,2.4-2,4.4-4.4,4.4C18.6,34.8,17.7,34.5,16.9,33.9L16.9,33.9z M13,30.5c-2-1.6-4.2-3.1-6.4-4.4h8.1C13.6,27.3,13,28.8,13,30.5
			L13,30.5z M26.1,43.6c1.2-2.3,2.6-4.5,4.2-6.6c-1.6,0-3.1-0.6-4.2-1.7V43.6z M33.1,33.9l0.7-0.7c0.6-0.8,1-1.7,1-2.7
			c0-2.4-2-4.3-4.3-4.3c0,0,0,0,0,0h-4.4v4.3c0,2.4,1.9,4.3,4.3,4.4c0,0,0,0,0,0C31.4,34.8,32.3,34.5,33.1,33.9L33.1,33.9z M37,30.5
			c2.1-1.6,4.2-3.1,6.5-4.4h-8.2C36.4,27.3,37,28.8,37,30.5L37,30.5z M26.1,6.4c1.2,2.3,2.6,4.5,4.2,6.6c-1.6,0-3.1,0.6-4.2,1.7V6.4
			z M33.1,16.1l0.7,0.7c0.6,0.8,1,1.7,1,2.7c0,2.4-2,4.4-4.4,4.4l0,0h-4.4v-4.4l0,0c0-2.4,1.9-4.3,4.3-4.4c0,0,0,0,0,0
			C31.4,15.2,32.3,15.5,33.1,16.1L33.1,16.1z M37,19.5c2.1,1.6,4.2,3,6.5,4.4h-8.2C36.4,22.7,37,21.2,37,19.5L37,19.5L37,19.5z
			 M6.6,23.9h8.1c-1.1-1.2-1.7-2.7-1.7-4.4l0,0C10.9,21.2,8.8,22.6,6.6,23.9L6.6,23.9z"/>
	</g>
</g>
</svg>
