<svg xmlns="http://www.w3.org/2000/svg" width="50" height="50" viewBox="0 0 50 50"><title>logo_white</title><g id="b6fd0096-800b-4e8d-8695-1f5a10ce3989" data-name="Слой 2"><g id="ffc891be-d815-443d-89ff-c96c36044b6e" data-name="Слой 1"><path d="M16.92,16.14l-.72.69a4.23,4.23,0,0,0-1,2.74,4.36,4.36,0,0,0,4.36,4.36h4.36V19.57h0a4.36,4.36,0,0,0-4.36-4.36,4.28,4.28,0,0,0-2.66.92ZM19.66,13a6.56,6.56,0,0,1,4.27,1.67V6.41A40.81,40.81,0,0,1,19.66,13ZM23.93,0c0,5.43-5,11-8.68,14.68-.15.15-.33.3-.48.48C11.16,18.65,5.28,23.93,0,23.93ZM0,26.1c5.28,0,11.16,5.25,14.77,8.77l.48.45C18.94,39,23.93,44.57,23.93,50ZM26.1,50c0-5.43,5-11,8.65-14.68l.48-.45C38.87,31.35,44.72,26.1,50,26.1ZM50,23.93c-5.28,0-11.13-5.28-14.77-8.77-.15-.18-.33-.33-.48-.48C31.06,11,26.1,5.43,26.1,0ZM23.93,43.59A40.81,40.81,0,0,0,19.66,37a6.56,6.56,0,0,0,4.27-1.67Zm-7-9.7-.72-.72a4.23,4.23,0,0,1-1-2.74,4.34,4.34,0,0,1,4.36-4.33h4.36v4.33a4.36,4.36,0,0,1-4.36,4.36,4.25,4.25,0,0,1-2.66-.89ZM13,30.49A60,60,0,0,0,6.56,26.1h8.14A6.36,6.36,0,0,0,13,30.43v.06ZM26.1,43.59A38.82,38.82,0,0,1,30.34,37a6.48,6.48,0,0,1-4.24-1.67Zm7-9.7.72-.72a4.23,4.23,0,0,0,1-2.74,4.34,4.34,0,0,0-4.36-4.33H26.1v4.33a4.34,4.34,0,0,0,4.33,4.36,4.25,4.25,0,0,0,2.66-.89ZM37,30.49a60,60,0,0,1,6.47-4.39H35.29A6.36,6.36,0,0,1,37,30.43v.06ZM26.1,6.41A38.82,38.82,0,0,0,30.34,13a6.48,6.48,0,0,0-4.24,1.67Zm7,9.73.72.69a4.23,4.23,0,0,1,1,2.74,4.36,4.36,0,0,1-4.36,4.36H26.1V19.57h0a4.34,4.34,0,0,1,4.33-4.36,4.28,4.28,0,0,1,2.66.92ZM37,19.54a70.12,70.12,0,0,0,6.47,4.39H35.29A6.49,6.49,0,0,0,37,19.57v0ZM6.56,23.93h8.14A6.49,6.49,0,0,1,13,19.57v0a70.12,70.12,0,0,1-6.47,4.39Z" style="fill:#fff;fill-rule:evenodd"/></g></g></svg>