<svg xmlns="http://www.w3.org/2000/svg" viewBox="0 0 20 20"><path fill="none" d="M0 0h20v20H0z"/><g fill="#fff"><path d="M10 11c-.2 0-.3 0-.5-.1L2.1 6.6c-.3-.2-.5-.5-.5-.9s.2-.7.5-.9L9.5.6c.3-.2.7-.2 1 0l7.4 4.2c.3.2.5.5.5.9s-.2.7-.5.9l-7.4 4.3c-.2 0-.3.1-.5.1zM4.6 5.7L10 8.9l5.4-3.1L10 2.6 4.6 5.7z"/><path d="M10 19.5c-.2 0-.3 0-.5-.1l-7.4-4.3c-.3-.2-.5-.5-.5-.9V5.7c0-.4.2-.7.5-.9.3-.2.7-.2 1 0l7.4 4.3c.3.2.5.5.5.9v8.5c0 .4-.2.7-.5.9-.2.1-.3.1-.5.1zm-6.4-5.8L9 16.8v-6.2L3.6 7.4v6.3z"/><path d="M10 19.5c-.2 0-.3 0-.5-.1-.3-.2-.5-.5-.5-.9V10c0-.4.2-.7.5-.9l7.4-4.3c.3-.2.7-.2 1 0s.5.5.5.9v8.5c0 .4-.2.7-.5.9l-7.4 4.3c-.2.1-.3.1-.5.1zm1-8.9v6.2l5.4-3.1V7.4L11 10.6z"/></g></svg>
