<svg xmlns="http://www.w3.org/2000/svg" width="60" height="60" viewBox="0 0 60 60"><title>icon-2</title><g id="7a60ab05-5b27-43f0-aff9-19c6a744e306" data-name="icon"><g id="28ea9343-b3bb-4f70-8e78-3db287e76558" data-name="icon"><path d="M57.74,2.5H10.36c-8.09,0-8.09,14.87-8.09,22.07,0,7,0,22,7.86,22H57.74" style="fill:#fff;stroke:#2196f3;stroke-linecap:round;stroke-linejoin:round;fill-rule:evenodd"/><path d="M18.93,57.5a2.68,2.68,0,0,0,2.74-2.71,2.74,2.74,0,1,0-5.48,0,2.68,2.68,0,0,0,2.74,2.71Z" style="fill:#fff;stroke:#2196f3;stroke-linecap:round;stroke-linejoin:round;fill-rule:evenodd"/><path d="M24.52,57.5a2.76,2.76,0,0,0,2.74-2.71,2.8,2.8,0,1,0-5.6,0,2.78,2.78,0,0,0,2.86,2.71Z" style="fill:#fff;stroke:#2196f3;stroke-linecap:round;stroke-linejoin:round;fill-rule:evenodd"/><path d="M57.74,49.36,35.6,49.24v2.48a3,3,0,0,0,3,3.07H57.74" style="fill:#e3f2fd;stroke:#2196f3;stroke-linecap:round;stroke-linejoin:round;fill-rule:evenodd"/><polyline points="57.74 49.36 7.5 49.36 12.26 51.95 12.26 55.38 14.05 55.38 15.71 51.95 57.74 51.95" style="fill:#e3f2fd;stroke:#2196f3;stroke-linecap:round;stroke-linejoin:round;fill-rule:evenodd"/><path d="M18.93,55.85a1.06,1.06,0,1,0-1.07-1.06,1.06,1.06,0,0,0,1.07,1.06Z" style="fill:#e3f2fd;stroke:#2196f3;stroke-linecap:round;stroke-linejoin:round;fill-rule:evenodd"/><path d="M24.52,55.85a1.06,1.06,0,1,0-1.07-1.06,1.06,1.06,0,0,0,1.07,1.06Z" style="fill:#e3f2fd;stroke:#2196f3;stroke-linecap:round;stroke-linejoin:round;fill-rule:evenodd"/><polyline points="57.74 46.52 2.26 46.52 2.26 49.36 57.74 49.24" style="fill:#fff;stroke:#2196f3;stroke-linecap:round;stroke-linejoin:round;fill-rule:evenodd"/><line x1="10.36" y1="2.5" x2="10.36" y2="46.05" style="fill:#fff;stroke:#2196f3;stroke-linecap:round;stroke-linejoin:round"/></g></g></svg>