<svg xmlns="http://www.w3.org/2000/svg" width="150" height="120" viewBox="0 0 150 120"><title>service-2</title><g id="e697d24a-b318-4354-a4ed-c6f5e3d3d23a" data-name="train"><g style="opacity:0.2"><path d="M44,77.27a1.63,1.63,0,0,1,1.37-.7,1.51,1.51,0,0,1,1.26.7,1.63,1.63,0,0,1,.28.94,1.56,1.56,0,0,1-1.54,1.52,1.58,1.58,0,0,1-1.65-1.52A1.63,1.63,0,0,1,44,77.27Z" style="fill:none;stroke:#fff;stroke-linecap:round;stroke-linejoin:round"/><path d="M54.08,77.27a1.49,1.49,0,0,1,1.25-.7A1.61,1.61,0,0,1,57,78.21a1.59,1.59,0,0,1-1.66,1.52,1.55,1.55,0,0,1-1.53-1.52A1.63,1.63,0,0,1,54.08,77.27Z" style="fill:none;stroke:#fff;stroke-linecap:round;stroke-linejoin:round"/><path d="M51.43,77.27a4.17,4.17,0,0,0-.11.94,4.08,4.08,0,1,0,8.15,0,4.17,4.17,0,0,0-.11-.94,4.09,4.09,0,0,0-4-3.16A4,4,0,0,0,51.43,77.27Zm2.65,0a1.49,1.49,0,0,1,1.25-.7A1.61,1.61,0,0,1,57,78.21a1.59,1.59,0,0,1-1.66,1.52,1.55,1.55,0,0,1-1.53-1.52A1.63,1.63,0,0,1,54.08,77.27Z" style="fill:none;stroke:#fff;stroke-linecap:round;stroke-linejoin:round;fill-rule:evenodd"/><path d="M41.4,77.27a4.13,4.13,0,0,1,8,0,3.67,3.67,0,0,1,.12.94,4.14,4.14,0,0,1-8.27,0A3.67,3.67,0,0,1,41.4,77.27Zm2.64,0a1.63,1.63,0,0,1,1.37-.7,1.51,1.51,0,0,1,1.26.7,1.63,1.63,0,0,1,.28.94,1.56,1.56,0,0,1-1.54,1.52,1.58,1.58,0,0,1-1.65-1.52A1.63,1.63,0,0,1,44,77.27Z" style="fill:none;stroke:#fff;stroke-linecap:round;stroke-linejoin:round;fill-rule:evenodd"/><polygon points="36.44 72.35 36.44 74.81 31.59 74.81 31.59 72.35 35.37 72.35 36.44 72.35" style="fill:none;stroke:#fff;stroke-linecap:round;stroke-linejoin:round"/><polygon points="85.75 77.27 84.63 79.73 64.31 79.73 63.19 77.27 85.75 77.27" style="fill:none;stroke:#fff;stroke-linecap:round;stroke-linejoin:round"/><path d="M63.19,77.27h26.4a4.13,4.13,0,0,1,8,0h2a4.09,4.09,0,0,1,4-3.16,4,4,0,0,1,3.91,3.16H111l2.48-2.46V72.35h-77v2.46l2.48,2.46H41.4a4.13,4.13,0,0,1,8,0h2a4,4,0,0,1,3.9-3.16,4.09,4.09,0,0,1,4,3.16Z" style="fill:none;stroke:#fff;stroke-linecap:round;stroke-linejoin:round"/><path d="M92.23,77.27a1.66,1.66,0,0,1,3,.94,1.66,1.66,0,0,1-3.31,0A1.63,1.63,0,0,1,92.23,77.27Z" style="fill:none;stroke:#fff;stroke-linecap:round;stroke-linejoin:round"/><path d="M102.27,77.27a1.63,1.63,0,0,1,1.37-.7,1.51,1.51,0,0,1,1.26.7,1.63,1.63,0,0,1,.28.94,1.56,1.56,0,0,1-1.54,1.52A1.58,1.58,0,0,1,102,78.21,1.63,1.63,0,0,1,102.27,77.27Z" style="fill:none;stroke:#fff;stroke-linecap:round;stroke-linejoin:round"/><polygon points="118.41 72.35 118.41 74.81 113.44 74.81 113.44 72.35 113.56 72.35 118.41 72.35" style="fill:none;stroke:#fff;stroke-linecap:round;stroke-linejoin:round"/><path d="M114.51,38.51v33a.91.91,0,0,1-1,.82H35.37a.8.8,0,0,1-.82-.82v-33a.8.8,0,0,1,.82-.82h78.19A.91.91,0,0,1,114.51,38.51Z" style="fill:none;stroke:#fff;stroke-linecap:round;stroke-linejoin:round"/><path d="M99.62,77.27a4.09,4.09,0,0,1,4-3.16,4,4,0,0,1,3.91,3.16,4.17,4.17,0,0,1,.11.94,4.08,4.08,0,1,1-8.15,0A4.17,4.17,0,0,1,99.62,77.27Zm2.65,0a1.63,1.63,0,0,1,1.37-.7,1.51,1.51,0,0,1,1.26.7,1.63,1.63,0,0,1,.28.94,1.56,1.56,0,0,1-1.54,1.52A1.58,1.58,0,0,1,102,78.21,1.63,1.63,0,0,1,102.27,77.27Z" style="fill:none;stroke:#fff;stroke-linecap:round;stroke-linejoin:round;fill-rule:evenodd"/><path d="M89.59,77.27a4.13,4.13,0,0,1,8,0,3.67,3.67,0,0,1,.12.94,4.14,4.14,0,0,1-8.27,0A3.67,3.67,0,0,1,89.59,77.27Zm2.64,0a1.66,1.66,0,0,1,3,.94,1.66,1.66,0,0,1-3.31,0A1.63,1.63,0,0,1,92.23,77.27Z" style="fill:none;stroke:#fff;stroke-linecap:round;stroke-linejoin:round;fill-rule:evenodd"/><line x1="39.51" y1="40.74" x2="39.51" y2="69.31" style="fill:none;stroke:#fff;stroke-linecap:round;stroke-linejoin:round"/><line x1="45.3" y1="40.74" x2="45.3" y2="69.31" style="fill:none;stroke:#fff;stroke-linecap:round;stroke-linejoin:round"/><line x1="51.2" y1="40.74" x2="51.2" y2="69.31" style="fill:none;stroke:#fff;stroke-linecap:round;stroke-linejoin:round"/><line x1="56.99" y1="40.74" x2="56.99" y2="69.31" style="fill:none;stroke:#fff;stroke-linecap:round;stroke-linejoin:round"/><line x1="62.78" y1="40.74" x2="62.78" y2="69.31" style="fill:none;stroke:#fff;stroke-linecap:round;stroke-linejoin:round"/><line x1="68.68" y1="40.74" x2="68.68" y2="69.31" style="fill:none;stroke:#fff;stroke-linecap:round;stroke-linejoin:round"/><line x1="74.47" y1="40.74" x2="74.47" y2="69.31" style="fill:none;stroke:#fff;stroke-linecap:round;stroke-linejoin:round"/><line x1="80.37" y1="40.74" x2="80.37" y2="69.31" style="fill:none;stroke:#fff;stroke-linecap:round;stroke-linejoin:round"/><line x1="86.16" y1="40.74" x2="86.16" y2="69.31" style="fill:none;stroke:#fff;stroke-linecap:round;stroke-linejoin:round"/><line x1="91.95" y1="40.74" x2="91.95" y2="69.31" style="fill:none;stroke:#fff;stroke-linecap:round;stroke-linejoin:round"/><line x1="97.85" y1="40.74" x2="97.85" y2="69.31" style="fill:none;stroke:#fff;stroke-linecap:round;stroke-linejoin:round"/><line x1="103.64" y1="40.74" x2="103.64" y2="69.31" style="fill:none;stroke:#fff;stroke-linecap:round;stroke-linejoin:round"/><line x1="109.43" y1="40.74" x2="109.43" y2="69.31" style="fill:none;stroke:#fff;stroke-linecap:round;stroke-linejoin:round"/></g></g></svg>