<svg id="efc2391a-7f99-471c-b942-d54e611c32b4" data-name="icon" xmlns="http://www.w3.org/2000/svg" width="60" height="60" viewBox="0 0 60 60"><title>icon-1</title><g id="4d281bf7-d197-4311-82c8-c1dc7e028f47" data-name="icon"><rect x="2.5" y="2.73" width="33.05" height="32.76" style="fill:#fff;stroke:#2196f3;stroke-linecap:round;stroke-miterlimit:10"/><rect x="2.5" y="2.73" width="5.55" height="5.5" style="fill:#fff;stroke:#2196f3;stroke-linecap:round;stroke-miterlimit:10"/><rect x="8.05" y="8.23" width="21.95" height="21.77" style="fill:#e3f2fd;stroke:#2196f3;stroke-linecap:round;stroke-miterlimit:10"/><rect x="30" y="2.73" width="5.55" height="5.5" style="fill:#fff;stroke:#2196f3;stroke-linecap:round;stroke-miterlimit:10"/><rect x="30" y="30" width="5.55" height="5.5" style="fill:#fff;stroke:#2196f3;stroke-linecap:round;stroke-miterlimit:10"/><rect x="2.5" y="30" width="5.55" height="5.5" style="fill:#fff;stroke:#2196f3;stroke-linecap:round;stroke-miterlimit:10"/><line x1="9.7" y1="24.27" x2="13.83" y2="28.36" style="fill:#fff;stroke:#2196f3;stroke-linecap:round;stroke-linejoin:round"/><line x1="9.7" y1="18.53" x2="19.61" y2="28.36" style="fill:#fff;stroke:#2196f3;stroke-linecap:round;stroke-linejoin:round"/><line x1="9.7" y1="12.92" x2="25.28" y2="28.36" style="fill:#fff;stroke:#2196f3;stroke-linecap:round;stroke-linejoin:round"/><line x1="12.41" y1="9.87" x2="28.35" y2="25.67" style="fill:#fff;stroke:#2196f3;stroke-linecap:round;stroke-linejoin:round"/><line x1="18.08" y1="9.87" x2="28.35" y2="20.05" style="fill:#fff;stroke:#2196f3;stroke-linecap:round;stroke-linejoin:round"/><line x1="23.74" y1="9.87" x2="28.35" y2="14.44" style="fill:#fff;stroke:#2196f3;stroke-linecap:round;stroke-linejoin:round"/><path d="M41,57.27C52,51.77,57.5,43.69,57.5,35.5V19.12a.66.66,0,0,0-.71-.59C52,18.53,46.52,13.62,41,13.62s-9.91,4.91-15.82,4.91a.56.56,0,0,0-.59.59V35.5c0,9,5.43,16.27,16.41,21.77Z" style="fill:#e3f2fd;stroke:#2196f3;stroke-linecap:round;stroke-miterlimit:10;fill-rule:evenodd"/><path d="M41,53.4c6.85-3.74,13.1-9.83,13.1-17.9V21.57c-4.72-1.05-9-4.45-13.1-4.45-3.89,0-7.91,3.39-13,4.45V35.5c0,8.54,6,14,13,17.9Z" style="fill:#fff;stroke:#2196f3;stroke-linecap:round;stroke-miterlimit:10;fill-rule:evenodd"/></g></svg>