<svg xmlns="http://www.w3.org/2000/svg" width="150" height="120" viewBox="0 0 150 120"><title>service-11</title><g id="e038933d-dfa2-4883-86b3-4eda2a50360c" data-name="protect"><g style="opacity:0.2"><path d="M54.63,81v2.22a1.57,1.57,0,0,1-1.54,1.53h-7a1.56,1.56,0,0,1-1.53-1.53V81Z" style="fill:none;stroke:#fff;stroke-linecap:round;stroke-linejoin:round"/><path d="M60.21,50.1a70.8,70.8,0,0,0,2.36,9.84,48.92,48.92,0,0,0,3.75,8.8,36.58,36.58,0,0,0,5.26,7.36,31.52,31.52,0,0,0,3.36,3.16,31,31,0,0,0,3.4-3.16,36.59,36.59,0,0,0,5.58-7.85A53.69,53.69,0,0,0,88.74,55c.49-2.17.89-4.36,1.2-6.55a15,15,0,0,1-5.67-6.91c-3.07-1.17-6.38-2.35-9.33-2.35s-6.26,1.18-9.21,2.35a15.24,15.24,0,0,1-5.79,6.91C60,49,60.11,49.56,60.21,50.1Z" style="fill:none;stroke:#fff;stroke-linecap:round;stroke-linejoin:round"/><path d="M66.32,75c.28.37.56.75.85,1.11a36.2,36.2,0,0,0,7.77,7.38,36.29,36.29,0,0,0,7.84-7.38c.39-.49.78-1,1.14-1.51A53,53,0,0,0,92.18,55c.27-1.19.5-2.39.71-3.6.28-1.64.52-3.3.71-5-.24-.09-.48-.2-.71-.31a11.73,11.73,0,0,1-6-7.18c-3.78-1.52-7.91-3.16-11.93-3.16S66.79,37.46,63,39a11,11,0,0,1-6.73,7.49c.15,1.21.32,2.42.52,3.63a76.66,76.66,0,0,0,2.26,9.84A49.83,49.83,0,0,0,66.32,75ZM53.38,50.1a78.46,78.46,0,0,0,2.12,9.84A53.86,53.86,0,0,0,62.93,76.1a41.12,41.12,0,0,0,4,4.92,39.12,39.12,0,0,0,8,6.44A39.18,39.18,0,0,0,83,81a40.31,40.31,0,0,0,4-4.92A56.77,56.77,0,0,0,95.64,55a89.26,89.26,0,0,0,1.5-9.72L97.26,44c-4-.59-6.61-3.05-7.56-7.5-4.84-2-9.68-4-14.76-4s-9.92,2-14.76,4c-.73,3.42-2.36,5.66-5,6.78l1.52.72L54,45.42l-1,2C53.11,48.32,53.24,49.22,53.38,50.1Z" style="fill:none;stroke:#fff;stroke-linecap:round;stroke-linejoin:round;fill-rule:evenodd"/><path d="M62.93,76.1H40.22V59.94H55.5A53.86,53.86,0,0,0,62.93,76.1Z" style="fill:none;stroke:#fff;stroke-linecap:round;stroke-linejoin:round"/><path d="M104.94,45.3V55h-9.3a89.26,89.26,0,0,0,1.5-9.72Z" style="fill:none;stroke:#fff;stroke-linecap:round;stroke-linejoin:round"/><path d="M55.5,59.94H44.94V50.1h8.44A78.46,78.46,0,0,0,55.5,59.94Z" style="fill:none;stroke:#fff;stroke-linecap:round;stroke-linejoin:round"/><path d="M60.21,50.1a70.8,70.8,0,0,0,2.36,9.84,48.92,48.92,0,0,0,3.75,8.8,36.58,36.58,0,0,0,5.26,7.36,31.52,31.52,0,0,0,3.36,3.16,31,31,0,0,0,3.4-3.16,36.59,36.59,0,0,0,5.58-7.85A53.69,53.69,0,0,0,88.74,55c.49-2.17.89-4.36,1.2-6.55a15,15,0,0,1-5.67-6.91c-3.07-1.17-6.38-2.35-9.33-2.35s-6.26,1.18-9.21,2.35a15.24,15.24,0,0,1-5.79,6.91C60,49,60.11,49.56,60.21,50.1Zm-3.41,0a76.66,76.66,0,0,0,2.26,9.84,49.83,49.83,0,0,0,7.26,15c.28.37.56.75.85,1.11a36.2,36.2,0,0,0,7.77,7.38,36.29,36.29,0,0,0,7.84-7.38c.39-.49.78-1,1.14-1.51A53,53,0,0,0,92.18,55c.27-1.19.5-2.39.71-3.6.28-1.64.52-3.3.71-5-.24-.09-.48-.2-.71-.31a11.73,11.73,0,0,1-6-7.18c-3.78-1.52-7.91-3.16-11.93-3.16S66.79,37.46,63,39a11,11,0,0,1-6.73,7.49C56.43,47.68,56.6,48.89,56.8,50.1Z" style="fill:none;stroke:#fff;stroke-linecap:round;stroke-linejoin:round;fill-rule:evenodd"/><path d="M94.55,81h19a1.06,1.06,0,0,0,1.07-1V77a1,1,0,0,0-1.07-.94H87A40.31,40.31,0,0,1,83,81Z" style="fill:none;stroke:#fff;stroke-linecap:round;stroke-linejoin:round"/><path d="M110,55V76.1H87A56.77,56.77,0,0,0,95.64,55H110Z" style="fill:none;stroke:#fff;stroke-linecap:round;stroke-linejoin:round"/><polygon points="53 47.4 52.62 48.11 51.32 45.42 48.48 44.02 51.32 42.73 52.62 39.92 54.04 42.73 55.23 43.3 56.75 44.02 54.04 45.42 53 47.4" style="fill:none;stroke:#fff;stroke-linecap:round;stroke-linejoin:round"/><path d="M44.59,81H66.94a41.12,41.12,0,0,1-4-4.92H36.32a.93.93,0,0,0-1,.94V80a1,1,0,0,0,1,1Z" style="fill:none;stroke:#fff;stroke-linecap:round;stroke-linejoin:round"/><path d="M104.59,81v2.22a1.57,1.57,0,0,1-1.54,1.53h-7a1.56,1.56,0,0,1-1.53-1.53V81Z" style="fill:none;stroke:#fff;stroke-linecap:round;stroke-linejoin:round"/></g></g></svg>