<svg xmlns="http://www.w3.org/2000/svg" width="60" height="60" viewBox="0 0 60 60"><title>icon-1</title><g id="02381674-0880-4aba-ad34-eb36b3a7d73a" data-name="Слой 2"><rect x="46.52" y="31.76" width="10.98" height="11" style="fill:#fff;stroke:#2196f3;stroke-linecap:round;stroke-linejoin:round"/><line x1="51.95" y1="37.26" x2="51.95" y2="31.76" style="fill:#fff;stroke:#2196f3;stroke-linecap:round;stroke-linejoin:round"/><rect x="31.89" y="31.76" width="10.98" height="11" style="fill:#fff;stroke:#2196f3;stroke-linecap:round;stroke-linejoin:round"/><line x1="37.32" y1="37.26" x2="37.32" y2="31.76" style="fill:#fff;stroke:#2196f3;stroke-linecap:round;stroke-linejoin:round"/><rect x="46.52" y="46.27" width="10.98" height="11" style="fill:#fff;stroke:#2196f3;stroke-linecap:round;stroke-linejoin:round"/><line x1="51.95" y1="51.77" x2="51.95" y2="46.27" style="fill:#fff;stroke:#2196f3;stroke-linecap:round;stroke-linejoin:round"/><rect x="31.89" y="46.27" width="10.98" height="11" style="fill:#fff;stroke:#2196f3;stroke-linecap:round;stroke-linejoin:round"/><line x1="37.32" y1="51.77" x2="37.32" y2="46.27" style="fill:#fff;stroke:#2196f3;stroke-linecap:round;stroke-linejoin:round"/><rect x="2.5" y="17.25" width="10.98" height="11" style="fill:#fff;stroke:#2196f3;stroke-linecap:round;stroke-linejoin:round"/><line x1="8.05" y1="22.74" x2="8.05" y2="17.25" style="fill:#fff;stroke:#2196f3;stroke-linecap:round;stroke-linejoin:round"/><rect x="17.25" y="17.25" width="10.98" height="11" style="fill:#fff;stroke:#2196f3;stroke-linecap:round;stroke-linejoin:round"/><line x1="22.68" y1="22.74" x2="22.68" y2="17.25" style="fill:#fff;stroke:#2196f3;stroke-linecap:round;stroke-linejoin:round"/><rect x="46.52" y="17.25" width="10.98" height="11" style="fill:#fff;stroke:#2196f3;stroke-linecap:round;stroke-linejoin:round"/><line x1="51.95" y1="22.74" x2="51.95" y2="17.25" style="fill:#fff;stroke:#2196f3;stroke-linecap:round;stroke-linejoin:round"/><rect x="31.89" y="17.25" width="10.98" height="11" style="fill:#fff;stroke:#2196f3;stroke-linecap:round;stroke-linejoin:round"/><line x1="37.32" y1="22.74" x2="37.32" y2="17.25" style="fill:#fff;stroke:#2196f3;stroke-linecap:round;stroke-linejoin:round"/><rect x="2.5" y="2.73" width="10.98" height="10.88" style="fill:#fff;stroke:#2196f3;stroke-linecap:round;stroke-linejoin:round"/><line x1="8.05" y1="8.23" x2="8.05" y2="2.73" style="fill:#fff;stroke:#2196f3;stroke-linecap:round;stroke-linejoin:round"/><rect x="17.25" y="2.73" width="10.98" height="10.88" style="fill:#fff;stroke:#2196f3;stroke-linecap:round;stroke-linejoin:round"/><line x1="22.68" y1="8.23" x2="22.68" y2="2.73" style="fill:#fff;stroke:#2196f3;stroke-linecap:round;stroke-linejoin:round"/><rect x="46.52" y="2.73" width="10.98" height="10.88" style="fill:#fff;stroke:#2196f3;stroke-linecap:round;stroke-linejoin:round"/><line x1="51.95" y1="8.23" x2="51.95" y2="2.73" style="fill:#fff;stroke:#2196f3;stroke-linecap:round;stroke-linejoin:round"/><rect x="31.89" y="2.73" width="10.98" height="10.88" style="fill:#fff;stroke:#2196f3;stroke-linecap:round;stroke-linejoin:round"/><line x1="37.32" y1="8.23" x2="37.32" y2="2.73" style="fill:#fff;stroke:#2196f3;stroke-linecap:round;stroke-linejoin:round"/><path d="M17.43,52.78a9.21,9.21,0,0,0,2.88-1.36l2.88,2.45a.59.59,0,0,0,1-.14l1.78-2a.71.71,0,0,0-.14-1.09L23.05,48.3c.14-.54.41-1.09.55-1.63h3.7a.77.77,0,0,0,.82-.68V43.27a.88.88,0,0,0-.82-.82H23.6c-.14-.54-.41-1-.55-1.49l2.74-2.31a.71.71,0,0,0,.14-1.09L24.15,35.4a.67.67,0,0,0-1,0l-2.88,2.31a10.79,10.79,0,0,0-2.88-1.22v-3.8a.77.77,0,0,0-.82-.68H14c-.55,0-.82.27-.82.68v3.8a10.79,10.79,0,0,0-2.88,1.22L7.43,35.4a.84.84,0,0,0-1.1,0L4.69,37.57a.82.82,0,0,0,0,1.09L7.57,41c-.14.54-.41,1-.55,1.49H3.32a.88.88,0,0,0-.82.82V46a.77.77,0,0,0,.82.68H7c.14.54.41,1.09.55,1.63L4.69,50.61a.82.82,0,0,0,0,1.09l1.64,2a.73.73,0,0,0,1.1.14l2.88-2.45a8,8,0,0,0,2.88,1.36v3.67a.79.79,0,0,0,.82.82h2.6a.88.88,0,0,0,.82-.82ZM15.24,41.51a3.12,3.12,0,1,0,3.15,3.12,3.06,3.06,0,0,0-3.15-3.12Z" style="fill:#e3f2fd;stroke:#2196f3;stroke-linecap:round;stroke-linejoin:round;fill-rule:evenodd"/></g></svg>