<svg id="2e1bb747-6524-449a-aacc-c17d4be62c4c" data-name="Слой 1" xmlns="http://www.w3.org/2000/svg" width="60" height="60" viewBox="0 0 60 60"><title>icon-2</title><polygon points="13.48 35.5 24.57 42.99 24.57 57.27 2.5 57.27 2.5 42.99 13.48 35.5" style="fill:#e3f2fd;stroke:#2196f3;stroke-linecap:round;stroke-linejoin:round;fill-rule:evenodd"/><rect x="8.05" y="46.38" width="10.98" height="10.88" style="fill:#fff;stroke:#2196f3;stroke-linecap:round;stroke-linejoin:round"/><path d="M2.5,30A27.5,27.5,0,1,1,30,57.27" style="fill:none;stroke:#2196f3;stroke-linecap:round;stroke-linejoin:round"/><path d="M30,57.27c3.07,0,5.55-12.17,5.55-27.27S33.07,2.73,30,2.73,24.57,15,24.57,30" style="fill:none;stroke:#2196f3;stroke-linecap:round;stroke-linejoin:round"/><path d="M13.48,30C13.48,15,20.91,2.73,30,2.73S46.52,15,46.52,30,39.09,57.27,30,57.27" style="fill:none;stroke:#2196f3;stroke-linecap:round;stroke-linejoin:round"/><path d="M5.21,18.3C9.7,22.16,19.38,24.62,30,24.62c10.39,0,19.95-2.34,24.55-6.08" style="fill:none;stroke:#2196f3;stroke-linecap:round;stroke-linejoin:round"/><path d="M30,35.5h0c10.39,0,19.95,2.34,24.55,6" style="fill:none;stroke:#2196f3;stroke-linecap:round;stroke-linejoin:round"/></svg>