<svg id="182664e2-b234-4e83-b5b0-b7fceb7c1e2a" data-name="Слой 1" xmlns="http://www.w3.org/2000/svg" width="150" height="120" viewBox="0 0 150 120"><title>service-8</title><g style="opacity:0.2"><path d="M62,77.39a4.62,4.62,0,0,1,3.66-1.86,4.69,4.69,0,0,1,4.72,4.57,1.69,1.69,0,0,1,0,.23h1.79V80.1a6.45,6.45,0,0,0-6.5-6.44,6,6,0,0,0-3.19.93.81.81,0,0,1-.47.12Z" style="fill:none;stroke:#fff;stroke-linecap:round;stroke-linejoin:round"/><path d="M66.56,59.25v3H50.49a1.5,1.5,0,0,1-.47-.08,1.52,1.52,0,0,1,.47-3Z" style="fill:none;stroke:#fff;stroke-linecap:round;stroke-linejoin:round"/><path d="M67.48,80.33A1.85,1.85,0,0,1,65.61,82a1.82,1.82,0,0,1-1.75-1.64.86.86,0,0,1,0-.23,1.81,1.81,0,0,1,1.77-1.76A1.84,1.84,0,0,1,67.5,80.1.86.86,0,0,1,67.48,80.33Z" style="fill:none;stroke:#fff;stroke-linecap:round;stroke-linejoin:round"/><path d="M66.56,62.3v4H62.89A1.86,1.86,0,0,0,61,68.15v5.62a1,1,0,0,0,1,.94v2.68a4.4,4.4,0,0,0-1,2.71,1.69,1.69,0,0,0,0,.23H50V62.22a1.5,1.5,0,0,0,.47.08Z" style="fill:none;stroke:#fff;stroke-linecap:round;stroke-linejoin:round"/><path d="M75.89,60.23v3.36a1,1,0,0,0,.94.93H89.59a1.29,1.29,0,0,0,.35,0c.67-.15.87-.77.36-1.48l-.36-.52L82.62,52a.74.74,0,0,0-.71-.47H76.83a1,1,0,0,0-.94.94Zm-9.33.66v5.39h15a6.54,6.54,0,0,1,4.6,1.87l2.5,2.56a11,11,0,0,1,1.28-1,9.88,9.88,0,0,1,3.66-1.44V66.16A5.36,5.36,0,0,0,92.54,63l-2.6-3.74-5.79-8.32a2.67,2.67,0,0,0-2.24-1.29H68.44a1.85,1.85,0,0,0-1.88,1.87v9.37Zm2.83-1.64v4.34a.92.92,0,0,0,.94.93h2.72a.93.93,0,0,0,1-.93V52.46a.93.93,0,0,0-1-.94H70.33a.93.93,0,0,0-.94.94Z" style="fill:none;stroke:#fff;stroke-linecap:round;stroke-linejoin:round;fill-rule:evenodd"/><path d="M70.32,80.33a1.69,1.69,0,0,0,0-.23,4.69,4.69,0,0,0-4.72-4.57A4.62,4.62,0,0,0,62,77.39a4.4,4.4,0,0,0-1,2.71,1.69,1.69,0,0,0,0,.23,4.66,4.66,0,0,0,9.31,0Zm-6.48-.23a.86.86,0,0,0,0,.23A1.82,1.82,0,0,0,65.61,82a1.85,1.85,0,0,0,1.87-1.64.86.86,0,0,0,0-.23,1.84,1.84,0,0,0-1.89-1.76A1.81,1.81,0,0,0,63.84,80.1Z" style="fill:none;stroke:#fff;stroke-linecap:round;stroke-linejoin:round;fill-rule:evenodd"/><path d="M62.42,44a2.52,2.52,0,1,1,0,5,2.52,2.52,0,0,1,0-5Z" style="fill:none;stroke:#fff;stroke-linecap:round;stroke-linejoin:round"/><path d="M62,74.71a.81.81,0,0,0,.47-.12,6,6,0,0,1,3.19-.93,6.45,6.45,0,0,1,6.5,6.44v.23a.67.67,0,0,0,.7.7H86.28a.78.78,0,0,1-.83-.7,5.9,5.9,0,0,1-.23-2A10.15,10.15,0,0,1,88.4,71l.26-.25-2.5-2.56a6.54,6.54,0,0,0-4.6-1.87H62.89A1.86,1.86,0,0,0,61,68.15v5.62A1,1,0,0,0,62,74.71Z" style="fill:none;stroke:#fff;stroke-linecap:round;stroke-linejoin:round"/><path d="M69.39,59.25V52.46a.93.93,0,0,1,.94-.94h2.72a.93.93,0,0,1,1,.94V63.59a.93.93,0,0,1-1,.93H70.33a.92.92,0,0,1-.94-.93V59.25Z" style="fill:none;stroke:#fff;stroke-linecap:round;stroke-linejoin:round"/><path d="M95.37,74.59a3.69,3.69,0,0,0-3.66,3.75,3.51,3.51,0,0,0,.47,1.76A3.68,3.68,0,0,0,95.37,82,3.73,3.73,0,0,0,99,79.28a3.28,3.28,0,0,0,.13-.94,3.7,3.7,0,0,0-.94-2.5A3.75,3.75,0,0,0,95.37,74.59Zm-5.43.22a6.31,6.31,0,0,0-1.06,3.53,6,6,0,0,0,.26,1.76,2,2,0,0,0,.07.23,6.57,6.57,0,0,0,12.78-2A6.21,6.21,0,0,0,101,75a2.07,2.07,0,0,0-.27-.41,5.6,5.6,0,0,0-.67-.79,6.25,6.25,0,0,0-1.89-1.28,6.71,6.71,0,0,0-2.84-.62A6.48,6.48,0,0,0,89.94,74.81Z" style="fill:none;stroke:#fff;stroke-linecap:round;stroke-linejoin:round;fill-rule:evenodd"/><path d="M89.94,50.12v9.14l-5.79-8.32a2.67,2.67,0,0,0-2.24-1.29H68.44a1.85,1.85,0,0,0-1.88,1.87v7.73H50.49a1.52,1.52,0,0,0-.47,3V80.33H35V50.12a2.84,2.84,0,0,1,1.65-2.69l24.45-12a3.65,3.65,0,0,1,2.72,0l24.45,12A2.84,2.84,0,0,1,89.94,50.12ZM65,46.61a2.54,2.54,0,1,0-5.08,0,2.54,2.54,0,0,0,5.08,0Z" style="fill:none;stroke:#fff;stroke-linecap:round;stroke-linejoin:round;fill-rule:evenodd"/><path d="M87.22,80.33h0a.58.58,0,0,1-.06.17.41.41,0,0,1,0,.09.44.44,0,0,1-.08.11.23.23,0,0,1-.07.07,1,1,0,0,1-.68.25.78.78,0,0,1-.83-.7,5.9,5.9,0,0,1-.23-2A10.15,10.15,0,0,1,88.4,71l.26-.25a11,11,0,0,1,1.28-1,9.88,9.88,0,0,1,3.66-1.44,9.48,9.48,0,0,1,1.77-.16.94.94,0,1,1,0,1.88,7.94,7.94,0,0,0-1.77.19,8.06,8.06,0,0,0-3.66,1.85v0a8.07,8.07,0,0,0-2.74,5,8.83,8.83,0,0,0-.09,1.27A8.23,8.23,0,0,0,87.22,80a.25.25,0,0,1,0,.12.15.15,0,0,1,0,.07A.78.78,0,0,1,87.22,80.33Z" style="fill:none;stroke:#fff;stroke-linecap:round;stroke-linejoin:round"/><path d="M75.89,60.23v3.36a1,1,0,0,0,.94.93H89.59a1.29,1.29,0,0,0,.35,0c.67-.15.87-.77.36-1.48l-.36-.52L82.62,52a.74.74,0,0,0-.71-.47H76.83a1,1,0,0,0-.94.94Z" style="fill:none;stroke:#fff;stroke-linecap:round;stroke-linejoin:round"/><path d="M87.23,80.33h2a2,2,0,0,1-.07-.23,6,6,0,0,1-.26-1.76,6.31,6.31,0,0,1,1.06-3.53,6.48,6.48,0,0,1,5.43-2.91V70a7.94,7.94,0,0,0-1.77.19,8.06,8.06,0,0,0-3.66,1.85,8.35,8.35,0,0,0-2.74,5,8.83,8.83,0,0,0-.09,1.27A8.23,8.23,0,0,0,87.22,80a.25.25,0,0,1,0,.12.15.15,0,0,1,0,.07S87.23,80.28,87.23,80.33Z" style="fill:none;stroke:#fff;stroke-linecap:round;stroke-linejoin:round"/><path d="M87.16,80.51a.58.58,0,0,0,.06-.17A.49.49,0,0,1,87.16,80.51Z" style="fill:none;stroke:#fff;stroke-linecap:round;stroke-linejoin:round"/><path d="M89.94,72v0a8.35,8.35,0,0,0-2.74,5A8.07,8.07,0,0,1,89.94,72Z" style="fill:none;stroke:#fff;stroke-linecap:round;stroke-linejoin:round"/><path d="M87,80.78a.88.88,0,0,1-.44.25h-.24A1,1,0,0,0,87,80.78Z" style="fill:none;stroke:#fff;stroke-linecap:round;stroke-linejoin:round"/><path d="M99,79.28A3.73,3.73,0,0,1,95.37,82a3.68,3.68,0,0,1-3.19-1.87,3.51,3.51,0,0,1-.47-1.76,3.69,3.69,0,0,1,3.66-3.75,3.75,3.75,0,0,1,2.84,1.25,3.7,3.7,0,0,1,.94,2.5A3.28,3.28,0,0,1,99,79.28Zm-3.65-2.81a1.84,1.84,0,0,0-1.77,1.87,1.81,1.81,0,0,0,1.77,1.76,1.83,1.83,0,0,0,1.89-1.76A1.85,1.85,0,0,0,95.37,76.47Z" style="fill:none;stroke:#fff;stroke-linecap:round;stroke-linejoin:round;fill-rule:evenodd"/><path d="M95.37,76.47a1.84,1.84,0,0,0-1.77,1.87,1.81,1.81,0,0,0,1.77,1.76,1.83,1.83,0,0,0,1.89-1.76A1.85,1.85,0,0,0,95.37,76.47Z" style="fill:none;stroke:#fff;stroke-linecap:round;stroke-linejoin:round"/><path d="M87.23,80.33a0,0,0,0,0,0,0h0Z" style="fill:none;stroke:#fff;stroke-linecap:round;stroke-linejoin:round"/><path d="M87,80.71a.44.44,0,0,0,.08-.11A.44.44,0,0,1,87,80.71Z" style="fill:none;stroke:#fff;stroke-linecap:round;stroke-linejoin:round"/><path d="M87.22,80.33a.78.78,0,0,0,0-.16s0,.11,0,.16Z" style="fill:none;stroke:#fff;stroke-linecap:round;stroke-linejoin:round"/><rect x="101.04" y="69.09" width="1.89" height="5.5" style="fill:none;stroke:#fff;stroke-linecap:round;stroke-linejoin:round"/><path d="M98.21,72.52V50.59h-.95a.93.93,0,0,1-.94-.94.91.91,0,0,1,.94-.82h2.84a.91.91,0,0,1,.94.82V74.59h-.27a5.6,5.6,0,0,0-.67-.79A6.25,6.25,0,0,0,98.21,72.52Z" style="fill:none;stroke:#fff;stroke-linecap:round;stroke-linejoin:round"/><path d="M101,74.59V75a2.07,2.07,0,0,0-.27-.41Z" style="fill:none;stroke:#fff;stroke-linecap:round;stroke-linejoin:round"/><path d="M102.93,69.09V82a.84.84,0,0,0,.83.94H114A.93.93,0,0,0,115,82,1,1,0,0,0,114,81H104.7V69.09a.93.93,0,0,0-.94-.94A.91.91,0,0,0,102.93,69.09Z" style="fill:none;stroke:#fff;stroke-linecap:round;stroke-linejoin:round"/></g></svg>