<svg xmlns="http://www.w3.org/2000/svg" width="60" height="60" viewBox="0 0 60 60"><title>icon-4</title><g id="a8057735-d042-435c-8edc-00a6a4ca1825" data-name="icon"><g id="0f2d0c2d-9f25-42e3-8474-181c49c37f4b" data-name="icon"><path d="M3.68,57.21H42A1.11,1.11,0,0,0,43.22,56V20.58A1.18,1.18,0,0,0,42,19.41H3.68A1.26,1.26,0,0,0,2.5,20.58V56a1.18,1.18,0,0,0,1.18,1.17Z" style="fill:#e3f2fd;stroke:#2196f3;stroke-miterlimit:10;stroke-width:0.936139889373878px;fill-rule:evenodd"/><rect x="7.46" y="24.44" width="30.92" height="27.73" style="fill:#fff;stroke:#2196f3;stroke-miterlimit:10;stroke-width:0.936139889373878px"/><line x1="22.56" y1="24.44" x2="38.38" y2="40.12" style="fill:#fff;stroke:#2196f3;stroke-miterlimit:10;stroke-width:0.936139889373878px"/><line x1="13.59" y1="24.44" x2="38.38" y2="49.02" style="fill:#fff;stroke:#2196f3;stroke-miterlimit:10;stroke-width:0.936139889373878px"/><line x1="7.46" y1="27.37" x2="32.6" y2="52.17" style="fill:#fff;stroke:#2196f3;stroke-miterlimit:10;stroke-width:0.936139889373878px"/><line x1="7.46" y1="36.26" x2="23.51" y2="52.17" style="fill:#fff;stroke:#2196f3;stroke-miterlimit:10;stroke-width:0.936139889373878px"/><path d="M23,57.21H53.49A2.34,2.34,0,0,0,55.85,55V6.3a1.18,1.18,0,0,0-1.18-1.17H21.86A1.18,1.18,0,0,0,20.68,6.3V55A2.34,2.34,0,0,0,23,57.21Z" style="fill:#fff;stroke:#2196f3;stroke-linecap:round;stroke-linejoin:round;stroke-width:0.936139889373878px;fill-rule:evenodd"/><path d="M20.56,7.47H56A1.56,1.56,0,0,0,57.5,6V4.43A1.58,1.58,0,0,0,56,2.79H20.56A1.58,1.58,0,0,0,19,4.43V6a1.56,1.56,0,0,0,1.53,1.52Z" style="fill:#e3f2fd;stroke:#2196f3;stroke-linecap:round;stroke-linejoin:round;stroke-width:0.936139889373878px;fill-rule:evenodd"/></g></g></svg>