<svg id="88518e54-c3e2-476f-b2ff-86ef7c236ab8" data-name="icon" xmlns="http://www.w3.org/2000/svg" width="60" height="60" viewBox="0 0 60 60"><title>icon-2</title><g id="2c67c2d3-c71a-4764-9217-0d1ce3d15421" data-name="icon"><path d="M3.33,57.27H56.67a.8.8,0,0,0,.83-.82V30.82a.8.8,0,0,0-.83-.82H3.33a.88.88,0,0,0-.83.82V56.45a.88.88,0,0,0,.83.82Z" style="fill:#fff;stroke:#2196f3;stroke-linecap:round;stroke-linejoin:round;fill-rule:evenodd"/><polyline points="5.33 30 30 2.73 54.78 30" style="fill:none;stroke:#2196f3;stroke-linecap:round;stroke-linejoin:round"/><line x1="13.48" y1="30" x2="13.48" y2="57.27" style="fill:#fff;stroke:#2196f3;stroke-linecap:round;stroke-linejoin:round"/><line x1="24.57" y1="30" x2="24.57" y2="57.27" style="fill:#fff;stroke:#2196f3;stroke-linecap:round;stroke-linejoin:round"/><line x1="35.55" y1="30" x2="35.55" y2="57.27" style="fill:#fff;stroke:#2196f3;stroke-linecap:round;stroke-linejoin:round"/><line x1="46.52" y1="30" x2="46.52" y2="57.27" style="fill:none;stroke:#2196f3;stroke-linecap:round;stroke-linejoin:round"/><path d="M3.09,57.27H5.33V27.89H2.5V56.8a.54.54,0,0,0,.59.47Z" style="fill:#e3f2fd;stroke:#2196f3;stroke-linecap:round;stroke-linejoin:round;fill-rule:evenodd"/><path d="M57,57.27H54.79V27.89H57.5V56.8a.51.51,0,0,1-.47.47Z" style="fill:#e3f2fd;stroke:#2196f3;stroke-linecap:round;stroke-linejoin:round;fill-rule:evenodd"/></g></svg>