<svg xmlns="http://www.w3.org/2000/svg" width="60" height="60" viewBox="0 0 60 60"><title>icon-3</title><g id="1759ce59-70f1-440e-8cfb-8f0e01dc68d4" data-name="icon"><g id="e19f4ac3-8e5c-42db-bd58-229ce3f2b811" data-name="icon"><path d="M12.53,37.72h7.55a2.11,2.11,0,0,0,2.12-2.11V10.34a2.11,2.11,0,0,0-2.12-2.11H12.53a2.21,2.21,0,0,0-2.24,2.11V35.62a2.21,2.21,0,0,0,2.24,2.11Z" style="fill:#fff;stroke:#2196f3;stroke-linecap:round;stroke-linejoin:round;stroke-width:0.936139889373878px;fill-rule:evenodd"/><path d="M9,19.12H23.51a1,1,0,0,0,1.06-.94V14.67a1.05,1.05,0,0,0-1.06-1.05H9A1,1,0,0,0,8,14.67v3.51a1,1,0,0,0,.94.94Z" style="fill:#e3f2fd;stroke:#2196f3;stroke-linecap:round;stroke-linejoin:round;stroke-width:0.936139889373878px;fill-rule:evenodd"/><polyline points="57.5 35.5 2.5 35.5 13.48 57.27" style="fill:#fff;stroke:#2196f3;stroke-linecap:round;stroke-linejoin:round;stroke-width:0.936139889373878px;fill-rule:evenodd"/><line x1="20.32" y1="2.73" x2="20.32" y2="8.23" style="fill:#fff;stroke:#2196f3;stroke-linecap:round;stroke-linejoin:round;stroke-width:0.936139889373878px"/><line x1="13.36" y1="22.74" x2="13.36" y2="24.15" style="fill:#fff;stroke:#2196f3;stroke-linecap:round;stroke-linejoin:round;stroke-width:0.936139889373878px"/><line x1="19.26" y1="22.74" x2="19.26" y2="24.15" style="fill:#fff;stroke:#2196f3;stroke-linecap:round;stroke-linejoin:round;stroke-width:0.936139889373878px"/><line x1="16.31" y1="22.74" x2="16.31" y2="24.15" style="fill:#fff;stroke:#2196f3;stroke-linecap:round;stroke-linejoin:round;stroke-width:0.936139889373878px"/><line x1="13.36" y1="26.84" x2="13.36" y2="28.24" style="fill:#fff;stroke:#2196f3;stroke-linecap:round;stroke-linejoin:round;stroke-width:0.936139889373878px"/><line x1="19.26" y1="26.84" x2="19.26" y2="28.24" style="fill:#fff;stroke:#2196f3;stroke-linecap:round;stroke-linejoin:round;stroke-width:0.936139889373878px"/><line x1="16.31" y1="26.84" x2="16.31" y2="28.24" style="fill:#fff;stroke:#2196f3;stroke-linecap:round;stroke-linejoin:round;stroke-width:0.936139889373878px"/><path d="M25.16,57.27v-6.9c0-9.48,2.36-12.4,5.43-12.4V57.27" style="fill:#e3f2fd;stroke:#2196f3;stroke-linecap:round;stroke-linejoin:round;stroke-width:0.936139889373878px;fill-rule:evenodd"/><path d="M54.67,57.27v-6.9c0-9.48-2.48-12.4-5.43-12.4V57.27" style="fill:#e3f2fd;stroke:#2196f3;stroke-linecap:round;stroke-linejoin:round;stroke-width:0.936139889373878px;fill-rule:evenodd"/><path d="M50.89,58.27V42.64a11,11,0,0,0-22,0V58.27" style="fill:#fff;stroke:#2196f3;stroke-linecap:round;stroke-linejoin:round;stroke-width:0.936139889373878px;fill-rule:evenodd"/><path d="M29.76,24.62a2.12,2.12,0,1,0,2.12-2.11,2.11,2.11,0,0,0-2.12,2.11Z" style="fill:#e3f2fd;stroke:#2196f3;stroke-linecap:round;stroke-linejoin:round;stroke-width:0.936139889373878px;fill-rule:evenodd"/><path d="M45.82,24.62a2.12,2.12,0,1,0,2.12-2.11,2.11,2.11,0,0,0-2.12,2.11Z" style="fill:#e3f2fd;stroke:#2196f3;stroke-linecap:round;stroke-linejoin:round;stroke-width:0.936139889373878px;fill-rule:evenodd"/><path d="M39.91,35.5c-6.49,0-8.26-9.13-8.26-13.69a8.26,8.26,0,0,1,16.52,0c0,4.56-1.77,13.69-8.26,13.69Z" style="fill:#fff;stroke:#2196f3;stroke-linecap:round;stroke-linejoin:round;stroke-width:0.936139889373878px;fill-rule:evenodd"/><path d="M30.83,16.07c0,3,3.42,3,6.49,3s9.44-.12,12.27-2.46c0-2.11-3.78-2.22-5.78-3.39-2.6-1.52-2.83-3.16-6.49-3.16-4.48,0-6.49,2.93-6.49,6Z" style="fill:#e3f2fd;stroke:#2196f3;stroke-linecap:round;stroke-linejoin:round;stroke-width:0.936139889373878px;fill-rule:evenodd"/><path d="M37.67,30a2.69,2.69,0,0,0,2.24,1.17A3,3,0,0,0,42.16,30" style="fill:#fff;stroke:#2196f3;stroke-linecap:round;stroke-linejoin:round;stroke-width:0.936139889373878px;fill-rule:evenodd"/><line x1="35.55" y1="21.57" x2="35.55" y2="22.98" style="fill:#fff;stroke:#2196f3;stroke-linecap:round;stroke-linejoin:round;stroke-width:0.936139889373878px"/><line x1="44.28" y1="21.57" x2="44.28" y2="22.98" style="fill:#fff;stroke:#2196f3;stroke-linecap:round;stroke-linejoin:round;stroke-width:0.936139889373878px"/></g></g></svg>