<svg xmlns="http://www.w3.org/2000/svg" width="60" height="60" viewBox="0 0 60 60"><title>icon-1</title><g id="17dc6d11-16ed-4820-a727-a354a553aab9" data-name="icon"><g id="e1ffcb82-0373-42fb-99ad-68a506dbc981" data-name="icon"><rect x="19.02" y="2.73" width="21.95" height="43.65" style="fill:#fff;stroke:#2196f3;stroke-linecap:round;stroke-linejoin:round"/><polygon points="40.98 46.38 19.02 46.38 2.5 57.27 57.5 57.27 40.98 46.38" style="fill:#e3f2fd;stroke:#2196f3;stroke-linecap:round;stroke-linejoin:round;fill-rule:evenodd"/><path d="M23.39,25.9a1.33,1.33,0,0,0,1.42-1.29,1.36,1.36,0,0,0-1.42-1.4,1.33,1.33,0,0,0-1.3,1.4,1.3,1.3,0,0,0,1.3,1.29Z" style="fill:#e3f2fd;stroke:#2196f3;stroke-linecap:round;stroke-linejoin:round;fill-rule:evenodd"/><rect x="30" y="32.69" width="19.24" height="19.07" style="fill:#fff;stroke:#2196f3;stroke-linecap:round;stroke-linejoin:round"/><rect x="33.3" y="18.42" width="14.4" height="14.28" style="fill:#fff;stroke:#2196f3;stroke-linecap:round;stroke-linejoin:round"/><rect x="38.38" y="32.69" width="2.48" height="4.8" style="fill:#e3f2fd;stroke:#2196f3;stroke-linecap:round;stroke-linejoin:round"/><rect x="39.32" y="18.42" width="2.48" height="4.8" style="fill:#e3f2fd;stroke:#2196f3;stroke-linecap:round;stroke-linejoin:round"/></g></g></svg>