<svg xmlns="http://www.w3.org/2000/svg" width="150" height="120" viewBox="0 0 150 120"><title>service-4</title><g id="d8f77780-967c-4ae1-b98a-67dd5072a163" data-name="ship"><g style="opacity:0.2"><rect x="51.41" y="43.97" width="12.4" height="2.81" style="fill:none;stroke:#fff;stroke-linecap:round;stroke-linejoin:round"/><path d="M40,75.47c-.3-.17-.56-.32-.82-.44A4.07,4.07,0,0,1,40,75.47Z" style="fill:none;stroke:#fff;stroke-linecap:round;stroke-linejoin:round"/><path d="M47.56,62.24H61.89a.94.94,0,0,1,.59.23l4.84,3.75a.68.68,0,0,0,.33.1,1.06,1.06,0,0,0,.26,0H84.09a.9.9,0,0,0,.6-.12l4.72-3.75c.24-.11.35-.23.59-.23h27.4v4.33a1.71,1.71,0,0,1-.35.82L109.13,75a2.19,2.19,0,0,0-.33-.12,1.58,1.58,0,0,0-.31-.09,4,4,0,0,0-3.49.68,4.26,4.26,0,0,1-5,0,4.49,4.49,0,0,0-5.08,0,4.26,4.26,0,0,1-5,0,4.3,4.3,0,0,0-5,0,4.46,4.46,0,0,1-5.08,0,4.3,4.3,0,0,0-5,0,4.26,4.26,0,0,1-5,0,4.49,4.49,0,0,0-5.08,0,4.26,4.26,0,0,1-5,0,4.3,4.3,0,0,0-5,0,4.46,4.46,0,0,1-5.08,0,4.3,4.3,0,0,0-5,0,4.26,4.26,0,0,1-5,0,4.07,4.07,0,0,0-.82-.44,2.86,2.86,0,0,0-.41-.15l-.42-.11-5.56-7.38a1.75,1.75,0,0,1-.23-.7V62.24h15Z" style="fill:none;stroke:#fff;stroke-linecap:round;stroke-linejoin:round"/><path d="M80.55,60.13h2a1.05,1.05,0,0,0-1.06,1.06A1,1,0,0,0,80.55,60.13Z" style="fill:none;stroke:#fff;stroke-linecap:round;stroke-linejoin:round"/><path d="M81.5,61.19V65.4a.93.93,0,0,1-1,.94h-8a.87.87,0,0,1-1-.94V61.19a1,1,0,0,1,1-1.06h8A1,1,0,0,1,81.5,61.19Z" style="fill:none;stroke:#fff;stroke-linecap:round;stroke-linejoin:round"/><path d="M47.56,62.24H61.89a.94.94,0,0,1,.59.23l4.84,3.75a.68.68,0,0,0,.33.1V38.82a1.08,1.08,0,0,0-1.06-.94H48.76a1.13,1.13,0,0,0-1.2.94V62.24Z" style="fill:none;stroke:#fff;stroke-linecap:round;stroke-linejoin:round"/><path d="M86.57,55v4.21a1,1,0,0,1-1.06.94h-8a.93.93,0,0,1-.94-.94V55a.93.93,0,0,1,.94-.94h8A1,1,0,0,1,86.57,55Z" style="fill:none;stroke:#fff;stroke-linecap:round;stroke-linejoin:round"/><path d="M39.22,75c-.14,0-.27-.11-.41-.15A2.86,2.86,0,0,1,39.22,75Z" style="fill:none;stroke:#fff;stroke-linecap:round;stroke-linejoin:round"/><path d="M87.52,60.13h-2a1,1,0,0,0,1.06-.94A.87.87,0,0,0,87.52,60.13Z" style="fill:none;stroke:#fff;stroke-linecap:round;stroke-linejoin:round"/><path d="M96,48.77V53A1.05,1.05,0,0,1,95,54h-8a1,1,0,0,1-1-1V48.77a.93.93,0,0,1,1-.93h8A1,1,0,0,1,96,48.77Z" style="fill:none;stroke:#fff;stroke-linecap:round;stroke-linejoin:round"/><path d="M82.56,66.34h-2a.93.93,0,0,0,1-.94A1,1,0,0,0,82.56,66.34Z" style="fill:none;stroke:#fff;stroke-linecap:round;stroke-linejoin:round"/><path d="M96.5,55v4.21a.93.93,0,0,1-1,.94h-8a.87.87,0,0,1-1-.94V55a.87.87,0,0,1,1-.94h8A.93.93,0,0,1,96.5,55Z" style="fill:none;stroke:#fff;stroke-linecap:round;stroke-linejoin:round"/><path d="M47.56,49.83V62.24H40.39V50.88a1.06,1.06,0,0,1,1.07-1.05Z" style="fill:none;stroke:#fff;stroke-linecap:round;stroke-linejoin:round"/><path d="M91.54,61.19v1.05H90c-.24,0-.35.12-.59.23l-4.72,3.75a.9.9,0,0,1-.6.12H82.56a1,1,0,0,1-1.06-.94V61.19a1.05,1.05,0,0,1,1.06-1.06h7.91A1.06,1.06,0,0,1,91.54,61.19Z" style="fill:none;stroke:#fff;stroke-linecap:round;stroke-linejoin:round"/><path d="M101.57,61.19v1.05h0V61.19a.44.44,0,0,1,0-.16A.86.86,0,0,1,101.57,61.19Z" style="fill:none;stroke:#fff;stroke-linecap:round;stroke-linejoin:round"/><path d="M106.5,55v4.21a.93.93,0,0,1-1,.94h-8a.87.87,0,0,1-1-.94V55a.87.87,0,0,1,1-.94h8A.93.93,0,0,1,106.5,55Z" style="fill:none;stroke:#fff;stroke-linecap:round;stroke-linejoin:round"/><path d="M105,75.47a4,4,0,0,1,3.49-.68A4.44,4.44,0,0,0,105,75.47Z" style="fill:none;stroke:#fff;stroke-linecap:round;stroke-linejoin:round"/><path d="M90.47,60.13h2a1,1,0,0,0-.94,1.06A1.06,1.06,0,0,0,90.47,60.13Z" style="fill:none;stroke:#fff;stroke-linecap:round;stroke-linejoin:round"/><path d="M108.8,74.88a1.58,1.58,0,0,0-.31-.09A1.58,1.58,0,0,1,108.8,74.88Z" style="fill:none;stroke:#fff;stroke-linecap:round;stroke-linejoin:round"/><path d="M101.56,61a.44.44,0,0,0,0,.16v1.05h-10V61.19a1,1,0,0,1,.94-1.06h8A1.06,1.06,0,0,1,101.56,61Z" style="fill:none;stroke:#fff;stroke-linecap:round;stroke-linejoin:round"/><path d="M100.51,60.13h2a1,1,0,0,0-.92.9A1.06,1.06,0,0,0,100.51,60.13Z" style="fill:none;stroke:#fff;stroke-linecap:round;stroke-linejoin:round"/><path d="M111.57,61.19v1.05h-10V61.19a.86.86,0,0,0,0-.16,1,1,0,0,1,.92-.9h8A1.05,1.05,0,0,1,111.57,61.19Z" style="fill:none;stroke:#fff;stroke-linecap:round;stroke-linejoin:round"/><path d="M115,75.47a4.46,4.46,0,0,1-5.08,0,4,4,0,0,0-.83-.47" style="fill:none;stroke:#fff;stroke-linecap:round;stroke-linejoin:round"/><path d="M38.39,74.77a4.53,4.53,0,0,0-3.43.7" style="fill:none;stroke:#fff;stroke-linecap:round;stroke-linejoin:round"/><path d="M60,79.45a4.29,4.29,0,0,0-5,0,4.11,4.11,0,0,1-5.08,0,4.29,4.29,0,0,0-5,0" style="fill:none;stroke:#fff;stroke-linecap:round;stroke-linejoin:round"/><path d="M102.52,81.33a4.47,4.47,0,0,0-5.08,0,4.29,4.29,0,0,1-5,0,4.29,4.29,0,0,0-5,0" style="fill:none;stroke:#fff;stroke-linecap:round;stroke-linejoin:round"/></g></g></svg>