<svg xmlns="http://www.w3.org/2000/svg" width="60" height="60" viewBox="0 0 60 60"><title>icon 1_1</title><g id="037d20f7-19ee-4c6d-90df-9b92446fdddd" data-name="icon"><g id="728e012a-1b06-4e63-8dfe-b4654f3cc48e" data-name="icon"><path d="M30,41.82H46.52a16.52,16.52,0,0,0-33,0Z" style="fill:#fff;stroke:#2196f3;stroke-linecap:round;stroke-linejoin:round;fill-rule:evenodd"/><path d="M30,30.94c6.14,0,11-11.23,11-17.32a11,11,0,0,0-22,0c0,6.08,5,17.32,11,17.32Z" style="fill:#fff;stroke:#2196f3;stroke-linecap:round;stroke-linejoin:round;fill-rule:evenodd"/><path d="M7.1,57.27h4.6A4.52,4.52,0,0,0,7.1,52.7a4.59,4.59,0,0,0-4.6,4.56Z" style="fill:#fff;stroke:#2196f3;stroke-linecap:round;stroke-linejoin:round;fill-rule:evenodd"/><path d="M7.1,54.22c1.77,0,3.07-3.16,3.07-4.8a3,3,0,0,0-3.07-3,3.11,3.11,0,0,0-3.07,3c0,1.64,1.42,4.8,3.07,4.8Z" style="fill:#fff;stroke:#2196f3;stroke-linecap:round;stroke-linejoin:round;fill-rule:evenodd"/><path d="M30,57.27h4.6A4.52,4.52,0,0,0,30,52.7a4.59,4.59,0,0,0-4.6,4.56Z" style="fill:#fff;stroke:#2196f3;stroke-linecap:round;stroke-linejoin:round;fill-rule:evenodd"/><path d="M30,54.22c1.77,0,3.07-3.16,3.07-4.8a3,3,0,0,0-3.07-3,3.11,3.11,0,0,0-3.07,3c0,1.64,1.42,4.8,3.07,4.8Z" style="fill:#fff;stroke:#2196f3;stroke-linecap:round;stroke-linejoin:round;fill-rule:evenodd"/><path d="M52.9,57.27h4.6a4.6,4.6,0,0,0-9.21,0Z" style="fill:#fff;stroke:#2196f3;stroke-linecap:round;stroke-linejoin:round;fill-rule:evenodd"/><path d="M52.9,54.22c1.65,0,3.07-3.16,3.07-4.8a3.07,3.07,0,0,0-6.14,0c0,1.64,1.42,4.8,3.07,4.8Z" style="fill:#fff;stroke:#2196f3;stroke-linecap:round;stroke-linejoin:round;fill-rule:evenodd"/></g></g></svg>