<svg id="35d8f6f0-e516-44fa-8add-9aff205f93a3" data-name="Слой 1" xmlns="http://www.w3.org/2000/svg" width="150" height="120" viewBox="0 0 150 120"><title>service-7</title><g style="opacity:0.2"><path d="M90.3,85.47H50.61a1.31,1.31,0,0,1-1.3-1.29v-.47l9-24.47a1.52,1.52,0,0,1,1.42-1.05H99.39c.83,0,1.3.94,1.3,1.76l-9,24.47a1.52,1.52,0,0,1-1.42,1.05Z" style="fill:none;stroke:#fff;stroke-linecap:round;stroke-linejoin:round;fill-rule:evenodd"/><path d="M93.84,50.34h-2v7.85h3.54V51.86a1.56,1.56,0,0,0-1.54-1.52Z" style="fill:none;stroke:#fff;stroke-linecap:round;stroke-linejoin:round;fill-rule:evenodd"/><path d="M52.85,44.13h-2a1.56,1.56,0,0,0-1.54,1.52V83.24h.12l3.43-9.13Z" style="fill:none;stroke:#fff;stroke-linecap:round;stroke-linejoin:round;fill-rule:evenodd"/><path d="M58.29,59.24a1.52,1.52,0,0,1,1.42-1.05H91.83V34.53H58.17V59.82Z" style="fill:none;stroke:#fff;stroke-linecap:round;stroke-linejoin:round;fill-rule:evenodd"/><polygon points="58.17 59.82 58.17 36.29 55.45 36.29 55.45 66.97 58.17 59.82" style="fill:none;stroke:#fff;stroke-linecap:round;stroke-linejoin:round;fill-rule:evenodd"/><polygon points="55.45 66.97 55.45 38.04 52.85 38.04 52.85 74.23 55.45 66.97" style="fill:none;stroke:#fff;stroke-linecap:round;stroke-linejoin:round;fill-rule:evenodd"/><line x1="63.48" y1="41.56" x2="74.11" y2="41.56" style="fill:none;stroke:#fff;stroke-linecap:round;stroke-linejoin:round"/><line x1="63.48" y1="47.65" x2="86.52" y2="47.65" style="fill:none;stroke:#fff;stroke-linecap:round;stroke-linejoin:round"/><line x1="63.48" y1="53.85" x2="81.56" y2="53.85" style="fill:none;stroke:#fff;stroke-linecap:round;stroke-linejoin:round"/></g></svg>