<svg xmlns="http://www.w3.org/2000/svg" width="60" height="60" viewBox="0 0 60 60"><title>icon-2</title><g id="fdba9bb7-fad7-42b9-a7f9-085c5d5f5fdb" data-name="icon"><g id="49556476-3460-4244-a837-04afc8c131ed" data-name="icon"><path d="M57,39.32H9.26A1.7,1.7,0,0,0,7.6,41v8.26a1.62,1.62,0,0,0,1.67,1.65H57" style="fill:#e3f2fd;stroke:#2196f3;stroke-linecap:round;stroke-miterlimit:10;fill-rule:evenodd"/><path d="M19.62,44.4a6.55,6.55,0,1,0,6.55,6.49,6.6,6.6,0,0,0-6.55-6.49Z" style="fill:#fff;stroke:#2196f3;stroke-linecap:round;stroke-miterlimit:10;fill-rule:evenodd"/><path d="M6.76,53.61h3.57a10,10,0,0,1-.48-2.71,9.74,9.74,0,0,1,9.76-9.56H30.1v-28a1.57,1.57,0,0,0-1.55-1.53H15.21A13.1,13.1,0,0,0,2,24.81V48.88a4.76,4.76,0,0,0,4.76,4.72Z" style="fill:#fff;stroke:#2196f3;stroke-linecap:round;stroke-linejoin:round;fill-rule:evenodd"/><path d="M2.71,20.68A12.06,12.06,0,0,0,2,24.81v7.91H13.31a5.31,5.31,0,0,0,5.36-5.31V22.56a1.87,1.87,0,0,0-1.9-1.89Z" style="fill:#e3f2fd;stroke:#2196f3;stroke-linecap:round;stroke-miterlimit:10;fill-rule:evenodd"/><path d="M58,2.5H37.6a3.16,3.16,0,0,0-3.1,3.19V41.33a3.14,3.14,0,0,0,3.1,3.07H58" style="fill:#fff;stroke:#2196f3;stroke-linecap:round;stroke-miterlimit:10;fill-rule:evenodd"/><path d="M19.62,48.41a2.54,2.54,0,1,0,2.62,2.48,2.53,2.53,0,0,0-2.62-2.48Z" style="fill:#e3f2fd;stroke:#2196f3;stroke-linecap:round;stroke-miterlimit:10;fill-rule:evenodd"/></g></g></svg>