<svg id="b4014a2b-02f5-4fa3-ac13-026322f6f943" data-name="icon" xmlns="http://www.w3.org/2000/svg" width="60" height="60" viewBox="0 0 60 60"><title>icon-1</title><g id="a9128e9d-082b-486a-9088-3b6ebaa4b749" data-name="icon"><path d="M21.74,29.65A11.59,11.59,0,0,0,25.4,28l3.78,3a1,1,0,0,0,1.42-.12l2.24-2.69A.92.92,0,0,0,32.71,27L28.94,23.8a5.73,5.73,0,0,0,.71-2h4.84a1,1,0,0,0,1.06-.94V17.36a1,1,0,0,0-1.06-.94H29.65a5.73,5.73,0,0,0-.71-2l3.78-3a1.07,1.07,0,0,0,.12-1.4L30.59,7.3a1,1,0,0,0-1.42-.12l-3.78,3a11.59,11.59,0,0,0-3.66-1.64V3.79a1,1,0,0,0-.94-1.05H17.25a1,1,0,0,0-.94,1.05v4.8a12.93,12.93,0,0,0-3.66,1.64l-3.78-3a.85.85,0,0,0-1.3.12L5.21,10a1.1,1.1,0,0,0,.24,1.4l3.66,3a5.73,5.73,0,0,0-.71,2H3.56a1,1,0,0,0-1.06.94v3.51a1,1,0,0,0,1.06.94H8.4a5.73,5.73,0,0,0,.71,2L5.45,27a.83.83,0,0,0-.12,1.29l2.24,2.69a.85.85,0,0,0,1.3.12l3.78-3a12.93,12.93,0,0,0,3.66,1.64v4.8a1,1,0,0,0,.94,1.05h3.54a1,1,0,0,0,.94-1.05ZM19,15.14a4,4,0,1,0,4,4,4,4,0,0,0-4-4Z" style="fill:#fff;stroke:#2196f3;stroke-linecap:round;stroke-linejoin:round;fill-rule:evenodd"/><path d="M48.29,53.4a6.06,6.06,0,0,0,2.48-1.17l2.48,2.11a.63.63,0,0,0,.94-.12l1.53-1.76a.72.72,0,0,0-.12-.94l-2.48-2a6.56,6.56,0,0,0,.47-1.4h3.19a.66.66,0,0,0,.71-.59V45.21a.76.76,0,0,0-.71-.7H53.61a5.67,5.67,0,0,0-.47-1.29l2.48-2a.72.72,0,0,0,.12-.94L54.2,38.43a.72.72,0,0,0-.94,0l-2.48,2a7.9,7.9,0,0,0-2.48-1.05V36.08a.56.56,0,0,0-.59-.59H45.34a.66.66,0,0,0-.71.59v3.28a8.56,8.56,0,0,0-2.36,1.05l-2.48-2a.72.72,0,0,0-.94,0L37.32,40.3a.62.62,0,0,0,.12.94l2.48,2a5.67,5.67,0,0,0-.47,1.29h-3.3a.66.66,0,0,0-.59.7v2.34a.56.56,0,0,0,.59.59h3.3a6.56,6.56,0,0,0,.47,1.4l-2.48,2a.62.62,0,0,0-.12.94l1.53,1.76a.62.62,0,0,0,.94.12l2.48-2.11a6.37,6.37,0,0,0,2.36,1.17v3.16a.68.68,0,0,0,.71.7H47.7c.35,0,.59-.23.59-.7Zm-1.77-9.71a2.69,2.69,0,1,0,2.71,2.69,2.66,2.66,0,0,0-2.71-2.69Z" style="fill:#e3f2fd;stroke:#2196f3;stroke-linecap:round;stroke-linejoin:round;fill-rule:evenodd"/><path d="M8,57.27c5.43-5.5,5.43-7.84,5.43-10.88A5.42,5.42,0,0,0,8,40.88a5.52,5.52,0,0,0-5.55,5.5c0,3,0,5.38,5.55,10.88ZM8,48A1.61,1.61,0,0,0,9.7,46.38,1.71,1.71,0,0,0,8,44.63a1.81,1.81,0,0,0-1.77,1.76A1.71,1.71,0,0,0,8,48Z" style="fill:#fff;stroke:#2196f3;stroke-linecap:round;stroke-linejoin:round;fill-rule:evenodd"/><path d="M8,57.27h5.43c7.2,0,11.09-5.15,11.09-10.88,0,0,0-5.5,5.43-5.5s5.55-5.38,5.55-5.38S35.55,30,41,30s5.55-5.38,5.55-5.38,0-5.5,5.43-5.5" style="fill:none;stroke:#2196f3;stroke-linecap:round;stroke-linejoin:round"/><path d="M52,19.12c5.55-5.5,5.55-7.84,5.55-10.88a5.49,5.49,0,1,0-11,0c0,3,0,5.38,5.43,10.88Zm0-9.24a1.71,1.71,0,0,0,1.77-1.64A1.81,1.81,0,0,0,52,6.48,1.71,1.71,0,0,0,50.3,8.23,1.61,1.61,0,0,0,52,9.87Z" style="fill:#fff;stroke:#2196f3;stroke-linecap:round;stroke-linejoin:round;fill-rule:evenodd"/></g></svg>