<svg xmlns="http://www.w3.org/2000/svg" width="150" height="120" viewBox="0 0 150 120"><title>service-1</title><g id="51af3df1-23f7-47f6-bf6d-9c642f5bdc49" data-name="car"><g style="opacity:0.2"><line x1="32.48" y1="72.35" x2="42.52" y2="72.35" style="fill:none;stroke:#fff;stroke-linecap:round;stroke-linejoin:round"/><line x1="47.48" y1="72.35" x2="52.56" y2="72.35" style="fill:none;stroke:#fff;stroke-linecap:round;stroke-linejoin:round"/><line x1="57.52" y1="72.35" x2="67.56" y2="72.35" style="fill:none;stroke:#fff;stroke-linecap:round;stroke-linejoin:round"/><line x1="72.52" y1="72.35" x2="77.6" y2="72.35" style="fill:none;stroke:#fff;stroke-linecap:round;stroke-linejoin:round"/><line x1="82.56" y1="72.35" x2="92.6" y2="72.35" style="fill:none;stroke:#fff;stroke-linecap:round;stroke-linejoin:round"/><line x1="97.56" y1="72.35" x2="102.52" y2="72.35" style="fill:none;stroke:#fff;stroke-linecap:round;stroke-linejoin:round"/><line x1="107.48" y1="72.35" x2="117.52" y2="72.35" style="fill:none;stroke:#fff;stroke-linecap:round;stroke-linejoin:round"/><line x1="40.04" y1="82.31" x2="110.08" y2="82.31" style="fill:none;stroke:#fff;stroke-linecap:round;stroke-linejoin:round"/><path d="M35.43,48.47A9.06,9.06,0,0,0,35.08,51v4.68h6.73A3.16,3.16,0,0,0,45,52.56V49.64a1.18,1.18,0,0,0-1.18-1.17Z" style="fill:none;stroke:#fff;stroke-miterlimit:10;fill-rule:evenodd"/><line x1="54.45" y1="59.71" x2="51.85" y2="59.71" style="fill:none;stroke:#fff;stroke-miterlimit:10"/><path d="M105.58,66.73h6.74a1,1,0,0,0,1-1V62.63" style="fill:none;stroke:#fff;stroke-miterlimit:10"/><line x1="95.55" y1="66.73" x2="97.57" y2="66.73" style="fill:none;stroke:#fff;stroke-miterlimit:10"/><line x1="50.48" y1="66.73" x2="87.66" y2="66.73" style="fill:none;stroke:#fff;stroke-miterlimit:10"/><line x1="39.8" y1="66.73" x2="42.58" y2="66.73" style="fill:none;stroke:#fff;stroke-miterlimit:10"/><path d="M91.66,62.75a3.94,3.94,0,0,0-4,3.87.41.41,0,0,0,0,.11,3.95,3.95,0,0,0,7.89,0,.41.41,0,0,0,0-.11A3.92,3.92,0,0,0,91.66,62.75Z" style="fill:none;stroke:#fff;stroke-miterlimit:10"/><path d="M101.57,62.75a4,4,0,0,0-4,3.87.41.41,0,0,0,0,.11,4,4,0,0,0,4,3.87,4,4,0,0,0,4-3.87.41.41,0,0,0,0-.11A4,4,0,0,0,101.57,62.75Z" style="fill:none;stroke:#fff;stroke-miterlimit:10"/><path d="M51.85,59.71V44.13a1,1,0,0,0-.94-.93h-8A7.85,7.85,0,0,0,35.08,51V65.45a2.86,2.86,0,0,0,2.83,2.81H40a3.47,3.47,0,0,1-.24-1.53v-.11a5.77,5.77,0,0,1,5.79-5.74h6.26Z" style="fill:none;stroke:#fff;stroke-linecap:round;stroke-linejoin:round"/><path d="M54.45,59.71v1.17a1.86,1.86,0,0,0,1.89,1.87h56.34a1.52,1.52,0,0,0,.59-.12,1.89,1.89,0,0,0,1.3-1.75V39.57a1.94,1.94,0,0,0-1.89-1.88H56.34a1.86,1.86,0,0,0-1.89,1.88Z" style="fill:none;stroke:#fff;stroke-miterlimit:10"/><path d="M50.48,66.73a.41.41,0,0,0,0-.11,4,4,0,0,0-7.92,0,.41.41,0,0,0,0,.11,4,4,0,0,0,7.9,0Z" style="fill:none;stroke:#fff;stroke-miterlimit:10"/><path d="M48.12,66.73a.41.41,0,0,0,0-.11,1.54,1.54,0,0,0-3.07,0,.41.41,0,0,0,0,.11,1.53,1.53,0,1,0,3,0Z" style="fill:none;stroke:#fff;stroke-miterlimit:10"/><path d="M93.19,66.73a.41.41,0,0,0,0-.11,1.54,1.54,0,0,0-3.07,0,.41.41,0,0,0,0,.11,1.53,1.53,0,1,0,3,0Z" style="fill:none;stroke:#fff;stroke-miterlimit:10"/><path d="M103.1,66.73a.41.41,0,0,0,0-.11,1.54,1.54,0,0,0-3.07,0,.41.41,0,0,0,0,.11,1.53,1.53,0,1,0,3,0Z" style="fill:none;stroke:#fff;stroke-miterlimit:10"/></g></g></svg>