<svg xmlns="http://www.w3.org/2000/svg" width="150" height="120" viewBox="0 0 150 120"><title>service-9</title><g id="1fcb714b-8b6e-492a-bd29-a3defc467149" data-name="cargo"><g style="opacity:0.2"><path d="M82.62,73.2v2a.63.63,0,0,1-.59.59H68a.56.56,0,0,1-.59-.59V70.25c0-.24.12-.35.36-.35H82a.54.54,0,0,1,.59.46ZM59.94,61.39a2.92,2.92,0,0,0-2,2.66v1.64H63v1.64a1.55,1.55,0,0,1-1.53,1.52H57.93V78a1.94,1.94,0,0,0,2,1.88H90A1.94,1.94,0,0,0,92,78V68.85H88.52A1.55,1.55,0,0,1,87,67.33V65.69h5V64.05a2.94,2.94,0,0,0-3-2.85H61A3.11,3.11,0,0,0,59.94,61.39Z" style="fill:none;stroke:#fff;stroke-linecap:round;stroke-linejoin:round;fill-rule:evenodd"/><path d="M59.94,60.94v.45a2.92,2.92,0,0,0-2,2.66V65H45.65V53a2.91,2.91,0,0,1,3-2.93H50v2.7H52.5V50.1h7.44v8.18l-2.83-1a1,1,0,0,0-1.3.59l-.24.47a1.17,1.17,0,0,0,.59,1.28Z" style="fill:none;stroke:#fff;stroke-linecap:round;stroke-linejoin:round"/><path d="M45.18,67.44A2.46,2.46,0,1,1,42.7,69.9,2.41,2.41,0,0,1,45.18,67.44Z" style="fill:none;stroke:#fff;stroke-linecap:round;stroke-linejoin:round"/><rect x="50.02" y="40.15" width="2.48" height="9.95" style="fill:none;stroke:#fff;stroke-linecap:round;stroke-linejoin:round"/><rect x="50.02" y="50.1" width="2.48" height="2.7" style="fill:none;stroke:#fff;stroke-linecap:round;stroke-linejoin:round"/><path d="M52.15,67.44a2.46,2.46,0,1,1,0,4.91,2.46,2.46,0,1,1,0-4.91Z" style="fill:none;stroke:#fff;stroke-linecap:round;stroke-linejoin:round"/><path d="M57.93,68.85v6h-13a5,5,0,0,1-5-4.91,4.87,4.87,0,0,1,1.46-3.47A5,5,0,0,1,44.94,65h13v3.87Zm-3.3,1.05a2.41,2.41,0,0,0-2.48-2.46,2.46,2.46,0,1,0,0,4.91A2.41,2.41,0,0,0,54.63,69.9Zm-7,0a2.48,2.48,0,1,0-2.48,2.45A2.41,2.41,0,0,0,47.66,69.9Z" style="fill:none;stroke:#fff;stroke-linecap:round;stroke-linejoin:round;fill-rule:evenodd"/><path d="M57.93,68.85h3.55A1.55,1.55,0,0,0,63,67.33V65.69H57.93Z" style="fill:none;stroke:#fff;stroke-linecap:round;stroke-linejoin:round"/><path d="M70,48.2H87a.92.92,0,0,1,.91,1V58a1.07,1.07,0,0,1-1,1.11H63A1.05,1.05,0,0,1,62.06,58V48.89c0-.42.26-.69.52-.69Zm-10,10.08v3.11A3.11,3.11,0,0,1,61,61.2H89a2.89,2.89,0,0,1,.94.15V48.08a2.26,2.26,0,0,0-2.48-2H62.66c-1.42,0-2.72,1-2.72,2.1V58.28Z" style="fill:none;stroke:#fff;stroke-linecap:round;stroke-linejoin:round;fill-rule:evenodd"/><path d="M59.94,58.28v2.66l-3.78-1.29a1.17,1.17,0,0,1-.59-1.28l.24-.47a1,1,0,0,1,1.3-.59Z" style="fill:none;stroke:#fff;stroke-linecap:round;stroke-linejoin:round"/><rect x="52.5" y="74.81" width="5.43" height="3.05" style="fill:none;stroke:#fff;stroke-linecap:round;stroke-linejoin:round"/><rect x="91.95" y="74.81" width="5.55" height="3.05" style="fill:none;stroke:#fff;stroke-linecap:round;stroke-linejoin:round"/><path d="M70,48.2h-7.4c-.26,0-.52.27-.52.69V58A1.05,1.05,0,0,0,63,59.13H86.9a1.07,1.07,0,0,0,1-1.11V49.17a.92.92,0,0,0-.91-1H70Z" style="fill:none;stroke:#fff;stroke-linecap:round;stroke-linejoin:round"/><path d="M104.94,65A5,5,0,0,1,110,69.9a4.81,4.81,0,0,1-1.48,3.46,5.09,5.09,0,0,1-3.6,1.45H92V65Zm2.36,4.92a2.48,2.48,0,0,0-2.48-2.46,2.46,2.46,0,1,0,0,4.91A2.48,2.48,0,0,0,107.3,69.9Zm-9.56,2.45a2.46,2.46,0,1,0-2.48-2.45A2.48,2.48,0,0,0,97.74,72.35Z" style="fill:none;stroke:#fff;stroke-linecap:round;stroke-linejoin:round;fill-rule:evenodd"/><path d="M94.31,58.37a.94.94,0,0,1-.59,1.28l-3.78,1.29V58.32l3-1a1.06,1.06,0,0,1,1.3.59Z" style="fill:none;stroke:#fff;stroke-linecap:round;stroke-linejoin:round"/><path d="M100.33,69.9a2.51,2.51,0,0,1-2.59,2.45,2.46,2.46,0,1,1,0-4.91A2.51,2.51,0,0,1,100.33,69.9Z" style="fill:none;stroke:#fff;stroke-linecap:round;stroke-linejoin:round"/><path d="M79.31,35.23V46.07H70v-3a.7.7,0,0,1,.35-.7L79,35.23Z" style="fill:none;stroke:#fff;stroke-linecap:round;stroke-linejoin:round"/><path d="M82.62,73.2V70.36A.54.54,0,0,0,82,69.9H67.74c-.24,0-.36.11-.36.35v4.91a.56.56,0,0,0,.59.59H82a.63.63,0,0,0,.59-.59v-2Z" style="fill:none;stroke:#fff;stroke-linecap:round;stroke-linejoin:round"/><path d="M100,36.17V50.1h-10v-2a2.26,2.26,0,0,0-2.48-2H79.31V35.23H98.8A1.07,1.07,0,0,1,100,36.17Z" style="fill:none;stroke:#fff;stroke-linecap:round;stroke-linejoin:round"/><path d="M89.94,65.69H87v1.64a1.55,1.55,0,0,0,1.53,1.52H92V65.69Z" style="fill:none;stroke:#fff;stroke-linecap:round;stroke-linejoin:round"/><path d="M104.82,67.44a2.46,2.46,0,1,1,0,4.91,2.46,2.46,0,1,1,0-4.91Z" style="fill:none;stroke:#fff;stroke-linecap:round;stroke-linejoin:round"/><path d="M65,79.85v4a1,1,0,0,1-1.06.94H61a1,1,0,0,1-1.06-.94v-4Z" style="fill:none;stroke:#fff;stroke-linecap:round;stroke-linejoin:round"/><path d="M89.94,79.85v4a.93.93,0,0,1-.94.94H85.93a1,1,0,0,1-1-.94v-4Z" style="fill:none;stroke:#fff;stroke-linecap:round;stroke-linejoin:round"/><path d="M104.94,50.1V65H92v-.93a2.88,2.88,0,0,0-2-2.7v-.41l3.78-1.29a.94.94,0,0,0,.59-1.28l-.12-.47a1.06,1.06,0,0,0-1.3-.59l-3,1V50.1h15Z" style="fill:none;stroke:#fff;stroke-linecap:round;stroke-linejoin:round"/></g></g></svg>