<svg xmlns="http://www.w3.org/2000/svg" width="60" height="60" viewBox="0 0 60 60"><title>icon-2</title><g id="c5b1046b-49c5-4fd9-a13b-606aab1cdbc1" data-name="icon"><g id="2615862a-caaf-4d17-abac-dc7c3ef78c28" data-name="icon"><path d="M8.48,46.53a27.72,27.72,0,0,0,44-.12" style="fill:none;stroke:#2196f3;stroke-linecap:round;stroke-linejoin:round"/><polyline points="11.32 46.76 8.48 46.53 8.25 49.22" style="fill:none;stroke:#2196f3;stroke-linecap:round;stroke-linejoin:round"/><path d="M31.42,43.13,17.59,38.21a21.28,21.28,0,0,0-1.89-5A20.89,20.89,0,0,0,11.44,28l5.2-8.09s2.72,2.7,7.09,0S35.2,21.33,35.2,21.33l6.62,8.09-1.66,2.23,1.42.94a2.25,2.25,0,0,1,.59,3.16h0a2.29,2.29,0,0,1-3.19.59,2.25,2.25,0,0,1,.59,3.16h0a2.28,2.28,0,0,1-3.07.59,2.24,2.24,0,0,1,.59,3h0a2.29,2.29,0,0,1-3.19.59l-2-1.29Z" style="fill:#fff;stroke:#2196f3;stroke-linecap:round;stroke-linejoin:round;fill-rule:evenodd"/><path d="M24,31.41,29.76,25l13.12,8.79,6.38-5L43,19.33s-3.31,2.93-6.15,1.52c-6-3.4-8-1.41-8-1.41h0a3.13,3.13,0,0,0-.71.59l-7.33,8.21c-2,2.23,1.3,5.27,3.19,3.16Z" style="fill:#fff;stroke:#2196f3;stroke-linecap:round;stroke-linejoin:round;fill-rule:evenodd"/><path d="M19.12,40.9,21,39a2.22,2.22,0,0,0-.12-3.16h0A2.27,2.27,0,0,0,17.7,36l-1.77,1.76a2.36,2.36,0,0,0,0,3.28h0a2.26,2.26,0,0,0,3.19-.12Z" style="fill:#fff;stroke:#2196f3;stroke-linecap:round;stroke-linejoin:round;fill-rule:evenodd"/><path d="M24,42.66l1.89-1.88a2.22,2.22,0,0,0-.12-3.16h0a2.38,2.38,0,0,0-3.19,0l-1.77,1.88a2.12,2.12,0,0,0,0,3.16h0a2.16,2.16,0,0,0,3.19,0Z" style="fill:#fff;stroke:#2196f3;stroke-linecap:round;stroke-linejoin:round;fill-rule:evenodd"/><path d="M28.82,44.07l1.77-1.76a2.25,2.25,0,0,0,0-3.28h0a2.26,2.26,0,0,0-3.19.12L25.63,40.9a2.25,2.25,0,0,0,0,3.28h0a2.26,2.26,0,0,0,3.19-.12Z" style="fill:#fff;stroke:#2196f3;stroke-linecap:round;stroke-linejoin:round;fill-rule:evenodd"/><path d="M33.55,45.82l1.89-1.88a2.22,2.22,0,0,0-.12-3.16h0a2.27,2.27,0,0,0-3.19.12l-1.77,1.76a2.36,2.36,0,0,0,0,3.28h0a2.26,2.26,0,0,0,3.19-.12Z" style="fill:#fff;stroke:#2196f3;stroke-linecap:round;stroke-linejoin:round;fill-rule:evenodd"/><path d="M17.11,18l-7-4.45c-.35-.12-.71-.12-.83.23L2.57,24.14a.61.61,0,0,0,.24.82l7,4.45a.55.55,0,0,0,.83-.12l6.74-10.43a.61.61,0,0,0-.24-.82Z" style="fill:#e3f2fd;stroke:#2196f3;stroke-linecap:round;stroke-linejoin:round;fill-rule:evenodd"/><path d="M42.89,18l7-4.45c.35-.12.71-.12.83.23l6.74,10.32a.61.61,0,0,1-.24.82l-7,4.45a.55.55,0,0,1-.83-.12L42.65,18.86a.61.61,0,0,1,.24-.82Z" style="fill:#e3f2fd;stroke:#2196f3;stroke-linecap:round;stroke-linejoin:round;fill-rule:evenodd"/><path d="M14.63,7.61a28,28,0,0,1,31.69,0" style="fill:none;stroke:#2196f3;stroke-linecap:round;stroke-linejoin:round"/><polyline points="43.72 8.31 46.32 7.61 45.61 5.15" style="fill:none;stroke:#2196f3;stroke-linecap:round;stroke-linejoin:round"/></g></g></svg>