<svg xmlns="http://www.w3.org/2000/svg" width="150" height="120" viewBox="0 0 150 120"><title>service-3</title><g id="8c7f39e2-373d-45cc-8953-1f1fc27c236d" data-name="air"><g style="opacity:0.2"><path d="M102.87,66.58v.12a3.51,3.51,0,0,0-1.16-.32A4.94,4.94,0,0,1,102.87,66.58Z" style="fill:none;stroke:#fff;stroke-linecap:round;stroke-linejoin:round"/><path d="M103.44,71.68a2,2,0,0,1-1.11,1.8,3.58,3.58,0,0,1-2.17-.06.05.05,0,0,1,0,0,2,2,0,0,1-1-1.72,2.14,2.14,0,0,1,2.25-2.06A2.1,2.1,0,0,1,103.44,71.68Z" style="fill:none;stroke:#fff;stroke-linecap:round;stroke-linejoin:round"/><path d="M102.33,73.48a2,2,0,0,1-1,.26,2.34,2.34,0,0,1-1.2-.32.05.05,0,0,1,0,0,2,2,0,0,1-1-1.72,2.14,2.14,0,0,1,2.25-2.06,2.1,2.1,0,0,1,2.08,2.06A2,2,0,0,1,102.33,73.48Zm-2.41-6.83a3.71,3.71,0,0,1,1-.27,2.68,2.68,0,0,1,.4,0,2,2,0,0,1,.35,0,3.51,3.51,0,0,1,1.16.32v-.12A5.31,5.31,0,0,1,101.36,77a5.32,5.32,0,0,1-1.44-10.45Z" style="fill:none;stroke:#fff;stroke-linecap:round;stroke-linejoin:round;fill-rule:evenodd"/><path d="M102.87,63.06v3.52a4.94,4.94,0,0,0-1.16-.2,2,2,0,0,0-.35,0,2.68,2.68,0,0,0-.4,0,4.43,4.43,0,0,0-1,.17V63.41Z" style="fill:none;stroke:#fff;stroke-linecap:round;stroke-linejoin:round"/><path d="M50.44,71.68a2.1,2.1,0,0,1-2.08,2.06,2.07,2.07,0,1,1,0-4.12A2.1,2.1,0,0,1,50.44,71.68Z" style="fill:none;stroke:#fff;stroke-linecap:round;stroke-linejoin:round"/><path d="M50.08,63.41v3.24a5.18,5.18,0,0,0-1.72-.29,5.45,5.45,0,0,0-1.23.14V63.06Z" style="fill:none;stroke:#fff;stroke-linecap:round;stroke-linejoin:round"/><path d="M88.23,52.55a1.54,1.54,0,0,1,1.42,1.52,1.52,1.52,0,0,1-1.42,1.4H79.34a7.43,7.43,0,0,0-8.68,0H61.77a1.43,1.43,0,0,1-1.42-1.4,1.46,1.46,0,0,1,1.42-1.52H73.58V43.88a1.42,1.42,0,1,1,2.84,0v8.67Z" style="fill:none;stroke:#fff;stroke-linecap:round;stroke-linejoin:round"/><path d="M71.34,59.81a1.46,1.46,0,0,0,1.42,1.52h4.48a1.54,1.54,0,0,0,1.42-1.52,1.44,1.44,0,0,0-1.42-1.41H72.76A1.36,1.36,0,0,0,71.34,59.81Zm8-4.34a7.43,7.43,0,0,0-8.68,0,7.08,7.08,0,0,0-2.82,4.34,6.94,6.94,0,0,0-.16,1.52v2.81a6.85,6.85,0,0,0,.13,1.37,7.33,7.33,0,0,0,14.38,0,6.85,6.85,0,0,0,.13-1.37V61.33a6.94,6.94,0,0,0-.16-1.52,7.06,7.06,0,0,0-2-3.65A6.75,6.75,0,0,0,79.34,55.47Z" style="fill:none;stroke:#fff;stroke-linecap:round;stroke-linejoin:round;fill-rule:evenodd"/><path d="M47.13,63.06l2.95.35,17.73,2.1a6.85,6.85,0,0,1-.13-1.37V61.33a6.94,6.94,0,0,1,.16-1.52H32.48v1.52Z" style="fill:none;stroke:#fff;stroke-linecap:round;stroke-linejoin:round"/><path d="M48.36,69.62a2.06,2.06,0,1,1,0,4.12,2.07,2.07,0,1,1,0-4.12ZM47.13,66.5A5.32,5.32,0,0,0,48.36,77a5.31,5.31,0,0,0,1.72-10.35,5.18,5.18,0,0,0-1.72-.29A5.45,5.45,0,0,0,47.13,66.5Z" style="fill:none;stroke:#fff;stroke-linecap:round;stroke-linejoin:round;fill-rule:evenodd"/><path d="M71.34,59.81a1.46,1.46,0,0,0,1.42,1.52h4.48a1.54,1.54,0,0,0,1.42-1.52,1.44,1.44,0,0,0-1.42-1.41H72.76A1.36,1.36,0,0,0,71.34,59.81Z" style="fill:none;stroke:#fff;stroke-linecap:round;stroke-linejoin:round"/><path d="M101.34,73.62a3.59,3.59,0,0,0,1-.14,2,2,0,0,1-1,.26,2.34,2.34,0,0,1-1.2-.32A3.57,3.57,0,0,0,101.34,73.62Z" style="fill:none;stroke:#fff;stroke-linecap:round;stroke-linejoin:round"/><path d="M99.92,63.41l3-.35,14.65-1.73V59.81H82.16a6.94,6.94,0,0,1,.16,1.52v2.81a6.85,6.85,0,0,1-.13,1.37Z" style="fill:none;stroke:#fff;stroke-linecap:round;stroke-linejoin:round"/><path d="M101,66.38a3.71,3.71,0,0,0-1,.27v-.1A4.43,4.43,0,0,1,101,66.38Z" style="fill:none;stroke:#fff;stroke-linecap:round;stroke-linejoin:round"/></g></g></svg>