<svg id="70c25c6d-e550-4830-ae3d-7cf7815e88c5" data-name="icon" xmlns="http://www.w3.org/2000/svg" width="60" height="60" viewBox="0 0 60 60"><title>icons-1</title><g id="9ee4db36-accd-49f2-a904-80f835663dd2" data-name="icon"><polyline points="5.15 5.2 18.81 24.23 40.72 37.78 54.62 54.12" style="fill:none;stroke:#2196f3;stroke-linecap:round;stroke-linejoin:round"/><path d="M2.32,5.2A2.83,2.83,0,0,0,5.15,7.88,2.81,2.81,0,0,0,7.86,5.2,2.83,2.83,0,0,0,5.15,2.4,2.85,2.85,0,0,0,2.32,5.2Z" style="fill:#fff;stroke:#2196f3;stroke-linecap:round;stroke-linejoin:round;fill-rule:evenodd"/><path d="M16.1,24.23a2.71,2.71,0,1,0,2.71-2.8,2.73,2.73,0,0,0-2.71,2.8Z" style="fill:#fff;stroke:#2196f3;stroke-linecap:round;stroke-linejoin:round;fill-rule:evenodd"/><path d="M38,37.78a2.65,2.65,0,0,0,2.71,2.69,2.69,2.69,0,1,0,0-5.37A2.65,2.65,0,0,0,38,37.78Z" style="fill:#fff;stroke:#2196f3;stroke-linecap:round;stroke-linejoin:round;fill-rule:evenodd"/><path d="M51.79,54.12a2.76,2.76,0,0,0,2.83,2.69,2.65,2.65,0,0,0,2.71-2.69,2.75,2.75,0,0,0-2.71-2.8,2.85,2.85,0,0,0-2.83,2.8Z" style="fill:#e3f2fd;stroke:#2196f3;stroke-linecap:round;stroke-linejoin:round;fill-rule:evenodd"/><path d="M13,16.17l-2.71-.47m2.71.47.47-2.69" style="fill:#fff;stroke:#2196f3;stroke-linecap:round;stroke-linejoin:round;fill-rule:evenodd"/><path d="M31.41,32.05l-2.59.47m2.59-.47-.47-2.69" style="fill:#fff;stroke:#2196f3;stroke-linecap:round;stroke-linejoin:round;fill-rule:evenodd"/><path d="M48.49,47l-2.71-.23m2.71.23.24-2.69" style="fill:#fff;stroke:#2196f3;stroke-linecap:round;stroke-linejoin:round;fill-rule:evenodd"/></g></svg>