<svg xmlns="http://www.w3.org/2000/svg" width="60" height="60" viewBox="0 0 60 60"><title>icons-2</title><g id="eda996da-8717-4db3-a06f-d953f0b3f283" data-name="icon"><g id="7a0f7a0d-cc9e-442b-813e-c1709fccf468" data-name="icon"><path d="M28.7,7.77,4.27,19.7A3,3,0,0,0,2.5,22.39V52.58h55V22.39a2.85,2.85,0,0,0-1.65-2.69c-8.14-4-16.41-8-24.55-11.94a2.58,2.58,0,0,0-2.6,0Z" style="fill:#fff;stroke:#2196f3;stroke-linecap:round;stroke-linejoin:round;fill-rule:evenodd"/><rect x="17.49" y="33.16" width="25.02" height="19.42" style="fill:#fff;stroke:#2196f3;stroke-linecap:round;stroke-linejoin:round"/><path d="M18.08,31.52H42A1.56,1.56,0,0,1,43.57,33h0A1.56,1.56,0,0,1,42,34.56h-24A1.48,1.48,0,0,1,16.55,33h0a1.48,1.48,0,0,1,1.53-1.52Z" style="fill:#e3f2fd;stroke:#2196f3;stroke-linecap:round;stroke-linejoin:round;fill-rule:evenodd"/><path d="M32.48,18.77a2.48,2.48,0,0,0-5,0,2.48,2.48,0,1,0,5,0Z" style="fill:#e3f2fd;stroke:#2196f3;stroke-linecap:round;stroke-linejoin:round;fill-rule:evenodd"/><line x1="17.49" y1="37.26" x2="42.51" y2="37.26" style="fill:#fff;stroke:#2196f3;stroke-linecap:round;stroke-linejoin:round"/><line x1="17.49" y1="49.19" x2="42.51" y2="49.19" style="fill:#fff;stroke:#2196f3;stroke-linecap:round;stroke-linejoin:round"/><line x1="17.49" y1="41.82" x2="42.51" y2="41.82" style="fill:#fff;stroke:#2196f3;stroke-linecap:round;stroke-linejoin:round"/><line x1="17.49" y1="45.56" x2="41.8" y2="45.56" style="fill:#fff;stroke:#2196f3;stroke-linecap:round;stroke-linejoin:round"/></g></g></svg>