<svg xmlns="http://www.w3.org/2000/svg" width="60" height="60" viewBox="0 0 60 60"><title>icons-3</title><g id="6b2fcb49-f768-4d40-adc4-db0640209204" data-name="icon"><g id="bb89226b-0f1a-4e51-a0d8-1d17788010a7" data-name="icon"><path d="M3.56,55.74H16.31a3.69,3.69,0,0,0,3.78-3.63V25.2a1,1,0,0,0-.94-.94H3.56a1,1,0,0,0-1.06.94V54.81a1,1,0,0,0,1.06.94Z" style="fill:#e3f2fd;stroke:#2196f3;stroke-linecap:round;stroke-linejoin:round;stroke-width:1.05315734478875px;fill-rule:evenodd"/><path d="M2.74,51.77h7.55a1.05,1.05,0,0,0,1.06-1.05V48.61a1,1,0,0,0-1.06-.94H2.74Z" style="fill:#fff;stroke:#2196f3;stroke-linecap:round;stroke-linejoin:round;stroke-width:1.05315734478875px;fill-rule:evenodd"/><path d="M54,51.88h0a4,4,0,0,0-4-4h1.77a3.94,3.94,0,0,0,3.89-4h0a3.91,3.91,0,0,0-3.89-3.86h1.77a4,4,0,0,0,4-4h0a4,4,0,0,0-4-4h0a3.94,3.94,0,0,0,4-3.86h0a4,4,0,0,0-4-4H43.22a38.91,38.91,0,0,0,1.89-13c0-3.86-2.6-7-5.78-7s-5.9,3.16-5.9,7c0,8.89-7.32,12.29-13.34,17V52.58a27.26,27.26,0,0,0,12,3.16H49.95a3.94,3.94,0,0,0,4-3.86Z" style="fill:#fff;stroke:#2196f3;stroke-linecap:round;stroke-linejoin:round;stroke-width:1.05315734478875px;fill-rule:evenodd"/><line x1="43.22" y1="24.27" x2="33.3" y2="24.27" style="fill:#fff;stroke:#2196f3;stroke-linecap:round;stroke-linejoin:round;stroke-width:1.05315734478875px"/></g></g></svg>