<svg xmlns="http://www.w3.org/2000/svg" width="60" height="60" viewBox="0 0 60 60"><title>icons-4</title><g id="98847306-29e0-4d9c-ab1f-7f4461c379df" data-name="icon"><g id="7d68f419-8f86-494e-975e-e193971921b0" data-name="icon"><path d="M30,57.27A14.1,14.1,0,1,0,15.84,43.11,14.19,14.19,0,0,0,30,57.27Z" style="fill:#e3f2fd;stroke:#2196f3;stroke-linecap:round;stroke-linejoin:round;fill-rule:evenodd"/><path d="M26.81,29.41a14.24,14.24,0,0,0-11,12.4,10.45,10.45,0,0,1,1.77.59A23.92,23.92,0,0,0,21.15,44a6,6,0,0,0,3.78,0,6.11,6.11,0,0,0,2.24-2.34c.47-.82.71-1.4,1.3-1.76s1.53-.59,2.24-1.52a5.75,5.75,0,0,0,.94-3.86,5.72,5.72,0,0,0-2-3.39,14.23,14.23,0,0,0-2.83-1.76Z" style="fill:#fff;stroke:#2196f3;stroke-linecap:round;stroke-linejoin:round;fill-rule:evenodd"/><path d="M29.88,35.73c11-11,11-15.91,11-22a11,11,0,0,0-22.07,0c0,6.08,0,11,11.09,22Zm0-18.61a3.4,3.4,0,1,0-3.54-3.39,3.41,3.41,0,0,0,3.54,3.39Z" style="fill:#fff;stroke:#2196f3;stroke-linecap:round;stroke-linejoin:round;fill-rule:evenodd"/><path d="M32,45.21a11.06,11.06,0,0,0-.71,2.11,1.26,1.26,0,0,0,.59,1.4,2,2,0,0,0,1.65.23c.59-.12,1.18-.47,1.89-.59s1.65-.12,2.71-.35A7.81,7.81,0,0,0,41,46.73,1.42,1.42,0,0,0,41.68,45c-.24-.59-1.18-1.17-1.77-2a17.94,17.94,0,0,1-1.65-2.46A4.91,4.91,0,0,0,36.49,39c-.59-.12-.94.47-1.3,1.17s-.94,1.64-1.42,2.34-1.06.94-1.3,1.29a9.7,9.7,0,0,0-.47,1.4Z" style="fill:#fff;stroke:#2196f3;stroke-linecap:round;stroke-linejoin:round;fill-rule:evenodd"/><polyline points="6.51 26.25 2.5 30.12 6.51 33.98" style="fill:none;stroke:#2196f3;stroke-linecap:round;stroke-linejoin:round"/><line x1="2.5" y1="30.12" x2="11.71" y2="30.12" style="fill:#fff;stroke:#2196f3;stroke-linecap:round;stroke-linejoin:round"/><polyline points="53.6 26.25 57.5 30.12 53.6 33.98" style="fill:none;stroke:#2196f3;stroke-linecap:round;stroke-linejoin:round"/><line x1="57.5" y1="30.12" x2="48.41" y2="30.12" style="fill:#fff;stroke:#2196f3;stroke-linecap:round;stroke-linejoin:round"/></g></g></svg>