<svg xmlns="http://www.w3.org/2000/svg" width="150" height="120" viewBox="0 0 150 120"><title>service-6</title><g id="7e744830-f6c1-4d06-b092-b879b4b5f1f9" data-name="cargo"><g style="opacity:0.2"><path d="M77.8,38.09H96.62A1.06,1.06,0,0,0,97.69,37v-.47a1,1,0,0,0-1.07-.94H77.8a.94.94,0,0,0-1,.94V37a1,1,0,0,0,1,1.06Z" style="fill:none;stroke:#fff;stroke-linecap:round;stroke-linejoin:round;fill-rule:evenodd"/><line x1="59.45" y1="50.61" x2="59.45" y2="55.57" style="fill:none;stroke:#fff;stroke-linecap:round;stroke-linejoin:round"/><line x1="74.58" y1="50.61" x2="99.84" y2="50.61" style="fill:none;stroke:#fff;stroke-linecap:round;stroke-linejoin:round"/><path d="M99.84,42.11V63H74.58V42.11a4.08,4.08,0,0,1,4-4H95.79A4,4,0,0,1,99.84,42.11Z" style="fill:none;stroke:#fff;stroke-linecap:round;stroke-linejoin:round"/><path d="M72.08,51.56v23a.93.93,0,0,1-1,.94H47.9a.87.87,0,0,1-.95-.94v-23a.87.87,0,0,1,.95-1H71.13A.94.94,0,0,1,72.08,51.56Z" style="fill:none;stroke:#fff;stroke-linecap:round;stroke-linejoin:round"/><path d="M104.84,80.61v2.24a1.49,1.49,0,0,1-1.55,1.54H96.38a1.5,1.5,0,0,1-1.55-1.54V80.61Z" style="fill:none;stroke:#fff;stroke-linecap:round;stroke-linejoin:round"/><path d="M54.45,80.61v2.24a1.57,1.57,0,0,1-1.55,1.54h-7a1.58,1.58,0,0,1-1.55-1.54V80.61Z" style="fill:none;stroke:#fff;stroke-linecap:round;stroke-linejoin:round"/><path d="M99.84,63v8.51a4,4,0,0,1-4,4H78.63a4.08,4.08,0,0,1-4-4V63Z" style="fill:none;stroke:#fff;stroke-linecap:round;stroke-linejoin:round"/><path d="M44.32,80.61H114a1,1,0,0,0,1-1.06v-3a1,1,0,0,0-1-1.06H36.1A1.06,1.06,0,0,0,35,76.59v3a1.06,1.06,0,0,0,1.07,1.06Z" style="fill:none;stroke:#fff;stroke-linecap:round;stroke-linejoin:round"/></g></g></svg>