<svg xmlns="http://www.w3.org/2000/svg" width="60" height="60" viewBox="0 0 60 60"><title>icon-3</title><g id="6fa6e63b-6380-412f-b4cd-78709d59b5a9" data-name="icon"><g id="23c84152-ac11-4590-b6c3-679d099e9caa" data-name="icon"><polygon points="30.24 15.84 33.9 27.19 45.93 27.19 36.26 34.1 39.91 45.45 30.24 38.42 20.56 45.45 24.34 34.1 14.54 27.19 26.58 27.19 30.24 15.84" style="fill:#fff;stroke:#2196f3;stroke-linecap:round;stroke-linejoin:round;fill-rule:evenodd"/><line x1="30" y1="2.73" x2="30" y2="8.23" style="fill:#fff;stroke:#2196f3;stroke-linecap:round;stroke-linejoin:round"/><line x1="51.95" y1="30" x2="57.5" y2="30" style="fill:#fff;stroke:#2196f3;stroke-linecap:round;stroke-linejoin:round"/><line x1="2.5" y1="30" x2="8.05" y2="30" style="fill:#fff;stroke:#2196f3;stroke-linecap:round;stroke-linejoin:round"/><line x1="30" y1="57.27" x2="30" y2="51.77" style="fill:#fff;stroke:#2196f3;stroke-linecap:round;stroke-linejoin:round"/><path d="M30,2.73l-1.89,2m1.89-2,2,2" style="fill:#fff;stroke:#2196f3;stroke-linecap:round;stroke-linejoin:round;fill-rule:evenodd"/><path d="M2.5,30l2,2m-2-2,2-1.87" style="fill:#fff;stroke:#2196f3;stroke-linecap:round;stroke-linejoin:round;fill-rule:evenodd"/><path d="M57.5,30l-1.89,2m1.89-2-1.89-1.87" style="fill:#fff;stroke:#2196f3;stroke-linecap:round;stroke-linejoin:round;fill-rule:evenodd"/><path d="M30,57.27l-1.89-1.87M30,57.27l2-1.87" style="fill:#fff;stroke:#2196f3;stroke-linecap:round;stroke-linejoin:round;fill-rule:evenodd"/></g></g></svg>