<svg xmlns="http://www.w3.org/2000/svg" width="60" height="60" viewBox="0 0 60 60"><title>icon-4</title><g id="ce20820a-3f04-4c0a-af74-073a97765361" data-name="icon"><g id="d92e714a-b012-4f6b-aa05-7930f71a0872" data-name="icon"><path d="M13.1,57.5H46.9A1,1,0,0,0,48,56.56V9A1,1,0,0,0,46.9,8H13.1A1,1,0,0,0,12,9V56.56a1,1,0,0,0,1.07.94Z" style="fill:#fff;stroke:#2196f3;stroke-linecap:round;stroke-linejoin:round;fill-rule:evenodd"/><path d="M30,13.48A5.36,5.36,0,0,0,35.48,8,5.46,5.46,0,0,0,30,2.5,5.56,5.56,0,0,0,24.4,8,5.47,5.47,0,0,0,30,13.48Zm0-2A3.42,3.42,0,1,0,26.55,8,3.44,3.44,0,0,0,30,11.47Z" style="fill:#e3f2fd;stroke:#2196f3;stroke-linecap:round;stroke-linejoin:round;fill-rule:evenodd"/><rect x="15.12" y="10.64" width="29.76" height="42.96" style="fill:#fff;stroke:#2196f3;stroke-linecap:round;stroke-linejoin:round"/><path d="M19.64,12.41H40.24a.81.81,0,0,0,.83-.83V8.87A.81.81,0,0,0,40.24,8H19.64a.79.79,0,0,0-.71.83v2.71a.79.79,0,0,0,.71.83Z" style="fill:#e3f2fd;stroke:#2196f3;stroke-linecap:round;stroke-linejoin:round;fill-rule:evenodd"/><line x1="22.26" y1="24.57" x2="42.26" y2="24.57" style="fill:#e3f2fd;stroke:#2196f3;stroke-linecap:round;stroke-linejoin:round"/><path d="M18.93,25.63A1.06,1.06,0,0,0,20,24.57a1.09,1.09,0,0,0-1.07-1.18,1.19,1.19,0,0,0-1.19,1.18,1.17,1.17,0,0,0,1.19,1.06Z" style="fill:#e3f2fd;stroke:#2196f3;stroke-linecap:round;stroke-linejoin:round;fill-rule:evenodd"/><line x1="22.26" y1="18.67" x2="42.26" y2="18.67" style="fill:#e3f2fd;stroke:#2196f3;stroke-linecap:round;stroke-linejoin:round"/><path d="M18.93,19.85A1.17,1.17,0,0,0,20,18.67a1.06,1.06,0,0,0-1.07-1.06,1.17,1.17,0,0,0-1.19,1.06,1.27,1.27,0,0,0,1.19,1.18Z" style="fill:#e3f2fd;stroke:#2196f3;stroke-linecap:round;stroke-linejoin:round;fill-rule:evenodd"/><line x1="22.26" y1="30" x2="32.26" y2="30" style="fill:#e3f2fd;stroke:#2196f3;stroke-linecap:round;stroke-linejoin:round"/><path d="M18.93,31.18A1.17,1.17,0,0,0,20,30a1.06,1.06,0,0,0-1.07-1.06A1.17,1.17,0,0,0,17.74,30a1.27,1.27,0,0,0,1.19,1.18Z" style="fill:#e3f2fd;stroke:#2196f3;stroke-linecap:round;stroke-linejoin:round;fill-rule:evenodd"/></g></g></svg>