<svg xmlns="http://www.w3.org/2000/svg" width="150" height="120" viewBox="0 0 150 120"><title>service-5</title><g id="2af6c62a-c1b2-458e-968e-0e090c762d70" data-name="multimodal"><g style="opacity:0.2"><path d="M52,72.08a4.32,4.32,0,0,0-5,0,4,4,0,0,1-5,0,4.51,4.51,0,0,0-5.12,0" style="fill:none;stroke:#fff;stroke-linecap:round;stroke-linejoin:round"/><path d="M50,81.53a4.32,4.32,0,0,0-5,0,4,4,0,0,1-5,0,4.51,4.51,0,0,0-5.12,0" style="fill:none;stroke:#fff;stroke-linecap:round;stroke-linejoin:round"/><path d="M63.09,76.8a4.32,4.32,0,0,0-5,0,4.32,4.32,0,0,1-5,0,4.51,4.51,0,0,0-5.12,0" style="fill:none;stroke:#fff;stroke-linecap:round;stroke-linejoin:round"/><polygon points="50.34 45.62 50.34 51.88 47.72 51.88 40.21 51.88 40.21 45.62 42.72 45.62 50.34 45.62" style="fill:none;stroke:#fff;stroke-linecap:round;stroke-linejoin:round"/><path d="M86.84,62.27c0,.12,0,.24,0,.36a4.31,4.31,0,0,1-.12.79V62.27Z" style="fill:none;stroke:#fff;stroke-linecap:round;stroke-linejoin:round"/><path d="M50.34,51.88h3.31a18.73,18.73,0,0,0-.8,5.16L50.72,55.4a2.71,2.71,0,0,0-1.66-.57H47.72V51.88Z" style="fill:none;stroke:#fff;stroke-linecap:round;stroke-linejoin:round"/><path d="M52.84,45.62h3.93a8.17,8.17,0,0,0-.49.71c-.14.2-.28.4-.4.61a19.34,19.34,0,0,0-2.23,4.94H50.34V45.62Z" style="fill:none;stroke:#fff;stroke-linecap:round;stroke-linejoin:round"/><path d="M71.78,37.59h1.08c-.36,0-.72,0-1.07,0Z" style="fill:none;stroke:#fff;stroke-linecap:round;stroke-linejoin:round"/><path d="M56.79,45.62l-.51.71a8.17,8.17,0,0,1,.49-.71Z" style="fill:none;stroke:#fff;stroke-linecap:round;stroke-linejoin:round"/><path d="M81.76,39.65A19.9,19.9,0,0,1,87,43.4c-.13.93-.6,1.87-1.55,1.87a18.49,18.49,0,0,0-2.5-.59c-1.07.11-1.9,1.18-3,.82a3.5,3.5,0,0,1-1.31-.94,3.72,3.72,0,0,1-.35-1.07c0-.23.23-.35.35-.59C79.4,42,81,40.7,81.76,39.65Z" style="fill:none;stroke:#fff;stroke-linecap:round;stroke-linejoin:round"/><path d="M87,43.38v0a19.9,19.9,0,0,0-5.27-3.75l0,0A18.92,18.92,0,0,1,87,43.38Z" style="fill:none;stroke:#fff;stroke-linecap:round;stroke-linejoin:round"/><path d="M89.28,68.73a20.41,20.41,0,0,0,1.33-2.2h0a20.77,20.77,0,0,0,1.16-2.69c.09-.25.17-.5.25-.76s.16-.54.23-.81c.14-.55.25-1.1.35-1.66,0-.17,0-.35.08-.53s0-.2,0-.3,0-.35,0-.52a1.1,1.1,0,0,0,0-.18c0-.55.07-1.1.07-1.65s0-1-.07-1.57a20.29,20.29,0,0,0-.88-4.45c-.36,1.18-1.31.82-2.74.94-1.67.12-2.74-.71-4.41-1.06a3.48,3.48,0,0,0-3.46,2c-.47.82-1.31,2.83-.59,3.78A5.64,5.64,0,0,0,82,58.14a10.73,10.73,0,0,0,2,1.06c.84.36,1.91.59,2.39,1.3a1.54,1.54,0,0,1,.23.39,2.82,2.82,0,0,1,.17,1.38c0,.12,0,.24,0,.36a4.31,4.31,0,0,1-.12.79c-.41,1.71-1.58,3.34-.23,4.88a3,3,0,0,0,2.38,1.06Z" style="fill:none;stroke:#fff;stroke-linecap:round;stroke-linejoin:round"/><path d="M90.61,66.53h0a17.7,17.7,0,0,1-1.34,2.2A20.41,20.41,0,0,0,90.61,66.53Z" style="fill:none;stroke:#fff;stroke-linecap:round;stroke-linejoin:round"/><path d="M86.67,60.89a2.82,2.82,0,0,1,.17,1.38h-.17Z" style="fill:none;stroke:#fff;stroke-linecap:round;stroke-linejoin:round"/><path d="M91.78,63.84a17.32,17.32,0,0,1-1.16,2.69A20.77,20.77,0,0,0,91.78,63.84Z" style="fill:none;stroke:#fff;stroke-linecap:round;stroke-linejoin:round"/><polygon points="52.84 39.36 52.84 45.62 50.34 45.62 42.72 45.62 42.72 39.36 52.84 39.36" style="fill:none;stroke:#fff;stroke-linecap:round;stroke-linejoin:round"/><path d="M52.85,57c0,.13,0,.26,0,.39s0,.48,0,.71a19.27,19.27,0,0,0,2.26,8.42,20.05,20.05,0,0,0,33.7,2.8,3,3,0,0,1-2.38-1.06c-1.35-1.54-.18-3.17.23-4.88V60.89a1.54,1.54,0,0,0-.23-.39c-.48-.71-1.55-.94-2.39-1.3a10.73,10.73,0,0,1-2-1.06,5.64,5.64,0,0,1-1.31-1.06c-.72-.95.12-3,.59-3.78a3.48,3.48,0,0,1,3.46-2c1.67.35,2.74,1.18,4.41,1.06,1.43-.12,2.38.24,2.74-.94a20.29,20.29,0,0,1,.88,4.45A19.64,19.64,0,0,0,87,43.4c-.13.93-.6,1.87-1.55,1.87a18.49,18.49,0,0,0-2.5-.59c-1.07.11-1.9,1.18-3,.82a3.5,3.5,0,0,1-1.31-.94,3.72,3.72,0,0,1-.35-1.07c0-.23.23-.35.35-.59.71-.93,2.34-2.2,3.07-3.25q-.32-.16-.63-.3A19.79,19.79,0,0,0,76.79,38a3.91,3.91,0,0,1-.14,1.38A4.7,4.7,0,0,1,76,41a1.36,1.36,0,0,1-.24.24,1.79,1.79,0,0,1-1.9.35,2.51,2.51,0,0,1-1.19-1.89,11.11,11.11,0,0,0-.83-2.09,20,20,0,0,0-3.82.57,23.15,23.15,0,0,0,1.43,4,6.24,6.24,0,0,1,.6,3c-.24,2.6-2.27,1.3-3.58,2.24a6.5,6.5,0,0,1-1.55,1,4.67,4.67,0,0,1-1.78-.12c-.84,0-3,.59-2.62,1.77a1.16,1.16,0,0,0,.47.59,8.09,8.09,0,0,0,2,1.3,7.74,7.74,0,0,0,1.9.59c1.18.2,2.28.15,3.1.93a2.82,2.82,0,0,1,.48.61c.24.47.36,1.06.71,1.65a1.59,1.59,0,0,0,1.31.94c.6-.11,1.08-.7,1.67-.94a2.86,2.86,0,0,1,2.38.47,4.92,4.92,0,0,1,1.19,1.26,2.38,2.38,0,0,1,.24.51,2.14,2.14,0,0,1-.24,1.89,1.31,1.31,0,0,1-.23.24c-.84.71-1.67,1.42-2.62,2.13a4.19,4.19,0,0,0-1.43,2.12c0,.83.59,1.77,0,2.36-.36.36-1,.36-1.31.59-.84.48-1,1.54-1.08,2.48s-.47,2.13-1.43,2.13c-.71.12-1.31-.59-1.54-1.42a14.5,14.5,0,0,0-.36-2.24,7.8,7.8,0,0,0-1-1.6A5.38,5.38,0,0,1,63.8,65c-.24-.94.24-2-.12-2.95-.24-1.3-1.66-2-2.26-3.07a2.46,2.46,0,0,1-.25-.83,13.82,13.82,0,0,0-.11-2.6,2.47,2.47,0,0,0-.71-.83,21.89,21.89,0,0,1-2.5-2c-.25-.22-.49-.45-.72-.68l-.1-.12a5.73,5.73,0,0,1-1.33-2c-.24-.94,0-.59-.71-1.3.27-.56.57-1.1.89-1.63a19.34,19.34,0,0,0-2.23,4.94A18.73,18.73,0,0,0,52.85,57Z" style="fill:none;stroke:#fff;stroke-linecap:round;stroke-linejoin:round"/><path d="M37.71,54.83H49.06a2.71,2.71,0,0,1,1.66.57L52.85,57c0,.13,0,.26,0,.39s0,.48,0,.71a19.27,19.27,0,0,0,2.26,8.42,4.08,4.08,0,0,0-2.52.79,4.48,4.48,0,0,1-5.12,0,4.33,4.33,0,0,0-5,0,3.26,3.26,0,0,1-.4.24,2.73,2.73,0,0,1-3.49-1.23l-5.4-10.11a.7.7,0,0,1,0-.94.88.88,0,0,1,.83-.48Z" style="fill:none;stroke:#fff;stroke-linecap:round;stroke-linejoin:round"/><polygon points="47.72 51.88 47.72 54.83 37.71 54.83 37.71 51.88 40.21 51.88 47.72 51.88" style="fill:none;stroke:#fff;stroke-linecap:round;stroke-linejoin:round"/><path d="M56.28,46.33c-.14.2-.27.4-.4.61C56,46.73,56.14,46.53,56.28,46.33Z" style="fill:none;stroke:#fff;stroke-linecap:round;stroke-linejoin:round"/><path d="M57,51.88l.1.12c.23.23.47.46.72.68a21.89,21.89,0,0,0,2.5,2,2.47,2.47,0,0,1,.71.83,13.82,13.82,0,0,1,.11,2.6,2.46,2.46,0,0,0,.25.83c.6,1.06,2,1.77,2.26,3.07.36.94-.12,2,.12,2.95a5.38,5.38,0,0,0,.91,1.59,7.8,7.8,0,0,1,1,1.6,14.5,14.5,0,0,1,.36,2.24c.23.83.83,1.54,1.54,1.42,1,0,1.43-1.18,1.43-2.13s.24-2,1.08-2.48c.35-.23.95-.23,1.31-.59.59-.59,0-1.53,0-2.36a4.19,4.19,0,0,1,1.43-2.12c1-.71,1.78-1.42,2.62-2.13a1.31,1.31,0,0,0,.23-.24A2.14,2.14,0,0,0,76,57.9a2.38,2.38,0,0,0-.24-.51,4.92,4.92,0,0,0-1.19-1.26,2.86,2.86,0,0,0-2.38-.47c-.59.24-1.07.83-1.67.94a1.59,1.59,0,0,1-1.31-.94c-.35-.59-.47-1.18-.71-1.65A2.82,2.82,0,0,0,68,53.4c-.82-.78-1.92-.73-3.1-.93a7.74,7.74,0,0,1-1.9-.59,8.09,8.09,0,0,1-2-1.3,1.16,1.16,0,0,1-.47-.59c-.36-1.18,1.78-1.77,2.62-1.77a4.67,4.67,0,0,0,1.78.12,6.5,6.5,0,0,0,1.55-1c1.31-.94,3.34.36,3.58-2.24a6.24,6.24,0,0,0-.6-3,23.15,23.15,0,0,1-1.43-4,20.23,20.23,0,0,0-11.18,7.43l-.51.71c-.14.2-.27.4-.4.61-.32.53-.62,1.07-.89,1.63.71.71.47.36.71,1.3A5.73,5.73,0,0,0,57,51.88Z" style="fill:none;stroke:#fff;stroke-linecap:round;stroke-linejoin:round"/><path d="M68,38.18h0a20.23,20.23,0,0,0-11.18,7.43h0A19.67,19.67,0,0,1,68,38.18Z" style="fill:none;stroke:#fff;stroke-linecap:round;stroke-linejoin:round"/><path d="M74.82,37.68c-.64-.06-1.3-.09-2-.09C73.52,37.59,74.17,37.62,74.82,37.68Z" style="fill:none;stroke:#fff;stroke-linecap:round;stroke-linejoin:round"/><path d="M76.79,37.94v0c-.62-.12-1.24-.21-1.88-.28C75.54,37.75,76.16,37.83,76.79,37.94Z" style="fill:none;stroke:#fff;stroke-linecap:round;stroke-linejoin:round"/><path d="M76.65,39.35A4.7,4.7,0,0,1,76,41a1.36,1.36,0,0,1-.24.24,1.79,1.79,0,0,1-1.9.35,2.51,2.51,0,0,1-1.19-1.89,11.11,11.11,0,0,0-.83-2.09c.35,0,.71,0,1.07,0,.66,0,1.32,0,2,.09h.09c.64.07,1.26.16,1.88.28A3.91,3.91,0,0,1,76.65,39.35Z" style="fill:none;stroke:#fff;stroke-linecap:round;stroke-linejoin:round"/><path d="M91.78,63.84c.09-.25.17-.5.25-.76A6.75,6.75,0,0,1,91.78,63.84Z" style="fill:none;stroke:#fff;stroke-linecap:round;stroke-linejoin:round"/><path d="M105.45,66.53a1.62,1.62,0,0,1-1.67,1.65,1.66,1.66,0,1,1,0-3.31A1.62,1.62,0,0,1,105.45,66.53Z" style="fill:none;stroke:#fff;stroke-linecap:round;stroke-linejoin:round"/><path d="M116.09,49.27l0-.37Z" style="fill:none;stroke:#fff;stroke-linecap:round;stroke-linejoin:round"/><path d="M92.61,60.61c0-.17,0-.35.08-.53C92.67,60.26,92.64,60.43,92.61,60.61Z" style="fill:none;stroke:#fff;stroke-linecap:round;stroke-linejoin:round"/><path d="M92.73,59.78c0-.17,0-.35,0-.52C92.77,59.44,92.75,59.61,92.73,59.78Z" style="fill:none;stroke:#fff;stroke-linecap:round;stroke-linejoin:round"/><path d="M102.11,66.53a1.7,1.7,0,0,1,1.67-1.66,1.66,1.66,0,1,1,0,3.31A1.7,1.7,0,0,1,102.11,66.53Zm6,0a4.23,4.23,0,1,1-4.29-4.26A4.23,4.23,0,0,1,108.07,66.53Z" style="fill:none;stroke:#fff;stroke-linecap:round;stroke-linejoin:round;fill-rule:evenodd"/><path d="M116.1,49.75v5.08h-8.34a3.43,3.43,0,0,1-3.45-3.42V48.22A1.3,1.3,0,0,1,105.62,47h10c0,.1.09.21.12.31a0,0,0,0,1,0,0,8.53,8.53,0,0,1,.31,1.52l0,.37C116.1,49.43,116.1,49.59,116.1,49.75Z" style="fill:none;stroke:#fff;stroke-linecap:round;stroke-linejoin:round"/><path d="M111,66.53h-2.91a4.23,4.23,0,1,0-8.46,0h-9a17.32,17.32,0,0,0,1.16-2.69,6.75,6.75,0,0,0,.25-.76c.08-.27.16-.54.23-.81h1.56a1.37,1.37,0,0,0,1.43-1.41V59.08H97v1.3h7.74A6.13,6.13,0,0,1,111,66.53Z" style="fill:none;stroke:#fff;stroke-linecap:round;stroke-linejoin:round"/><path d="M95.25,59.08V40.77a1.44,1.44,0,0,0-1.43-1.42H81.13q.32.13.63.3l0,0A18.92,18.92,0,0,1,87,43.38v0A19.64,19.64,0,0,1,92.8,55.86c0,.52.07,1,.07,1.57s0,1.1-.07,1.65c0,.06,0,.12,0,.18s0,.35,0,.52,0,.2,0,.3,0,.35-.08.53c-.1.56-.21,1.11-.35,1.66h1.56a1.37,1.37,0,0,0,1.43-1.41Z" style="fill:none;stroke:#fff;stroke-linecap:round;stroke-linejoin:round"/><path d="M92.8,59.08c0,.06,0,.12,0,.18A1.1,1.1,0,0,0,92.8,59.08Z" style="fill:none;stroke:#fff;stroke-linecap:round;stroke-linejoin:round"/><path d="M111,66.53a6.13,6.13,0,0,0-6.2-6.15H97V42.31a1,1,0,0,1,.95-.94h9.65a8.48,8.48,0,0,1,8.1,6c0-.1-.08-.21-.12-.31h-10a1.3,1.3,0,0,0-1.31,1.18v3.19a3.43,3.43,0,0,0,3.45,3.42h8.34v10.4a3,3,0,0,1-3.1,3h-2.26A3.68,3.68,0,0,0,111,66.53Z" style="fill:none;stroke:#fff;stroke-linecap:round;stroke-linejoin:round"/><path d="M115.75,47.38a5.86,5.86,0,0,1,.31,1.52A8.53,8.53,0,0,0,115.75,47.38Z" style="fill:none;stroke:#fff;stroke-linecap:round;stroke-linejoin:round"/><line x1="85.96" y1="72.43" x2="92.39" y2="72.43" style="fill:none;stroke:#fff;stroke-linecap:round;stroke-linejoin:round"/><path d="M42.08,67.59a4.27,4.27,0,0,1-4.61-.24,4.52,4.52,0,0,0-5.12,0" style="fill:none;stroke:#fff;stroke-linecap:round;stroke-linejoin:round"/><line x1="97.4" y1="72.43" x2="102.52" y2="72.43" style="fill:none;stroke:#fff;stroke-linecap:round;stroke-linejoin:round"/><line x1="107.52" y1="72.43" x2="117.65" y2="72.43" style="fill:none;stroke:#fff;stroke-linecap:round;stroke-linejoin:round"/><line x1="73.69" y1="80.34" x2="109.07" y2="80.34" style="fill:none;stroke:#fff;stroke-linecap:round;stroke-linejoin:round"/></g></g></svg>