<?xml version="1.0" encoding="utf-8"?>
<!-- Generator: Adobe Illustrator 21.1.0, SVG Export Plug-In . SVG Version: 6.00 Build 0)  -->
<svg version="1.1" id="Слой_1" xmlns="http://www.w3.org/2000/svg" xmlns:xlink="http://www.w3.org/1999/xlink" x="0px" y="0px"
	 viewBox="0 0 20 20" style="enable-background:new 0 0 20 20;" xml:space="preserve">
<path style="fill:none;" d="M0,0h20v20H0V0z"/>
<path style="fill:#2196F3;" d="M16.9,6.5h-2.6V3.1H2.2c-1,0-1.7,0.8-1.7,1.7v9.5h1.7c0,1.4,1.2,2.6,2.6,2.6s2.6-1.2,2.6-2.6h5.2
	c0,1.4,1.2,2.6,2.6,2.6s2.6-1.2,2.6-2.6h1.7V10L16.9,6.5z M4.8,15.6c-0.7,0-1.3-0.6-1.3-1.3S4.1,13,4.8,13s1.3,0.6,1.3,1.3
	S5.5,15.6,4.8,15.6z M16.5,7.8l1.7,2.2h-3.9V7.8H16.5z M15.2,15.6c-0.7,0-1.3-0.6-1.3-1.3s0.6-1.3,1.3-1.3s1.3,0.6,1.3,1.3
	S15.9,15.6,15.2,15.6z"/>
</svg>
