<svg xmlns="http://www.w3.org/2000/svg" viewBox="0 0 50 42.94"><g id="ce7b67bd-76b3-42dc-81db-a440d51b752b" data-name="Слой 2"><g id="7627f87a-e265-4883-9e48-942e2f3c368a" data-name="Режим изоляции"><path d="M3.13,0H46.87A3.14,3.14,0,0,1,50,3.13V34.38a3.13,3.13,0,0,1-3.13,3.11H31a1.49,1.49,0,0,0-1.17.53L26.07,42.4a1.49,1.49,0,0,1-1.17.53,1.52,1.52,0,0,1-1.17-.53L19.95,38a1.49,1.49,0,0,0-1.15-.53H3.13A3.13,3.13,0,0,1,0,34.38V3.13A3.14,3.14,0,0,1,3.13,0Z" style="fill:#2196f3"/><path d="M20.13,14.57l-.38.37a2.27,2.27,0,0,0-.53,1.47,2.34,2.34,0,0,0,2.33,2.33h2.33V16.41h0a2.34,2.34,0,0,0-2.33-2.33,2.29,2.29,0,0,0-1.42.5ZM21.6,12.9a3.51,3.51,0,0,1,2.29.9V9.35A21.87,21.87,0,0,1,21.6,12.9Zm2.29-7c0,2.91-2.67,5.92-4.65,7.87-.08.08-.18.16-.26.26-1.93,1.87-5.08,4.7-7.91,4.7Zm-12.82,14c2.83,0,6,2.81,7.91,4.7l.26.24c2,2,4.65,5,4.65,7.87Zm14,12.81c0-2.91,2.65-5.92,4.64-7.87l.26-.24c2-1.89,5.08-4.7,7.91-4.7Zm12.81-14c-2.83,0-6-2.83-7.91-4.7-.08-.1-.18-.18-.26-.26-2-2-4.64-5-4.64-7.87Zm-14,10.54a21.87,21.87,0,0,0-2.29-3.55,3.51,3.51,0,0,0,2.29-.9Zm-3.76-5.2-.38-.38a2.27,2.27,0,0,1-.53-1.47,2.32,2.32,0,0,1,2.33-2.32h2.33v2.32a2.34,2.34,0,0,1-2.33,2.33,2.28,2.28,0,0,1-1.42-.48Zm-2.08-1.82a32.14,32.14,0,0,0-3.47-2.35h4.37a3.41,3.41,0,0,0-.9,2.32v0Zm7,7a20.8,20.8,0,0,1,2.27-3.55,3.47,3.47,0,0,1-2.27-.9Zm3.74-5.2.38-.38a2.27,2.27,0,0,0,.53-1.47,2.32,2.32,0,0,0-2.33-2.32H25.06v2.32a2.32,2.32,0,0,0,2.32,2.33,2.28,2.28,0,0,0,1.42-.48Zm2.08-1.82a32.14,32.14,0,0,1,3.47-2.35H30a3.41,3.41,0,0,1,.9,2.32v0ZM25.06,9.35a20.8,20.8,0,0,0,2.27,3.55,3.47,3.47,0,0,0-2.27.9Zm3.74,5.21.38.37a2.27,2.27,0,0,1,.53,1.47,2.34,2.34,0,0,1-2.33,2.33H25.06V16.41h0a2.32,2.32,0,0,1,2.32-2.33,2.29,2.29,0,0,1,1.42.5Zm2.08,1.82a37.58,37.58,0,0,0,3.47,2.35H30a3.48,3.48,0,0,0,.9-2.33v0ZM14.58,18.74h4.37a3.48,3.48,0,0,1-.9-2.33v0a37.58,37.58,0,0,1-3.47,2.35Z" style="fill:#fff;fill-rule:evenodd"/></g></g></svg>
