<?xml version="1.0" encoding="utf-8"?>
<!-- Generator: Adobe Illustrator 21.1.0, SVG Export Plug-In . SVG Version: 6.00 Build 0)  -->
<svg version="1.1" id="Слой_1" xmlns="http://www.w3.org/2000/svg" xmlns:xlink="http://www.w3.org/1999/xlink" x="0px" y="0px"
	 viewBox="0 0 30 25.8" style="enable-background:new 0 0 30 25.8;" xml:space="preserve">
<style type="text/css">
	.st0{fill:#2196F3;}
	.st1{fill:#FFFFFF;}
</style>
<title>blue</title>
<g id="f9c149fd-6a48-4864-b060-8b95873b8d35">
	<g id="c82cff86-783e-4ccc-b688-3f3c14d4d711">
		<g id="_x36_ca9ab04-e305-4e27-a09b-fb02fca5b600">
			<path class="st0" d="M1.9,0h26.2c1,0,1.9,0.8,1.9,1.9v18.8c0,1-0.8,1.9-1.9,1.9h-9.5c-0.3,0-0.5,0.1-0.7,0.3l-2.3,2.6
				c-0.2,0.2-0.4,0.3-0.7,0.3c-0.3,0-0.5-0.1-0.7-0.3L12,22.8c-0.2-0.2-0.4-0.3-0.7-0.3H1.9c-1,0-1.9-0.8-1.9-1.9V1.9
				C0,0.8,0.8,0,1.9,0z"/>
			<path class="st1" d="M12.1,8.7L11.9,9c-0.2,0.2-0.3,0.6-0.3,0.9c0,0.8,0.6,1.4,1.4,1.4h1.4V9.8l0,0c0-0.8-0.6-1.4-1.4-1.4
				C12.6,8.4,12.3,8.5,12.1,8.7z M13,7.7c0.5,0,1,0.2,1.4,0.5V5.6C14,6.4,13.5,7.1,13,7.7L13,7.7z M14.3,3.5c0,1.8-1.6,3.5-2.8,4.7
				l-0.1,0.1c-1.2,1.1-3.1,2.8-4.8,2.8L14.3,3.5z M6.6,11.9c1.7,0,3.6,1.7,4.7,2.8l0.1,0.1c1.2,1.2,2.8,3,2.8,4.7L6.6,11.9z
				 M15,19.6c0-1.8,1.6-3.5,2.8-4.7l0.1-0.1c1.2-1.1,3-2.8,4.8-2.8L15,19.6z M22.7,11.2c-1.7,0-3.6-1.7-4.8-2.8l-0.1-0.1
				c-1.2-1.2-2.8-3-2.8-4.7L22.7,11.2z M14.3,17.6c-0.4-0.7-0.8-1.5-1.3-2.1c0.5,0,1-0.2,1.4-0.5L14.3,17.6z M12.1,14.4l-0.2-0.2
				c-0.2-0.2-0.3-0.6-0.3-0.9c0-0.8,0.6-1.4,1.4-1.4c0,0,0,0,0,0h1.4v1.4c0,0.8-0.6,1.4-1.4,1.4C12.6,14.7,12.3,14.6,12.1,14.4z
				 M10.8,13.4c-0.7-0.5-1.4-1-2.1-1.4h2.6C11,12.3,10.8,12.8,10.8,13.4L10.8,13.4L10.8,13.4z M15,17.6c0.4-0.8,0.8-1.5,1.4-2.1
				c-0.5,0-1-0.2-1.4-0.5V17.6z M17.2,14.4l0.2-0.2c0.2-0.2,0.3-0.6,0.3-0.9c0-0.8-0.6-1.4-1.4-1.4c0,0,0,0,0,0H15v1.4
				c0,0.8,0.6,1.4,1.4,1.4c0,0,0,0,0,0C16.7,14.7,17,14.6,17.2,14.4z M18.5,13.4c0.7-0.5,1.4-1,2.1-1.4H18
				C18.4,12.3,18.5,12.8,18.5,13.4L18.5,13.4L18.5,13.4z M15,5.6c0.4,0.8,0.9,1.5,1.4,2.1c-0.5,0-1,0.2-1.4,0.5V5.6z M17.2,8.7
				L17.5,9c0.2,0.2,0.3,0.6,0.3,0.9c0,0.8-0.6,1.4-1.4,1.4H15V9.8l0,0c0-0.8,0.6-1.4,1.4-1.4c0,0,0,0,0,0C16.7,8.4,17,8.5,17.2,8.7z
				 M18.5,9.8c0.7,0.5,1.4,1,2.1,1.4H18C18.3,10.9,18.5,10.4,18.5,9.8L18.5,9.8z M8.8,11.2h2.6c-0.3-0.4-0.5-0.9-0.5-1.4l0,0
				C10.2,10.3,9.5,10.8,8.8,11.2L8.8,11.2z"/>
		</g>
	</g>
</g>
</svg>
