<?xml version="1.0" encoding="utf-8"?>
<!-- Generator: Adobe Illustrator 21.1.0, SVG Export Plug-In . SVG Version: 6.00 Build 0)  -->
<svg version="1.1" id="Слой_1" xmlns="http://www.w3.org/2000/svg" xmlns:xlink="http://www.w3.org/1999/xlink" x="0px" y="0px"
	 viewBox="0 0 20 20" style="enable-background:new 0 0 20 20;" xml:space="preserve">
<path style="fill:#2196F3;" d="M13,9.5v-6l-3-3l-3,3v2H1v14h18v-10H13z M5,17.5H3v-2h2V17.5z M5,13.5H3v-2h2V13.5z M5,9.5H3v-2h2
	V9.5z M11,17.5H9v-2h2V17.5z M11,13.5H9v-2h2V13.5z M11,9.5H9v-2h2V9.5z M11,5.5H9v-2h2V5.5z M17,17.5h-2v-2h2V17.5z M17,13.5h-2v-2
	h2V13.5z"/>
<path style="fill:none;" d="M0,0h20v20H0V0z"/>
</svg>
