<?xml version="1.0" encoding="utf-8"?>
<!-- Generator: Adobe Illustrator 21.1.0, SVG Export Plug-In . SVG Version: 6.00 Build 0)  -->
<svg version="1.1" id="Слой_1" xmlns="http://www.w3.org/2000/svg" xmlns:xlink="http://www.w3.org/1999/xlink" x="0px" y="0px"
	 viewBox="0 0 20 20" style="enable-background:new 0 0 20 20;" xml:space="preserve">
<path style="fill:none;" d="M0,0h20v20H0V0z"/>
<path style="fill:#2196F3;" d="M10,5.3V1.5H0.5v17.1h19V5.3H10z M4.3,16.7H2.4v-1.9h1.9V16.7z M4.3,12.9H2.4V11h1.9V12.9z M4.3,9.1
	H2.4V7.2h1.9V9.1z M4.3,5.3H2.4V3.4h1.9V5.3z M8.1,16.7H6.2v-1.9h1.9C8.1,14.8,8.1,16.7,8.1,16.7z M8.1,12.9H6.2V11h1.9
	C8.1,11,8.1,12.9,8.1,12.9z M8.1,9.1H6.2V7.2h1.9C8.1,7.2,8.1,9.1,8.1,9.1z M8.1,5.3H6.2V3.4h1.9C8.1,3.4,8.1,5.3,8.1,5.3z
	 M17.6,16.7H10v-1.9h1.9v-1.9H10V11h1.9V9.1H10V7.2h7.6V16.7z M15.7,9.1h-1.9V11h1.9V9.1z M15.7,12.9h-1.9v1.9h1.9V12.9z"/>
</svg>
