<svg xmlns="http://www.w3.org/2000/svg" viewBox="0 0 15 15"><title>mail-white</title><g id="b5f3aade-61d4-48c6-bf70-1d2d6944a734" data-name="Слой 2"><g id="5575edbc-6acd-4f41-a694-e9e125703f0c" data-name="Слой 1"><path d="M12.7,2.3A1.3,1.3,0,0,1,14,3.6v7.8a1.3,1.3,0,0,1-1.3,1.3H2.3A1.3,1.3,0,0,1,1,11.4V3.6A1.3,1.3,0,0,1,2.3,2.3H12.7m0-1H2.3A2.3,2.3,0,0,0,0,3.6v7.8a2.3,2.3,0,0,0,2.3,2.3H12.7A2.3,2.3,0,0,0,15,11.4V3.6a2.3,2.3,0,0,0-2.3-2.3Z" style="fill:#fff"/><polyline points="12.7 4.03 7.5 7.28 2.3 4.03" style="fill:none;stroke:#fff;stroke-linecap:round;stroke-linejoin:round"/><path d="M0,0H15V15H0Z" style="fill:none"/></g></g></svg>