<svg id="04980f37-0d59-40ff-927d-655c96c39496" data-name="Слой 1" xmlns="http://www.w3.org/2000/svg" width="90" height="60" viewBox="0 0 90 60"><title>online-service4</title><polyline points="26.55 11.55 54.54 4.64 82.53 11.55" style="fill:none;stroke:#2196f3;stroke-linecap:round;stroke-linejoin:round"/><rect x="26.55" y="11.55" width="55.98" height="32.79" style="fill:#fff;stroke:#2196f3;stroke-linecap:round;stroke-linejoin:round"/><line x1="32.57" y1="11.55" x2="32.57" y2="44.34" style="fill:#fff;stroke:#2196f3;stroke-linecap:round;stroke-linejoin:round"/><line x1="41.31" y1="11.55" x2="41.31" y2="44.34" style="fill:#fff;stroke:#2196f3;stroke-linecap:round;stroke-linejoin:round"/><line x1="50.17" y1="11.55" x2="50.17" y2="44.34" style="fill:#fff;stroke:#2196f3;stroke-linecap:round;stroke-linejoin:round"/><line x1="58.91" y1="11.55" x2="58.91" y2="44.34" style="fill:#fff;stroke:#2196f3;stroke-linecap:round;stroke-linejoin:round"/><line x1="67.77" y1="11.55" x2="67.77" y2="44.34" style="fill:#fff;stroke:#2196f3;stroke-linecap:round;stroke-linejoin:round"/><line x1="76.51" y1="11.55" x2="76.51" y2="44.34" style="fill:#fff;stroke:#2196f3;stroke-linecap:round;stroke-linejoin:round"/><rect x="24.54" y="10.5" width="2.01" height="33.84" style="fill:#fff;stroke:#2196f3;stroke-linecap:round;stroke-linejoin:round"/><rect x="82.53" y="10.5" width="2.01" height="33.84" style="fill:#fff;stroke:#2196f3;stroke-linecap:round;stroke-linejoin:round"/><path d="M32.83,54.48h.07a2.57,2.57,0,0,0-.36-3.58L23,43a6.91,6.91,0,0,1-1.3,2.22,7,7,0,0,1-1.95,1.65l9.52,7.94a2.52,2.52,0,0,0,3.53-.29Z" style="fill:#e3f2fd;stroke:#2196f3;stroke-linecap:round;stroke-linejoin:round;fill-rule:evenodd"/><path d="M7.94,33.74a10.47,10.47,0,0,0,1.3,14.81,10.71,10.71,0,0,0,15-1.29,10.47,10.47,0,0,0-1.3-14.81,10.77,10.77,0,0,0-15,1.29Zm2.52,2.07a7.23,7.23,0,0,0,.87,10.3,7.46,7.46,0,0,0,10.39-.93,7.3,7.3,0,0,0-.87-10.3,7.45,7.45,0,0,0-10.39.93Z" style="fill:#e3f2fd;stroke:#2196f3;stroke-linecap:round;stroke-linejoin:round;fill-rule:evenodd"/></svg>