<svg id="6f242f74-f588-4d4e-b75c-f29a66ff4c77" data-name="Слой 1" xmlns="http://www.w3.org/2000/svg" width="90" height="60" viewBox="0 0 90 60"><title>online-service1</title><path d="M5,34.78c5.08-.47,10-.94,15.83-.94s12.52.47,19.25.34,13.23-.74,18.31-1a85.27,85.27,0,0,1,12.52.13C75,33.64,80,34.17,85,34.78" style="fill:none;stroke:#2196f3;stroke-linecap:round;stroke-linejoin:round"/><path d="M21.5,52.93h2" style="fill:none;stroke:#2196f3;stroke-linecap:round;stroke-linejoin:round"/><path d="M27.36,52.93c13.5,0,26.11-.13,31.58-1.05,6.26-1.05,3.19-3.28-1.06-4.92s-9.45-2.46-12-3.51-2.6-2.46,0-3,7.56-.7,12.52-.7H69.42" style="fill:none;stroke:#2196f3;stroke-linecap:round;stroke-linejoin:round;stroke-dasharray:3.860578775405884,3.860578775405884"/><path d="M71.35,39.7h2" style="fill:none;stroke:#2196f3;stroke-linecap:round;stroke-linejoin:round"/><path d="M73.35,6.67A11.7,11.7,0,0,0,61.54,18.27c0,8.67,11.81,21.43,11.81,21.43S85,26.93,85,18.27A11.67,11.67,0,0,0,73.35,6.67Zm0,15.57h0a3.93,3.93,0,0,1-4.13-4,4.07,4.07,0,1,1,8.15,0,3.89,3.89,0,0,1-4,4Z" style="fill:#e3f2fd;stroke:#2196f3;stroke-linecap:round;stroke-linejoin:round;fill-rule:evenodd"/><path d="M21.5,6.67A16.39,16.39,0,0,0,5,22.83C5,35,21.5,52.93,21.5,52.93S38,35,38,22.83A16.39,16.39,0,0,0,21.5,6.67Zm0,21.9h0a5.68,5.68,0,1,1,0-11.36,5.68,5.68,0,1,1,0,11.36Z" style="fill:#fff;stroke:#2196f3;stroke-linecap:round;stroke-linejoin:round;fill-rule:evenodd"/></svg>