<svg id="a9adbeda-7fd8-4495-83e6-1ae437bcb9b2" data-name="Слой 1" xmlns="http://www.w3.org/2000/svg" width="90" height="60" viewBox="0 0 90 60"><title>online-service5</title><path d="M14.17,37.82l7.91,7.85c.35.35,1.18,6.56.71,7l-1.54,1.52a1.25,1.25,0,0,1-1.54,0l-.83-.82-6.26-6.21c-2.48-2.58-5.08-5-6.26-6.32l-.83-.7a1,1,0,0,1,0-1.52L7.09,37c.47-.35,6.61.47,7.09.82Z" style="fill:#e3f2fd;stroke:#2196f3;stroke-linecap:round;stroke-linejoin:round;stroke-width:1.05391118923701px;fill-rule:evenodd"/><path d="M17.13,9.6A2.21,2.21,0,0,0,15,11.83a2.13,2.13,0,0,0,4.25,0A2.21,2.21,0,0,0,17.13,9.6Zm6.61,2.34a2.19,2.19,0,0,0-2.13,2.11,2.13,2.13,0,1,0,4.25,0,2.19,2.19,0,0,0-2.13-2.11ZM48.07,35.72a2.13,2.13,0,0,0-4.25,0,2.21,2.21,0,0,0,2.13,2.22,2.14,2.14,0,0,0,2.13-2.22Zm.24,4.45a2.21,2.21,0,0,0-2.13,2.22,2.13,2.13,0,0,0,4.25,0,2.21,2.21,0,0,0-2.13-2.22Z" style="fill:#e3f2fd;stroke:#2196f3;stroke-linecap:round;stroke-linejoin:round;stroke-width:1.05391118923701px;fill-rule:evenodd"/><path d="M34.37,17.92l7.8,7.73c.83.82,9.33,24.36,8.5,25.18l-3.07,3a2,2,0,0,1-3.07,0L27.4,32.44,5.79,15.57a2.22,2.22,0,0,1-.59-1.52h0a2.74,2.74,0,0,1,.59-1.52l3.07-3c.94-.82,24.69,7.61,25.51,8.43Z" style="fill:#e3f2fd;stroke:#2196f3;stroke-linecap:round;stroke-linejoin:round;stroke-width:1.05391118923701px;fill-rule:evenodd"/><path d="M54.21,6c2.13,2.11.24,7.38-2.24,10L24.09,43.56c-2.6,2.58-11.81,8.31-13.94,6.09S13.7,38.41,16.3,35.83L44.17,8.2c2.6-2.58,7.91-4.33,10-2.22Z" style="fill:#fff;stroke:#2196f3;stroke-linecap:round;stroke-linejoin:round;stroke-width:1.05391118923701px;fill-rule:evenodd"/><path d="M30.83,36.77l13.58,17.1a2.35,2.35,0,0,0,3,.23l-15-18.74Zm-6.14-9.13L5.55,12.88a2.11,2.11,0,0,0,.24,2.69L23.15,29Z" style="fill:#fff;stroke:#2196f3;stroke-linecap:round;stroke-linejoin:round;stroke-width:1.05391118923701px;fill-rule:evenodd"/><path d="M84.21,44.38h0a3.14,3.14,0,0,0-.47-4.45L71.93,30.1a8.82,8.82,0,0,1-1.54,2.69,8.47,8.47,0,0,1-2.48,2.11l11.81,9.84a3.32,3.32,0,0,0,4.49-.35Z" style="fill:#e3f2fd;stroke:#2196f3;stroke-linecap:round;stroke-linejoin:round;stroke-width:1.05391118923701px;fill-rule:evenodd"/><path d="M53.27,18.62A12.85,12.85,0,0,0,54.92,37,13.1,13.1,0,1,0,71.81,17a13.33,13.33,0,0,0-18.54,1.64Zm3.07,2.58A9,9,0,0,0,57.52,34a9.23,9.23,0,0,0,12.87-1.17A9,9,0,0,0,69.21,20,9.22,9.22,0,0,0,56.34,21.2Z" style="fill:#fff;stroke:#2196f3;stroke-linecap:round;stroke-linejoin:round;stroke-width:1.05391118923701px;fill-rule:evenodd"/></svg>