<svg id="55dbb32f-1ff2-409b-bb4b-0756a0567876" data-name="Слой 1" xmlns="http://www.w3.org/2000/svg" width="90" height="60" viewBox="0 0 90 60"><title>online-service2</title><path d="M6,28.11a2.91,2.91,0,0,1-2.94-2.94V7.26A2.91,2.91,0,0,1,6,4.32H65.08c2.25,0,22,.33,22,11.84,0,8.81-11.34,12-22,12Z" style="fill:#e3f2fd;stroke:#2196f3;stroke-linecap:round;stroke-linejoin:round;fill-rule:evenodd"/><path d="M20.08,36.07a4.47,4.47,0,0,0-5.08,0,4.29,4.29,0,0,1-5,0,4.29,4.29,0,0,0-5,0" style="fill:none;stroke:#2196f3;stroke-linecap:round;stroke-linejoin:round"/><path d="M37.56,45.55a4.47,4.47,0,0,0-5.08,0,4.29,4.29,0,0,1-5,0,4.29,4.29,0,0,0-5,0" style="fill:none;stroke:#2196f3;stroke-linecap:round;stroke-linejoin:round"/><path d="M65.08,36.07a4.47,4.47,0,0,0-5.08,0,4.29,4.29,0,0,1-5,0,4.29,4.29,0,0,0-5,0" style="fill:none;stroke:#2196f3;stroke-linecap:round;stroke-linejoin:round"/><path d="M20.08,55A4.47,4.47,0,0,0,15,55a4.29,4.29,0,0,1-5,0,4.29,4.29,0,0,0-5,0" style="fill:none;stroke:#2196f3;stroke-linecap:round;stroke-linejoin:round"/><path d="M57.52,55a4.29,4.29,0,0,0-5,0,4.47,4.47,0,0,1-5.08,0,4.29,4.29,0,0,0-5,0" style="fill:none;stroke:#2196f3;stroke-linecap:round;stroke-linejoin:round"/><path d="M68.5,4.47V28C78,27.37,87,24,87,16.16,87,7.09,74.79,5,68.5,4.47Z" style="fill:#fff;stroke:#2196f3;stroke-linecap:round;stroke-linejoin:round;stroke-width:1.03429562595056px;fill-rule:evenodd"/><path d="M7,24.24H65.08c4.84,0,18-1.17,18-8.08,0-6.67-13.23-8-18-8H7Z" style="fill:#fff;stroke:#2196f3;stroke-linecap:round;stroke-linejoin:round;fill-rule:evenodd"/><rect x="11.1" y="10.3" width="5.91" height="3.86" style="fill:#e3f2fd;stroke:#2196f3;stroke-linecap:round;stroke-linejoin:round"/><rect x="11.1" y="14.17" width="5.91" height="3.98" style="fill:#e3f2fd;stroke:#2196f3;stroke-linecap:round;stroke-linejoin:round"/><rect x="11.1" y="18.15" width="5.91" height="3.98" style="fill:#fff;stroke:#2196f3;stroke-linecap:round;stroke-linejoin:round"/><rect x="17.01" y="10.3" width="5.79" height="3.86" style="fill:#fff;stroke:#2196f3;stroke-linecap:round;stroke-linejoin:round"/><rect x="17.01" y="14.17" width="5.79" height="3.98" style="fill:#e3f2fd;stroke:#2196f3;stroke-linecap:round;stroke-linejoin:round"/><rect x="17.01" y="18.15" width="5.79" height="3.98" style="fill:#fff;stroke:#2196f3;stroke-linecap:round;stroke-linejoin:round"/><rect x="22.8" y="10.3" width="5.91" height="3.86" style="fill:#fff;stroke:#2196f3;stroke-linecap:round;stroke-linejoin:round"/><rect x="22.8" y="14.17" width="5.91" height="3.98" style="fill:#fff;stroke:#2196f3;stroke-linecap:round;stroke-linejoin:round"/><rect x="22.8" y="18.15" width="5.91" height="3.98" style="fill:#fff;stroke:#2196f3;stroke-linecap:round;stroke-linejoin:round"/><rect x="50.08" y="14.29" width="5.79" height="3.86" style="fill:#fff;stroke:#2196f3;stroke-linecap:round;stroke-linejoin:round"/><rect x="28.7" y="14.17" width="5.91" height="3.98" style="fill:#fff;stroke:#2196f3;stroke-linecap:round;stroke-linejoin:round"/><rect x="28.7" y="18.15" width="5.91" height="3.98" style="fill:#fff;stroke:#2196f3;stroke-linecap:round;stroke-linejoin:round"/><rect x="40.39" y="18.15" width="5.91" height="3.98" style="fill:#e3f2fd;stroke:#2196f3;stroke-linecap:round;stroke-linejoin:round"/><path d="M68,16.16a2.91,2.91,0,0,0-3-2.93A3,3,0,0,0,62,16.16a3.11,3.11,0,0,0,3.07,3,3,3,0,0,0,3-3Z" style="fill:#fff;stroke:#2196f3;stroke-linecap:round;stroke-linejoin:round;fill-rule:evenodd"/><path d="M85.28,56.33h0a4.09,4.09,0,0,0-.47-5.86l-15.59-13a11.31,11.31,0,0,1-2.13,3.63A11.47,11.47,0,0,1,63.9,43.8l15.59,13a4.13,4.13,0,0,0,5.79-.47Z" style="fill:#e3f2fd;stroke:#2196f3;stroke-linecap:round;stroke-linejoin:round;fill-rule:evenodd"/><path d="M44.53,22.37a17.14,17.14,0,0,0,2.13,24.24A17.54,17.54,0,0,0,71.22,44.5,17,17,0,0,0,69,20.26a17.49,17.49,0,0,0-24.45,2.11Zm4.13,3.4a11.84,11.84,0,0,0,1.42,16.86,12.21,12.21,0,0,0,17-1.52,11.86,11.86,0,0,0-1.54-16.86,12.06,12.06,0,0,0-16.89,1.52Z" style="fill:#fff;stroke:#2196f3;stroke-linecap:round;stroke-linejoin:round;fill-rule:evenodd"/></svg>