<svg id="df254eeb-e0cc-4be3-8c37-22ccc57c5db2" data-name="Слой 1" xmlns="http://www.w3.org/2000/svg" width="90" height="60" viewBox="0 0 90 60"><title>online-service3</title><path d="M7.09,54.69H43a2,2,0,0,0,2-2V7a1.89,1.89,0,0,0-2-1.87H7.09A1.89,1.89,0,0,0,5.08,7V52.7a2,2,0,0,0,2,2Z" style="fill:#fff;stroke:#2196f3;stroke-linecap:round;stroke-linejoin:round;fill-rule:evenodd"/><path d="M11,20H39.09A1,1,0,0,0,40,19V11a1,1,0,0,0-.94-.94H11A1,1,0,0,0,10,11v8A1,1,0,0,0,11,20Z" style="fill:#fff;stroke:#2196f3;stroke-linecap:round;stroke-linejoin:round;fill-rule:evenodd"/><line x1="10.04" y1="24.94" x2="40.04" y2="24.94" style="fill:#fff;stroke:#2196f3;stroke-linecap:round;stroke-linejoin:round"/><line x1="10.04" y1="29.86" x2="40.04" y2="29.86" style="fill:#fff;stroke:#2196f3;stroke-linecap:round;stroke-linejoin:round"/><line x1="10.04" y1="34.9" x2="40.04" y2="34.9" style="fill:#fff;stroke:#2196f3;stroke-linecap:round;stroke-linejoin:round"/><line x1="10.04" y1="39.81" x2="40.04" y2="39.81" style="fill:#fff;stroke:#2196f3;stroke-linecap:round;stroke-linejoin:round"/><line x1="10.04" y1="44.73" x2="40.04" y2="44.73" style="fill:#fff;stroke:#2196f3;stroke-linecap:round;stroke-linejoin:round"/><line x1="10.04" y1="49.77" x2="25.04" y2="49.77" style="fill:#fff;stroke:#2196f3;stroke-linecap:round;stroke-linejoin:round"/><path d="M61.06,54.69H84A1.05,1.05,0,0,0,85,53.63V30.91A1.05,1.05,0,0,0,84,29.86H61.06A1.05,1.05,0,0,0,60,30.91V53.63a1.05,1.05,0,0,0,1.06,1.05Z" style="fill:#fff;stroke:#2196f3;stroke-linecap:round;stroke-linejoin:round;fill-rule:evenodd"/><line x1="72.52" y1="29.86" x2="72.52" y2="34.9" style="fill:#fff;stroke:#2196f3;stroke-linecap:round;stroke-linejoin:round"/><polygon points="68.74 4.92 68.74 14.87 65.08 14.87 72.52 24.71 80.08 14.87 76.3 14.87 76.3 4.92 68.74 4.92" style="fill:#e3f2fd;stroke:#2196f3;stroke-linecap:round;stroke-linejoin:round"/><path d="M35.67,54.69H59.41A.66.66,0,0,0,60,54V38.88a.66.66,0,0,0-.59-.7H35.67a.66.66,0,0,0-.59.7V54a.66.66,0,0,0,.59.7Z" style="fill:#e3f2fd;stroke:#2196f3;stroke-linecap:round;stroke-linejoin:round;fill-rule:evenodd"/><line x1="47.48" y1="38.18" x2="47.48" y2="41.45" style="fill:#fff;stroke:#2196f3;stroke-linecap:round;stroke-linejoin:round"/></svg>