<svg xmlns="http://www.w3.org/2000/svg" viewBox="0 0 18 18"><title>Phone</title><g id="cd088c8e-dbea-419b-9b0b-e106fe11686f" data-name="Слой 2"><g id="35f62774-5cb2-4fcb-b444-11ae59ef8cfc" data-name="Слой 1"><path d="M5.25,1.5a.84.84,0,0,1,.83.83,9.47,9.47,0,0,0,.47,3,.84.84,0,0,1-.21.85L4.52,8A12.62,12.62,0,0,0,10,13.48l1.83-1.83a.83.83,0,0,1,.59-.24.81.81,0,0,1,.26,0,9.51,9.51,0,0,0,3,.48.84.84,0,0,1,.83.83v2.91a.84.84,0,0,1-.83.83A14.17,14.17,0,0,1,1.5,2.33a.84.84,0,0,1,.83-.83H5.25m0-1.5H2.33A2.34,2.34,0,0,0,0,2.33,15.68,15.68,0,0,0,15.67,18,2.34,2.34,0,0,0,18,15.67V12.76a2.34,2.34,0,0,0-2.33-2.33,8,8,0,0,1-2.5-.4,2.28,2.28,0,0,0-.73-.12,2.35,2.35,0,0,0-1.65.68l-1,1A11.23,11.23,0,0,1,6.39,8.24l1-1A2.34,2.34,0,0,0,8,4.86a8,8,0,0,1-.41-2.53A2.34,2.34,0,0,0,5.25,0Z" style="fill:#fff"/></g></g></svg>