<?xml version="1.0" encoding="utf-8"?>
<!-- Generator: Adobe Illustrator 21.1.0, SVG Export Plug-In . SVG Version: 6.00 Build 0)  -->
<svg version="1.1" id="Слой_1" xmlns="http://www.w3.org/2000/svg" xmlns:xlink="http://www.w3.org/1999/xlink" x="0px" y="0px"
	 viewBox="0 0 20 20" style="enable-background:new 0 0 20 20;" xml:space="preserve">
<path style="fill:none;" d="M0,0h20v20H0V0z"/>
<path style="fill:#2196F3;" d="M4.3,8.7c1.5,3,4,5.4,7,7l2.3-2.3c0.3-0.3,0.7-0.4,1.1-0.3c1.2,0.4,2.5,0.6,3.8,0.6
	c0.6,0,1.1,0.5,1.1,1.1v3.7c0,0.6-0.5,1.1-1.1,1.1c-9.9,0-17.9-8-17.9-17.9C0.5,1,1,0.5,1.6,0.5h3.7c0.6,0,1.1,0.5,1.1,1.1
	c0,1.3,0.2,2.6,0.6,3.8c0.1,0.4,0,0.8-0.3,1.1L4.3,8.7z"/>
</svg>
