<svg xmlns="http://www.w3.org/2000/svg" viewBox="0 0 15 15"><title>phone-blue</title><g id="29703a84-169e-448a-91b3-55929cfe92ce" data-name="Слой 2"><g id="b184b6ff-0920-4748-b8dc-cf1c8d62d103" data-name="Слой 1"><rect x="0.01" y="0.01" width="14.98" height="14.98" transform="translate(-0.01 0.01) rotate(-0.08)" style="fill:none"/><path d="M3,6.46a12.4,12.4,0,0,0,5.53,5.46l1.84-1.83a.81.81,0,0,1,.79-.13,11.29,11.29,0,0,0,3,.39.87.87,0,0,1,.79.91v2.87a.84.84,0,0,1-.79.78A14.07,14.07,0,0,1,0,.87.84.84,0,0,1,.79.08h3A.84.84,0,0,1,4.6.86a7.59,7.59,0,0,0,.53,3,1.23,1.23,0,0,1-.26.91L3,6.46Z" style="fill:#03a9f4;fill-rule:evenodd"/></g></g></svg>