<svg xmlns="http://www.w3.org/2000/svg" viewBox="0 0 15.02 15.02"><title>phone-white</title><g id="cda3b739-39d5-4cd8-bab1-5ea775c6fab3" data-name="Слой 2"><g id="65cef700-40a8-4694-9d55-c131264ee9ee" data-name="Слой 1"><rect x="0.01" y="0.01" width="15" height="15" transform="translate(-0.01 0.01) rotate(-0.08)" style="fill:none"/><path d="M4.31,1.08A.73.73,0,0,1,5,1.76a6.57,6.57,0,0,0,.46,2.6,1.07,1.07,0,0,1-.23.79L3.64,6.61a10.75,10.75,0,0,0,4.79,4.74L10,9.77a.73.73,0,0,1,.46-.16.5.5,0,0,1,.22,0,9.78,9.78,0,0,0,2.61.34h0a.76.76,0,0,1,.68.79v2.48a.73.73,0,0,1-.68.68h0A12.2,12.2,0,0,1,1,1.76a.73.73,0,0,1,.68-.68H4.31m0-1H1.69A1.69,1.69,0,0,0,.52.59,1.68,1.68,0,0,0,0,1.76a13.27,13.27,0,0,0,13.3,13.18,1.7,1.7,0,0,0,1.19-.5A1.68,1.68,0,0,0,15,13.26V10.78A1.74,1.74,0,0,0,13.32,9,8.86,8.86,0,0,1,11,8.71a1.51,1.51,0,0,0-.55-.1,1.7,1.7,0,0,0-1.17.45L8.25,10.12a9.74,9.74,0,0,1-3.36-3.3l1-.94a2,2,0,0,0,.55-1.53A1,1,0,0,0,6.37,4,5.53,5.53,0,0,1,6,1.75,1.72,1.72,0,0,0,4.31.08Z" style="fill:#fff"/></g></g></svg>