<?xml version="1.0" encoding="utf-8"?>
<!-- Generator: Adobe Illustrator 21.1.0, SVG Export Plug-In . SVG Version: 6.00 Build 0)  -->
<svg version="1.1" id="Слой_1" xmlns="http://www.w3.org/2000/svg" xmlns:xlink="http://www.w3.org/1999/xlink" x="0px" y="0px"
	 viewBox="0 0 20 20" style="enable-background:new 0 0 20 20;" xml:space="preserve">
<rect style="fill:none;" width="20" height="20"/>
<path style="fill:#2196F3;" d="M10,15c1,0,1.8-0.8,1.8-1.8S11,11.4,10,11.4s-1.8,0.8-1.8,1.8S9,15,10,15z M15.4,6.8h-0.9V5
	c0-2.5-2-4.5-4.5-4.5S5.5,2.5,5.5,5v1.8H4.6c-1,0-1.8,0.8-1.8,1.8v9c0,1,0.8,1.8,1.8,1.8h10.9c1,0,1.8-0.8,1.8-1.8v-9
	C17.2,7.6,16.4,6.8,15.4,6.8z M7.2,5c0-1.5,1.3-2.8,2.8-2.8s2.8,1.3,2.8,2.8v1.8H7.2V5z M15.4,17.7H4.6v-9h10.9v9H15.4z"/>
</svg>
