<?xml version="1.0" encoding="utf-8"?>
<!-- Generator: Adobe Illustrator 21.1.0, SVG Export Plug-In . SVG Version: 6.00 Build 0)  -->
<svg version="1.1" id="Слой_1" xmlns="http://www.w3.org/2000/svg" xmlns:xlink="http://www.w3.org/1999/xlink" x="0px" y="0px"
	 viewBox="0 0 20 20" style="enable-background:new 0 0 20 20;" xml:space="preserve">
<path style="fill:none;" d="M0,0h20v20H0V0z"/>
<path style="fill:#2196F3;" d="M16.9,17.8c-1.2,0-2.4-0.4-3.5-1.1c-2.1,1.5-4.8,1.5-6.9,0c-1.1,0.7-2.3,1.1-3.5,1.1H1.4v1.7h1.7
	c1.2,0,2.4-0.3,3.5-0.9c2.2,1.1,4.7,1.1,6.9,0c1.1,0.6,2.3,0.9,3.5,0.9h1.7v-1.7H16.9z M3,16L3,16c1.4,0,2.7-0.8,3.5-1.7
	c0.8,1,2.1,1.7,3.5,1.7s2.6-0.8,3.5-1.7c0.8,1,2.1,1.7,3.5,1.7l0,0l1.6-5.8c0.1-0.2,0.1-0.5-0.1-0.7S18.2,9.2,18,9.2l-1.1-0.4v-4
	c0-1-0.8-1.7-1.7-1.7h-2.6V0.5H7.4v2.6H4.8c-1,0-1.7,0.8-1.7,1.7v4L2,9.2c-0.2,0-0.4,0.2-0.5,0.4S1.4,10,1.4,10.3L3,16z M4.8,4.8
	h10.4v3.4L10,6.5L4.8,8.2V4.8z"/>
</svg>
