<svg xmlns="http://www.w3.org/2000/svg" viewBox="0 0 90 60"><title>service-4</title><g id="107721a8-ef0f-4b96-93fd-75d7b8686646" data-name="ship"><path d="M56.93,23.77h8A1.05,1.05,0,0,0,66,22.72V18.5A1,1,0,0,0,65,17.57h-8a.93.93,0,0,0-.94.94v4.22a1,1,0,0,0,.94,1.05Z" style="fill:#fff;stroke:#2196f3;stroke-linecap:round;stroke-linejoin:round;fill-rule:evenodd"/><path d="M57.52,29.86h8a.93.93,0,0,0,.94-.94V24.71a.93.93,0,0,0-.94-.94h-8a.87.87,0,0,0-.94.94v4.22a.87.87,0,0,0,.94.94Z" style="fill:#e3f2fd;stroke:#2196f3;stroke-linecap:round;stroke-linejoin:round;fill-rule:evenodd"/><path d="M67.52,29.86h8a.93.93,0,0,0,.94-.94V24.71a.93.93,0,0,0-.94-.94h-8a.87.87,0,0,0-.94.94v4.22a.87.87,0,0,0,.94.94Z" style="fill:#e3f2fd;stroke:#2196f3;stroke-linecap:round;stroke-linejoin:round;fill-rule:evenodd"/><path d="M47.48,29.86h8a1,1,0,0,0,1.06-.94V24.71a1,1,0,0,0-1.06-.94h-8a.93.93,0,0,0-.94.94v4.22a.93.93,0,0,0,.94.94Z" style="fill:#fff;stroke:#2196f3;stroke-linecap:round;stroke-linejoin:round;fill-rule:evenodd"/><path d="M62.48,36.07h8a1,1,0,0,0,1.06-.94V30.91a1.05,1.05,0,0,0-1.06-1.05h-8a1,1,0,0,0-.94,1.05v4.22a.93.93,0,0,0,.94.94Z" style="fill:#e3f2fd;stroke:#2196f3;stroke-linecap:round;stroke-linejoin:round;fill-rule:evenodd"/><path d="M72.48,36.07h8a1,1,0,0,0,1.06-.94V30.91a1.05,1.05,0,0,0-1.06-1.05h-8a1,1,0,0,0-.94,1.05v4.22a.93.93,0,0,0,.94.94Z" style="fill:#e3f2fd;stroke:#2196f3;stroke-linecap:round;stroke-linejoin:round;fill-rule:evenodd"/><path d="M42.52,36.07h8a.93.93,0,0,0,.94-.94V30.91a1,1,0,0,0-.94-1.05h-8a1,1,0,0,0-.94,1.05v4.22a.87.87,0,0,0,.94.94Z" style="fill:#e3f2fd;stroke:#2196f3;stroke-linecap:round;stroke-linejoin:round;fill-rule:evenodd"/><path d="M52.56,36.07h7.91a1,1,0,0,0,1.06-.94V30.91a1.05,1.05,0,0,0-1.06-1.05H52.56a1.05,1.05,0,0,0-1.06,1.05v4.22a1,1,0,0,0,1.06.94Z" style="fill:#e3f2fd;stroke:#2196f3;stroke-linecap:round;stroke-linejoin:round;fill-rule:evenodd"/><path d="M10.39,32H23.74V19.56H11.46a1.05,1.05,0,0,0-1.06,1.05Z" style="fill:#fff;stroke:#2196f3;stroke-linecap:round;stroke-linejoin:round;fill-rule:evenodd"/><path d="M17.56,40.28H37.65V8.55a1.08,1.08,0,0,0-1.06-.94H18.76a1.13,1.13,0,0,0-1.2.94Z" style="fill:#e3f2fd;stroke:#2196f3;stroke-linecap:round;stroke-linejoin:round;fill-rule:evenodd"/><rect x="21.41" y="13.7" width="12.4" height="2.81" style="fill:#fff;stroke:#2196f3;stroke-linecap:round;stroke-linejoin:round"/><path d="M8.39,44.5,2.83,37.12a1.65,1.65,0,0,1-.24-.7V32H31.89a.91.91,0,0,1,.59.23L37.32,36a1.07,1.07,0,0,0,.59.12H54.09a.89.89,0,0,0,.59-.12l4.72-3.75c.24-.12.35-.23.59-.23H87.4V36.3a1.74,1.74,0,0,1-.35.82l-7.91,7.61A4.07,4.07,0,0,0,75,45.2a4.29,4.29,0,0,1-5,0,4.47,4.47,0,0,0-5.08,0,4.29,4.29,0,0,1-5,0,4.29,4.29,0,0,0-5,0,4.47,4.47,0,0,1-5.08,0,4.29,4.29,0,0,0-5,0,4.29,4.29,0,0,1-5,0,4.47,4.47,0,0,0-5.08,0,4.29,4.29,0,0,1-5,0,4.29,4.29,0,0,0-5,0,4.47,4.47,0,0,1-5.08,0,4.29,4.29,0,0,0-5,0,4.29,4.29,0,0,1-5,0,5,5,0,0,0-1.65-.7Z" style="fill:#fff;stroke:#2196f3;stroke-linecap:round;stroke-linejoin:round;fill-rule:evenodd"/><path d="M85,45.2a4.47,4.47,0,0,1-5.08,0,4.29,4.29,0,0,0-5,0,4.29,4.29,0,0,1-5,0,4.47,4.47,0,0,0-5.08,0,4.29,4.29,0,0,1-5,0,4.29,4.29,0,0,0-5,0,4.47,4.47,0,0,1-5.08,0,4.29,4.29,0,0,0-5,0,4.29,4.29,0,0,1-5,0,4.47,4.47,0,0,0-5.08,0,4.29,4.29,0,0,1-5,0,4.29,4.29,0,0,0-5,0,4.47,4.47,0,0,1-5.08,0,4.29,4.29,0,0,0-5,0,4.29,4.29,0,0,1-5,0A4.47,4.47,0,0,0,5,45.2" style="fill:none;stroke:#2196f3;stroke-linecap:round;stroke-linejoin:round"/><path d="M30,49.18a4.29,4.29,0,0,0-5,0,4.11,4.11,0,0,1-5.08,0,4.29,4.29,0,0,0-5,0" style="fill:none;stroke:#2196f3;stroke-linecap:round;stroke-linejoin:round"/><path d="M72.52,51.06a4.47,4.47,0,0,0-5.08,0,4.29,4.29,0,0,1-5,0,4.29,4.29,0,0,0-5,0" style="fill:none;stroke:#2196f3;stroke-linecap:round;stroke-linejoin:round"/></g></svg>