<svg xmlns="http://www.w3.org/2000/svg" xmlns:xlink="http://www.w3.org/1999/xlink" width="86" height="45.71" viewBox="0 0 86 45.71"><defs><clipPath id="01db306a-d0d1-4281-9f07-3bef7d1169bb" transform="translate(-2 -7.14)"><rect width="90" height="60" style="fill:none"/></clipPath></defs><title>6. Сборные грузоперевозки</title><g id="165c41e3-5c44-478e-aeb8-74d9f8fbb4b4" data-name="Слой 2"><g id="4dd0960d-55a5-4183-b2d4-8501e8448337" data-name="Слой 1"><g style="clip-path:url(#01db306a-d0d1-4281-9f07-3bef7d1169bb)"><path d="M27.76,44.4h32a.87.87,0,0,0,.94-.94V13.85a.87.87,0,0,0-.94-.94h-32a.87.87,0,0,0-.94.94V43.46a.87.87,0,0,0,.94.94Z" transform="translate(-2 -7.14)" style="fill:#e3f2fd;stroke:#2196f3;stroke-miterlimit:10;fill-rule:evenodd"/><rect x="28.83" y="9.98" width="25.85" height="23.06" style="fill:#fff;stroke:#2196f3;stroke-miterlimit:10"/><line x1="41.47" y1="9.98" x2="54.69" y2="22.97" style="fill:#fff;stroke:#2196f3;stroke-miterlimit:10"/><line x1="34.03" y1="9.98" x2="54.69" y2="30.46" style="fill:#fff;stroke:#2196f3;stroke-miterlimit:10"/><line x1="28.83" y1="12.32" x2="49.85" y2="33.04" style="fill:#fff;stroke:#2196f3;stroke-miterlimit:10"/><line x1="28.83" y1="19.7" x2="42.29" y2="33.04" style="fill:#fff;stroke:#2196f3;stroke-miterlimit:10"/><path d="M8.88,52.36h8.5a1.05,1.05,0,0,0,1.06-1.05V48.14a1.05,1.05,0,0,0-1.06-1.05H8.88a1.05,1.05,0,0,0-1.06,1.05V51.3a1.05,1.05,0,0,0,1.06,1.05Z" transform="translate(-2 -7.14)" style="fill:#e3f2fd;stroke:#2196f3;stroke-linecap:round;stroke-linejoin:round;fill-rule:evenodd"/><path d="M81.13,52.36h-8.5a1.05,1.05,0,0,1-1.06-1.05V48.14a1.05,1.05,0,0,1,1.06-1.05h8.5a1.05,1.05,0,0,1,1.06,1.05V51.3a1.05,1.05,0,0,1-1.06,1.05Z" transform="translate(-2 -7.14)" style="fill:#e3f2fd;stroke:#2196f3;stroke-linecap:round;stroke-linejoin:round;fill-rule:evenodd"/><path d="M86.44,49.66H3.56A1.05,1.05,0,0,1,2.5,48.61V45.45A1.14,1.14,0,0,1,3.56,44.4H86.44a1.14,1.14,0,0,1,1.06,1.05v3.16a1.05,1.05,0,0,1-1.06,1.05Z" transform="translate(-2 -7.14)" style="fill:#fff;stroke:#2196f3;stroke-linecap:round;stroke-linejoin:round;fill-rule:evenodd"/><path d="M54.92,44.4h26a1.89,1.89,0,0,0,2-1.87V10.22A1,1,0,0,0,82,9.17H54a1.05,1.05,0,0,0-1.06,1.05v32.3a2,2,0,0,0,2,1.87Z" transform="translate(-2 -7.14)" style="fill:#fff;stroke:#2196f3;stroke-linecap:round;stroke-linejoin:round;fill-rule:evenodd"/><path d="M52.56,10.8H83.25a1.05,1.05,0,0,0,1.06-1.05V8.7a1.05,1.05,0,0,0-1.06-1.05H52.56A1.05,1.05,0,0,0,51.49,8.7V9.75a1.05,1.05,0,0,0,1.06,1.05Z" transform="translate(-2 -7.14)" style="fill:#e3f2fd;stroke:#2196f3;stroke-linecap:round;stroke-linejoin:round;fill-rule:evenodd"/><path d="M8.88,44.4H32.37a.93.93,0,0,0,.94-.94V21.81a1,1,0,0,0-.94-1.05H8.88a1.05,1.05,0,0,0-1.06,1.05V43.46a1,1,0,0,0,1.06.94Z" transform="translate(-2 -7.14)" style="fill:#fff;stroke:#2196f3;stroke-miterlimit:10;fill-rule:evenodd"/><rect x="10.18" y="17.82" width="16.88" height="15.22" style="fill:none;stroke:#2196f3;stroke-miterlimit:10"/></g></g></g></svg>