<svg xmlns="http://www.w3.org/2000/svg" xmlns:xlink="http://www.w3.org/1999/xlink" width="86" height="45.48" viewBox="0 0 86 45.48"><defs><clipPath id="95bbc0bc-1719-4669-b33c-684cdea2e442" transform="translate(-2 -7.26)"><rect width="90" height="60" style="fill:none"/></clipPath></defs><title>3. Авиа перевозки</title><g id="ec64470e-aea1-478a-8628-9ac4cf8cfdd3" data-name="Слой 2"><g id="3afec35b-a081-4980-b6a9-d43bffb20f15" data-name="Слой 1"><g style="clip-path:url(#95bbc0bc-1719-4669-b33c-684cdea2e442)"><path d="M58.22,21.81H46.53V13.15A1.46,1.46,0,0,0,45,11.74h0a1.36,1.36,0,0,0-1.42,1.4v8.66H31.78a1.54,1.54,0,0,0-1.42,1.52,1.43,1.43,0,0,0,1.42,1.4H58.22a1.36,1.36,0,0,0,1.42-1.4,1.46,1.46,0,0,0-1.42-1.52Z" transform="translate(-2 -7.26)" style="fill:#e3f2fd;stroke:#2196f3;stroke-linecap:round;stroke-linejoin:round"/><rect x="15.14" y="23.32" width="2.95" height="7.26" style="fill:#e3f2fd;stroke:#2196f3;stroke-linecap:round;stroke-linejoin:round"/><rect x="67.91" y="23.32" width="2.95" height="7.26" style="fill:#e3f2fd;stroke:#2196f3;stroke-linecap:round;stroke-linejoin:round"/><polygon points="0.5 21.8 0.5 23.32 37.1 27.66 48.9 27.66 85.5 23.32 85.5 21.8 0.5 21.8" style="fill:#fff;stroke:#2196f3;stroke-linecap:round;stroke-linejoin:round"/><path d="M45,40.77h0a7.33,7.33,0,0,1-7.32-7.26V30.59A7.33,7.33,0,0,1,45,23.33h0a7.33,7.33,0,0,1,7.32,7.26v2.93A7.33,7.33,0,0,1,45,40.77Z" transform="translate(-2 -7.26)" style="fill:#fff;stroke:#2196f3;stroke-linecap:round;stroke-linejoin:round"/><path d="M18.67,35.62A3.63,3.63,0,1,1,15,39.25a3.66,3.66,0,0,1,3.66-3.63Z" transform="translate(-2 -7.26)" style="fill:#fff;stroke:#2196f3;stroke-linecap:round;stroke-linejoin:round"/><path d="M71.33,35.62a3.63,3.63,0,1,1,0,7.26,3.63,3.63,0,1,1,0-7.26Z" transform="translate(-2 -7.26)" style="fill:#fff;stroke:#2196f3;stroke-linecap:round;stroke-linejoin:round"/><path d="M47.24,30.59H42.76a1.54,1.54,0,0,1-1.42-1.52,1.52,1.52,0,0,1,1.42-1.4h4.49a1.43,1.43,0,0,1,1.42,1.4,1.46,1.46,0,0,1-1.42,1.52Z" transform="translate(-2 -7.26)" style="fill:#e3f2fd;stroke:#2196f3;stroke-linecap:round;stroke-linejoin:round"/><path d="M18.67,37.84a1.36,1.36,0,0,1,1.42,1.4,1.46,1.46,0,0,1-1.42,1.52,1.56,1.56,0,0,1-1.53-1.52,1.46,1.46,0,0,1,1.53-1.4Z" transform="translate(-2 -7.26)" style="fill:#e3f2fd;stroke:#2196f3;stroke-linecap:round;stroke-linejoin:round"/><path d="M71.33,37.84a1.46,1.46,0,0,1,1.53,1.4,1.56,1.56,0,0,1-1.53,1.52,1.54,1.54,0,0,1-1.42-1.52,1.43,1.43,0,0,1,1.42-1.4Z" transform="translate(-2 -7.26)" style="fill:#e3f2fd;stroke:#2196f3;stroke-linecap:round;stroke-linejoin:round"/><path d="M10.06,11.16a3.21,3.21,0,0,0-3.31,3.28,3.29,3.29,0,0,0,3.31,3.28H20a3.29,3.29,0,0,0,3.31-3.28A3.21,3.21,0,0,0,20,11.16h-.24A4.85,4.85,0,0,0,15,7.76a5,5,0,0,0-4.72,3.39Z" transform="translate(-2 -7.26)" style="fill:#e3f2fd;stroke:#2196f3;stroke-linecap:round;stroke-linejoin:round;fill-rule:evenodd"/><path d="M71.8,17a3.29,3.29,0,0,0-3.31,3.28,3.21,3.21,0,0,0,3.31,3.28h9.92A3.21,3.21,0,0,0,85,20.29,3.29,3.29,0,0,0,81.72,17h-.24a5,5,0,0,0-4.72-3.39A4.85,4.85,0,0,0,72,17Z" transform="translate(-2 -7.26)" style="fill:#e3f2fd;stroke:#2196f3;stroke-linecap:round;stroke-linejoin:round;fill-rule:evenodd"/><path d="M25,45.68A3.21,3.21,0,0,0,21.74,49,3.29,3.29,0,0,0,25,52.24H35A3.29,3.29,0,0,0,38.27,49,3.21,3.21,0,0,0,35,45.68h-.24A4.85,4.85,0,0,0,30,42.29a5,5,0,0,0-4.72,3.39Z" transform="translate(-2 -7.26)" style="fill:#e3f2fd;stroke:#2196f3;stroke-linecap:round;stroke-linejoin:round;fill-rule:evenodd"/></g></g></g></svg>