<svg xmlns="http://www.w3.org/2000/svg" viewBox="0 0 90 60"><title>service-7</title><g id="5daca75c-4f41-4708-ae91-36422fc8fdd3" data-name="Слой 1"><path d="M60.35,55.27H20.67A1.31,1.31,0,0,1,19.37,54v-.47l9-24.47A1.52,1.52,0,0,1,29.76,28H69.45c.83,0,1.3.94,1.3,1.76l-9,24.47a1.52,1.52,0,0,1-1.42,1.05Z" style="fill:#fff;stroke:#2196f3;stroke-linecap:round;stroke-linejoin:round;fill-rule:evenodd"/><path d="M63.9,20.14h-2V28h3.54V21.66a1.56,1.56,0,0,0-1.54-1.52Z" style="fill:#e3f2fd;stroke:#2196f3;stroke-linecap:round;stroke-linejoin:round;fill-rule:evenodd"/><path d="M22.91,13.94h-2a1.56,1.56,0,0,0-1.54,1.52V53h.12l3.43-9.13Z" style="fill:#e3f2fd;stroke:#2196f3;stroke-linecap:round;stroke-linejoin:round;fill-rule:evenodd"/><path d="M28.35,29A1.52,1.52,0,0,1,29.76,28H61.89V4.33H28.23V29.63Z" style="fill:#fff;stroke:#2196f3;stroke-linecap:round;stroke-linejoin:round;fill-rule:evenodd"/><polygon points="28.23 29.63 28.23 6.09 25.51 6.09 25.51 36.77 28.23 29.63" style="fill:#e3f2fd;stroke:#2196f3;stroke-linecap:round;stroke-linejoin:round;fill-rule:evenodd"/><polygon points="25.51 36.77 25.51 7.85 22.91 7.85 22.91 44.03 25.51 36.77" style="fill:#fff;stroke:#2196f3;stroke-linecap:round;stroke-linejoin:round;fill-rule:evenodd"/><line x1="33.54" y1="11.36" x2="44.17" y2="11.36" style="fill:#fff;stroke:#2196f3;stroke-linecap:round;stroke-linejoin:round"/><line x1="33.54" y1="17.45" x2="56.57" y2="17.45" style="fill:#fff;stroke:#2196f3;stroke-linecap:round;stroke-linejoin:round"/><line x1="33.54" y1="23.65" x2="51.61" y2="23.65" style="fill:#fff;stroke:#2196f3;stroke-linecap:round;stroke-linejoin:round"/></g></svg>