<svg xmlns="http://www.w3.org/2000/svg" viewBox="0 0 90 60"><title>service-12</title><g id="02a8734d-27de-4d14-b299-2da81778932a" data-name="temperature"><path d="M22.32,5a17.1,17.1,0,1,0,0,34.19A17.1,17.1,0,1,0,22.32,5Z" style="fill:#fff;stroke:#2196f3;stroke-linecap:round;stroke-linejoin:round;fill-rule:evenodd"/><line x1="22.32" y1="11.26" x2="22.32" y2="33" style="fill:#e6fa08;stroke:#2196f3;stroke-linecap:round;stroke-linejoin:round"/><polyline points="25.02 11.26 23.67 12.6 22.32 13.94 20.97 12.6 19.63 11.26" style="fill:none;stroke:#2196f3;stroke-linecap:round;stroke-linejoin:round"/><polyline points="25.02 33 23.67 31.66 22.32 30.32 20.97 31.66 19.63 33" style="fill:none;stroke:#2196f3;stroke-linecap:round;stroke-linejoin:round"/><line x1="33.28" y1="22.13" x2="11.36" y2="22.13" style="fill:#e6fa08;stroke:#2196f3;stroke-linecap:round;stroke-linejoin:round"/><polyline points="33.28 24.81 31.93 23.47 30.59 22.13 31.93 20.8 33.28 19.46" style="fill:none;stroke:#2196f3;stroke-linecap:round;stroke-linejoin:round"/><polyline points="11.36 24.81 12.71 23.47 14.06 22.13 12.71 20.8 11.36 19.46" style="fill:none;stroke:#2196f3;stroke-linecap:round;stroke-linejoin:round"/><line x1="29.41" y1="30.49" x2="15.24" y2="13.77" style="fill:#e6fa08;stroke:#2196f3;stroke-linecap:round;stroke-linejoin:round"/><polyline points="27.21 32.16 27.38 30.32 27.55 28.32 29.57 28.49 31.43 28.65" style="fill:none;stroke:#2196f3;stroke-linecap:round;stroke-linejoin:round"/><polyline points="13.22 15.61 15.07 15.78 17.09 15.95 17.26 13.94 17.43 12.1" style="fill:none;stroke:#2196f3;stroke-linecap:round;stroke-linejoin:round"/><line x1="15.24" y1="30.49" x2="29.41" y2="13.77" style="fill:#e6fa08;stroke:#2196f3;stroke-linecap:round;stroke-linejoin:round"/><polyline points="13.22 28.65 15.07 28.49 17.09 28.32 17.26 30.32 17.43 32.16" style="fill:none;stroke:#2196f3;stroke-linecap:round;stroke-linejoin:round"/><polyline points="27.21 12.1 27.38 13.94 27.55 15.95 29.57 15.78 31.43 15.61" style="fill:none;stroke:#2196f3;stroke-linecap:round;stroke-linejoin:round"/><path d="M37.8,21.2l-.35,1.41-2,.82S37,36.54,57.76,37.82c0,0,17.36-.23,22.44-15.57a10.09,10.09,0,0,0,.24-5.62,7.75,7.75,0,0,0-1.77-3.16l-3,.23-2.6,2.81a14.51,14.51,0,0,0-1.65,2.11c-1.3,2.11-5.31,7.38-11.34,8.55-8.39,1.64-17.6-2.81-22.32-6Z" style="fill:#fff;stroke:#2196f3;stroke-linecap:round;stroke-linejoin:round;fill-rule:evenodd"/><path d="M80.43,16.63a7.75,7.75,0,0,0-1.77-3.16l-3,.23c-2.13,3.4-6.61,14.4-14.17,16.16C49.72,32.67,41.22,26,37.44,22.48v.12l-2,.82S37,36.54,57.76,37.82c0,0,17.36-.23,22.44-15.57a10.09,10.09,0,0,0,.24-5.62Z" style="fill:#e3f2fd;stroke:#2196f3;stroke-linecap:round;stroke-linejoin:round;fill-rule:evenodd"/><polygon points="37.8 21.2 36.85 20.96 35.31 22.37 35.43 23.42 37.44 22.6 37.8 21.2" style="fill:#e3f2fd;stroke:#2196f3;stroke-linecap:round;stroke-linejoin:round;fill-rule:evenodd"/><path d="M31.89,31l-.12,1.76-2.13,1.41s4.84,15,29.41,11.59c0,0,20.31-4.1,22.56-23.19a10.74,10.74,0,0,0-1.06-6.67,8.81,8.81,0,0,0-2.72-3.28l-3.43.94-2.36,4a19.44,19.44,0,0,0-1.42,2.69c-1.06,2.81-4.49,9.84-11.22,12.53-9.33,3.86-21.26.82-27.52-1.76Z" style="fill:#fff;stroke:#2196f3;stroke-linecap:round;stroke-linejoin:round;fill-rule:evenodd"/><path d="M80.55,15.93a8.81,8.81,0,0,0-2.72-3.28l-3.43.94C72.64,18,70.16,32,61.65,35.72c-13.11,6-24.57.12-29.88-3.16v.23l-2.13,1.41s4.84,15,29.41,11.59c0,0,20.31-4.1,22.56-23.19a10.74,10.74,0,0,0-1.06-6.67Z" style="fill:#e3f2fd;stroke:#2196f3;stroke-linecap:round;stroke-linejoin:round;fill-rule:evenodd"/><polygon points="31.89 31.03 30.83 30.91 29.29 32.91 29.65 34.19 31.77 32.79 31.89 31.03" style="fill:#e3f2fd;stroke:#2196f3;stroke-linecap:round;stroke-linejoin:round;fill-rule:evenodd"/><path d="M36.38,44.5l.35,1.76-1.77,2s9.21,13.58,32.83,3.4c0,0,19.13-10,15.94-29.74a12.74,12.74,0,0,0-3.07-6.32A9.53,9.53,0,0,0,77,13.12l-3.07,2-1.3,4.45A14.89,14.89,0,0,0,72,22.72c-.35,3.16-1.65,11.12-7.68,15.81-8.27,6.44-21,6.79-28,6Z" style="fill:#fff;stroke:#2196f3;stroke-linecap:round;stroke-linejoin:round;fill-rule:evenodd"/><path d="M80.67,15.57A9.53,9.53,0,0,0,77,13.12L75,14.4c1.89,8,2,19-7.56,26.35C55.63,49.89,42.87,47.89,36.73,46v.23l-1.77,2s9.21,13.58,32.83,3.4c0,0,19.13-10,15.94-29.74a12.74,12.74,0,0,0-3.07-6.32Z" style="fill:#e3f2fd;stroke:#2196f3;stroke-linecap:round;stroke-linejoin:round;fill-rule:evenodd"/><polygon points="36.38 44.5 35.2 44.73 34.25 47.08 34.96 48.25 36.73 46.26 36.38 44.5" style="fill:#e3f2fd;stroke:#2196f3;stroke-linecap:round;stroke-linejoin:round;fill-rule:evenodd"/><polygon points="73.94 15.11 75 14.4 77.95 12.65 76.18 7.85 71.58 8.43 72.76 14.99 73.94 15.11" style="fill:#fff;stroke:#2196f3;stroke-linecap:round;stroke-linejoin:round;fill-rule:evenodd"/><polygon points="75 14.4 73.23 8.2 71.58 8.43 72.76 14.99 73.94 15.11 75 14.4" style="fill:#fff;stroke:#2196f3;stroke-linecap:round;stroke-linejoin:round;fill-rule:evenodd"/></g></svg>