<svg xmlns="http://www.w3.org/2000/svg" viewBox="0 0 90 60"><title>service-11</title><g id="83426df2-af11-44e1-8c5a-9cc3d332b45a" data-name="protect"><path d="M16.18,54.83h7a1.56,1.56,0,0,0,1.54-1.52v-6h-10v6a1.56,1.56,0,0,0,1.54,1.52Z" style="fill:#e3f2fd;stroke:#2196f3;stroke-linecap:round;stroke-linejoin:round;fill-rule:evenodd"/><path d="M66.14,54.83h7a1.56,1.56,0,0,0,1.54-1.52v-6h-10v6a1.56,1.56,0,0,0,1.54,1.52Z" style="fill:#e3f2fd;stroke:#2196f3;stroke-linecap:round;stroke-linejoin:round;fill-rule:evenodd"/><path d="M6.38,51.08H83.62A1.05,1.05,0,0,0,84.69,50V47.1a1,1,0,0,0-1.06-.94H6.38a.93.93,0,0,0-.94.94V50a1,1,0,0,0,.94,1.05Z" style="fill:#fff;stroke:#2196f3;stroke-linecap:round;stroke-linejoin:round;fill-rule:evenodd"/><rect x="53.98" y="25.08" width="26.1" height="21.08" style="fill:#fff;stroke:#2196f3;stroke-linecap:round;stroke-linejoin:round"/><rect x="10.28" y="30" width="26.1" height="16.16" style="fill:#fff;stroke:#2196f3;stroke-linecap:round;stroke-linejoin:round"/><rect x="62.95" y="15.36" width="12.05" height="9.72" style="fill:#e3f2fd;stroke:#2196f3;stroke-linecap:round;stroke-linejoin:round"/><rect x="15" y="20.16" width="21.38" height="9.84" style="fill:#e3f2fd;stroke:#2196f3;stroke-linecap:round;stroke-linejoin:round"/><path d="M45,57.52c12.87-7.85,20.43-22.25,22.32-43.44-4-.59-6.61-3-7.56-7.49-4.84-2-9.69-4-14.76-4s-9.92,2-14.76,4c-.94,4.45-3.43,6.91-7.56,7.49,2,21.2,9.45,35.6,22.32,43.44Z" style="fill:#fff;stroke:#2196f3;stroke-linecap:round;stroke-linejoin:round;fill-rule:evenodd"/><path d="M45,53.54c12.17-8.43,17-22.83,18.66-37A11.6,11.6,0,0,1,56.93,9C53.15,7.52,49,5.88,45,5.88S36.85,7.52,33.07,9a11,11,0,0,1-6.73,7.49C28.11,30.7,33,45.11,45,53.54Z" style="fill:#f1f9fe;stroke:#2196f3;stroke-linecap:round;stroke-linejoin:round;fill-rule:evenodd"/><path d="M45,49.32c9.33-7.49,13.35-19.2,15-30.8a15,15,0,0,1-5.67-6.91C51.26,10.44,48,9.27,45,9.27s-6.26,1.17-9.21,2.34A15.19,15.19,0,0,1,30,18.52c1.77,11.59,5.79,23.3,15,30.8Z" style="fill:#fff;stroke:#2196f3;stroke-linecap:round;stroke-linejoin:round;fill-rule:evenodd"/><polygon points="22.68 9.98 24.09 12.79 26.81 14.07 24.09 15.48 22.68 18.17 21.38 15.48 18.54 14.07 21.38 12.79 22.68 9.98" style="fill:#fff;stroke:#2196f3;stroke-linecap:round;stroke-linejoin:round;fill-rule:evenodd"/></g></svg>