<svg xmlns="http://www.w3.org/2000/svg" xmlns:xlink="http://www.w3.org/1999/xlink" width="86" height="45.93" viewBox="0 0 86 45.93"><defs><clipPath id="5cbbae89-4f20-474f-ad17-b032971cc51d" transform="translate(-2 -7.03)"><rect width="90" height="60" style="fill:none"/></clipPath></defs><title>5. Мультимодальные грузоперевозки</title><g id="48d2f47e-efcf-44a6-a1e6-8a01d517223b" data-name="Слой 2"><g id="96dc6dc0-cb06-43b9-a0ce-1f0e23eec621" data-name="Слой 1"><g style="clip-path:url(#5cbbae89-4f20-474f-ad17-b032971cc51d)"><path d="M22.09,43.31a4,4,0,0,0-5,0,4.31,4.31,0,0,1-5,0,4.13,4.13,0,0,0-5.1,0" transform="translate(-2 -7.03)" style="fill:none;stroke:#2196f3;stroke-linecap:round;stroke-linejoin:round"/><path d="M20.19,51.67a4.13,4.13,0,0,0-5.1,0,4.31,4.31,0,0,1-5,0,4,4,0,0,0-5,0" transform="translate(-2 -7.03)" style="fill:none;stroke:#2196f3;stroke-linecap:round;stroke-linejoin:round"/><path d="M33.25,47.43a4.5,4.5,0,0,0-5.1,0,4.31,4.31,0,0,1-5,0,4.31,4.31,0,0,0-5,0" transform="translate(-2 -7.03)" style="fill:none;stroke:#2196f3;stroke-linecap:round;stroke-linejoin:round"/><rect x="54.75" y="22.16" width="26.95" height="7.42" style="fill:#e3f2fd;stroke:#2196f3;stroke-miterlimit:10"/><path d="M74.68,32.37A4.24,4.24,0,1,0,79,36.61a4.21,4.21,0,0,0-4.27-4.24Z" transform="translate(-2 -7.03)" style="fill:#fff;stroke:#2196f3;stroke-miterlimit:10;fill-rule:evenodd"/><path d="M83,38.37H80.73A9,9,0,0,0,81,36.61a6.21,6.21,0,0,0-6.29-6.12H67v-18a1,1,0,0,1,.95-.94h9.62A8.43,8.43,0,0,1,86,19.89V35.31a3,3,0,0,1-3,3.06Z" transform="translate(-2 -7.03)" style="fill:#fff;stroke:#2196f3;stroke-miterlimit:10;fill-rule:evenodd"/><path d="M85.48,17.19A6.85,6.85,0,0,1,86,19.89V25H77.65a3.43,3.43,0,0,1-3.44-3.41V18.48a1.31,1.31,0,0,1,1.31-1.29Z" transform="translate(-2 -7.03)" style="fill:#e3f2fd;stroke:#2196f3;stroke-miterlimit:10;fill-rule:evenodd"/><path d="M63.76,32.37H47.26A1.47,1.47,0,0,1,45.71,31V9.06a1.56,1.56,0,0,1,1.54-1.53h16.5a1.46,1.46,0,0,1,1.42,1.53V31a1.37,1.37,0,0,1-1.42,1.41Z" transform="translate(-2 -7.03)" style="fill:#fff;stroke:#2196f3;stroke-miterlimit:10;fill-rule:evenodd"/><path d="M74.68,35a1.65,1.65,0,1,0,0,3.3,1.65,1.65,0,1,0,0-3.3Z" transform="translate(-2 -7.03)" style="fill:#e3f2fd;stroke:#2196f3;stroke-miterlimit:10;fill-rule:evenodd"/><rect x="25.91" y="14.98" width="10.09" height="6.24" style="fill:#fff;stroke:#2196f3;stroke-miterlimit:10"/><rect x="15.93" y="14.98" width="9.97" height="6.24" style="fill:#fff;stroke:#2196f3;stroke-miterlimit:10"/><rect x="18.43" y="8.74" width="10.09" height="6.24" style="fill:#fff;stroke:#2196f3;stroke-miterlimit:10"/><rect x="5.84" y="14.98" width="10.09" height="6.24" style="fill:#fff;stroke:#2196f3;stroke-miterlimit:10"/><rect x="8.34" y="8.74" width="10.09" height="6.24" style="fill:#fff;stroke:#2196f3;stroke-miterlimit:10"/><rect x="10.83" y="2.5" width="10.09" height="6.24" style="fill:#fff;stroke:#2196f3;stroke-miterlimit:10"/><path d="M4.16,25h16l4.16,3.3H37.76l.47,9.42a.62.62,0,0,1-.47-.24,4.5,4.5,0,0,0-5.1,0,4.31,4.31,0,0,1-5,0,4.31,4.31,0,0,0-5,0,4.5,4.5,0,0,1-5.1,0,4.31,4.31,0,0,0-5,0,5,5,0,0,1-2.85.82L3.33,26.37a1.29,1.29,0,0,1,0-.94A.9.9,0,0,1,4.16,25Z" transform="translate(-2 -7.03)" style="fill:#e3f2fd;stroke:#2196f3;stroke-miterlimit:10;fill-rule:evenodd"/><path d="M2.5,37.43a4.5,4.5,0,0,1,5.1,0,4.31,4.31,0,0,0,5,0,4.31,4.31,0,0,1,5,0,4.5,4.5,0,0,0,5.1,0,4.31,4.31,0,0,1,5,0,4.31,4.31,0,0,0,5,0,4.5,4.5,0,0,1,5.1,0" transform="translate(-2 -7.03)" style="fill:none;stroke:#2196f3;stroke-linecap:round;stroke-linejoin:round"/><path d="M62.81,27.54A19.94,19.94,0,1,0,42.86,47.32,19.83,19.83,0,0,0,62.81,27.54Z" transform="translate(-2 -7.03)" style="fill:#fff;stroke:#2196f3;stroke-miterlimit:10;fill-rule:evenodd"/><path d="M48.68,13.18c-.12.12-.24.35-.36.47a1.75,1.75,0,0,0,.47,1.06A2.52,2.52,0,0,0,50,15.77c1.07.24,2-.82,3-.82s1.66.47,2.49.47,1.42-.94,1.66-1.77a19,19,0,0,0-5.34-3.77c-.71.94-2.37,2.24-3.09,3.3Z" transform="translate(-2 -7.03)" style="fill:#e3f2fd;stroke:#2196f3;stroke-miterlimit:10;fill-rule:evenodd"/><path d="M62,21.54c-.36,1.18-1.42.82-2.85.94-1.66.12-2.73-.71-4.27-.94a3.43,3.43,0,0,0-3.56,1.88c-.47.94-1.31,2.94-.59,3.77A3.7,3.7,0,0,0,52,28.25a16.63,16.63,0,0,0,2,1.06A4.62,4.62,0,0,1,56.4,30.6a3.65,3.65,0,0,1,.47,2.24c-.24,2-2,3.77-.36,5.53a2.93,2.93,0,0,0,2.26,1.06,19,19,0,0,0,4-11.89,19.85,19.85,0,0,0-.83-6Z" transform="translate(-2 -7.03)" style="fill:#e3f2fd;stroke:#2196f3;stroke-miterlimit:10;fill-rule:evenodd"/><path d="M43.81,11.77a1.87,1.87,0,0,0,2.14-.59,5.4,5.4,0,0,0,.83-3.06,20.18,20.18,0,0,0-3.92-.35H41.79a15.64,15.64,0,0,1,.83,2.12,2.52,2.52,0,0,0,1.19,1.88Z" transform="translate(-2 -7.03)" style="fill:#e3f2fd;stroke:#2196f3;stroke-miterlimit:10;fill-rule:evenodd"/><path d="M27.19,22.13a24.17,24.17,0,0,0,3.21,2.71c.24.24.59.47.71.82.36,1.06-.24,2.24.47,3.41s1.9,1.88,2.26,3.06c.24.94-.24,2,0,3.06s1.42,1.88,1.9,3.06a14.6,14.6,0,0,1,.36,2.24A1.87,1.87,0,0,0,37.76,42c.95-.12,1.31-1.29,1.31-2.24s.24-2,1.07-2.47c.47-.24,1.07-.12,1.42-.47.47-.59,0-1.65,0-2.47A3.13,3.13,0,0,1,43,32.25l2.49-2.12A2,2,0,0,0,45.95,28a4.12,4.12,0,0,0-1.42-1.77,2.46,2.46,0,0,0-2.37-.35c-.59.24-.95.82-1.66.82a1.57,1.57,0,0,1-1.31-.94,6.93,6.93,0,0,1-.71-1.65c-.83-1.41-2.14-1.29-3.56-1.53A8.11,8.11,0,0,1,31,20.72c-.24-.12-.36-.35-.47-.47-.36-1.29,1.9-1.88,2.61-1.77a10.24,10.24,0,0,0,1.9,0,5,5,0,0,0,1.42-.94c1.42-.94,3.32.35,3.68-2.24a6.7,6.7,0,0,0-.71-2.94,22.9,22.9,0,0,1-1.42-4A20.06,20.06,0,0,0,25.06,18.72c.71.71.47.35.71,1.29a5.17,5.17,0,0,0,1.42,2.12Z" transform="translate(-2 -7.03)" style="fill:#e3f2fd;stroke:#2196f3;stroke-miterlimit:10;fill-rule:evenodd"/><line x1="53.92" y1="35.46" x2="60.33" y2="35.46" style="fill:#e6fa08;stroke:#2196f3;stroke-linecap:round;stroke-linejoin:round"/><line x1="65.32" y1="35.46" x2="70.42" y2="35.46" style="fill:#e6fa08;stroke:#2196f3;stroke-linecap:round;stroke-linejoin:round"/><line x1="75.41" y1="35.46" x2="85.5" y2="35.46" style="fill:#e6fa08;stroke:#2196f3;stroke-linecap:round;stroke-linejoin:round"/><line x1="41.81" y1="43.46" x2="76.95" y2="43.46" style="fill:#e6fa08;stroke:#2196f3;stroke-linecap:round;stroke-linejoin:round"/></g></g></g></svg>