<svg id="4d196b9c-656c-4130-98df-e8cfdfefee2d" data-name="Слой 1" xmlns="http://www.w3.org/2000/svg" viewBox="0 0 90 60"><title>service-1</title><line x1="2.48" y1="42.41" x2="12.52" y2="42.41" style="fill:#e6fa08;stroke:#2196f3;stroke-linecap:round;stroke-linejoin:round;stroke-width:1.25px"/><line x1="17.48" y1="42.41" x2="22.56" y2="42.41" style="fill:#e6fa08;stroke:#2196f3;stroke-linecap:round;stroke-linejoin:round;stroke-width:1.25px"/><line x1="27.52" y1="42.41" x2="37.56" y2="42.41" style="fill:#e6fa08;stroke:#2196f3;stroke-linecap:round;stroke-linejoin:round;stroke-width:1.25px"/><line x1="42.52" y1="42.41" x2="47.6" y2="42.41" style="fill:#e6fa08;stroke:#2196f3;stroke-linecap:round;stroke-linejoin:round;stroke-width:1.25px"/><line x1="52.56" y1="42.41" x2="62.6" y2="42.41" style="fill:#e6fa08;stroke:#2196f3;stroke-linecap:round;stroke-linejoin:round;stroke-width:1.25px"/><line x1="67.56" y1="42.41" x2="72.52" y2="42.41" style="fill:#e6fa08;stroke:#2196f3;stroke-linecap:round;stroke-linejoin:round;stroke-width:1.25px"/><line x1="77.48" y1="42.41" x2="87.52" y2="42.41" style="fill:#e6fa08;stroke:#2196f3;stroke-linecap:round;stroke-linejoin:round;stroke-width:1.25px"/><line x1="10.04" y1="52.37" x2="80.08" y2="52.37" style="fill:#e6fa08;stroke:#2196f3;stroke-linecap:round;stroke-linejoin:round;stroke-width:1.25px"/><path d="M9.33,36.79h73a1,1,0,0,0,.94-1.05V30.82a1,1,0,0,0-.94-1.05h-73a1,1,0,0,0-.94,1.05v4.92a1,1,0,0,0,.94,1.05Z" style="fill:#e3f2fd;stroke:#2196f3;stroke-miterlimit:10;stroke-width:1.25px;fill-rule:evenodd"/><path d="M61.66,32.81a3.92,3.92,0,1,0,3.9,3.86,3.94,3.94,0,0,0-3.9-3.86Z" style="fill:#fff;stroke:#2196f3;stroke-miterlimit:10;stroke-width:1.25px;fill-rule:evenodd"/><path d="M71.57,32.81a3.92,3.92,0,1,0,0,7.85,3.92,3.92,0,1,0,0-7.85Z" style="fill:#fff;stroke:#2196f3;stroke-miterlimit:10;stroke-width:1.25px;fill-rule:evenodd"/><path d="M7.91,38.31H10a3.69,3.69,0,0,1-.24-1.64,5.77,5.77,0,0,1,5.79-5.74h6.26V14.19a1,1,0,0,0-.94-.94h-8a7.86,7.86,0,0,0-7.8,7.85V35.5a2.86,2.86,0,0,0,2.83,2.81Z" style="fill:#fff;stroke:#2196f3;stroke-linecap:round;stroke-linejoin:round;stroke-width:1.25px;fill-rule:evenodd"/><path d="M5.43,18.52a9.06,9.06,0,0,0-.35,2.58v4.68h6.73A3.16,3.16,0,0,0,15,22.62V19.7a1.18,1.18,0,0,0-1.18-1.17Z" style="fill:#e3f2fd;stroke:#2196f3;stroke-miterlimit:10;stroke-width:1.25px;fill-rule:evenodd"/><path d="M26.34,32.81H82.68a1.93,1.93,0,0,0,1.89-1.87V9.62a1.93,1.93,0,0,0-1.89-1.87H26.34a1.86,1.86,0,0,0-1.89,1.87V30.94a1.86,1.86,0,0,0,1.89,1.87Z" style="fill:#fff;stroke:#2196f3;stroke-miterlimit:10;stroke-width:1.25px;fill-rule:evenodd"/><path d="M16.59,32.81a3.92,3.92,0,1,0,3.9,3.86,3.94,3.94,0,0,0-3.9-3.86Z" style="fill:#fff;stroke:#2196f3;stroke-miterlimit:10;stroke-width:1.25px;fill-rule:evenodd"/><path d="M16.59,35.15a1.56,1.56,0,0,0-1.54,1.52,1.54,1.54,0,1,0,3.07,0,1.56,1.56,0,0,0-1.54-1.52Z" style="fill:#e3f2fd;stroke:#2196f3;stroke-miterlimit:10;stroke-width:1.25px;fill-rule:evenodd"/><path d="M61.66,35.15a1.56,1.56,0,0,0-1.54,1.52,1.54,1.54,0,1,0,3.07,0,1.56,1.56,0,0,0-1.54-1.52Z" style="fill:#e3f2fd;stroke:#2196f3;stroke-miterlimit:10;stroke-width:1.25px;fill-rule:evenodd"/><path d="M71.57,35.15A1.56,1.56,0,0,0,70,36.67a1.54,1.54,0,1,0,3.07,0,1.56,1.56,0,0,0-1.54-1.52Z" style="fill:#e3f2fd;stroke:#2196f3;stroke-miterlimit:10;stroke-width:1.25px;fill-rule:evenodd"/></svg>