<svg xmlns="http://www.w3.org/2000/svg" viewBox="0 0 90 60"><title>service-3</title><g id="dac4a380-a1bf-448f-8acc-4cf693bf26ec" data-name="air"><path d="M58.23,21.55H46.42V12.88A1.53,1.53,0,0,0,45,11.36h0a1.53,1.53,0,0,0-1.42,1.52v8.67H31.77a1.46,1.46,0,0,0-1.42,1.52,1.43,1.43,0,0,0,1.42,1.41H58.23a1.52,1.52,0,0,0,1.42-1.41,1.54,1.54,0,0,0-1.42-1.52Z" style="fill:#e3f2fd;stroke:#2196f3;stroke-linecap:round;stroke-linejoin:round"/><rect x="17.13" y="30.33" width="2.95" height="7.26" style="fill:#e3f2fd;stroke:#2196f3;stroke-linecap:round;stroke-linejoin:round"/><rect x="69.92" y="30.33" width="2.95" height="7.26" style="fill:#e3f2fd;stroke:#2196f3;stroke-linecap:round;stroke-linejoin:round"/><polygon points="2.48 28.81 2.48 30.33 39.09 34.66 50.91 34.66 87.52 30.33 87.52 28.81 2.48 28.81" style="fill:#fff;stroke:#2196f3;stroke-linecap:round;stroke-linejoin:round"/><path d="M45,40.4h0a7.25,7.25,0,0,1-7.32-7.26V30.33A7.25,7.25,0,0,1,45,23.07h0a7.25,7.25,0,0,1,7.32,7.26v2.81A7.25,7.25,0,0,1,45,40.4Z" style="fill:#fff;stroke:#2196f3;stroke-linecap:round;stroke-linejoin:round"/><path d="M18.36,35.36a5.32,5.32,0,1,1,0,10.64,5.32,5.32,0,1,1,0-10.64Z" style="fill:#fff;stroke:#2196f3;stroke-linecap:round;stroke-linejoin:round"/><path d="M71.34,35.36A3.63,3.63,0,1,1,67.68,39a3.66,3.66,0,0,1,3.66-3.63Z" style="fill:#fff;stroke:#2196f3;stroke-linecap:round;stroke-linejoin:round"/><path d="M47.24,30.33H42.76a1.46,1.46,0,0,1-1.42-1.52,1.36,1.36,0,0,1,1.42-1.41h4.49a1.43,1.43,0,0,1,1.42,1.41,1.54,1.54,0,0,1-1.42,1.52Z" style="fill:#e3f2fd;stroke:#2196f3;stroke-linecap:round;stroke-linejoin:round"/><path d="M18.36,38.62a2.06,2.06,0,1,1,0,4.12,2.07,2.07,0,1,1,0-4.12Z" style="fill:#e3f2fd;stroke:#2196f3;stroke-linecap:round;stroke-linejoin:round"/><path d="M71.36,35.36a5.32,5.32,0,1,1,0,10.64,5.32,5.32,0,1,1,0-10.64Z" style="fill:#fff;stroke:#2196f3;stroke-linecap:round;stroke-linejoin:round"/><path d="M71.36,38.62a2.06,2.06,0,1,1,0,4.12,2.07,2.07,0,1,1,0-4.12Z" style="fill:#e3f2fd;stroke:#2196f3;stroke-linecap:round;stroke-linejoin:round"/></g></svg>