<svg xmlns="http://www.w3.org/2000/svg" viewBox="0 0 90 60"><title>service-9</title><g id="5bd347f5-446e-462a-a568-fb28026cde6e" data-name="cargo"><rect x="20.02" y="9.95" width="2.48" height="12.65" style="fill:#e3f2fd;stroke:#2196f3;stroke-linecap:round;stroke-linejoin:round"/><path d="M74.94,44.62h-60a5,5,0,0,1-5-4.92h0a5,5,0,0,1,5-4.92h60A5,5,0,0,1,80,39.7h0a5,5,0,0,1-5.08,4.92Z" style="fill:#fff;stroke:#2196f3;stroke-linecap:round;stroke-linejoin:round;fill-rule:evenodd"/><path d="M70,19.91H40v-7a.71.71,0,0,1,.35-.7L49,5H68.8A1.07,1.07,0,0,1,70,6Z" style="fill:#fff;stroke:#2196f3;stroke-linecap:round;stroke-linejoin:round;fill-rule:evenodd"/><line x1="49.31" y1="5.04" x2="49.31" y2="19.91" style="fill:#e3f2fd;stroke:#2196f3;stroke-linecap:round;stroke-linejoin:round"/><path d="M74.94,34.78H15.65V22.83a2.91,2.91,0,0,1,3-2.93H74.94Z" style="fill:#fff;stroke:#2196f3;stroke-linecap:round;stroke-linejoin:round;fill-rule:evenodd"/><path d="M22.15,37.24a2.46,2.46,0,1,0,0,4.92,2.46,2.46,0,1,0,0-4.92Z" style="fill:#e3f2fd;stroke:#2196f3;stroke-linecap:round;stroke-linejoin:round;fill-rule:evenodd"/><path d="M15.18,37.24a2.46,2.46,0,1,0,2.48,2.46,2.41,2.41,0,0,0-2.48-2.46Z" style="fill:#e3f2fd;stroke:#2196f3;stroke-linecap:round;stroke-linejoin:round;fill-rule:evenodd"/><rect x="22.5" y="44.62" width="45" height="3.04" style="fill:#fff;stroke:#2196f3;stroke-linecap:round;stroke-linejoin:round"/><path d="M31,54.57h3A1,1,0,0,0,35,53.63v-13A1,1,0,0,0,34,39.7H31a1,1,0,0,0-1.06.94v13a1,1,0,0,0,1.06.94Z" style="fill:#e3f2fd;stroke:#2196f3;stroke-linecap:round;stroke-linejoin:round;fill-rule:evenodd"/><path d="M55.93,54.57H59a.93.93,0,0,0,.94-.94v-13A.93.93,0,0,0,59,39.7H55.93a1,1,0,0,0-.94.94v13a1,1,0,0,0,.94.94Z" style="fill:#e3f2fd;stroke:#2196f3;stroke-linecap:round;stroke-linejoin:round;fill-rule:evenodd"/><path d="M63.72,29.46l-3.78,1.29-.83-2.34,3.78-1.29a1.06,1.06,0,0,1,1.3.59l.12.47a.94.94,0,0,1-.59,1.29Z" style="fill:#fff;stroke:#2196f3;stroke-linecap:round;stroke-linejoin:round;fill-rule:evenodd"/><path d="M26.16,29.46l3.78,1.29.94-2.34-3.78-1.29a1,1,0,0,0-1.3.59l-.24.47a1.17,1.17,0,0,0,.59,1.29Z" style="fill:#fff;stroke:#2196f3;stroke-linecap:round;stroke-linejoin:round;fill-rule:evenodd"/><path d="M29.94,43h30V17.88a2.26,2.26,0,0,0-2.48-2H32.66c-1.42,0-2.72,1-2.72,2.1Z" style="fill:#fff;stroke:#2196f3;stroke-linecap:round;stroke-linejoin:round;fill-rule:evenodd"/><path d="M33,28.93H56.9a1.06,1.06,0,0,0,1-1.11V19A.92.92,0,0,0,57,18H32.58c-.26,0-.52.28-.52.69v9.13A1,1,0,0,0,33,28.93Z" style="fill:#e3f2fd;stroke:#2196f3;stroke-linecap:round;stroke-linejoin:round;fill-rule:evenodd"/><path d="M29.93,49.65h30a1.94,1.94,0,0,0,2-1.87V33.85A2.91,2.91,0,0,0,59,31H31a3,3,0,0,0-3.07,2.85V47.78A1.94,1.94,0,0,0,29.93,49.65Z" style="fill:#fff;stroke:#2196f3;stroke-linecap:round;stroke-linejoin:round;fill-rule:evenodd"/><path d="M58.52,38.65h3.43V35.49H57v1.64a1.56,1.56,0,0,0,1.54,1.52Z" style="fill:#fff;stroke:#2196f3;stroke-linecap:round;stroke-linejoin:round;fill-rule:evenodd"/><path d="M31.48,38.65H27.93V35.49H33v1.64a1.56,1.56,0,0,1-1.54,1.52Z" style="fill:#fff;stroke:#2196f3;stroke-linecap:round;stroke-linejoin:round;fill-rule:evenodd"/><path d="M38,45.55H52a.63.63,0,0,0,.59-.59v-4.8A.54.54,0,0,0,52,39.7H37.74a.31.31,0,0,0-.35.35V45a.56.56,0,0,0,.59.59Z" style="fill:#e3f2fd;stroke:#2196f3;stroke-linecap:round;stroke-linejoin:round;fill-rule:evenodd"/><path d="M67.74,37.24a2.46,2.46,0,1,0,0,4.92,2.46,2.46,0,1,0,0-4.92Z" style="fill:#e3f2fd;stroke:#2196f3;stroke-linecap:round;stroke-linejoin:round;fill-rule:evenodd"/><path d="M74.82,37.24a2.46,2.46,0,1,0,0,4.92,2.46,2.46,0,1,0,0-4.92Z" style="fill:#e3f2fd;stroke:#2196f3;stroke-linecap:round;stroke-linejoin:round;fill-rule:evenodd"/></g></svg>