<svg xmlns="http://www.w3.org/2000/svg" xmlns:xlink="http://www.w3.org/1999/xlink" width="86" height="45.59" viewBox="0 0 86 45.59"><defs><clipPath id="ef5af815-5ede-4388-9a57-452beeaba60b" transform="translate(-2 -7.2)"><rect width="90" height="60" style="fill:none"/></clipPath></defs><title>1. Автомобильные грузоперевозки</title><g id="a01c7879-221a-4bf5-b8a6-0dd22c89884a" data-name="Слой 2"><g id="f0c79df9-0690-4df3-af4b-fcec466abd15" data-name="Слой 1"><g style="clip-path:url(#ef5af815-5ede-4388-9a57-452beeaba60b)"><line x1="0.5" y1="35.26" x2="10.53" y2="35.26" style="fill:#e6fa08;stroke:#2196f3;stroke-linecap:round;stroke-linejoin:round"/><line x1="15.49" y1="35.26" x2="20.57" y2="35.26" style="fill:#e6fa08;stroke:#2196f3;stroke-linecap:round;stroke-linejoin:round"/><line x1="25.53" y1="35.26" x2="35.56" y2="35.26" style="fill:#e6fa08;stroke:#2196f3;stroke-linecap:round;stroke-linejoin:round"/><line x1="40.52" y1="35.26" x2="45.48" y2="35.26" style="fill:#e6fa08;stroke:#2196f3;stroke-linecap:round;stroke-linejoin:round"/><line x1="50.56" y1="35.26" x2="60.47" y2="35.26" style="fill:#e6fa08;stroke:#2196f3;stroke-linecap:round;stroke-linejoin:round"/><line x1="65.55" y1="35.26" x2="70.51" y2="35.26" style="fill:#e6fa08;stroke:#2196f3;stroke-linecap:round;stroke-linejoin:round"/><line x1="75.47" y1="35.26" x2="85.5" y2="35.26" style="fill:#e6fa08;stroke:#2196f3;stroke-linecap:round;stroke-linejoin:round"/><line x1="8.06" y1="45.09" x2="78.06" y2="45.09" style="fill:#e6fa08;stroke:#2196f3;stroke-linecap:round;stroke-linejoin:round"/><path d="M9.35,36.73H82.19a1,1,0,0,0,1.06-.94v-5a1,1,0,0,0-1.06-.94H9.35a.93.93,0,0,0-.94.94v5a.93.93,0,0,0,.94.94Z" transform="translate(-2 -7.2)" style="fill:#e3f2fd;stroke:#2196f3;stroke-miterlimit:10;fill-rule:evenodd"/><path d="M15.6,32.87a3.92,3.92,0,1,0,3.9,3.86,3.94,3.94,0,0,0-3.9-3.86Z" transform="translate(-2 -7.2)" style="fill:#fff;stroke:#2196f3;stroke-miterlimit:10;fill-rule:evenodd"/><path d="M63.65,32.87a3.92,3.92,0,1,0,3.9,3.86,3.94,3.94,0,0,0-3.9-3.86Z" transform="translate(-2 -7.2)" style="fill:#fff;stroke:#2196f3;stroke-miterlimit:10;fill-rule:evenodd"/><path d="M71.56,32.87a3.92,3.92,0,1,0,3.9,3.86,3.94,3.94,0,0,0-3.9-3.86Z" transform="translate(-2 -7.2)" style="fill:#fff;stroke:#2196f3;stroke-miterlimit:10;fill-rule:evenodd"/><path d="M7.93,38.37h2a6.85,6.85,0,0,1-.24-1.64A5.8,5.8,0,0,1,15.6,31h6.26V14.26a.93.93,0,0,0-.94-.94h-8A7.83,7.83,0,0,0,5.1,21V35.56a2.78,2.78,0,0,0,2.83,2.81Z" transform="translate(-2 -7.2)" style="fill:#fff;stroke:#2196f3;stroke-linecap:round;stroke-linejoin:round;fill-rule:evenodd"/><path d="M5.45,18.59A8.84,8.84,0,0,0,5.1,21v4.8h6.73A3.26,3.26,0,0,0,15,22.57V19.76a1.11,1.11,0,0,0-1.18-1.17Z" transform="translate(-2 -7.2)" style="fill:#e3f2fd;stroke:#2196f3;stroke-miterlimit:10;fill-rule:evenodd"/><path d="M26.35,32.87H82.54A1.93,1.93,0,0,0,84.43,31V9.58A1.86,1.86,0,0,0,82.54,7.7H26.35a1.86,1.86,0,0,0-1.89,1.87V31a1.93,1.93,0,0,0,1.89,1.87Z" transform="translate(-2 -7.2)" style="fill:#fff;stroke:#2196f3;stroke-miterlimit:10;fill-rule:evenodd"/><path d="M15.6,35.21a1.53,1.53,0,1,0,0,3,1.52,1.52,0,1,0,0-3Z" transform="translate(-2 -7.2)" style="fill:#e3f2fd;stroke:#2196f3;stroke-miterlimit:10;fill-rule:evenodd"/><path d="M63.65,35.21a1.52,1.52,0,1,0,0,3,1.52,1.52,0,1,0,0-3Z" transform="translate(-2 -7.2)" style="fill:#e3f2fd;stroke:#2196f3;stroke-miterlimit:10;fill-rule:evenodd"/><path d="M71.56,35.21a1.52,1.52,0,1,0,1.53,1.52,1.56,1.56,0,0,0-1.53-1.52Z" transform="translate(-2 -7.2)" style="fill:#e3f2fd;stroke:#2196f3;stroke-miterlimit:10;fill-rule:evenodd"/></g></g></g></svg>