<svg xmlns="http://www.w3.org/2000/svg" width="90" height="60" viewBox="0 0 90 60"><title>service-10</title><g id="004d2c81-3a90-4352-90d5-4926b8c3c55d" data-name="Слой 1"><path d="M69.33,13.94,84.92,45a.74.74,0,0,1,0,.7.65.65,0,0,1-.59.35H52.91a.65.65,0,0,1-.59-.35c-.12-.23-.24-.47-.12-.7l15.71-31a.8.8,0,0,1,.71-.47c.24,0,.47.23.71.47Z" style="fill:#e3f2fd;stroke:#2196f3;stroke-linecap:round;stroke-linejoin:round;fill-rule:evenodd"/><polygon points="68.62 21.78 58.47 41.92 78.78 41.92 68.62 21.78" style="fill:#fff;stroke:#2196f3;stroke-linecap:round;stroke-linejoin:round;fill-rule:evenodd"/><path d="M20.79,13.94,5.08,45a.55.55,0,0,0,.12.7.65.65,0,0,0,.59.35h31.3a.72.72,0,0,0,.71-.35.74.74,0,0,0,0-.7l-15.71-31a.78.78,0,0,0-.59-.47.8.8,0,0,0-.71.47Z" style="fill:#e3f2fd;stroke:#2196f3;stroke-linecap:round;stroke-linejoin:round;fill-rule:evenodd"/><polygon points="21.5 21.78 11.34 41.92 31.65 41.92 21.5 21.78" style="fill:#fff;stroke:#2196f3;stroke-linecap:round;stroke-linejoin:round;fill-rule:evenodd"/><path d="M45.94,8.08l21.5,42.51a1.13,1.13,0,0,1-.12,1.05,1,1,0,0,1-.83.47H23.62a1.23,1.23,0,0,1-.94-.47,1.11,1.11,0,0,1,0-1.05L44.17,8.08A.89.89,0,0,1,45,7.49a.94.94,0,0,1,.94.59Z" style="fill:#e3f2fd;stroke:#2196f3;stroke-linecap:round;stroke-linejoin:round;fill-rule:evenodd"/><polygon points="45 15.46 28.58 48.01 61.42 48.01 45 15.46" style="fill:#fff;stroke:#2196f3;stroke-linecap:round;stroke-linejoin:round;fill-rule:evenodd"/><text transform="translate(35.12 43.01)" style="font-size:9.639220237731934px;fill:#2196f3;font-family:Ubuntu-Medium, Ubuntu">ADR</text></g></svg>