<svg xmlns="http://www.w3.org/2000/svg" viewBox="0 0 90 60"><title>service-5</title><g id="59040242-f24c-43e0-b0e9-e72a74fffeed" data-name="multimodal"><path d="M22,42.08a4.32,4.32,0,0,0-5,0,4,4,0,0,1-5,0,4.51,4.51,0,0,0-5.12,0" style="fill:none;stroke:#2196f3;stroke-linecap:round;stroke-linejoin:round"/><path d="M20,51.53a4.32,4.32,0,0,0-5,0,4,4,0,0,1-5,0,4.51,4.51,0,0,0-5.12,0" style="fill:none;stroke:#2196f3;stroke-linecap:round;stroke-linejoin:round"/><path d="M33.09,46.8a4.32,4.32,0,0,0-5,0,4.32,4.32,0,0,1-5,0,4.51,4.51,0,0,0-5.12,0" style="fill:none;stroke:#2196f3;stroke-linecap:round;stroke-linejoin:round"/><rect x="56.67" y="29.08" width="27.16" height="7.44" style="fill:#e3f2fd;stroke:#2196f3;stroke-linecap:round;stroke-linejoin:round"/><path d="M73.78,32.27a4.19,4.19,0,1,0,4.29,4.25,4.23,4.23,0,0,0-4.29-4.25Z" style="fill:#fff;stroke:#2196f3;stroke-linecap:round;stroke-linejoin:round;fill-rule:evenodd"/><path d="M83,38.18H80.74A3.72,3.72,0,0,0,81,36.53a6.13,6.13,0,0,0-6.19-6.14H67V12.31a1,1,0,0,1,1-.94h9.65a8.45,8.45,0,0,1,8.46,8.39V35.23a3,3,0,0,1-3.1,3Z" style="fill:#fff;stroke:#2196f3;stroke-linecap:round;stroke-linejoin:round;fill-rule:evenodd"/><path d="M85.62,17a6.88,6.88,0,0,1,.48,2.72v5.08H77.76a3.44,3.44,0,0,1-3.45-3.43V18.22A1.3,1.3,0,0,1,75.62,17Z" style="fill:#e3f2fd;stroke:#2196f3;stroke-linecap:round;stroke-linejoin:round;fill-rule:evenodd"/><path d="M63.82,32.27H47.14a1.44,1.44,0,0,1-1.43-1.42V9.35H63.82a1.44,1.44,0,0,1,1.43,1.42V30.86a1.37,1.37,0,0,1-1.43,1.42Z" style="fill:#fff;stroke:#2196f3;stroke-linecap:round;stroke-linejoin:round;fill-rule:evenodd"/><path d="M73.78,34.87a1.65,1.65,0,1,0,0,3.31,1.65,1.65,0,1,0,0-3.31Z" style="fill:#e3f2fd;stroke:#2196f3;stroke-linecap:round;stroke-linejoin:round;fill-rule:evenodd"/><rect x="27.85" y="21.88" width="10.13" height="6.26" style="fill:#fff;stroke:#2196f3;stroke-linecap:round;stroke-linejoin:round"/><rect x="17.72" y="21.88" width="10.13" height="6.26" style="fill:#fff;stroke:#2196f3;stroke-linecap:round;stroke-linejoin:round"/><rect x="20.34" y="15.62" width="10.01" height="6.26" style="fill:#fff;stroke:#2196f3;stroke-linecap:round;stroke-linejoin:round"/><rect x="7.71" y="21.88" width="10.01" height="6.26" style="fill:#fff;stroke:#2196f3;stroke-linecap:round;stroke-linejoin:round"/><rect x="10.21" y="15.62" width="10.13" height="6.26" style="fill:#fff;stroke:#2196f3;stroke-linecap:round;stroke-linejoin:round"/><rect x="12.72" y="9.36" width="10.13" height="6.26" style="fill:#fff;stroke:#2196f3;stroke-linecap:round;stroke-linejoin:round"/><path d="M4,24.83h15a2.72,2.72,0,0,1,1.66.57l2.82,2.17a2.72,2.72,0,0,0,1.66.57h9.91a2.72,2.72,0,0,1,2.72,2.62l.26,6.83c-.12-.12-.24-.12-.36-.24a4.51,4.51,0,0,0-5.12,0,4.32,4.32,0,0,1-5,0,4.32,4.32,0,0,0-5,0,4.51,4.51,0,0,1-5.12,0,4.32,4.32,0,0,0-5,0l-.07,0a2.69,2.69,0,0,1-3.82-1L3.19,26.25a.71.71,0,0,1,0-.94A.9.9,0,0,1,4,24.83Z" style="fill:#e3f2fd;stroke:#2196f3;stroke-linecap:round;stroke-linejoin:round;fill-rule:evenodd"/><path d="M2.35,37.35a4.51,4.51,0,0,1,5.12,0,4.32,4.32,0,0,0,5,0,4.32,4.32,0,0,1,5,0,4.51,4.51,0,0,0,5.12,0,4.32,4.32,0,0,1,5,0,4.32,4.32,0,0,0,5,0,4.51,4.51,0,0,1,5.12,0" style="fill:none;stroke:#2196f3;stroke-linecap:round;stroke-linejoin:round"/><path d="M62.87,27.43a20,20,0,1,0-20,19.84,19.9,19.9,0,0,0,20-19.84Z" style="fill:#fff;stroke:#2196f3;stroke-linecap:round;stroke-linejoin:round;fill-rule:evenodd"/><path d="M48.69,12.9c-.12.24-.36.35-.36.59a3.73,3.73,0,0,0,.36,1.06A3.38,3.38,0,0,0,50,15.5c1.07.35,1.91-.71,3-.83a19.18,19.18,0,0,1,2.5.59c1,0,1.43-.94,1.55-1.89A19.15,19.15,0,0,0,51.79,9.6c-.71,1.06-2.38,2.36-3.1,3.31Z" style="fill:#e3f2fd;stroke:#2196f3;stroke-linecap:round;stroke-linejoin:round;fill-rule:evenodd"/><path d="M61.92,21.41c-.36,1.18-1.31.83-2.74.94-1.67.12-2.74-.71-4.41-1.06a3.47,3.47,0,0,0-3.45,2c-.48.83-1.31,2.83-.6,3.78A5.72,5.72,0,0,0,52,28.14a10.93,10.93,0,0,0,2,1.06c.83.35,1.91.59,2.38,1.3a2.67,2.67,0,0,1,.36,2.13c-.12,2-1.91,3.9-.36,5.67a3,3,0,0,0,2.38,1.06,19.57,19.57,0,0,0,3.1-18Z" style="fill:#e3f2fd;stroke:#2196f3;stroke-linecap:round;stroke-linejoin:round;fill-rule:evenodd"/><path d="M41.78,7.59a11.31,11.31,0,0,1,.83,2.13,2.53,2.53,0,0,0,1.19,1.89h0A1.88,1.88,0,0,0,46,11a5.42,5.42,0,0,0,.83-3.07" style="fill:#e3f2fd;fill-rule:evenodd"/><path d="M43.81,11.6A1.88,1.88,0,0,0,46,11a5.42,5.42,0,0,0,.83-3.07,22.12,22.12,0,0,0-3.93-.35H41.78a11.31,11.31,0,0,1,.83,2.13,2.53,2.53,0,0,0,1.19,1.89Z" style="fill:#e3f2fd;stroke:#2196f3;stroke-linecap:round;stroke-linejoin:round;fill-rule:evenodd"/><path d="M27.13,22a24.26,24.26,0,0,0,3.22,2.72c.24.24.6.47.71.83.36,1.06-.24,2.24.36,3.43s2,1.77,2.26,3.07c.36.94-.12,2,.12,3,.36,1.18,1.43,2,1.91,3.19a14.65,14.65,0,0,1,.36,2.24c.24.83.83,1.54,1.55,1.42,1,0,1.43-1.18,1.43-2.13s.24-2,1.07-2.48c.36-.24,1-.24,1.31-.59.6-.59,0-1.54,0-2.36a4.25,4.25,0,0,1,1.43-2.13c1-.71,1.79-1.42,2.62-2.13A2,2,0,0,0,46,27.9a4.13,4.13,0,0,0-1.43-1.77,2.87,2.87,0,0,0-2.38-.47c-.6.24-1.07.83-1.67.94a1.58,1.58,0,0,1-1.31-.94A17.25,17.25,0,0,1,38.45,24c-.83-1.42-2.14-1.3-3.57-1.54a8.14,8.14,0,0,1-3.93-1.89,1.18,1.18,0,0,1-.48-.59c-.36-1.18,1.79-1.77,2.62-1.77a4.58,4.58,0,0,0,1.79.12,6.76,6.76,0,0,0,1.55-.94c1.31-.94,3.34.35,3.57-2.24a6.26,6.26,0,0,0-.6-3,23,23,0,0,1-1.43-4A19.52,19.52,0,0,0,25,18.57c.71.71.48.35.71,1.3A6.1,6.1,0,0,0,27.13,22Z" style="fill:#e3f2fd;stroke:#2196f3;stroke-linecap:round;stroke-linejoin:round;fill-rule:evenodd"/><line x1="55.96" y1="42.43" x2="62.39" y2="42.43" style="fill:#e6fa08;stroke:#2196f3;stroke-linecap:round;stroke-linejoin:round"/><line x1="67.4" y1="42.43" x2="72.52" y2="42.43" style="fill:#e6fa08;stroke:#2196f3;stroke-linecap:round;stroke-linejoin:round"/><line x1="77.52" y1="42.43" x2="87.65" y2="42.43" style="fill:#e6fa08;stroke:#2196f3;stroke-linecap:round;stroke-linejoin:round"/><line x1="43.69" y1="50.34" x2="79.07" y2="50.34" style="fill:#e6fa08;stroke:#2196f3;stroke-linecap:round;stroke-linejoin:round"/></g></svg>