<svg id="6115953a-af73-4ef7-9aa9-7b46de7b4d3a" data-name="cargo" xmlns="http://www.w3.org/2000/svg" width="90" height="60" viewBox="0 0 90 60"><title>service-6</title><path d="M15.87,54.39h7a1.57,1.57,0,0,0,1.55-1.54v-6H14.32v6a1.57,1.57,0,0,0,1.55,1.54Z" style="fill:#e3f2fd;stroke:#2196f3;stroke-linecap:round;stroke-linejoin:round;fill-rule:evenodd"/><path d="M66.38,54.39h6.91a1.5,1.5,0,0,0,1.55-1.54v-6h-10v6a1.5,1.5,0,0,0,1.55,1.54Z" style="fill:#e3f2fd;stroke:#2196f3;stroke-linecap:round;stroke-linejoin:round;fill-rule:evenodd"/><path d="M6.1,50.61H84a1,1,0,0,0,1-1.06v-3a1,1,0,0,0-1-1.06H6.1A1.06,1.06,0,0,0,5,46.59v3A1.06,1.06,0,0,0,6.1,50.61Z" style="fill:#fff;stroke:#2196f3;stroke-linecap:round;stroke-linejoin:round;fill-rule:evenodd"/><path d="M47.8,8.09H66.62A1.06,1.06,0,0,0,67.69,7V6.56a1,1,0,0,0-1.07-.94H47.8a.94.94,0,0,0-1,.94V7a1,1,0,0,0,1,1.06Z" style="fill:#e3f2fd;stroke:#2196f3;stroke-linecap:round;stroke-linejoin:round;fill-rule:evenodd"/><path d="M48.63,45.53H65.79a4,4,0,0,0,4.05-4V12.11a4,4,0,0,0-4.05-4H48.63a4.08,4.08,0,0,0-4.05,4V41.52a4.08,4.08,0,0,0,4.05,4Z" style="fill:#fff;stroke:#2196f3;stroke-linecap:round;stroke-linejoin:round;fill-rule:evenodd"/><path d="M17.9,45.53H41.13a.94.94,0,0,0,1-.94v-23a.94.94,0,0,0-1-.94H17.9a.87.87,0,0,0-1,.94v23a.87.87,0,0,0,1,.94Z" style="fill:#fff;stroke:#2196f3;stroke-linecap:round;stroke-linejoin:round;fill-rule:evenodd"/><line x1="29.45" y1="20.61" x2="29.45" y2="25.57" style="fill:#fff;stroke:#2196f3;stroke-linecap:round;stroke-linejoin:round"/><line x1="44.58" y1="20.61" x2="69.84" y2="20.61" style="fill:#e3f2fd;stroke:#2196f3;stroke-linecap:round;stroke-linejoin:round"/><line x1="44.58" y1="33.01" x2="69.84" y2="33.01" style="fill:#e3f2fd;stroke:#2196f3;stroke-linecap:round;stroke-linejoin:round"/></svg>