<svg xmlns="http://www.w3.org/2000/svg" xmlns:xlink="http://www.w3.org/1999/xlink" width="86" height="45.95" viewBox="0 0 86 45.95"><defs><clipPath id="644b0776-186f-4a22-ae05-807962ab112a" transform="translate(-2 -7.03)"><rect width="90" height="60" style="fill:none"/></clipPath></defs><title>2. Железнодороджные грузоперевозки</title><g id="7a296b2d-6918-4937-90cb-03b03ecfa526" data-name="Слой 2"><g id="45bbf9e2-89c1-4710-aac0-c370056d76ab" data-name="Слой 1"><g style="clip-path:url(#644b0776-186f-4a22-ae05-807962ab112a)"><path d="M12.53,12.8c9.21,0,19.36-5.38,32.23-5.27,12,.12,22.55,5.27,33.06,5.27" transform="translate(-2 -7.03)" style="fill:#e3f2fd;stroke:#2196f3;stroke-linecap:round;stroke-linejoin:round;fill-rule:evenodd"/><path d="M20.8,48a2.23,2.23,0,0,0-2.24,2.22,2.16,2.16,0,0,0,2.24,2.22,2.14,2.14,0,0,0,2.13-2.22A2.21,2.21,0,0,0,20.8,48Z" transform="translate(-2 -7.03)" style="fill:#fff;stroke:#2196f3;stroke-miterlimit:10;fill-rule:evenodd"/><path d="M29.65,48a2.23,2.23,0,0,0-2.24,2.22,2.16,2.16,0,0,0,2.24,2.22,2.23,2.23,0,0,0,2.24-2.22A2.31,2.31,0,0,0,29.65,48Z" transform="translate(-2 -7.03)" style="fill:#fff;stroke:#2196f3;stroke-miterlimit:10;fill-rule:evenodd"/><path d="M60.7,48a2.31,2.31,0,0,0-2.24,2.22,2.23,2.23,0,0,0,2.24,2.22,2.16,2.16,0,0,0,2.24-2.22A2.23,2.23,0,0,0,60.7,48Z" transform="translate(-2 -7.03)" style="fill:#fff;stroke:#2196f3;stroke-miterlimit:10;fill-rule:evenodd"/><path d="M69.56,48a2.21,2.21,0,0,0-2.13,2.22,2.14,2.14,0,0,0,2.13,2.22,2.16,2.16,0,0,0,2.24-2.22A2.23,2.23,0,0,0,69.56,48Z" transform="translate(-2 -7.03)" style="fill:#fff;stroke:#2196f3;stroke-miterlimit:10;fill-rule:evenodd"/><rect x="3.57" y="5.77" width="79.22" height="32.19" style="fill:#fff;stroke:#2196f3;stroke-miterlimit:10"/><path d="M11.47,51.3h1.42V48.85H10.17V50a1.3,1.3,0,0,0,1.3,1.29Z" transform="translate(-2 -7.03)" style="fill:#fff;stroke:#2196f3;stroke-miterlimit:10;fill-rule:evenodd"/><path d="M78.88,51.3H77.47V48.85h2.72V50a1.3,1.3,0,0,1-1.3,1.29Z" transform="translate(-2 -7.03)" style="fill:#fff;stroke:#2196f3;stroke-miterlimit:10;fill-rule:evenodd"/><path d="M4.86,49.08H85.49A1,1,0,0,0,86.44,48V45.92a.93.93,0,0,0-.94-.94H4.86a.93.93,0,0,0-.94.94V48a1,1,0,0,0,.94,1.05Z" transform="translate(-2 -7.03)" style="fill:#e3f2fd;stroke:#2196f3;stroke-miterlimit:10;fill-rule:evenodd"/><line x1="3.57" y1="35.5" x2="0.5" y2="35.5" style="fill:#e6fa08;stroke:#2196f3;stroke-linecap:round;stroke-linejoin:round"/><line x1="3.57" y1="33.74" x2="0.5" y2="33.74" style="fill:#e6fa08;stroke:#2196f3;stroke-linecap:round;stroke-linejoin:round"/><line x1="85.5" y1="35.5" x2="82.78" y2="35.5" style="fill:#e6fa08;stroke:#2196f3;stroke-linecap:round;stroke-linejoin:round"/><line x1="85.5" y1="33.74" x2="82.78" y2="33.74" style="fill:#e6fa08;stroke:#2196f3;stroke-linecap:round;stroke-linejoin:round"/><line x1="18.21" y1="5.77" x2="18.21" y2="37.96" style="fill:#e6fa08;stroke:#2196f3;stroke-linecap:round;stroke-linejoin:round"/><line x1="43.24" y1="5.77" x2="43.24" y2="37.96" style="fill:#e6fa08;stroke:#2196f3;stroke-linecap:round;stroke-linejoin:round"/><line x1="68.15" y1="5.77" x2="68.15" y2="37.96" style="fill:#e6fa08;stroke:#2196f3;stroke-linecap:round;stroke-linejoin:round"/><rect x="18.21" y="5.77" width="24.91" height="32.19" style="fill:#fff;stroke:#2196f3;stroke-miterlimit:10"/><line x1="0.85" y1="45.45" x2="85.5" y2="45.45" style="fill:#e6fa08;stroke:#2196f3;stroke-linecap:round;stroke-linejoin:round"/></g></g></g></svg>