<svg xmlns="http://www.w3.org/2000/svg" xmlns:xlink="http://www.w3.org/1999/xlink" width="86" height="45.34" viewBox="0 0 86 45.34"><defs><clipPath id="8058990a-e4b2-4275-b993-d5878565d6d1" transform="translate(-2 -7.33)"><rect width="90" height="60" style="fill:none"/></clipPath></defs><title>4. Морские грузоперевозки</title><g id="1b1e2f3a-14b9-441d-a47f-93a53469fb71" data-name="Слой 2"><g id="7df10139-a265-4360-bbe2-787797c954b0" data-name="Слой 1"><g style="clip-path:url(#8058990a-e4b2-4275-b993-d5878565d6d1)"><path d="M57.08,24H65A1.06,1.06,0,0,0,66.07,23V18.75A1,1,0,0,0,65,17.81H57.08a1,1,0,0,0-1.07.94V23A1.06,1.06,0,0,0,57.08,24Z" transform="translate(-2 -7.33)" style="fill:#fff;stroke:#2196f3;stroke-miterlimit:10;fill-rule:evenodd"/><path d="M57.55,30.25H65.6a1,1,0,0,0,.95-1.06V25A.93.93,0,0,0,65.6,24H57.55a1,1,0,0,0-.95.94v4.23a1,1,0,0,0,.95,1.06Z" transform="translate(-2 -7.33)" style="fill:#e3f2fd;stroke:#2196f3;stroke-miterlimit:10;fill-rule:evenodd"/><path d="M47.6,30.25h7.93a1.06,1.06,0,0,0,1.07-1.06V25A1,1,0,0,0,55.54,24H47.6a1,1,0,0,0-1.07.94v4.23a1.06,1.06,0,0,0,1.07,1.06Z" transform="translate(-2 -7.33)" style="fill:#fff;stroke:#2196f3;stroke-miterlimit:10;fill-rule:evenodd"/><path d="M62.64,36.47h7.93a1.06,1.06,0,0,0,1.07-1.06V31.19a1,1,0,0,0-1.07-.94H62.64a1,1,0,0,0-1.07.94v4.23a1.06,1.06,0,0,0,1.07,1.06Z" transform="translate(-2 -7.33)" style="fill:#e3f2fd;stroke:#2196f3;stroke-miterlimit:10;fill-rule:evenodd"/><path d="M42.51,36.47h8.05a1,1,0,0,0,.95-1.06V31.19a.87.87,0,0,0-.95-.94H42.51a.93.93,0,0,0-.95.94v4.23a1,1,0,0,0,.95,1.06Z" transform="translate(-2 -7.33)" style="fill:#e3f2fd;stroke:#2196f3;stroke-miterlimit:10;fill-rule:evenodd"/><path d="M52.58,36.47h8.05a1,1,0,0,0,.95-1.06V31.19a.93.93,0,0,0-.95-.94H52.58a1,1,0,0,0-1.07.94v4.23a1.06,1.06,0,0,0,1.07,1.06Z" transform="translate(-2 -7.33)" style="fill:#e3f2fd;stroke:#2196f3;stroke-miterlimit:10;fill-rule:evenodd"/><path d="M10.31,32.24H23.69V19.8H11.38a1.06,1.06,0,0,0-1.07,1.06Z" transform="translate(-2 -7.33)" style="fill:#fff;stroke:#2196f3;stroke-miterlimit:10;fill-rule:evenodd"/><path d="M19.31,40.58H37.07V8.77a1,1,0,0,0-.95-.94H20.26a.93.93,0,0,0-.95.94Z" transform="translate(-2 -7.33)" style="fill:#e3f2fd;stroke:#2196f3;stroke-miterlimit:10;fill-rule:evenodd"/><path d="M23,17.81H33.4a1.06,1.06,0,0,0,1.07-1.06v-2a1,1,0,0,0-1.07-.94H23a1,1,0,0,0-1.07.94v2A1.06,1.06,0,0,0,23,17.81Z" transform="translate(-2 -7.33)" style="fill:#fff;stroke:#2196f3;stroke-miterlimit:10;fill-rule:evenodd"/><path d="M8.3,44.8,2.86,37.41a1,1,0,0,1-.36-.7V33.3a1.06,1.06,0,0,1,1.07-1.06H31.86a1.69,1.69,0,0,1,.71.23l4.74,3.76c.24.12.36.23.59.23H54.12a1.69,1.69,0,0,0,.71-.23l4.62-3.76a1.69,1.69,0,0,1,.71-.23H86.43A1.06,1.06,0,0,1,87.5,33.3v3.4a1,1,0,0,1-.36.7L79.21,45a4.1,4.1,0,0,0-4.14.47,4.3,4.3,0,0,1-5,0,4.48,4.48,0,0,0-5.09,0,4.3,4.3,0,0,1-5,0,4.3,4.3,0,0,0-5,0,4.48,4.48,0,0,1-5.09,0,4.3,4.3,0,0,0-5,0,4.3,4.3,0,0,1-5,0,4.48,4.48,0,0,0-5.09,0,4.3,4.3,0,0,1-5,0,4.3,4.3,0,0,0-5,0,4.48,4.48,0,0,1-5.09,0,4.3,4.3,0,0,0-5,0,4.3,4.3,0,0,1-5,0,4.17,4.17,0,0,0-1.66-.7Z" transform="translate(-2 -7.33)" style="fill:#fff;stroke:#2196f3;stroke-miterlimit:10;fill-rule:evenodd"/><path d="M85.13,45.51a4.48,4.48,0,0,1-5.09,0,4.3,4.3,0,0,0-5,0,4.3,4.3,0,0,1-5,0,4.48,4.48,0,0,0-5.09,0,4.3,4.3,0,0,1-5,0,4.3,4.3,0,0,0-5,0,4.48,4.48,0,0,1-5.09,0,4.3,4.3,0,0,0-5,0,4.3,4.3,0,0,1-5,0,4.48,4.48,0,0,0-5.09,0,4.3,4.3,0,0,1-5,0,4.3,4.3,0,0,0-5,0,4.48,4.48,0,0,1-5.09,0,4.3,4.3,0,0,0-5,0,4.3,4.3,0,0,1-5,0,4.48,4.48,0,0,0-5.09,0" transform="translate(-2 -7.33)" style="fill:none;stroke:#2196f3;stroke-linecap:round;stroke-linejoin:round"/><path d="M30,49.62a4,4,0,0,0-5,0,4.48,4.48,0,0,1-5.09,0,4,4,0,0,0-5,0" transform="translate(-2 -7.33)" style="fill:none;stroke:#2196f3;stroke-linecap:round;stroke-linejoin:round"/><path d="M72.58,51.38a4.3,4.3,0,0,0-5,0,4.48,4.48,0,0,1-5.09,0,4.3,4.3,0,0,0-5,0" transform="translate(-2 -7.33)" style="fill:none;stroke:#2196f3;stroke-linecap:round;stroke-linejoin:round"/></g></g></g></svg>