<svg xmlns="http://www.w3.org/2000/svg" viewBox="0 0 90 60"><title>service-2</title><g id="0b18c8cf-96aa-41ee-9dfa-23c4dbbfc46c" data-name="train"><path d="M5.54,41.7H83.73a.91.91,0,0,0,.94-.82v-33A.91.91,0,0,0,83.73,7H5.54a.8.8,0,0,0-.83.82v33a.8.8,0,0,0,.83.82Z" style="fill:#fff;stroke:#2196f3;stroke-linecap:round;stroke-linejoin:round;fill-rule:evenodd"/><path d="M15.58,43.45a4.1,4.1,0,1,0,4.13,4.1,4.17,4.17,0,0,0-4.13-4.1Z" style="fill:#fff;stroke:#2196f3;stroke-linecap:round;stroke-linejoin:round;fill-rule:evenodd"/><path d="M15.58,45.91a1.61,1.61,0,0,0-1.65,1.64,1.59,1.59,0,0,0,1.65,1.52,1.56,1.56,0,0,0,1.54-1.52,1.58,1.58,0,0,0-1.54-1.64Z" style="fill:#e3f2fd;stroke:#2196f3;stroke-linecap:round;stroke-linejoin:round;fill-rule:evenodd"/><path d="M25.5,43.45a4.1,4.1,0,1,0,4.13,4.1,4.07,4.07,0,0,0-4.13-4.1Z" style="fill:#fff;stroke:#2196f3;stroke-linecap:round;stroke-linejoin:round;fill-rule:evenodd"/><path d="M25.5,45.91A1.58,1.58,0,0,0,24,47.55a1.56,1.56,0,0,0,1.54,1.52,1.59,1.59,0,0,0,1.65-1.52,1.61,1.61,0,0,0-1.65-1.64Z" style="fill:#e3f2fd;stroke:#2196f3;stroke-linecap:round;stroke-linejoin:round;fill-rule:evenodd"/><path d="M63.77,43.45a4.1,4.1,0,1,0,4.13,4.1,4.17,4.17,0,0,0-4.13-4.1Z" style="fill:#fff;stroke:#2196f3;stroke-linecap:round;stroke-linejoin:round;fill-rule:evenodd"/><path d="M63.77,45.91a1.61,1.61,0,0,0-1.65,1.64,1.66,1.66,0,0,0,3.31,0,1.61,1.61,0,0,0-1.65-1.64Z" style="fill:#e3f2fd;stroke:#2196f3;stroke-linecap:round;stroke-linejoin:round;fill-rule:evenodd"/><path d="M73.81,43.45a4.1,4.1,0,1,0,4,4.1,4.09,4.09,0,0,0-4-4.1Z" style="fill:#fff;stroke:#2196f3;stroke-linecap:round;stroke-linejoin:round;fill-rule:evenodd"/><path d="M73.81,45.91a1.61,1.61,0,0,0-1.65,1.64,1.59,1.59,0,0,0,1.65,1.52,1.56,1.56,0,0,0,1.54-1.52,1.58,1.58,0,0,0-1.54-1.64Z" style="fill:#e3f2fd;stroke:#2196f3;stroke-linecap:round;stroke-linejoin:round;fill-rule:evenodd"/><polygon points="34.48 49.08 54.79 49.08 57.04 44.16 32.23 44.16 34.48 49.08" style="fill:#e3f2fd;stroke:#2196f3;stroke-linecap:round;stroke-linejoin:round;fill-rule:evenodd"/><rect x="1.76" y="41.7" width="4.84" height="2.46" style="fill:#e3f2fd;stroke:#2196f3;stroke-linecap:round;stroke-linejoin:round"/><rect x="83.61" y="41.7" width="4.96" height="2.46" style="fill:#e3f2fd;stroke:#2196f3;stroke-linecap:round;stroke-linejoin:round"/><polygon points="9.08 46.62 81.13 46.62 83.61 44.16 83.61 41.7 6.6 41.7 6.6 44.16 9.08 46.62" style="fill:#e3f2fd;stroke:#2196f3;stroke-linecap:round;stroke-linejoin:round;fill-rule:evenodd"/><line x1="9.67" y1="10.08" x2="9.67" y2="38.65" style="fill:#fff;stroke:#2196f3;stroke-linecap:round;stroke-linejoin:round"/><line x1="15.46" y1="10.08" x2="15.46" y2="38.65" style="fill:#fff;stroke:#2196f3;stroke-linecap:round;stroke-linejoin:round"/><line x1="21.37" y1="10.08" x2="21.37" y2="38.65" style="fill:#fff;stroke:#2196f3;stroke-linecap:round;stroke-linejoin:round"/><line x1="27.15" y1="10.08" x2="27.15" y2="38.65" style="fill:#fff;stroke:#2196f3;stroke-linecap:round;stroke-linejoin:round"/><line x1="32.94" y1="10.08" x2="32.94" y2="38.65" style="fill:#fff;stroke:#2196f3;stroke-linecap:round;stroke-linejoin:round"/><line x1="38.85" y1="10.08" x2="38.85" y2="38.65" style="fill:#fff;stroke:#2196f3;stroke-linecap:round;stroke-linejoin:round"/><line x1="44.63" y1="10.08" x2="44.63" y2="38.65" style="fill:#fff;stroke:#2196f3;stroke-linecap:round;stroke-linejoin:round"/><line x1="50.54" y1="10.08" x2="50.54" y2="38.65" style="fill:#fff;stroke:#2196f3;stroke-linecap:round;stroke-linejoin:round"/><line x1="56.33" y1="10.08" x2="56.33" y2="38.65" style="fill:#fff;stroke:#2196f3;stroke-linecap:round;stroke-linejoin:round"/><line x1="62.11" y1="10.08" x2="62.11" y2="38.65" style="fill:#fff;stroke:#2196f3;stroke-linecap:round;stroke-linejoin:round"/><line x1="68.02" y1="10.08" x2="68.02" y2="38.65" style="fill:#fff;stroke:#2196f3;stroke-linecap:round;stroke-linejoin:round"/><line x1="73.81" y1="10.08" x2="73.81" y2="38.65" style="fill:#fff;stroke:#2196f3;stroke-linecap:round;stroke-linejoin:round"/><line x1="79.6" y1="10.08" x2="79.6" y2="38.65" style="fill:#fff;stroke:#2196f3;stroke-linecap:round;stroke-linejoin:round"/></g></svg>