<svg xmlns="http://www.w3.org/2000/svg" viewBox="0 0 90 60"><title>service-8</title><g id="7b56e582-4164-4195-8c02-126544a9d06a" data-name="Слой 1"><path d="M31.12,5.48,6.67,17.43A2.85,2.85,0,0,0,5,20.12V50.33H59.94V20.12a2.85,2.85,0,0,0-1.65-2.69L33.84,5.48a3.63,3.63,0,0,0-2.72,0Z" style="fill:#fff;stroke:#2196f3;stroke-linecap:round;stroke-linejoin:round;fill-rule:evenodd"/><rect x="20.02" y="30.89" width="24.92" height="19.44" style="fill:#fff;stroke:#2196f3;stroke-linecap:round;stroke-linejoin:round"/><path d="M20.49,29.25h24A1.56,1.56,0,0,1,46,30.78h0a1.56,1.56,0,0,1-1.54,1.52h-24A1.56,1.56,0,0,1,19,30.78h0a1.56,1.56,0,0,1,1.54-1.52Z" style="fill:#e3f2fd;stroke:#2196f3;stroke-linecap:round;stroke-linejoin:round;fill-rule:evenodd"/><path d="M35,16.61a2.54,2.54,0,1,0-5.08,0,2.54,2.54,0,0,0,5.08,0Z" style="fill:#e3f2fd;stroke:#2196f3;stroke-linecap:round;stroke-linejoin:round;fill-rule:evenodd"/><rect x="70.1" y="39.09" width="3.66" height="5.5" style="fill:#e3f2fd;stroke:#2196f3;stroke-linecap:round;stroke-linejoin:round"/><path d="M67.26,18.83a.91.91,0,0,0-.94.82.93.93,0,0,0,.94.94h.94V49.28H71V19.65a.91.91,0,0,0-.94-.82Z" style="fill:#fff;stroke:#2196f3;stroke-linecap:round;stroke-linejoin:round;fill-rule:evenodd"/><path d="M62.54,33,54.15,20.94a2.68,2.68,0,0,0-2.24-1.29H38.44a1.86,1.86,0,0,0-1.89,1.87V41h27v-4.8A5.36,5.36,0,0,0,62.54,33Z" style="fill:#fff;stroke:#2196f3;stroke-linecap:round;stroke-linejoin:round;fill-rule:evenodd"/><path d="M65.37,39.09v11H56.16V48.34a9.21,9.21,0,0,1,9.21-9.25Z" style="fill:#fff;stroke:#2196f3;stroke-linecap:round;stroke-linejoin:round;fill-rule:evenodd"/><rect x="31.95" y="42.72" width="11.1" height="7.38" style="fill:#fff;stroke:#2196f3;stroke-linecap:round;stroke-linejoin:round"/><path d="M65.37,41.9A6.48,6.48,0,0,1,72,48.34a6.56,6.56,0,0,1-13.11,0,6.45,6.45,0,0,1,6.5-6.44Z" style="fill:#e3f2fd;stroke:#2196f3;stroke-linecap:round;stroke-linejoin:round;fill-rule:evenodd"/><path d="M35.61,45.53A4.63,4.63,0,1,1,31,50.1a4.7,4.7,0,0,1,4.61-4.57Z" style="fill:#e3f2fd;stroke:#2196f3;stroke-linecap:round;stroke-linejoin:round;fill-rule:evenodd"/><path d="M65.37,44.59a3.69,3.69,0,1,1,0,7.38,3.69,3.69,0,0,1,0-7.38Z" style="fill:#fff;stroke:#2196f3;stroke-linecap:round;stroke-linejoin:round;fill-rule:evenodd"/><path d="M65.37,46.47a1.86,1.86,0,0,1,1.89,1.87,1.84,1.84,0,0,1-1.89,1.76,1.81,1.81,0,0,1-1.77-1.76,1.83,1.83,0,0,1,1.77-1.87Z" style="fill:#fff;stroke:#2196f3;stroke-linecap:round;stroke-linejoin:round;fill-rule:evenodd"/><path d="M35.61,48.34A1.84,1.84,0,0,1,37.5,50.1,1.86,1.86,0,0,1,35.61,52a1.83,1.83,0,0,1-1.77-1.87,1.81,1.81,0,0,1,1.77-1.76Z" style="fill:#fff;stroke:#2196f3;stroke-linecap:round;stroke-linejoin:round;fill-rule:evenodd"/><path d="M35.61,43.66a6.45,6.45,0,0,1,6.5,6.44v.23a.68.68,0,0,0,.71.7H56.28A.9.9,0,0,0,57.22,50a7.67,7.67,0,0,1-.12-1.64A8.2,8.2,0,0,1,59.94,42l-3.78-3.86a6.55,6.55,0,0,0-4.61-1.87H32.89A1.86,1.86,0,0,0,31,38.15v5.62a1,1,0,0,0,1.42.82,6,6,0,0,1,3.19-.94Z" style="fill:#fff;stroke:#2196f3;stroke-linecap:round;stroke-linejoin:round;fill-rule:evenodd"/><path d="M56.28,51a.78.78,0,0,1-.83-.7,5.75,5.75,0,0,1-.24-2A10.21,10.21,0,0,1,65.37,38.15a.94.94,0,1,1,0,1.87,8.28,8.28,0,0,0-8.27,8.31A7.67,7.67,0,0,0,57.22,50,.91.91,0,0,1,56.52,51Z" style="fill:#e3f2fd;stroke:#2196f3;stroke-linecap:round;stroke-linejoin:round;fill-rule:evenodd"/><path d="M46.83,34.52H59.59c.94,0,1.3-.7.71-1.52L52.62,22a.73.73,0,0,0-.71-.47H46.83a1,1,0,0,0-.94.94V33.59a1,1,0,0,0,.94.94Z" style="fill:#fff;stroke:#2196f3;stroke-linecap:round;stroke-linejoin:round;fill-rule:evenodd"/><path d="M43.05,21.52H40.33a.93.93,0,0,0-.94.94V33.59a.93.93,0,0,0,.94.94h2.72a.93.93,0,0,0,.94-.94V22.46a.93.93,0,0,0-.94-.94Z" style="fill:#fff;stroke:#2196f3;stroke-linecap:round;stroke-linejoin:round;fill-rule:evenodd"/><path d="M84,52.91H73.76a.84.84,0,0,1-.83-.94V39.09a.91.91,0,0,1,.83-.94.93.93,0,0,1,.94.94V51H84A1,1,0,0,1,85,52a.93.93,0,0,1-.94.94Z" style="fill:#fff;stroke:#2196f3;stroke-linecap:round;stroke-linejoin:round;fill-rule:evenodd"/></g></svg>