<?xml version="1.0" encoding="utf-8"?>
<!-- Generator: Adobe Illustrator 21.1.0, SVG Export Plug-In . SVG Version: 6.00 Build 0)  -->
<svg version="1.1" id="Слой_1" xmlns="http://www.w3.org/2000/svg" xmlns:xlink="http://www.w3.org/1999/xlink" x="0px" y="0px"
	 viewBox="0 0 20 20" style="enable-background:new 0 0 20 20;" xml:space="preserve">
<title>size</title>
<rect style="fill:none;" width="20" height="20"/>
<g id="a613e968-0529-42cc-ad54-6cbb9b23a25f">
	<g id="cc383a6d-21da-49ff-80ed-8daddb0e0a55">
		<path style="fill:#2196F3;" d="M10,11c-0.2,0-0.3,0-0.5-0.1L2.1,6.6C1.8,6.4,1.6,6.1,1.6,5.7S1.8,5,2.1,4.8l7.4-4.2
			c0.3-0.2,0.7-0.2,1,0l7.4,4.2c0.3,0.2,0.5,0.5,0.5,0.9s-0.2,0.7-0.5,0.9l-7.4,4.3C10.3,10.9,10.2,11,10,11z M4.6,5.7L10,8.9
			l5.4-3.1L10,2.6L4.6,5.7z"/>
		<path style="fill:#2196F3;" d="M10,19.5c-0.2,0-0.3,0-0.5-0.1l-7.4-4.3c-0.3-0.2-0.5-0.5-0.5-0.9V5.7c0-0.4,0.2-0.7,0.5-0.9
			c0.3-0.2,0.7-0.2,1,0l7.4,4.3C10.8,9.3,11,9.6,11,10v8.5c0,0.4-0.2,0.7-0.5,0.9C10.3,19.5,10.2,19.5,10,19.5z M3.6,13.7L9,16.8
			v-6.2L3.6,7.4V13.7z"/>
		<path style="fill:#2196F3;" d="M10,19.5c-0.2,0-0.3,0-0.5-0.1C9.2,19.2,9,18.9,9,18.5V10c0-0.4,0.2-0.7,0.5-0.9l7.4-4.3
			c0.3-0.2,0.7-0.2,1,0s0.5,0.5,0.5,0.9v8.5c0,0.4-0.2,0.7-0.5,0.9l-7.4,4.3C10.3,19.5,10.2,19.5,10,19.5z M11,10.6v6.2l5.4-3.1V7.4
			L11,10.6z"/>
	</g>
</g>
</svg>
