<svg xmlns="http://www.w3.org/2000/svg" xmlns:xlink="http://www.w3.org/1999/xlink" width="27.93" height="27.52" viewBox="0 0 27.93 27.52"><defs><clipPath id="dbfff87b-9665-4ecf-8372-2cb1cfd65ec0" transform="translate(-1.04 -1.24)"><rect width="30" height="30" style="fill:none"/></clipPath></defs><title>icon-1</title><g id="5ef589b4-ea4a-4a5f-8888-1debfd7f507b" data-name="Слой 2"><g id="a08b9fb7-dc45-432e-821f-0a36e45ac037" data-name="Слой 1"><g id="4b81134d-be6f-44ea-bb4d-df684493710f" data-name="icon-1"><g style="clip-path:url(#dbfff87b-9665-4ecf-8372-2cb1cfd65ec0)"><rect x="5.34" y="13.67" width="16.65" height="13.35" style="fill:#2196f3;stroke:#fff;stroke-miterlimit:10"/><path d="M2,9.29l12.4-7.38a1.08,1.08,0,0,1,1.18,0L27.87,9.29a.93.93,0,0,1,.59.94v17a1.16,1.16,0,0,1-1.18,1.05H24.21A1.16,1.16,0,0,1,23,27.21V16.08A1.09,1.09,0,0,0,22,14.91H8a1.18,1.18,0,0,0-1.18,1.17V27.21a1.05,1.05,0,0,1-1.06,1.05H2.6a1.05,1.05,0,0,1-1.06-1.05v-17c0-.47.12-.82.47-.94Z" transform="translate(-1.04 -1.24)" style="fill:#2196f3;stroke:#fff;stroke-miterlimit:10;fill-rule:evenodd"/><line x1="5.81" y1="20.58" x2="22" y2="20.58" style="fill:none;stroke:#fff;stroke-miterlimit:10"/><line x1="5.81" y1="17.07" x2="22" y2="17.07" style="fill:none;stroke:#fff;stroke-miterlimit:10"/><line x1="5.81" y1="24.1" x2="22" y2="24.1" style="fill:none;stroke:#fff;stroke-miterlimit:10"/><line x1="9.48" y1="9.22" x2="18.45" y2="9.22" style="fill:none;stroke:#fff;stroke-linecap:round;stroke-linejoin:round"/></g></g></g></g></svg>