<svg xmlns="http://www.w3.org/2000/svg" xmlns:xlink="http://www.w3.org/1999/xlink" width="27.93" height="28.24" viewBox="0 0 27.93 28.24"><defs><clipPath id="4be80ac6-c877-4b3e-80ab-769cc49e715d" transform="translate(-1.04 -0.63)"><rect width="30" height="30" style="fill:none"/></clipPath></defs><title>icon-2</title><g id="1d32ab98-f380-48f8-9dae-1777808b8e9a" data-name="Слой 2"><g id="ab65b56f-3e18-4f21-b0ad-687dddb0e409" data-name="Слой 1"><g id="fd80acb7-59a0-4650-b5c3-d49372b0c9b5" data-name="icon-2"><g style="clip-path:url(#4be80ac6-c877-4b3e-80ab-769cc49e715d)"><path d="M5.2,4.25h6.14a1,1,0,0,1,.94,1.05V6.94A2.66,2.66,0,0,1,9.57,9.64H6.85A2.74,2.74,0,0,1,4.13,6.94V5.3A1.05,1.05,0,0,1,5.2,4.25Z" transform="translate(-1.04 -0.63)" style="fill:#2196f3;stroke:#fff;stroke-linecap:round;stroke-linejoin:round;fill-rule:evenodd"/><path d="M12.28,20.41H4.13V11.74A2.11,2.11,0,0,1,6.26,9.64h4a2.09,2.09,0,0,1,2,2.11Z" transform="translate(-1.04 -0.63)" style="fill:#2196f3;stroke:#fff;stroke-linecap:round;stroke-linejoin:round;fill-rule:evenodd"/><rect x="5.22" y="11.7" width="3.9" height="2.69" style="fill:#2196f3;stroke:#fff;stroke-linecap:round;stroke-linejoin:round"/><line x1="7.23" y1="3.62" x2="7.23" y2="1.04" style="fill:none;stroke:#fff;stroke-linecap:round;stroke-linejoin:round"/><path d="M2.48,20.41h25a.93.93,0,0,1,.94.94v7H1.54v-7a.87.87,0,0,1,.94-.94Z" transform="translate(-1.04 -0.63)" style="fill:#2196f3;stroke:#fff;stroke-miterlimit:10;fill-rule:evenodd"/><rect x="2.39" y="22.36" width="2.72" height="2.69" style="fill:#2196f3;stroke:#fff;stroke-linecap:round;stroke-linejoin:round"/><rect x="11.84" y="22.36" width="2.72" height="2.69" style="fill:#2196f3;stroke:#fff;stroke-linecap:round;stroke-linejoin:round"/><rect x="7.23" y="22.36" width="2.72" height="2.69" style="fill:#2196f3;stroke:#fff;stroke-linecap:round;stroke-linejoin:round"/><path d="M25.75,28.37V24A1,1,0,0,0,24.8,23H21.38A1,1,0,0,0,20.43,24v4.33" transform="translate(-1.04 -0.63)" style="fill:none;stroke:#fff;stroke-miterlimit:10"/><path d="M17.17,8.88a1.31,1.31,0,0,1-1.24-1l-.82-3a.5.5,0,0,1,.3-.6L16,4a.5.5,0,0,1,.18,0,2.11,2.11,0,0,1,.93.29.51.51,0,0,1,.16.13l1,1.15,1.12-.35-.83-3.29a.5.5,0,0,1,.33-.6l.35-.12a1.32,1.32,0,0,1,.42-.07,1.06,1.06,0,0,1,1,.68l1.56,2.68,2.35-.61a5.14,5.14,0,0,1,1.58-.26c1.09,0,1.87.39,2.09,1.05a1.2,1.2,0,0,1-.17,1.06,1,1,0,0,1-.7.41L18.67,8.48l-1.17.35A1.11,1.11,0,0,1,17.17,8.88Z" transform="translate(-1.04 -0.63)" style="fill:#2196f3;fill-rule:evenodd"/><path d="M19.63,1.63a.57.57,0,0,1,.56.4l1.77,3,2.72-.7a4.7,4.7,0,0,1,1.45-.24c.82,0,1.46.26,1.62.71s-.12.82-.47.82L18.54,8l-1.18.35a.61.61,0,0,1-.19,0,.8.8,0,0,1-.75-.62l-.83-3,.59-.23a1.69,1.69,0,0,1,.71.23l1.18,1.41L20,5.54,19,1.79l.35-.12a.84.84,0,0,1,.26,0m0-1a1.83,1.83,0,0,0-.58.09L18.7.84A1,1,0,0,0,18,2l.71,2.83L18.41,5l-.75-.9a1,1,0,0,0-.32-.25,2.54,2.54,0,0,0-1.15-.34,1,1,0,0,0-.37.07l-.59.23A1,1,0,0,0,14.63,5l.83,3a1.78,1.78,0,0,0,1.72,1.35,1.6,1.6,0,0,0,.5-.08L18.83,9l8.62-2.31a1.46,1.46,0,0,0,1-.62,1.7,1.7,0,0,0,.24-1.51,2.47,2.47,0,0,0-2.56-1.39,5.7,5.7,0,0,0-1.73.28l-2,.5L21.1,1.59a1.57,1.57,0,0,0-1.47-1Z" transform="translate(-1.04 -0.63)" style="fill:#fff"/><line x1="17.04" y1="9.71" x2="24.83" y2="7.6" style="fill:none;stroke:#fff;stroke-linecap:round;stroke-linejoin:round"/><line x1="19.99" y1="10.29" x2="22.59" y2="9.59" style="fill:none;stroke:#fff;stroke-linecap:round;stroke-linejoin:round"/></g></g></g></g></svg>