<svg xmlns="http://www.w3.org/2000/svg" xmlns:xlink="http://www.w3.org/1999/xlink" width="27.93" height="27.7" viewBox="0 0 27.93 27.7"><defs><clipPath id="b1107d8c-445a-48a5-8e33-464eb262e1ca" transform="translate(-1.04 -1.15)"><rect width="30" height="30" style="fill:none"/></clipPath></defs><title>icon-4</title><g id="651608cc-9c5f-4149-98c4-11bf7588534e" data-name="Слой 2"><g id="0240b38e-0bf2-4d4d-ad6c-2aa5a2a93551" data-name="Слой 1"><g id="ca801745-0cd1-4093-8e39-77927cc62ecc" data-name="icon 4"><g style="clip-path:url(#b1107d8c-445a-48a5-8e33-464eb262e1ca)"><path d="M24.45,1.65h0a.8.8,0,0,1,.83.82V20.39H23.62V2.47a.8.8,0,0,1,.83-.82Z" transform="translate(-1.04 -1.15)" style="fill:#2196f3;stroke:#fff;stroke-linecap:round;stroke-linejoin:round;fill-rule:evenodd"/><path d="M22.44,6.33h4a.68.68,0,0,1,.71.7h0a1.31,1.31,0,0,1-1.3,1.29H23A1.31,1.31,0,0,1,21.73,7h0a.68.68,0,0,1,.71-.7Z" transform="translate(-1.04 -1.15)" style="fill:#2196f3;stroke:#fff;stroke-linecap:round;stroke-linejoin:round;fill-rule:evenodd"/><rect x="1.8" y="16.54" width="5.43" height="2.69" style="fill:#2196f3;stroke:#fff;stroke-linecap:round;stroke-linejoin:round"/><rect x="7.23" y="16.54" width="5.31" height="2.69" style="fill:#2196f3;stroke:#fff;stroke-linecap:round;stroke-linejoin:round"/><rect x="12.55" y="16.54" width="5.43" height="2.69" style="fill:#2196f3;stroke:#fff;stroke-linecap:round;stroke-linejoin:round"/><rect x="3.1" y="13.85" width="5.43" height="2.69" style="fill:#2196f3;stroke:#fff;stroke-linecap:round;stroke-linejoin:round"/><rect x="8.53" y="13.85" width="5.43" height="2.69" style="fill:#2196f3;stroke:#fff;stroke-linecap:round;stroke-linejoin:round"/><rect x="5.81" y="11.16" width="5.43" height="2.69" style="fill:#2196f3;stroke:#fff;stroke-linecap:round;stroke-linejoin:round"/><path d="M26.1,27.53l2.36-7.14H1.54L3.9,27.53a1,1,0,0,1,.24.82,1.5,1.5,0,0,1,1.42-1.29,1.31,1.31,0,0,1,1.3,1.29,1.41,1.41,0,0,1,1.42-1.29,1.31,1.31,0,0,1,1.3,1.29A1.34,1.34,0,0,1,11,27.06a1.31,1.31,0,0,1,1.3,1.29,1.31,1.31,0,0,1,1.3-1.29A1.34,1.34,0,0,1,15,28.35a1.31,1.31,0,0,1,1.3-1.29,1.34,1.34,0,0,1,1.42,1.29A1.31,1.31,0,0,1,19,27.06a1.5,1.5,0,0,1,1.42,1.29,1.3,1.3,0,0,1,2.6,0,1.5,1.5,0,0,1,1.42-1.29,1.31,1.31,0,0,1,1.3,1.29,1.06,1.06,0,0,1,.35-.82Z" transform="translate(-1.04 -1.15)" style="fill:#2196f3;stroke:#fff;stroke-linecap:round;stroke-linejoin:round;fill-rule:evenodd"/><path d="M1.54,28.35a1.3,1.3,0,0,1,2.6,0,1.5,1.5,0,0,1,1.42-1.29,1.31,1.31,0,0,1,1.3,1.29,1.41,1.41,0,0,1,1.42-1.29,1.31,1.31,0,0,1,1.3,1.29A1.34,1.34,0,0,1,11,27.06a1.31,1.31,0,0,1,1.3,1.29,1.31,1.31,0,0,1,1.3-1.29A1.34,1.34,0,0,1,15,28.35a1.31,1.31,0,0,1,1.3-1.29,1.34,1.34,0,0,1,1.42,1.29A1.31,1.31,0,0,1,19,27.06a1.5,1.5,0,0,1,1.42,1.29,1.3,1.3,0,0,1,2.6,0,1.5,1.5,0,0,1,1.42-1.29,1.31,1.31,0,0,1,1.3,1.29,1.5,1.5,0,0,1,1.42-1.29,1.31,1.31,0,0,1,1.3,1.29" transform="translate(-1.04 -1.15)" style="fill:none;stroke:#fff;stroke-linecap:round;stroke-linejoin:round"/></g></g></g></g></svg>