<svg xmlns="http://www.w3.org/2000/svg" xmlns:xlink="http://www.w3.org/1999/xlink" width="27.93" height="27.72" viewBox="0 0 27.93 27.72"><defs><clipPath id="ff1f4019-2f4b-42f2-afce-dec6fc160dc1" transform="translate(-1.04 -1.14)"><rect width="30" height="30" style="fill:none"/></clipPath></defs><title>icon-3</title><g id="134f420d-5aa0-4f56-a05b-334b717cd01c" data-name="Слой 2"><g id="732c72e8-d6d3-4b4d-a5e3-d34c7af46dd0" data-name="Слой 1"><g id="1909f5c1-0695-42a9-835d-db1ac706ab5f" data-name="icon-3"><g style="clip-path:url(#ff1f4019-2f4b-42f2-afce-dec6fc160dc1)"><path d="M15,6.91A8.13,8.13,0,0,0,6.85,15,8,8,0,0,0,15,23a8,8,0,0,0,8.15-8A8.13,8.13,0,0,0,15,6.91Z" transform="translate(-1.04 -1.14)" style="fill:#2196f3;stroke:#fff;stroke-miterlimit:10;fill-rule:evenodd"/><path d="M9.69,9A8.32,8.32,0,0,0,15,11a8.87,8.87,0,0,0,5.08-1.76" transform="translate(-1.04 -1.14)" style="fill:none;stroke:#fff;stroke-miterlimit:10"/><path d="M20.08,21.2A7.87,7.87,0,0,0,15,19.44a8.55,8.55,0,0,0-5.2,1.87" transform="translate(-1.04 -1.14)" style="fill:none;stroke:#fff;stroke-miterlimit:10"/><line x1="5.81" y1="13.85" x2="22" y2="13.85" style="fill:none;stroke:#fff;stroke-miterlimit:10"/><line x1="13.96" y1="5.77" x2="13.96" y2="21.81" style="fill:none;stroke:#fff;stroke-miterlimit:10"/><path d="M28.46,15.23V15A13.47,13.47,0,0,0,1.54,15l2.6-2.69" transform="translate(-1.04 -1.14)" style="fill:none;stroke:#fff;stroke-linecap:round;stroke-linejoin:round"/><path d="M2.72,20.38a13,13,0,0,0,8.74,7.49A13.44,13.44,0,0,0,28,18.39l-3.31,2" transform="translate(-1.04 -1.14)" style="fill:none;stroke:#fff;stroke-linecap:round;stroke-linejoin:round"/></g></g></g></g></svg>