<svg xmlns="http://www.w3.org/2000/svg" width="90" height="60" viewBox="0 0 90 60"><title>solutions-10</title><g id="22c3e86a-4300-4319-a2d9-da66fe2ae853" data-name="solutions-10"><g id="fa642aeb-0fd1-474e-aa59-3a21d6df6106" data-name="icon"><path d="M67.79,24.38H82V12.29a2.54,2.54,0,0,0-2.61-2.51H70.29a2.52,2.52,0,0,0-2.49,2.51Z" style="fill:#fff;stroke:#2196f3;stroke-linecap:round;stroke-linejoin:round;fill-rule:evenodd"/><path d="M64.35,52.74H85.48a2,2,0,0,0,2-2V21.5A4.5,4.5,0,0,0,83,17.08H66.84a4.5,4.5,0,0,0-4.51,4.43V50.7a1.94,1.94,0,0,0,2,2Z" style="fill:#fff;stroke:#2196f3;stroke-linecap:round;stroke-linejoin:round;fill-rule:evenodd"/><path d="M65.83,14.6H84V8.15a1.38,1.38,0,0,0-1.26-1.49H67a1.38,1.38,0,0,0-1.12,1.49Z" style="fill:#fff;stroke:#2196f3;stroke-linecap:round;stroke-linejoin:round;fill-rule:evenodd"/><rect x="69.81" y="22.5" width="17.69" height="25.61" style="fill:#e3f2fd;stroke:#2196f3;stroke-linecap:round;stroke-linejoin:round"/><path d="M32.06,52.74H71.71a4,4,0,0,0,4-4.07V32.87a4,4,0,0,0-4-4.07H32.06a4.1,4.1,0,0,0-4,4.07V48.67a4.1,4.1,0,0,0,4,4.07Z" style="fill:#fff;stroke:#2196f3;stroke-linecap:round;stroke-linejoin:round;fill-rule:evenodd"/><path d="M30.4,52.74H5.94a2,2,0,0,1-2-2V14H32.42V50.7a2,2,0,0,1-2,2Z" style="fill:#fff;stroke:#2196f3;stroke-linecap:round;stroke-linejoin:round;fill-rule:evenodd"/><path d="M32.77,15.88H3.57A1.07,1.07,0,0,1,2.5,14.8V8.34A1.07,1.07,0,0,1,3.57,7.26h29.2a1.07,1.07,0,0,1,1.07,1.08V14.8a1.07,1.07,0,0,1-1.07,1.08Z" style="fill:#e3f2fd;stroke:#2196f3;stroke-linecap:round;stroke-linejoin:round;fill-rule:evenodd"/><path d="M32.42,33.35V23.3a10.07,10.07,0,0,0-10,10.05,10,10,0,0,0,10,9.93Z" style="fill:#e3f2fd;stroke:#2196f3;stroke-linecap:round;stroke-linejoin:round;fill-rule:evenodd"/><path d="M64.23,38.74a2.9,2.9,0,0,0,2.85-2.87,2.85,2.85,0,1,0-5.7,0,2.9,2.9,0,0,0,2.85,2.87Z" style="fill:#e3f2fd;stroke:#2196f3;stroke-linecap:round;stroke-linejoin:round;fill-rule:evenodd"/><path d="M64.23,48.67a2.93,2.93,0,1,0-2.85-3,2.93,2.93,0,0,0,2.85,3Z" style="fill:#e3f2fd;stroke:#2196f3;stroke-linecap:round;stroke-linejoin:round;fill-rule:evenodd"/><path d="M51.89,38.74a2.9,2.9,0,0,0,2.85-2.87,2.85,2.85,0,1,0-5.7,0,2.9,2.9,0,0,0,2.85,2.87Z" style="fill:#e3f2fd;stroke:#2196f3;stroke-linecap:round;stroke-linejoin:round;fill-rule:evenodd"/><path d="M51.89,48.67a2.93,2.93,0,1,0-2.85-3,2.93,2.93,0,0,0,2.85,3Z" style="fill:#e3f2fd;stroke:#2196f3;stroke-linecap:round;stroke-linejoin:round;fill-rule:evenodd"/><path d="M39.54,38.74a2.9,2.9,0,0,0,2.85-2.87,2.85,2.85,0,1,0-5.7,0,2.9,2.9,0,0,0,2.85,2.87Z" style="fill:#e3f2fd;stroke:#2196f3;stroke-linecap:round;stroke-linejoin:round;fill-rule:evenodd"/><path d="M39.54,48.67a2.93,2.93,0,1,0-2.85-3,2.93,2.93,0,0,0,2.85,3Z" style="fill:#e3f2fd;stroke:#2196f3;stroke-linecap:round;stroke-linejoin:round;fill-rule:evenodd"/></g></g></svg>