<svg xmlns="http://www.w3.org/2000/svg" viewBox="0 0 90 60"><title>solutions-2</title><g id="0d247985-c798-40bf-bda4-f3b3989b2436" data-name="solutions-2"><g id="1f2d4ce5-5126-49eb-b102-3fd8796b7357" data-name="icon"><path d="M22,42.52H11.47V23c0-2.58,3.54-3.28,3.54-7.14V8a.41.41,0,0,1,.12-.23H18.2a.25.25,0,0,1,.24.23v7.84C18.44,19.7,22,20.4,22,23Z" style="fill:#fff;stroke:#2196f3;stroke-linecap:round;stroke-linejoin:round;fill-rule:evenodd"/><path d="M14.78,9.28h3.78c.12,0,.24,0,.24.12v1.4a.25.25,0,0,1-.24.23H14.78a.41.41,0,0,1-.12-.23V9.4a.12.12,0,0,1,.12-.12Z" style="fill:#fff;stroke:#2196f3;stroke-linecap:round;stroke-linejoin:round;fill-rule:evenodd"/><path d="M16.67,25.2c-1.77,0-3.19,2.93-3.19,6.44S14.9,38,16.67,38s3.19-2.81,3.19-6.32-1.42-6.44-3.19-6.44Z" style="fill:#e3f2fd;stroke:#2196f3;stroke-linecap:round;stroke-linejoin:round;fill-rule:evenodd"/><path d="M41.34,42.52H30.83V23c0-2.58,3.54-3.28,3.54-7.14V8a.41.41,0,0,1,.12-.23h3.19A.41.41,0,0,1,37.8,8v7.84c0,3.86,3.54,4.56,3.54,7.14Z" style="fill:#fff;stroke:#2196f3;stroke-linecap:round;stroke-linejoin:round;fill-rule:evenodd"/><path d="M34.26,9.28h3.66c.12,0,.24,0,.24.12v1.4a.25.25,0,0,1-.24.23H34.26A.25.25,0,0,1,34,10.8V9.4c0-.12.12-.12.24-.12Z" style="fill:#fff;stroke:#2196f3;stroke-linecap:round;stroke-linejoin:round;fill-rule:evenodd"/><path d="M30.83,38V25.2c1.77,0,3.19,2.93,3.19,6.44S32.6,38,30.83,38Z" style="fill:#e3f2fd;stroke:#2196f3;stroke-linecap:round;stroke-linejoin:round;fill-rule:evenodd"/><path d="M78.53,42.52H68.14V23c0-2.58,3.54-3.28,3.54-7.14V8c0-.12,0-.23.12-.23h3.07c.12,0,.12.12.12.23v7.84c0,3.86,3.54,4.56,3.54,7.14Z" style="fill:#fff;stroke:#2196f3;stroke-linecap:round;stroke-linejoin:round;fill-rule:evenodd"/><path d="M71.44,9.28h3.78c.12,0,.12,0,.12.12v1.4c0,.12,0,.23-.12.23H71.44c-.12,0-.12-.12-.12-.23V9.4c0-.12,0-.12.12-.12Z" style="fill:#fff;stroke:#2196f3;stroke-linecap:round;stroke-linejoin:round;fill-rule:evenodd"/><path d="M78.53,26.61v9.95a2.23,2.23,0,0,1-2,1.4c-1.77,0-3.19-2.81-3.19-6.32s1.42-6.44,3.19-6.44a2.45,2.45,0,0,1,2,1.4Z" style="fill:#e3f2fd;stroke:#2196f3;stroke-linecap:round;stroke-linejoin:round;fill-rule:evenodd"/><path d="M7.46,52.24H82.54a5,5,0,0,0,5-4.92h0a4.87,4.87,0,0,0-5-4.8H7.46a4.87,4.87,0,0,0-5,4.8h0a5,5,0,0,0,5,4.92Z" style="fill:#fff;stroke:#2196f3;stroke-linecap:round;stroke-linejoin:round;fill-rule:evenodd"/><path d="M7.46,44.51H82.54a2.89,2.89,0,0,1,3,2.81h0a2.91,2.91,0,0,1-3,2.93H7.46a2.91,2.91,0,0,1-3-2.93h0a2.89,2.89,0,0,1,3-2.81Z" style="fill:#fff;fill-rule:evenodd"/><path d="M7.46,44.51H82.54a2.87,2.87,0,1,1,0,5.74H7.46a2.87,2.87,0,1,1,0-5.74Z" style="fill:none;stroke:#2196f3;stroke-linecap:round;stroke-linejoin:round;stroke-dasharray:2.0052194595336914,2.0052194595336914"/><path d="M10,47.34a1,1,0,0,0-2,0,1,1,0,1,0,2,0Z" style="fill:#fff;stroke:#2196f3;stroke-linecap:round;stroke-linejoin:round;fill-rule:evenodd"/><path d="M27.23,47.34a1,1,0,0,0-2,0,1,1,0,1,0,2,0Z" style="fill:#fff;stroke:#2196f3;stroke-linecap:round;stroke-linejoin:round;fill-rule:evenodd"/><path d="M46,47.34a1,1,0,0,0-2,0,1,1,0,1,0,2,0Z" style="fill:#fff;stroke:#2196f3;stroke-linecap:round;stroke-linejoin:round;fill-rule:evenodd"/><path d="M64.77,47.34a1,1,0,0,0-2,0,1,1,0,1,0,2,0Z" style="fill:#fff;stroke:#2196f3;stroke-linecap:round;stroke-linejoin:round;fill-rule:evenodd"/><path d="M82,47.34a1,1,0,0,0-2,0,1,1,0,1,0,2,0Z" style="fill:#fff;stroke:#2196f3;stroke-linecap:round;stroke-linejoin:round;fill-rule:evenodd"/><path d="M59.17,42.52H48.78V23c0-2.58,3.54-3.28,3.54-7.14V8c0-.12,0-.23.12-.23h3.07c.12,0,.12.12.12.23v7.84c0,3.86,3.54,4.56,3.54,7.14Z" style="fill:#fff;stroke:#2196f3;stroke-linecap:round;stroke-linejoin:round;fill-rule:evenodd"/><path d="M48.78,35.62v-8c.59-1.52,1.42-2.46,2.48-2.46,1.77,0,3.19,2.93,3.19,6.44S53,38,51.26,38c-1.06,0-1.89-.82-2.48-2.34Z" style="fill:#e3f2fd;stroke:#2196f3;stroke-linecap:round;stroke-linejoin:round;fill-rule:evenodd"/><path d="M52.08,9.28h3.78A.12.12,0,0,1,56,9.4v1.4a.41.41,0,0,1-.12.23H52.08C52,11,52,10.92,52,10.8V9.4c0-.12,0-.12.12-.12Z" style="fill:#fff;stroke:#2196f3;stroke-linecap:round;stroke-linejoin:round;fill-rule:evenodd"/></g></g></svg>