<svg xmlns="http://www.w3.org/2000/svg" viewBox="0 0 90 60"><title>solutions-3</title><g id="e28ab54c-8af8-4162-a177-617f9023ea29" data-name="solutions-3"><path d="M79.41,52.47H61.49a10.2,10.2,0,0,0-20.41,0H17.83l1.42-1.18,2.61-.71a20.42,20.42,0,0,1,.47-3.76l-6.17-1.53,4.51-2.23h2.61c.47-1.18.95-2.35,1.42-3.41l-5.46-3.18,5-.94,2.49.71A27.65,27.65,0,0,1,29,33.29l-4.51-4.47,5.1.35,2.25,1.29a27.84,27.84,0,0,1,3-2.23l-3.2-5.41,4.75,1.65,1.9,1.76a17.6,17.6,0,0,1,3.44-1.41L40,18.71l4.15,2.82,1.31,2.23c1.19-.24,2.49-.35,3.68-.47V17.06l3.32,3.76.71,2.47a34.8,34.8,0,0,1,3.68.47l1.66-6.12,2.14,4.59.12,2.59a21.22,21.22,0,0,1,3.44,1.41l3.08-5.53.95,4.94-.59,2.47c.95.71,2,1.53,3,2.35L75.14,26l-.47,4.94-1.19,2.23c.71.94,1.54,1.88,2.25,2.94l5.46-3.18-1.66,4.71-1.78,1.88c.47,1.18.95,2.23,1.42,3.41l6.05-1.65-2.85,4.12-2.25,1.41a33.47,33.47,0,0,1,.59,3.65H87l-2.37,2Z" style="fill:#fff;stroke:#2196f3;stroke-linecap:round;stroke-linejoin:round;fill-rule:evenodd"/><path d="M69.2,52.47H61.49a10.2,10.2,0,0,0-20.41,0H33.25a18,18,0,0,1,35.95,0Z" style="fill:#e3f2fd;stroke:#2196f3;stroke-linecap:round;stroke-linejoin:round;fill-rule:evenodd"/><polygon points="47.97 12.12 33.02 24.82 37.76 29.41 51.64 15.65 47.97 12.12" style="fill:#e3f2fd;stroke:#2196f3;stroke-linecap:round;stroke-linejoin:round;fill-rule:evenodd"/><polygon points="3 34.94 15.1 42.59 18.54 37.06 5.61 30.94 3 34.94" style="fill:#e3f2fd;stroke:#2196f3;stroke-linecap:round;stroke-linejoin:round;fill-rule:evenodd"/><rect x="14.15" y="7.53" width="28.95" height="44.82" style="fill:#fff;stroke:#2196f3;stroke-linecap:round;stroke-linejoin:round"/><path d="M25.54,7.53c0,2.94,0,5.76-.24,8.23s-.47,4.59-.47,6.82a22.45,22.45,0,0,0,.83,6.12,6.57,6.57,0,0,0,1.54,3.06A8.5,8.5,0,0,0,29,33.06" style="fill:#fff;stroke:#2196f3;stroke-linecap:round;stroke-linejoin:round;fill-rule:evenodd"/><path d="M28.63,26.71a4.27,4.27,0,0,0,.71,2.35,3.71,3.71,0,0,0,2.14.82c.59.12,1.07.12,1.66-.94a11.92,11.92,0,0,0,1.19-5.18A11.24,11.24,0,0,0,33,18.47c-.71-1.29-1.31-1.88-2.14-1.53A6.7,6.7,0,0,0,29,19.88a5.44,5.44,0,0,0-.36,2.23" style="fill:#fff;stroke:#2196f3;stroke-linecap:round;stroke-linejoin:round;fill-rule:evenodd"/><path d="M20.32,7.53V20.35" style="fill:#fff;stroke:#2196f3;stroke-linecap:round;stroke-linejoin:round;fill-rule:evenodd"/><path d="M18.07,14.94v8.47" style="fill:#fff;stroke:#2196f3;stroke-linecap:round;stroke-linejoin:round;fill-rule:evenodd"/><path d="M18.54,28.47a62.81,62.81,0,0,0,3.56,6.59c1.07,1.53,1.9,2.23,2.49,3.06a10.73,10.73,0,0,1,1.07,2.71,22.47,22.47,0,0,1,.12,2.82" style="fill:#fff;stroke:#2196f3;stroke-linecap:round;stroke-linejoin:round;fill-rule:evenodd"/><path d="M34.08,52.35V36c2.25-4.23,4.39-8.35,5.22-13.17s.12-10-.47-15.29" style="fill:#fff;stroke:#2196f3;stroke-linecap:round;stroke-linejoin:round;fill-rule:evenodd"/><line x1="20.32" y1="39.65" x2="20.32" y2="52.35" style="fill:#fff;stroke:#2196f3;stroke-linecap:round;stroke-linejoin:round"/><line x1="24.83" y1="46" x2="24.83" y2="52.35" style="fill:#fff;stroke:#2196f3;stroke-linecap:round;stroke-linejoin:round"/><line x1="28.98" y1="36.12" x2="28.98" y2="52.35" style="fill:#fff;stroke:#2196f3;stroke-linecap:round;stroke-linejoin:round"/><line x1="39.42" y1="39.65" x2="39.42" y2="52.35" style="fill:#fff;stroke:#2196f3;stroke-linecap:round;stroke-linejoin:round"/><line x1="31" y1="10.94" x2="31" y2="7.53" style="fill:#fff;stroke:#2196f3;stroke-linecap:round;stroke-linejoin:round"/></g></svg>