<svg xmlns="http://www.w3.org/2000/svg" viewBox="0 0 90 60"><title>solutions-9</title><g id="e2cb0e34-b0c3-440a-849b-16d3ea9d76e4" data-name="solutions-9"><g id="221c38d6-5c55-4f23-a3f1-79411cbfe6e8" data-name="icon"><rect x="51.61" y="7.7" width="18.06" height="13.11" style="fill:#e3f2fd;stroke:#2196f3;stroke-linecap:round;stroke-linejoin:round"/><rect x="62.94" y="13.09" width="14.64" height="10.65" style="fill:#fff;stroke:#2196f3;stroke-linecap:round;stroke-linejoin:round"/><rect x="77.58" y="13.09" width="4.37" height="10.65" style="fill:#e3f2fd;stroke:#2196f3;stroke-linecap:round;stroke-linejoin:round"/><rect x="41.46" y="13.09" width="14.76" height="10.65" style="fill:#fff;stroke:#2196f3;stroke-linecap:round;stroke-linejoin:round"/><rect x="39.1" y="20.81" width="32.11" height="31.49" style="fill:#fff;stroke:#2196f3;stroke-linecap:round;stroke-linejoin:round"/><polygon points="35.44 28.65 67.55 28.65 71.21 20.81 39.1 20.81 35.44 28.65" style="fill:#fff;stroke:#2196f3;stroke-linecap:round;stroke-linejoin:round;fill-rule:evenodd"/><rect x="71.21" y="20.81" width="12.63" height="31.49" style="fill:#e3f2fd;stroke:#2196f3;stroke-linecap:round;stroke-linejoin:round"/><polygon points="87.5 28.65 74.87 28.65 71.21 20.81 83.84 20.81 87.5 28.65" style="fill:#fff;stroke:#2196f3;stroke-linecap:round;stroke-linejoin:round;fill-rule:evenodd"/><path d="M50,13.86A2.47,2.47,0,0,0,48.14,13H13.57l-.47-2.92A2.5,2.5,0,0,0,10.63,8H5a2.5,2.5,0,0,0,0,5h3.5l4.65,27.91a2.71,2.71,0,0,0,.11.31c0,.13.08.26.13.38a3.11,3.11,0,0,0,.31.45,2.47,2.47,0,0,0,.23.28,2.68,2.68,0,0,0,.49.33,2.71,2.71,0,0,0,.28.16,2.62,2.62,0,0,0,.92.18H43.13a2.5,2.5,0,1,0,0-5H17.75l-.42-2.5h28.3a2.51,2.51,0,0,0,2.48-2.15L50.6,15.85a2.47,2.47,0,0,0-.59-2Z" style="fill:#fff;stroke:#2196f3;stroke-linecap:round;stroke-linejoin:round"/><polygon points="45.24 18 44.53 23 35.64 23 35.64 18 45.24 18" style="fill:#e3f2fd;stroke:#2196f3;stroke-linecap:round;stroke-linejoin:round"/><rect x="25.62" y="18" width="7.51" height="5.01" style="fill:#e3f2fd;stroke:#2196f3;stroke-linecap:round;stroke-linejoin:round"/><rect x="25.62" y="25.51" width="7.51" height="4.99" style="fill:#e3f2fd;stroke:#2196f3;stroke-linecap:round;stroke-linejoin:round"/><path d="M23.13,18v5H15.62a1.29,1.29,0,0,0-.37.07L14.41,18Z" style="fill:#e3f2fd;stroke:#2196f3;stroke-linecap:round;stroke-linejoin:round"/><polygon points="15.66 25.51 23.13 25.51 23.13 30.5 16.49 30.5 15.66 25.51" style="fill:#e3f2fd;stroke:#2196f3;stroke-linecap:round;stroke-linejoin:round"/><polygon points="35.64 30.5 35.64 25.51 44.18 25.51 43.46 30.5 35.64 30.5" style="fill:#e3f2fd;stroke:#2196f3;stroke-linecap:round;stroke-linejoin:round"/><path d="M23.13,49.25a3.76,3.76,0,1,1-3.76-3.75,3.75,3.75,0,0,1,3.76,3.75Zm0,0" style="fill:#e3f2fd;stroke:#2196f3;stroke-linecap:round;stroke-linejoin:round"/><path d="M44.63,49.25a3.76,3.76,0,1,1-3.75-3.75,3.75,3.75,0,0,1,3.75,3.75Zm0,0" style="fill:#e3f2fd;stroke:#2196f3;stroke-linecap:round;stroke-linejoin:round"/></g></g></svg>