<svg xmlns="http://www.w3.org/2000/svg" xmlns:xlink="http://www.w3.org/1999/xlink" width="86" height="45.53" viewBox="0 0 86 45.53"><defs><clipPath id="5655948d-4762-43ce-9919-77dfa7264984" transform="translate(-2 -7.24)"><rect width="90" height="60" style="fill:none"/></clipPath></defs><title>4</title><g id="8c1e327c-a397-44fd-b5de-72a352e70b71" data-name="Слой 2"><g id="38ee2486-9ad1-42ad-b500-518ec827f1bd" data-name="Слой 1"><g style="clip-path:url(#5655948d-4762-43ce-9919-77dfa7264984)"><path d="M40,18.87A11.17,11.17,0,1,0,28.76,30,11.17,11.17,0,0,0,40,18.87Zm-4.61,0a6.56,6.56,0,1,0-6.62,6.56,6.56,6.56,0,0,0,6.62-6.56Z" transform="translate(-2 -7.24)" style="fill:#e3f2fd;stroke:#2196f3;stroke-linecap:round;stroke-linejoin:round;fill-rule:evenodd"/><path d="M5.24,52.26H52.4c1.54,0,3.07-1.29,2.72-2.7L50,24.49C49,19,44.48,18.87,42.94,18.87H14.7c-1.54,0-7.33,0-8.27,5.62L2.53,49.57c-.24,1.41,1.18,2.7,2.72,2.7Z" transform="translate(-2 -7.24)" style="fill:#fff;stroke:#2196f3;stroke-linecap:round;stroke-linejoin:round;fill-rule:evenodd"/><path d="M67.17,10.9c-4.73-.82-9,1.05-12.65,3.63-1.65.47-4.25,11.6-7.68,33.16,1.89.35,3.66.7,5.2,1.05,2.13-14.3,4-22.61,6-25a24.41,24.41,0,0,1,1.54,7.85C58.54,34,57.48,40,56.3,49.57c2.36,1.52,6,2.46,10.87,2.7,5-.23,8.51-1.17,11-2.7C77,40,75.8,34,74.85,31.64a21.61,21.61,0,0,1,1.54-7.85c1.89,2.34,3.9,10.66,5.91,25,1.65-.35,3.31-.7,5.2-1.05C84.07,26.13,81.59,15,79.82,14.53,76.15,12,72,10.08,67.17,10.9Z" transform="translate(-2 -7.24)" style="fill:#fff;stroke:#2196f3;stroke-linecap:round;stroke-linejoin:round;fill-rule:evenodd"/><path d="M61.74,8.91a15.43,15.43,0,0,0-.59,4.92c.12-.94,1.89-2.93,6-2.93s6,2,6,2.93a15,15,0,0,0-.47-4.92,13,13,0,0,0-5.55-1.05,12.18,12.18,0,0,0-5.44,1.05Z" transform="translate(-2 -7.24)" style="fill:#e3f2fd;stroke:#2196f3;stroke-linecap:round;stroke-linejoin:round;fill-rule:evenodd"/><path d="M58.07,23.79a25.72,25.72,0,0,0-1.89-3.63" transform="translate(-2 -7.24)" style="fill:#fff;stroke:#2196f3;stroke-linecap:round;stroke-linejoin:round;fill-rule:evenodd"/><path d="M67.17,22.38V40.66c-1.3,7.26-5,10.19-10.87,8.91" transform="translate(-2 -7.24)" style="fill:none;stroke:#2196f3;stroke-linecap:round;stroke-linejoin:round"/><path d="M67.17,22.38c-3-4.8-4.85-9.37-5.44-13.48a4.37,4.37,0,0,0-2.13,2.81c.71,9.14,3.19,14.18,7.56,15V22.38Z" transform="translate(-2 -7.24)" style="fill:#fff;stroke:#2196f3;stroke-linecap:round;stroke-linejoin:round;fill-rule:evenodd"/><path d="M76.39,23.79a17.39,17.39,0,0,1,1.89-3.63" transform="translate(-2 -7.24)" style="fill:#fff;stroke:#2196f3;stroke-linecap:round;stroke-linejoin:round;fill-rule:evenodd"/><path d="M67.17,22.38V40.66c1.42,7.26,5,10.19,11,8.91" transform="translate(-2 -7.24)" style="fill:none;stroke:#2196f3;stroke-linecap:round;stroke-linejoin:round"/><path d="M67.17,22.38A37.06,37.06,0,0,0,72.73,8.91a4.37,4.37,0,0,1,2.13,2.81c-.71,9.14-3.31,14.18-7.68,15V22.38Z" transform="translate(-2 -7.24)" style="fill:#fff;stroke:#2196f3;stroke-linecap:round;stroke-linejoin:round;fill-rule:evenodd"/><path d="M78.16,49.57c-6,1.29-9.57-1.64-11-8.91-1.3,7.26-5,10.19-10.87,8.91,2.36,1.52,6,2.46,10.87,2.7,5-.23,8.51-1.17,11-2.7Z" transform="translate(-2 -7.24)" style="fill:#e3f2fd;stroke:#2196f3;stroke-linecap:round;stroke-linejoin:round;fill-rule:evenodd"/><path d="M71.55,34.92c-.59,6.68,1.42,9.61,5.91,9-.59-3.87-1.18-6.8-1.65-9a25.79,25.79,0,0,1-4.25,0Z" transform="translate(-2 -7.24)" style="fill:#e3f2fd;stroke:#2196f3;stroke-linecap:round;stroke-linejoin:round;fill-rule:evenodd"/><path d="M57,43.94c4.49.59,6.38-2.34,5.79-9a25.79,25.79,0,0,1-4.25,0c-.47,2.23-.95,5.16-1.54,9Z" transform="translate(-2 -7.24)" style="fill:#e3f2fd;stroke:#2196f3;stroke-linecap:round;stroke-linejoin:round;fill-rule:evenodd"/><path d="M25.45,30h6.74a3.67,3.67,0,0,0,3.66-3.63h0a1.84,1.84,0,0,0-1.77-1.87H23.56a1.84,1.84,0,0,0-1.77,1.87h0A3.67,3.67,0,0,0,25.45,30Z" transform="translate(-2 -7.24)" style="fill:#e3f2fd;stroke:#2196f3;stroke-linecap:round;stroke-linejoin:round;fill-rule:evenodd"/><path d="M25.34,39.26h7a.8.8,0,0,0,.83-.82h0a.84.84,0,0,0-.83-.94h-7a.84.84,0,0,0-.83.94h0a.8.8,0,0,0,.83.82Z" transform="translate(-2 -7.24)" style="fill:#fff;stroke:#2196f3;stroke-linecap:round;stroke-linejoin:round;fill-rule:evenodd"/></g></g></g></svg>