<svg xmlns="http://www.w3.org/2000/svg" xmlns:xlink="http://www.w3.org/1999/xlink" width="86" height="45.59" viewBox="0 0 86 45.59"><defs><clipPath id="7496df09-050a-40ae-9474-0ea75df9b71f" transform="translate(-2 -7.2)"><rect width="90" height="60" style="fill:none"/></clipPath></defs><title>9</title><g id="e77f9ed7-5710-4123-bef1-d63ace57e3bc" data-name="Слой 2"><g id="70a84276-1d5b-4a2c-a835-fbe54c9fcc50" data-name="Слой 1"><g style="clip-path:url(#7496df09-050a-40ae-9474-0ea75df9b71f)"><rect x="49.61" y="0.5" width="18.06" height="13.11" style="fill:#e3f2fd;stroke:#2196f3;stroke-linecap:round;stroke-linejoin:round"/><rect x="60.83" y="5.88" width="14.76" height="10.65" style="fill:#fff;stroke:#2196f3;stroke-linecap:round;stroke-linejoin:round"/><rect x="75.58" y="5.88" width="4.37" height="10.65" style="fill:#e3f2fd;stroke:#2196f3;stroke-linecap:round;stroke-linejoin:round"/><rect x="39.46" y="5.88" width="14.64" height="10.65" style="fill:#fff;stroke:#2196f3;stroke-linecap:round;stroke-linejoin:round"/><rect x="36.98" y="13.61" width="32.23" height="31.49" style="fill:#fff;stroke:#2196f3;stroke-linecap:round;stroke-linejoin:round"/><polygon points="33.32 21.45 65.55 21.45 69.21 13.61 37.1 13.61 33.32 21.45" style="fill:#fff;stroke:#2196f3;stroke-linecap:round;stroke-linejoin:round;fill-rule:evenodd"/><rect x="69.21" y="13.61" width="12.63" height="31.49" style="fill:#e3f2fd;stroke:#2196f3;stroke-linecap:round;stroke-linejoin:round"/><polygon points="85.5 21.45 72.87 21.45 69.21 13.61 81.84 13.61 85.5 21.45" style="fill:#fff;stroke:#2196f3;stroke-linecap:round;stroke-linejoin:round;fill-rule:evenodd"/><path d="M11.12,52.3H43.58c2.13,0,4.25-1.29,4.37-3.16l1.3-19.08H5.33l1.3,19.08C6.75,51,8.88,52.3,11.12,52.3Z" transform="translate(-2 -7.2)" style="fill:#fff;stroke:#2196f3;stroke-linecap:round;stroke-linejoin:round;fill-rule:evenodd"/><path d="M5.33,32.87H49.25a2.86,2.86,0,0,0,2.83-2.81h0a2.76,2.76,0,0,0-2.83-2.69H5.33A2.76,2.76,0,0,0,2.5,30.06h0a2.86,2.86,0,0,0,2.83,2.81Z" transform="translate(-2 -7.2)" style="fill:#fff;stroke:#2196f3;stroke-linecap:round;stroke-linejoin:round;fill-rule:evenodd"/><path d="M14.07,48.08h0a1.81,1.81,0,0,0,1.77-1.76V38.84a1.71,1.71,0,0,0-1.77-1.64h0a1.71,1.71,0,0,0-1.77,1.64v7.49a1.81,1.81,0,0,0,1.77,1.76Z" transform="translate(-2 -7.2)" style="fill:#e3f2fd;stroke:#2196f3;stroke-linecap:round;stroke-linejoin:round;fill-rule:evenodd"/><path d="M40.51,48.08h0a1.81,1.81,0,0,0,1.77-1.76V38.84a1.71,1.71,0,0,0-1.77-1.64h0a1.71,1.71,0,0,0-1.77,1.64v7.49a1.81,1.81,0,0,0,1.77,1.76Z" transform="translate(-2 -7.2)" style="fill:#e3f2fd;stroke:#2196f3;stroke-linecap:round;stroke-linejoin:round;fill-rule:evenodd"/><path d="M20.68,48.08h0a1.81,1.81,0,0,0,1.77-1.76V38.84a1.71,1.71,0,0,0-1.77-1.64h0a1.71,1.71,0,0,0-1.77,1.64v7.49a1.81,1.81,0,0,0,1.77,1.76Z" transform="translate(-2 -7.2)" style="fill:#e3f2fd;stroke:#2196f3;stroke-linecap:round;stroke-linejoin:round;fill-rule:evenodd"/><path d="M27.29,48.08h0a1.81,1.81,0,0,0,1.77-1.76V38.84a1.71,1.71,0,0,0-1.77-1.64h0a1.71,1.71,0,0,0-1.77,1.64v7.49a1.81,1.81,0,0,0,1.77,1.76Z" transform="translate(-2 -7.2)" style="fill:#e3f2fd;stroke:#2196f3;stroke-linecap:round;stroke-linejoin:round;fill-rule:evenodd"/><path d="M33.9,48.08h0a1.81,1.81,0,0,0,1.77-1.76V38.84A1.71,1.71,0,0,0,33.9,37.2h0a1.71,1.71,0,0,0-1.77,1.64v7.49a1.81,1.81,0,0,0,1.77,1.76Z" transform="translate(-2 -7.2)" style="fill:#e3f2fd;stroke:#2196f3;stroke-linecap:round;stroke-linejoin:round;fill-rule:evenodd"/><path d="M11.24,28,22,15.19a2,2,0,0,1,2.6-.23,2,2,0,0,1,.24,2.58L14,30.29A1.79,1.79,0,1,1,11.24,28Z" transform="translate(-2 -7.2)" style="fill:#fff;stroke:#2196f3;stroke-linecap:round;stroke-linejoin:round;fill-rule:evenodd"/><path d="M42.52,28.07,28,19.76a1.87,1.87,0,0,0-2.48.59,1.74,1.74,0,0,0,.71,2.46l14.52,8.31a1.73,1.73,0,0,0,2.36-.59,1.71,1.71,0,0,0-.59-2.46Z" transform="translate(-2 -7.2)" style="fill:#fff;stroke:#2196f3;stroke-linecap:round;stroke-linejoin:round;fill-rule:evenodd"/></g></g></g></svg>