<svg xmlns="http://www.w3.org/2000/svg" xmlns:xlink="http://www.w3.org/1999/xlink" width="86" height="45.5" viewBox="0 0 86 45.5"><defs><clipPath id="4c187996-1725-4098-b0a7-48911e487921" transform="translate(-2 -7.25)"><rect width="90" height="60" style="fill:none"/></clipPath></defs><title>6</title><g id="8605a53e-4a68-4438-ace6-cb4ad7f5b95d" data-name="Слой 2"><g id="c4e290db-d03d-4a1e-8cf5-4f7f495c139c" data-name="Слой 1"><g style="clip-path:url(#4c187996-1725-4098-b0a7-48911e487921)"><polygon points="47.35 0.5 75.7 0.5 77.59 0.73 79.48 1.32 81.13 2.26 82.55 3.43 83.85 4.83 84.67 6.47 85.26 8.35 85.5 10.22 85.5 10.22 85.38 11.16 85.26 12.09 85.15 12.91 84.79 13.85 84.44 14.67 83.96 15.37 83.49 16.08 82.9 16.78 54.67 16.78 55.14 16.08 55.73 15.37 56.09 14.67 56.44 13.85 56.8 12.91 57.03 12.09 57.15 11.16 57.15 10.22 57.15 10.22 56.91 8.35 56.44 6.47 55.5 4.83 54.32 3.43 52.78 2.26 51.13 1.32 49.36 0.73 47.35 0.5" style="fill:#e3f2fd;stroke:#2196f3;stroke-linecap:round;stroke-linejoin:round;fill-rule:evenodd"/><polygon points="54.67 16.78 82.9 16.78 82.9 39.03 82.78 40.2 82.43 41.37 81.96 42.42 81.13 43.24 80.3 43.95 79.24 44.53 78.06 44.88 76.88 45 48.53 45 49.83 44.88 50.89 44.53 51.95 43.95 52.9 43.24 53.61 42.42 54.2 41.37 54.55 40.2 54.67 39.03 54.67 16.78" style="fill:#e3f2fd;stroke:#2196f3;stroke-linecap:round;stroke-linejoin:round;fill-rule:evenodd"/><path d="M33.52,7.75H49.35a9.81,9.81,0,0,1,9.8,9.72h0A9.81,9.81,0,0,1,56.67,24V46.28a6.05,6.05,0,0,1-6.14,6H32.34a6,6,0,0,1-6-6V24a9.36,9.36,0,0,1-2.6-6.56h0a9.89,9.89,0,0,1,9.8-9.72Z" transform="translate(-2 -7.25)" style="fill:#fff;stroke:#2196f3;stroke-linecap:round;stroke-linejoin:round;fill-rule:evenodd"/><path d="M33.52,10.09a7.38,7.38,0,0,0-7.44,7.38,7.83,7.83,0,0,0,1.89,5l.59.59V46.28A3.87,3.87,0,0,0,32.34,50H50.53a3.79,3.79,0,0,0,3.78-3.75V23.09l.59-.59a7.36,7.36,0,0,0,2-5,7.48,7.48,0,0,0-7.56-7.38Z" transform="translate(-2 -7.25)" style="fill:#fff;stroke:#2196f3;stroke-linecap:round;stroke-linejoin:round;fill-rule:evenodd"/><path d="M35.53,26.37a1.68,1.68,0,0,1-1.65-1.64A1.71,1.71,0,0,1,35.53,23" transform="translate(-2 -7.25)" style="fill:none;stroke:#2196f3;stroke-linecap:round;stroke-linejoin:round"/><path d="M44.74,29.18A1.62,1.62,0,0,1,47,28.59a1.71,1.71,0,0,1,.71,2.23" transform="translate(-2 -7.25)" style="fill:none;stroke:#2196f3;stroke-linecap:round;stroke-linejoin:round"/><path d="M36.35,34a1.66,1.66,0,0,1,2.24-.7,1.85,1.85,0,0,1,.71,2.34" transform="translate(-2 -7.25)" style="fill:none;stroke:#2196f3;stroke-linecap:round;stroke-linejoin:round"/><path d="M44,45.22a1.66,1.66,0,0,1,.24-2.34,1.69,1.69,0,0,1,2.36.23" transform="translate(-2 -7.25)" style="fill:none;stroke:#2196f3;stroke-linecap:round;stroke-linejoin:round"/><path d="M45.21,18.05a1.57,1.57,0,0,1,2.24-.59A1.59,1.59,0,0,1,48,19.69" transform="translate(-2 -7.25)" style="fill:none;stroke:#2196f3;stroke-linecap:round;stroke-linejoin:round"/><path d="M33,41.95a1.84,1.84,0,0,1,2.36-.59A1.59,1.59,0,0,1,36,43.58" transform="translate(-2 -7.25)" style="fill:none;stroke:#2196f3;stroke-linecap:round;stroke-linejoin:round"/><path d="M33,16.3a1.77,1.77,0,0,1,2.36-.7A1.7,1.7,0,0,1,36,17.94" transform="translate(-2 -7.25)" style="fill:none;stroke:#2196f3;stroke-linecap:round;stroke-linejoin:round"/><path d="M17.93,25.2c-1.65,1.52-4.13.47-5.55-1.29a6.59,6.59,0,0,1-1.18-6.68,6.89,6.89,0,0,1,6.5,2.23c1.42,1.76,2,4.33.24,5.74Z" transform="translate(-2 -7.25)" style="fill:#fff;stroke:#2196f3;stroke-linecap:round;stroke-linejoin:round;fill-rule:evenodd"/><line x1="9.55" y1="9.99" x2="15.93" y2="17.95" style="fill:#fff;stroke:#2196f3;stroke-linecap:round;stroke-linejoin:round"/><path d="M16.63,26.6a36.71,36.71,0,0,1,2-5,10.17,10.17,0,0,1,2.13-3.16,1,1,0,0,1,1.3-.12,11,11,0,0,1,1.18.59,7.84,7.84,0,0,1,1.3.47c.12.23,0,.47-.83,1.29S21.35,23,20.29,24.14s-1.65,2.23-2.13,2.69a3.24,3.24,0,0,1-1.06.94c-.35.23-.47.47-.71.35s-.24-.23.24-1.52Z" transform="translate(-2 -7.25)" style="fill:#e3f2fd;stroke:#2196f3;stroke-linecap:round;stroke-linejoin:round;fill-rule:evenodd"/><path d="M17.57,51.31c3.9,1.87,6.85.94,10.75-4.1,10.87-13.82-.47-25.3-10.75-20.38m0,24.48c-3.9,1.87-6.73.94-10.63-4.1C-3.92,33.4,7.3,21.92,17.57,26.84" transform="translate(-2 -7.25)" style="fill:#fff;stroke:#2196f3;stroke-linecap:round;stroke-linejoin:round;fill-rule:evenodd"/></g></g></g></svg>