<svg xmlns="http://www.w3.org/2000/svg" viewBox="0 0 90 60"><title>solutions-8</title><g id="79045e3b-804b-444e-865f-695818b99d5a" data-name="solutions-8"><g id="2b7beca5-1a67-42b4-b81b-2035f3a74130" data-name="icon"><path d="M11.47,7.27h56.9a4.62,4.62,0,0,1,4.49,4.67v40.8h-66V11.93a4.72,4.72,0,0,1,4.6-4.67Z" style="fill:#fff;stroke:#2196f3;stroke-linecap:round;stroke-linejoin:round;fill-rule:evenodd"/><path d="M12.18,10.26H67.67a2.26,2.26,0,0,1,2.24,2.27V44.24h-60V12.53a2.26,2.26,0,0,1,2.24-2.27Z" style="fill:#e3f2fd;stroke:#2196f3;stroke-linecap:round;stroke-linejoin:round;fill-rule:evenodd"/><path d="M5,52.74H74.87a2.41,2.41,0,0,0,2.36-2.51v-1H43.82a2.41,2.41,0,0,1-2.24,1.79H38.27a2.69,2.69,0,0,1-2.36-1.79H2.5v1A2.51,2.51,0,0,0,5,52.74Z" style="fill:#e3f2fd;stroke:#2196f3;stroke-linecap:round;stroke-linejoin:round;fill-rule:evenodd"/><line x1="12.89" y1="30.84" x2="30.01" y2="13.85" style="fill:#e3f2fd;stroke:#2196f3;stroke-linecap:round;stroke-linejoin:round"/><line x1="21.39" y1="30" x2="29.42" y2="21.98" style="fill:#e3f2fd;stroke:#2196f3;stroke-linecap:round;stroke-linejoin:round"/><path d="M66.84,52.74H84a3.58,3.58,0,0,0,3.54-3.59V13.73A3.66,3.66,0,0,0,84,10.14H66.84a3.68,3.68,0,0,0-3.66,3.59V49.15a3.6,3.6,0,0,0,3.66,3.59Z" style="fill:#fff;stroke:#2196f3;stroke-linecap:round;stroke-linejoin:round;fill-rule:evenodd"/><path d="M83.38,42.44H67.56a1.77,1.77,0,0,1-1.72-1.79V14.92A1.8,1.8,0,0,1,67.56,13H83.38A1.79,1.79,0,0,1,85,14.92V40.65a1.76,1.76,0,0,1-1.62,1.79Z" style="fill:#e3f2fd;stroke:#2196f3;stroke-linecap:round;stroke-linejoin:round;fill-rule:evenodd"/><path d="M75.34,45.32a1.73,1.73,0,0,0-1.65,1.79,1.62,1.62,0,0,0,1.65,1.68,1.73,1.73,0,0,0,1.77-1.68,1.83,1.83,0,0,0-1.77-1.79Z" style="fill:#fff;stroke:#2196f3;stroke-linecap:round;stroke-linejoin:round;fill-rule:evenodd"/></g></g></svg>