<svg xmlns="http://www.w3.org/2000/svg" xmlns:xlink="http://www.w3.org/1999/xlink" width="86" height="45.42" viewBox="0 0 86 45.42"><defs><clipPath id="41734ef6-c1ee-4464-9ef2-bbe944073c33" transform="translate(-2 -7.29)"><rect width="90" height="60" style="fill:none"/></clipPath></defs><title>10</title><g id="3c326f59-a57a-438a-bbc8-bd7e84c76ff8" data-name="Слой 2"><g id="b7c2bc6a-360e-4b92-acd5-0dc92d7bb35b" data-name="Слой 1"><g style="clip-path:url(#41734ef6-c1ee-4464-9ef2-bbe944073c33)"><path d="M44.12,52.21H83.49a4,4,0,0,0,4-4V32.81a4,4,0,0,0-4-4H44.12a4,4,0,0,0-4,4V48.23a4,4,0,0,0,4,4Z" transform="translate(-2 -7.29)" style="fill:#fff;stroke:#2196f3;stroke-linecap:round;stroke-linejoin:round;fill-rule:evenodd"/><path d="M56.61,52.21H32.33a2,2,0,0,1-2-2V14.34H58.62V50.22a2,2,0,0,1-2,2Z" transform="translate(-2 -7.29)" style="fill:#fff;stroke:#2196f3;stroke-linecap:round;stroke-linejoin:round;fill-rule:evenodd"/><path d="M59,16.21H30a1.05,1.05,0,0,1-1.06-1.05V8.84A1.05,1.05,0,0,1,30,7.79H59A1.05,1.05,0,0,1,60,8.84v6.31A1.05,1.05,0,0,1,59,16.21Z" transform="translate(-2 -7.29)" style="fill:#e3f2fd;stroke:#2196f3;stroke-linecap:round;stroke-linejoin:round;fill-rule:evenodd"/><path d="M8,24.51h14V12.7a2.41,2.41,0,0,0-2.48-2.45H10.52A2.41,2.41,0,0,0,8,12.7Z" transform="translate(-2 -7.29)" style="fill:#fff;stroke:#2196f3;stroke-linecap:round;stroke-linejoin:round;fill-rule:evenodd"/><path d="M4.5,52.21h21a1.91,1.91,0,0,0,2-2V21.7a4.41,4.41,0,0,0-4.36-4.32H7A4.44,4.44,0,0,0,2.5,21.7V50.22a2,2,0,0,0,2,2Z" transform="translate(-2 -7.29)" style="fill:#fff;stroke:#2196f3;stroke-linecap:round;stroke-linejoin:round;fill-rule:evenodd"/><path d="M7.33,13.4H22.66V8.84a1,1,0,0,0-.94-1.05H8.39A1.05,1.05,0,0,0,7.33,8.84Z" transform="translate(-2 -7.29)" style="fill:#fff;stroke:#2196f3;stroke-linecap:round;stroke-linejoin:round;fill-rule:evenodd"/><path d="M7.57,12.7H22.42a1.36,1.36,0,0,1,1.41,1.4h0a1.43,1.43,0,0,1-1.41,1.4H7.57a1.41,1.41,0,0,1-1.3-1.4h0a1.33,1.33,0,0,1,1.3-1.4Z" transform="translate(-2 -7.29)" style="fill:#e3f2fd;stroke:#2196f3;stroke-linecap:round;stroke-linejoin:round;fill-rule:evenodd"/><rect x="0.62" y="14.41" width="14.15" height="25.01" style="fill:#e3f2fd;stroke:#2196f3;stroke-linecap:round;stroke-linejoin:round"/><rect x="21.25" y="14.41" width="4.24" height="25.01" style="fill:#e3f2fd;stroke:#2196f3;stroke-linecap:round;stroke-linejoin:round"/><path d="M78.89,38.53a2.78,2.78,0,0,0,2.83-2.81,2.71,2.71,0,0,0-2.83-2.81,2.78,2.78,0,0,0-2.83,2.81,2.86,2.86,0,0,0,2.83,2.81Z" transform="translate(-2 -7.29)" style="fill:#e3f2fd;stroke:#2196f3;stroke-linecap:round;stroke-linejoin:round;fill-rule:evenodd"/><path d="M78.89,48.23a2.86,2.86,0,0,0,0-5.73,2.86,2.86,0,0,0,0,5.73Z" transform="translate(-2 -7.29)" style="fill:#e3f2fd;stroke:#2196f3;stroke-linecap:round;stroke-linejoin:round;fill-rule:evenodd"/><path d="M66.63,38.53a2.78,2.78,0,0,0,2.83-2.81,2.71,2.71,0,0,0-2.83-2.81,2.78,2.78,0,0,0-2.83,2.81,2.86,2.86,0,0,0,2.83,2.81Z" transform="translate(-2 -7.29)" style="fill:#e3f2fd;stroke:#2196f3;stroke-linecap:round;stroke-linejoin:round;fill-rule:evenodd"/><path d="M66.63,48.23a2.86,2.86,0,0,0,0-5.73,2.86,2.86,0,0,0,0,5.73Z" transform="translate(-2 -7.29)" style="fill:#e3f2fd;stroke:#2196f3;stroke-linecap:round;stroke-linejoin:round;fill-rule:evenodd"/><path d="M58.62,33.27V23.45a9.92,9.92,0,0,0-9.9,9.82,9.82,9.82,0,0,0,9.9,9.7Z" transform="translate(-2 -7.29)" style="fill:#e3f2fd;stroke:#2196f3;stroke-linecap:round;stroke-linejoin:round;fill-rule:evenodd"/></g></g></g></svg>