<?xml version="1.0" encoding="utf-8"?>
<!-- Generator: Adobe Illustrator 21.1.0, SVG Export Plug-In . SVG Version: 6.00 Build 0)  -->
<svg version="1.1" id="Слой_1" xmlns="http://www.w3.org/2000/svg" xmlns:xlink="http://www.w3.org/1999/xlink" x="0px" y="0px"
	 viewBox="0 0 86 45.5" style="enable-background:new 0 0 86 45.5;" xml:space="preserve">
<title>1_1</title>
<rect x="-2" y="-7.3" style="fill:none;" width="90" height="60"/>
<path style="fill:#FFFFFF;stroke:#2196F3;stroke-linecap:round;stroke-linejoin:round;" d="M7.9,26.5c-3.2,0-6,1.8-7.4,4.7h4.6
	c2-0.1,3.6,1.5,3.7,3.5c0,0,0,0,0,0.1l0,0c-0.1,2-1.7,3.5-3.7,3.5H0.5c1.4,2.8,4.3,4.6,7.4,4.7c3.2,0,6.1-1.8,7.4-4.7h55.2
	c2,4.1,6.9,5.8,11,3.9c1.7-0.8,3.1-2.2,3.9-3.9h-4.6c-1.9,0-3.5-1.6-3.5-3.5l0,0c0-1.9,1.5-3.5,3.4-3.5c0,0,0.1,0,0.1,0h4.6
	c-2-4.1-6.9-5.8-11-3.9c-1.7,0.8-3.1,2.2-3.9,3.9H15.4C14,28.3,11.1,26.5,7.9,26.5L7.9,26.5z"/>
<path style="fill:#E3F2FD;stroke:#2196F3;stroke-linecap:round;stroke-linejoin:round;" d="M19.1,45h2.4c1.1,0.1,1.9-0.8,2-1.8
	c0-0.1,0-0.1,0-0.2v-9.1h-6.4V43C17.1,44.1,18,45,19.1,45L19.1,45z"/>
<path style="fill:#E3F2FD;stroke:#2196F3;stroke-linecap:round;stroke-linejoin:round;" d="M64.1,45h2.5c1,0,1.9-0.8,1.9-1.9
	c0,0,0-0.1,0-0.1v-9.1h-6.4V43C62.1,44.1,63,45,64.1,45L64.1,45z"/>
<polygon style="fill:#FFFFFF;stroke:#2196F3;stroke-linecap:round;stroke-linejoin:round;" points="14.7,16.2 21.8,17.2 18.2,21.5 
	13.3,18.3 "/>
<path style="fill:#FFFFFF;stroke:#2196F3;stroke-linecap:round;stroke-linejoin:round;" d="M13.7,13.3c-1.6,0-4.6,0.6-4.6,2.1
	s3,3.8,4.6,3.8c1.6,0,2.9-1.2,3-2.8c0,0,0-0.1,0-0.1C16.7,14.6,15.3,13.3,13.7,13.3z"/>
<polygon style="fill:#FFFFFF;stroke:#2196F3;stroke-linecap:round;stroke-linejoin:round;" points="71.3,16.2 64.3,17.2 67.8,21.5 
	72.9,18.3 "/>
<path style="fill:#FFFFFF;stroke:#2196F3;stroke-linecap:round;stroke-linejoin:round;" d="M72.3,13.3c1.7,0,4.6,0.6,4.6,2.1
	s-3,3.8-4.6,3.8c-1.6,0-2.9-1.2-3-2.8c0,0,0-0.1,0-0.1C69.3,14.6,70.7,13.3,72.3,13.3z"/>
<path style="fill:#FFFFFF;stroke:#2196F3;stroke-linecap:round;stroke-linejoin:round;" d="M43,39.5H23c-5,0-6.9-8.7-6.9-12.4
	c0-3.5,0.1-11.4,5-11.4H65c4.7,0,4.8,7.8,4.8,11.4c0,3.8-1.9,12.4-6.8,12.4H43z"/>
<path style="fill:#E3F2FD;stroke:#2196F3;stroke-linecap:round;stroke-linejoin:round;" d="M67.9,35.4c1.3-2.8,1.9-6.3,1.9-8.3
	c0-1.4-0.1-2.9-0.2-4.3H68c-1.3,0.1-2.3,1.2-2.3,2.5v2.3H20.5v-2.3c-0.1-1.3-1.1-2.4-2.5-2.5h-1.6c-0.1,1.6-0.2,3.3-0.2,4.3
	c0,2,0.6,5.5,1.9,8.3H67.9z"/>
<path style="fill:#FFFFFF;stroke:#2196F3;stroke-linecap:round;stroke-linejoin:round;" d="M21.2,18.6c4.3,0.6,8.3,2.6,11.3,5.6
	h-9.1L21.2,18.6z"/>
<path style="fill:#FFFFFF;stroke:#2196F3;stroke-linecap:round;stroke-linejoin:round;" d="M64.8,18.6c-4.3,0.7-8.2,2.6-11.3,5.6
	h9.1L64.8,18.6z"/>
<path style="fill:#FFFFFF;stroke:#2196F3;stroke-linecap:round;stroke-linejoin:round;" d="M19.9,15.7h46.4c0-4.8-7.1-15.2-10-15.2
	H29.8C26.8,0.5,19.9,11.6,19.9,15.7z"/>
<path style="fill:#E3F2FD;stroke:#2196F3;stroke-linecap:round;stroke-linejoin:round;" d="M23.4,12.9h39.3
	c-1.5-3.6-4.8-8.9-6.5-9.6H30.1C28.4,4.2,24.9,9.4,23.4,12.9z"/>
<path style="fill:#FFFFFF;stroke:#2196F3;stroke-linecap:round;stroke-linejoin:round;" d="M32.3,32.8h21.6c0.9,0.1,1.7-0.6,1.8-1.6
	c0-0.1,0-0.1,0-0.2v-1.6H30.5V31C30.5,32,31.2,32.8,32.3,32.8C32.2,32.8,32.2,32.8,32.3,32.8z"/>
</svg>
