<svg xmlns="http://www.w3.org/2000/svg" xmlns:xlink="http://www.w3.org/1999/xlink" width="86.05" height="45.88" viewBox="0 0 86.05 45.88"><defs><clipPath id="296ed8ba-c377-434b-abcf-0cdf6c6da09b" transform="translate(-1.97 -7.06)"><rect width="90" height="60" style="fill:none"/></clipPath></defs><title>3</title><g id="848736ba-4e8d-4793-930b-a1987225d46a" data-name="Слой 2"><g id="7d8596cd-54df-44fe-b27d-2e5dde11b6ad" data-name="Слой 1"><g style="clip-path:url(#296ed8ba-c377-434b-abcf-0cdf6c6da09b)"><path d="M85.14,48.32A28.22,28.22,0,0,0,75,30.76a4.51,4.51,0,0,1-5.9,1.4,4.46,4.46,0,0,1-1.77-5.74,28.46,28.46,0,0,0-10.15-1.87A29.46,29.46,0,0,0,47,26.43a4.46,4.46,0,0,1-1.77,5.74,4.51,4.51,0,0,1-5.9-1.4A28.76,28.76,0,0,0,29.18,48.32a4.41,4.41,0,0,1,4.13,4H48.54A8.67,8.67,0,0,1,57.16,44,8.77,8.77,0,0,1,65.9,52.3H81.13v-.12h0v-.12h0v-.12h0v-.12h0v-.12h.12V51.6h0v-.12h0v-.12h0l.12-.12h0v-.12h0V51h0l.12-.12h0v-.12h0l.12-.12h0v-.12h0l.12-.12h0v-.12h0l.12-.12h0v-.12H82V50h.12v-.12h.12v-.12h.12v-.12h.12v-.12h0l.12-.12h.12v-.12h.12v-.12h.12V49H83l.12-.12h.12l.12-.12h.12l.12-.12h.12l.12-.12h.24v-.12h.47v-.12h.59Z" transform="translate(-1.97 -7.06)" style="fill:#fff;stroke:#2196f3;stroke-linecap:round;stroke-linejoin:round;stroke-width:1.0534232701280963px;fill-rule:evenodd"/><path d="M74.51,52.3a17.36,17.36,0,0,0-34.71,0h8.74A8.67,8.67,0,0,1,57.16,44,8.77,8.77,0,0,1,65.9,52.3Z" transform="translate(-1.97 -7.06)" style="fill:#e3f2fd;stroke:#2196f3;stroke-linecap:round;stroke-linejoin:round;stroke-width:1.0534232701280963px;fill-rule:evenodd"/><line x1="85.53" y1="45.36" x2="21.78" y2="45.36" style="fill:#fff;stroke:#2196f3;stroke-linecap:round;stroke-linejoin:round;stroke-width:1.0534232701280963px"/><polygon points="45.27 5.09 30.39 17.73 35.12 22.3 48.93 8.6 45.27 5.09" style="fill:#e3f2fd;stroke:#2196f3;stroke-linecap:round;stroke-linejoin:round;stroke-width:1.0534232701280963px;fill-rule:evenodd"/><polygon points="0.53 27.8 12.57 35.41 15.99 29.91 3.12 23.82 0.53 27.8" style="fill:#e3f2fd;stroke:#2196f3;stroke-linecap:round;stroke-linejoin:round;stroke-width:1.0534232701280963px;fill-rule:evenodd"/><rect x="11.62" y="0.53" width="28.81" height="44.59" style="fill:#fff;stroke:#2196f3;stroke-linecap:round;stroke-linejoin:round;stroke-width:1.0534232701280963px"/><path d="M24.93,7.59c0,2.93,0,5.74-.24,8.19s-.47,4.56-.47,6.79A22.33,22.33,0,0,0,25,28.65a6.54,6.54,0,0,0,1.53,3A8.46,8.46,0,0,0,28.35,33" transform="translate(-1.97 -7.06)" style="fill:#fff;stroke:#2196f3;stroke-linecap:round;stroke-linejoin:round;stroke-width:1.0534232701280963px;fill-rule:evenodd"/><path d="M28,26.66A4.25,4.25,0,0,0,28.71,29a3.7,3.7,0,0,0,2.13.82c.59.12,1.06.12,1.65-.94a11.87,11.87,0,0,0,1.18-5.15,11.18,11.18,0,0,0-1.3-5.27c-.71-1.29-1.3-1.87-2.13-1.52a6.66,6.66,0,0,0-1.89,2.93A5.41,5.41,0,0,0,28,22.1" transform="translate(-1.97 -7.06)" style="fill:#fff;stroke:#2196f3;stroke-linecap:round;stroke-linejoin:round;stroke-width:1.0534232701280963px;fill-rule:evenodd"/><path d="M19.74,7.59V20.34" transform="translate(-1.97 -7.06)" style="fill:#fff;stroke:#2196f3;stroke-linecap:round;stroke-linejoin:round;stroke-width:1.0534232701280963px;fill-rule:evenodd"/><path d="M17.49,15v8.43" transform="translate(-1.97 -7.06)" style="fill:#fff;stroke:#2196f3;stroke-linecap:round;stroke-linejoin:round;stroke-width:1.0534232701280963px;fill-rule:evenodd"/><path d="M18,28.42A62.5,62.5,0,0,0,21.51,35C22.57,36.5,23.4,37.2,24,38A10.68,10.68,0,0,1,25,40.71a22.36,22.36,0,0,1,.12,2.81" transform="translate(-1.97 -7.06)" style="fill:#fff;stroke:#2196f3;stroke-linecap:round;stroke-linejoin:round;stroke-width:1.0534232701280963px;fill-rule:evenodd"/><path d="M33.43,52.18V35.91c2.24-4.21,4.37-8.31,5.19-13.11s.12-9.95-.47-15.22" transform="translate(-1.97 -7.06)" style="fill:#fff;stroke:#2196f3;stroke-linecap:round;stroke-linejoin:round;stroke-width:1.0534232701280963px;fill-rule:evenodd"/><line x1="17.76" y1="32.48" x2="17.76" y2="45.12" style="fill:#fff;stroke:#2196f3;stroke-linecap:round;stroke-linejoin:round;stroke-width:1.0534232701280963px"/><line x1="22.25" y1="38.8" x2="22.25" y2="45.12" style="fill:#fff;stroke:#2196f3;stroke-linecap:round;stroke-linejoin:round;stroke-width:1.0534232701280963px"/><line x1="26.38" y1="28.97" x2="26.38" y2="45.12" style="fill:#fff;stroke:#2196f3;stroke-linecap:round;stroke-linejoin:round;stroke-width:1.0534232701280963px"/><line x1="36.77" y1="32.48" x2="36.77" y2="45.12" style="fill:#fff;stroke:#2196f3;stroke-linecap:round;stroke-linejoin:round;stroke-width:1.0534232701280963px"/><line x1="28.39" y1="3.92" x2="28.39" y2="0.53" style="fill:#fff;stroke:#2196f3;stroke-linecap:round;stroke-linejoin:round;stroke-width:1.0534232701280963px"/></g></g></g></svg>