<svg xmlns="http://www.w3.org/2000/svg" xmlns:xlink="http://www.w3.org/1999/xlink" width="86" height="45.61" viewBox="0 0 86 45.61"><defs><clipPath id="f3dc72c7-5e47-4f14-9e77-f2518d0a982c" transform="translate(-2 -7.2)"><rect width="90" height="60" style="fill:none"/></clipPath></defs><title>11</title><g id="e88ddc77-9437-4c9f-bbf5-7d1ea7c849d4" data-name="Слой 2"><g id="ad8cbd5d-3d7f-4b46-9b3a-25e767856ce3" data-name="Слой 1"><g style="clip-path:url(#f3dc72c7-5e47-4f14-9e77-f2518d0a982c)"><path d="M48.53,49.14h0a3.46,3.46,0,0,0,3.54-3.51V15.78H45V45.63a3.54,3.54,0,0,0,3.54,3.51Z" transform="translate(-2 -7.2)" style="fill:#fff;stroke:#2196f3;stroke-linecap:round;stroke-linejoin:round;fill-rule:evenodd"/><path d="M45,32V45.63a3.54,3.54,0,0,0,3.54,3.51,3.46,3.46,0,0,0,3.54-3.51V32.87a8.78,8.78,0,0,1-3.54.23A20.33,20.33,0,0,1,45,32Z" transform="translate(-2 -7.2)" style="fill:#e1f5fe;stroke:#2196f3;stroke-linecap:round;stroke-linejoin:round;fill-rule:evenodd"/><path d="M45.46,17.18h6.38a1.52,1.52,0,0,0,1.42-1.4h0a1.43,1.43,0,0,0-1.42-1.4H45.46A1.36,1.36,0,0,0,44,15.78h0a1.43,1.43,0,0,0,1.42,1.4Z" transform="translate(-2 -7.2)" style="fill:#e1f5fe;stroke:#2196f3;stroke-linecap:round;stroke-linejoin:round;fill-rule:evenodd"/><path d="M62.7,49.14h0a3.46,3.46,0,0,0,3.54-3.51V15.78H59.16V45.63a3.54,3.54,0,0,0,3.54,3.51Z" transform="translate(-2 -7.2)" style="fill:#fff;stroke:#2196f3;stroke-linecap:round;stroke-linejoin:round;fill-rule:evenodd"/><path d="M59.16,29.82V45.63a3.85,3.85,0,0,0,.47,1.76,3.68,3.68,0,0,0,3.07,1.76,3.46,3.46,0,0,0,3.54-3.51V29.82a21,21,0,0,1-6.61.12.9.9,0,0,1-.47-.12Z" transform="translate(-2 -7.2)" style="fill:#e1f5fe;stroke:#2196f3;stroke-linecap:round;stroke-linejoin:round;fill-rule:evenodd"/><path d="M59.51,17.18h6.38a1.43,1.43,0,0,0,1.42-1.4h0a1.36,1.36,0,0,0-1.42-1.4H59.51a1.43,1.43,0,0,0-1.42,1.4h0a1.52,1.52,0,0,0,1.42,1.4Z" transform="translate(-2 -7.2)" style="fill:#e1f5fe;stroke:#2196f3;stroke-linecap:round;stroke-linejoin:round;fill-rule:evenodd"/><path d="M76.87,49.14h0a3.54,3.54,0,0,0,3.54-3.51V15.78H73.33V45.63a3.46,3.46,0,0,0,3.54,3.51Z" transform="translate(-2 -7.2)" style="fill:#fff;stroke:#2196f3;stroke-linecap:round;stroke-linejoin:round;fill-rule:evenodd"/><path d="M73.33,43.64v2a3.46,3.46,0,0,0,3.54,3.51,3.54,3.54,0,0,0,3.54-3.51V30.18c-.12,0,.12,0-.47-.12a15,15,0,0,0-3.54-.94,12.44,12.44,0,0,0-3,0h-.12Z" transform="translate(-2 -7.2)" style="fill:#e1f5fe;stroke:#2196f3;stroke-linecap:round;stroke-linejoin:round;fill-rule:evenodd"/><path d="M73.68,17.18h6.38a1.43,1.43,0,0,0,1.42-1.4h0a1.36,1.36,0,0,0-1.42-1.4H73.68a1.36,1.36,0,0,0-1.42,1.4h0a1.43,1.43,0,0,0,1.42,1.4Z" transform="translate(-2 -7.2)" style="fill:#e1f5fe;stroke:#2196f3;stroke-linecap:round;stroke-linejoin:round;fill-rule:evenodd"/><path d="M17,34.74l7.2,14A2.92,2.92,0,0,1,24.32,51a1.89,1.89,0,0,1-1.54,1.17H4.25A1.75,1.75,0,0,1,2.71,51a2.47,2.47,0,0,1,.12-2.22l7.2-14V17.06a3.48,3.48,0,0,1,7,0Z" transform="translate(-2 -7.2)" style="fill:#fff;stroke:#2196f3;stroke-linecap:round;stroke-linejoin:round;fill-rule:evenodd"/><path d="M21,42.47l3.19,6.32A2.92,2.92,0,0,1,24.32,51a1.89,1.89,0,0,1-1.54,1.17H4.25A1.75,1.75,0,0,1,2.71,51a2.47,2.47,0,0,1,.12-2.22L6,42.47Z" transform="translate(-2 -7.2)" style="fill:#e1f5fe;stroke:#2196f3;stroke-linecap:round;stroke-linejoin:round;fill-rule:evenodd"/><path d="M9.8,15.78h7.32a1.3,1.3,0,0,0,1.3-1.29h0a1.3,1.3,0,0,0-1.3-1.29H9.8a1.3,1.3,0,0,0-1.3,1.29h0a1.3,1.3,0,0,0,1.3,1.29Z" transform="translate(-2 -7.2)" style="fill:#fff;stroke:#2196f3;stroke-linecap:round;stroke-linejoin:round;fill-rule:evenodd"/><path d="M33.06,24.91a14.23,14.23,0,1,1-9.09,0V7.7h9.09Z" transform="translate(-2 -7.2)" style="fill:#fff;stroke:#2196f3;stroke-linecap:round;stroke-linejoin:round;fill-rule:evenodd"/><path d="M23.26,10.39H33.65A1.34,1.34,0,0,0,35.07,9.1h0a1.36,1.36,0,0,0-1.42-1.4H23.26a1.43,1.43,0,0,0-1.42,1.4h0a1.41,1.41,0,0,0,1.42,1.29Z" transform="translate(-2 -7.2)" style="fill:#fff;stroke:#2196f3;stroke-linecap:round;stroke-linejoin:round;fill-rule:evenodd"/><path d="M28.46,38.25H14.29a11.45,11.45,0,0,0,.35,2.81,13.69,13.69,0,0,0,2.48,5.5,14.36,14.36,0,0,0,9.33,5.62h4.13a14.65,14.65,0,0,0,9.33-5.62,15.51,15.51,0,0,0,2.48-5.5,22.55,22.55,0,0,0,.24-2.81Z" transform="translate(-2 -7.2)" style="fill:#e1f5fe;stroke:#2196f3;stroke-linecap:round;stroke-linejoin:round;fill-rule:evenodd"/><path d="M22.91,44.46a1.73,1.73,0,0,0,1.77-1.76,1.76,1.76,0,0,0-1.77-1.87,1.83,1.83,0,0,0-1.77,1.87,1.81,1.81,0,0,0,1.77,1.76Z" transform="translate(-2 -7.2)" style="fill:#fff;stroke:#2196f3;stroke-linecap:round;stroke-linejoin:round;fill-rule:evenodd"/><path d="M27.87,44a1.29,1.29,0,1,0-1.3-1.29A1.3,1.3,0,0,0,27.87,44Z" transform="translate(-2 -7.2)" style="fill:#fff;stroke:#2196f3;stroke-linecap:round;stroke-linejoin:round;fill-rule:evenodd"/><rect x="38.38" y="31.06" width="1.77" height="13.93" style="fill:#fff;stroke:#2196f3;stroke-linecap:round;stroke-linejoin:round"/><rect x="81.25" y="31.06" width="1.77" height="13.93" style="fill:#fff;stroke:#2196f3;stroke-linecap:round;stroke-linejoin:round"/><path d="M39.67,41.77H85.73A1.81,1.81,0,0,0,87.5,40h0a1.71,1.71,0,0,0-1.77-1.64H39.67A1.71,1.71,0,0,0,37.9,40h0a1.81,1.81,0,0,0,1.77,1.76Z" transform="translate(-2 -7.2)" style="fill:#fff;stroke:#2196f3;stroke-linecap:round;stroke-linejoin:round;fill-rule:evenodd"/></g></g></g></svg>