<svg xmlns="http://www.w3.org/2000/svg" viewBox="0 0 90 60"><title>solutions-5</title><g id="ca8ff778-a8b0-4357-a5c2-fd2efe5cd155" data-name="solutions-5"><path d="M47.36,30A22.43,22.43,0,1,0,24.93,52.24,22.33,22.33,0,0,0,47.36,30Z" style="fill:#fff;stroke:#2196f3;stroke-linecap:round;stroke-linejoin:round;fill-rule:evenodd"/><line x1="2.5" y1="30" x2="4.15" y2="31.4" style="fill:#fff;stroke:#2196f3;stroke-linecap:round;stroke-linejoin:round"/><line x1="2.85" y1="33.86" x2="4.74" y2="34.92" style="fill:#fff;stroke:#2196f3;stroke-linecap:round;stroke-linejoin:round"/><line x1="3.92" y1="37.61" x2="5.92" y2="38.43" style="fill:#fff;stroke:#2196f3;stroke-linecap:round;stroke-linejoin:round"/><line x1="5.57" y1="41.12" x2="7.69" y2="41.47" style="fill:#fff;stroke:#2196f3;stroke-linecap:round;stroke-linejoin:round"/><line x1="7.81" y1="44.28" x2="9.94" y2="44.28" style="fill:#fff;stroke:#2196f3;stroke-linecap:round;stroke-linejoin:round"/><line x1="10.53" y1="47.09" x2="12.65" y2="46.74" style="fill:#fff;stroke:#2196f3;stroke-linecap:round;stroke-linejoin:round"/><line x1="13.72" y1="49.31" x2="15.84" y2="48.49" style="fill:#fff;stroke:#2196f3;stroke-linecap:round;stroke-linejoin:round"/><line x1="17.26" y1="50.95" x2="19.15" y2="49.9" style="fill:#fff;stroke:#2196f3;stroke-linecap:round;stroke-linejoin:round"/><line x1="21.03" y1="51.89" x2="22.69" y2="50.6" style="fill:#fff;stroke:#2196f3;stroke-linecap:round;stroke-linejoin:round"/><line x1="24.93" y1="52.24" x2="26.35" y2="50.6" style="fill:#fff;stroke:#2196f3;stroke-linecap:round;stroke-linejoin:round"/><line x1="28.83" y1="51.89" x2="29.89" y2="50.02" style="fill:#fff;stroke:#2196f3;stroke-linecap:round;stroke-linejoin:round"/><line x1="32.6" y1="50.95" x2="33.43" y2="48.84" style="fill:#fff;stroke:#2196f3;stroke-linecap:round;stroke-linejoin:round"/><line x1="36.15" y1="49.31" x2="36.5" y2="47.21" style="fill:#fff;stroke:#2196f3;stroke-linecap:round;stroke-linejoin:round"/><line x1="39.33" y1="47.09" x2="39.33" y2="44.86" style="fill:#fff;stroke:#2196f3;stroke-linecap:round;stroke-linejoin:round"/><line x1="42.17" y1="44.28" x2="41.81" y2="42.17" style="fill:#fff;stroke:#2196f3;stroke-linecap:round;stroke-linejoin:round"/><line x1="44.41" y1="41.12" x2="43.58" y2="39.13" style="fill:#fff;stroke:#2196f3;stroke-linecap:round;stroke-linejoin:round"/><line x1="46.06" y1="37.61" x2="45" y2="35.74" style="fill:#fff;stroke:#2196f3;stroke-linecap:round;stroke-linejoin:round"/><line x1="47.01" y1="33.86" x2="45.71" y2="32.22" style="fill:#fff;stroke:#2196f3;stroke-linecap:round;stroke-linejoin:round"/><line x1="47.36" y1="30" x2="45.71" y2="28.6" style="fill:#fff;stroke:#2196f3;stroke-linecap:round;stroke-linejoin:round"/><line x1="47.01" y1="26.14" x2="45.12" y2="25.08" style="fill:#fff;stroke:#2196f3;stroke-linecap:round;stroke-linejoin:round"/><line x1="46.06" y1="22.39" x2="43.94" y2="21.69" style="fill:#fff;stroke:#2196f3;stroke-linecap:round;stroke-linejoin:round"/><line x1="44.41" y1="18.88" x2="42.28" y2="18.53" style="fill:#fff;stroke:#2196f3;stroke-linecap:round;stroke-linejoin:round"/><line x1="42.17" y1="15.72" x2="39.92" y2="15.72" style="fill:#fff;stroke:#2196f3;stroke-linecap:round;stroke-linejoin:round"/><line x1="39.33" y1="13.03" x2="37.21" y2="13.38" style="fill:#fff;stroke:#2196f3;stroke-linecap:round;stroke-linejoin:round"/><line x1="36.15" y1="10.8" x2="34.14" y2="11.51" style="fill:#fff;stroke:#2196f3;stroke-linecap:round;stroke-linejoin:round"/><line x1="32.6" y1="9.17" x2="30.72" y2="10.22" style="fill:#fff;stroke:#2196f3;stroke-linecap:round;stroke-linejoin:round"/><line x1="28.83" y1="8.11" x2="27.17" y2="9.52" style="fill:#fff;stroke:#2196f3;stroke-linecap:round;stroke-linejoin:round"/><line x1="24.93" y1="7.76" x2="23.51" y2="9.4" style="fill:#fff;stroke:#2196f3;stroke-linecap:round;stroke-linejoin:round"/><line x1="21.03" y1="8.11" x2="19.97" y2="9.98" style="fill:#fff;stroke:#2196f3;stroke-linecap:round;stroke-linejoin:round"/><line x1="17.26" y1="9.17" x2="16.55" y2="11.16" style="fill:#fff;stroke:#2196f3;stroke-linecap:round;stroke-linejoin:round"/><line x1="13.72" y1="10.8" x2="13.36" y2="12.91" style="fill:#fff;stroke:#2196f3;stroke-linecap:round;stroke-linejoin:round"/><line x1="10.53" y1="13.03" x2="10.53" y2="15.14" style="fill:#fff;stroke:#2196f3;stroke-linecap:round;stroke-linejoin:round"/><line x1="7.81" y1="15.72" x2="8.17" y2="17.83" style="fill:#fff;stroke:#2196f3;stroke-linecap:round;stroke-linejoin:round"/><line x1="5.57" y1="18.88" x2="6.28" y2="20.99" style="fill:#fff;stroke:#2196f3;stroke-linecap:round;stroke-linejoin:round"/><line x1="3.92" y1="22.39" x2="4.98" y2="24.26" style="fill:#fff;stroke:#2196f3;stroke-linecap:round;stroke-linejoin:round"/><line x1="2.85" y1="26.14" x2="4.27" y2="27.78" style="fill:#fff;stroke:#2196f3;stroke-linecap:round;stroke-linejoin:round"/><line x1="2.5" y1="30" x2="4.15" y2="31.4" style="fill:#fff;stroke:#2196f3;stroke-linecap:round;stroke-linejoin:round"/><path d="M41.1,30A16.11,16.11,0,1,0,24.93,46,16,16,0,0,0,41.1,30Z" style="fill:#e3f2fd;stroke:#2196f3;stroke-linecap:round;stroke-linejoin:round;fill-rule:evenodd"/><path d="M37.68,30A12.69,12.69,0,1,0,24.93,42.64,12.62,12.62,0,0,0,37.68,30Z" style="fill:#fff;stroke:#2196f3;stroke-linecap:round;stroke-linejoin:round;fill-rule:evenodd"/><line x1="24.93" y1="17.48" x2="24.93" y2="42.64" style="fill:#fff;stroke:#2196f3;stroke-linecap:round;stroke-linejoin:round"/><line x1="37.68" y1="30" x2="12.3" y2="30" style="fill:#fff;stroke:#2196f3;stroke-linecap:round;stroke-linejoin:round"/><line x1="15.96" y1="21.1" x2="33.9" y2="38.9" style="fill:#fff;stroke:#2196f3;stroke-linecap:round;stroke-linejoin:round"/><line x1="33.9" y1="21.1" x2="15.96" y2="38.9" style="fill:#fff;stroke:#2196f3;stroke-linecap:round;stroke-linejoin:round"/><path d="M28.83,30a3.9,3.9,0,1,0-3.9,3.86A3.91,3.91,0,0,0,28.83,30Z" style="fill:#e3f2fd;stroke:#2196f3;stroke-linecap:round;stroke-linejoin:round;fill-rule:evenodd"/><path d="M39.92,52.24H64.24a2,2,0,0,0,2-2V41.12H37.92v9.13a2,2,0,0,0,2,2Z" style="fill:#fff;stroke:#2196f3;stroke-linecap:round;stroke-linejoin:round;fill-rule:evenodd"/><path d="M45,17.48H59.17V13.73a6,6,0,0,0-6-6H51a6,6,0,0,0-6,6Z" style="fill:#e3f2fd;stroke:#2196f3;stroke-linecap:round;stroke-linejoin:round;fill-rule:evenodd"/><rect x="37.92" y="13.38" width="28.33" height="4.1" style="fill:#fff;stroke:#2196f3;stroke-linecap:round;stroke-linejoin:round"/><rect x="37.92" y="17.48" width="28.33" height="4.21" style="fill:#fff;stroke:#2196f3;stroke-linecap:round;stroke-linejoin:round"/><rect x="37.92" y="21.69" width="28.33" height="4.21" style="fill:#fff;stroke:#2196f3;stroke-linecap:round;stroke-linejoin:round"/><rect x="37.92" y="25.9" width="28.33" height="4.1" style="fill:#fff;stroke:#2196f3;stroke-linecap:round;stroke-linejoin:round"/><rect x="37.92" y="30" width="28.33" height="4.21" style="fill:#fff;stroke:#2196f3;stroke-linecap:round;stroke-linejoin:round"/><rect x="37.92" y="34.21" width="28.33" height="4.1" style="fill:#fff;stroke:#2196f3;stroke-linecap:round;stroke-linejoin:round"/><rect x="37.92" y="38.31" width="28.33" height="4.21" style="fill:#fff;stroke:#2196f3;stroke-linecap:round;stroke-linejoin:round"/><rect x="37.92" y="42.52" width="28.33" height="4.21" style="fill:#fff;stroke:#2196f3;stroke-linecap:round;stroke-linejoin:round"/><path d="M73.33,31.4H86.08A1.36,1.36,0,0,0,87.5,30h0a1.43,1.43,0,0,0-1.42-1.4H73.33Z" style="fill:#e3f2fd;stroke:#2196f3;stroke-linecap:round;stroke-linejoin:round;fill-rule:evenodd"/><path d="M66.25,46.74h.24A14,14,0,0,0,80.42,32.81V27.19A13.9,13.9,0,0,0,66.49,13.38h-.24Z" style="fill:#fff;stroke:#2196f3;stroke-linecap:round;stroke-linejoin:round;fill-rule:evenodd"/><path d="M37.92,46.74H37.8a14.1,14.1,0,0,1-14-13.93V27.19a14,14,0,0,1,14-13.81h.12Z" style="fill:#fff;stroke:#2196f3;stroke-linecap:round;stroke-linejoin:round;fill-rule:evenodd"/><path d="M42.52,49.43a1,1,0,0,0-.94-.94.93.93,0,0,0-.94.94.87.87,0,0,0,.94.94.93.93,0,0,0,.94-.94Z" style="fill:#fff;stroke:#2196f3;stroke-linecap:round;stroke-linejoin:round;fill-rule:evenodd"/><path d="M61.76,49.43a.93.93,0,0,1,.94-.94,1,1,0,0,1,.94.94.93.93,0,0,1-.94.94.87.87,0,0,1-.94-.94Z" style="fill:#fff;stroke:#2196f3;stroke-linecap:round;stroke-linejoin:round;fill-rule:evenodd"/></g></svg>