<svg xmlns="http://www.w3.org/2000/svg" xmlns:xlink="http://www.w3.org/1999/xlink" width="86" height="45.59" viewBox="0 0 86 45.59"><defs><clipPath id="6d29ce96-fe5e-4613-a9a7-c5b8e2ac3f24" transform="translate(-2 -7.2)"><rect width="90" height="60" style="fill:none"/></clipPath></defs><title>7</title><g id="3f6e2f15-6655-4e9b-8566-65eb6481d289" data-name="Слой 2"><g id="85037a5d-2f3b-41e7-95a0-056475c5584c" data-name="Слой 1"><g style="clip-path:url(#6d29ce96-fe5e-4613-a9a7-c5b8e2ac3f24)"><path d="M2.5,43.87c3.78-1.4,7.56-2.93,11.45-3.16s8.15.82,12.63.82a68.6,68.6,0,0,0,12.87-1.4c3.54-.7,5.67-1.17,8.74-.7s7.08,1.76,11.57,2.69a49.12,49.12,0,0,0,13.1,1.4c3.54-.23,5.55-1.29,7.79-1.4a14.43,14.43,0,0,1,5.67,1.29l1.18.47" transform="translate(-2 -7.2)" style="fill:none;stroke:#2196f3;stroke-linecap:round;stroke-linejoin:round;fill-rule:evenodd"/><path d="M60.82,8.4a5.28,5.28,0,0,1,3.66,4.92V26.66H60.94V13.32a1.78,1.78,0,0,0-1.18-1.52L58,11.21l1.18-3.39Z" transform="translate(-2 -7.2)" style="fill:#e3f2fd;stroke:#2196f3;stroke-linecap:round;stroke-linejoin:round;fill-rule:evenodd"/><path d="M24.93,9.58H46.65L52,24.09h11c9.92,0,8.62,10.53,8.62,17.21H22.33V27.6Z" transform="translate(-2 -7.2)" style="fill:#fff;stroke:#2196f3;stroke-linecap:round;stroke-linejoin:round;fill-rule:evenodd"/><polygon points="26.59 6.59 25.41 15.25 45.95 18.41 41.7 6.59 26.59 6.59" style="fill:#e3f2fd;stroke:#2196f3;stroke-linecap:round;stroke-linejoin:round;fill-rule:evenodd"/><path d="M24.34,11.45h25a1.86,1.86,0,0,0,1.89-1.87h0A1.86,1.86,0,0,0,49.37,7.7h-25a.8.8,0,0,0-.83.82v2.11a.8.8,0,0,0,.83.82Z" transform="translate(-2 -7.2)" style="fill:#fff;stroke:#2196f3;stroke-linecap:round;stroke-linejoin:round;fill-rule:evenodd"/><path d="M28.71,38.49,43.35,46.8A16.76,16.76,0,1,0,13,32.75Z" transform="translate(-2 -7.2)" style="fill:#fff;stroke:#2196f3;stroke-linecap:round;stroke-linejoin:round;fill-rule:evenodd"/><path d="M28.71,24.67A13.81,13.81,0,1,0,42.64,38.49,13.87,13.87,0,0,0,28.71,24.67Z" transform="translate(-2 -7.2)" style="fill:#e3f2fd;stroke:#2196f3;stroke-linecap:round;stroke-linejoin:round;fill-rule:evenodd"/><path d="M28.71,29.24a9.25,9.25,0,1,0,9.44,9.25,9.31,9.31,0,0,0-9.44-9.25Z" transform="translate(-2 -7.2)" style="fill:#fff;stroke:#2196f3;stroke-linecap:round;stroke-linejoin:round;fill-rule:evenodd"/><path d="M64.48,42.47H77.11a12.57,12.57,0,1,0-23.49,6.2Z" transform="translate(-2 -7.2)" style="fill:#e3f2fd;stroke:#2196f3;stroke-linecap:round;stroke-linejoin:round;fill-rule:evenodd"/><path d="M64.48,32.75a9.73,9.73,0,0,0-9.8,9.71,9.86,9.86,0,1,0,9.8-9.71Z" transform="translate(-2 -7.2)" style="fill:#fff;stroke:#2196f3;stroke-linecap:round;stroke-linejoin:round;fill-rule:evenodd"/><path d="M64.48,35.91a6.55,6.55,0,1,0,0,13.11,6.56,6.56,0,1,0,0-13.11Z" transform="translate(-2 -7.2)" style="fill:#fff;stroke:#2196f3;stroke-linecap:round;stroke-linejoin:round;fill-rule:evenodd"/><path d="M28.71,36a2.46,2.46,0,1,0,0,4.92,2.46,2.46,0,1,0,0-4.92Z" transform="translate(-2 -7.2)" style="fill:#e3f2fd;stroke:#2196f3;stroke-linecap:round;stroke-linejoin:round;fill-rule:evenodd"/><path d="M64.48,40.48a2,2,0,0,0-1.89,2,1.89,1.89,0,0,0,1.89,2,1.91,1.91,0,0,0,2-2,2,2,0,0,0-2-2Z" transform="translate(-2 -7.2)" style="fill:#e3f2fd;stroke:#2196f3;stroke-linecap:round;stroke-linejoin:round;fill-rule:evenodd"/></g></g></g></svg>