<svg xmlns="http://www.w3.org/2000/svg" viewBox="0 0 90 60"><title>solutions-6</title><g id="eb10faf7-d0e7-4f58-a129-624af172e76e" data-name="solutions-6"><g id="db143dec-a7b1-43ae-8be8-e6dd51af529b" data-name="icon"><polygon points="49.35 7.26 77.7 7.26 79.59 7.5 81.48 8.1 83.13 9.06 84.55 10.26 85.85 11.69 86.67 13.37 87.26 15.28 87.5 17.2 87.5 17.2 87.38 18.15 87.26 19.11 87.15 19.95 86.79 20.91 86.44 21.74 85.96 22.46 85.49 23.18 84.9 23.9 56.67 23.9 57.14 23.18 57.73 22.46 58.09 21.74 58.44 20.91 58.8 19.95 59.03 19.11 59.15 18.15 59.15 17.2 59.15 17.2 58.91 15.28 58.44 13.37 57.5 11.69 56.32 10.26 54.78 9.06 53.13 8.1 51.36 7.5 49.35 7.26" style="fill:#e3f2fd;stroke:#2196f3;stroke-linecap:round;stroke-linejoin:round;fill-rule:evenodd"/><polygon points="56.67 23.9 84.9 23.9 84.9 46.63 84.78 47.83 84.43 49.03 83.96 50.1 83.13 50.94 82.3 51.66 81.24 52.26 80.06 52.62 78.88 52.73 50.53 52.73 51.83 52.62 52.89 52.26 53.95 51.66 54.9 50.94 55.61 50.1 56.2 49.03 56.55 47.83 56.67 46.63 56.67 23.9" style="fill:#e3f2fd;stroke:#2196f3;stroke-linecap:round;stroke-linejoin:round;fill-rule:evenodd"/><path d="M33.52,7.26H49.35a9.92,9.92,0,0,1,9.8,9.93h0a10.15,10.15,0,0,1-2.48,6.7V46.63a6.11,6.11,0,0,1-6.14,6.1H32.34a6.09,6.09,0,0,1-6-6.1V23.9a9.68,9.68,0,0,1-2.6-6.7h0a10,10,0,0,1,9.8-9.93Z" style="fill:#fff;stroke:#2196f3;stroke-linecap:round;stroke-linejoin:round;fill-rule:evenodd"/><path d="M33.52,9.66a7.46,7.46,0,0,0-7.44,7.54A8.1,8.1,0,0,0,28,22.34l.59.6V46.63a3.83,3.83,0,0,0,3.78,3.83H50.53a3.83,3.83,0,0,0,3.78-3.83V22.94l.59-.6A7.55,7.55,0,0,0,49.35,9.66Z" style="fill:#fff;stroke:#2196f3;stroke-linecap:round;stroke-linejoin:round;fill-rule:evenodd"/><path d="M35.53,26.29a1.7,1.7,0,0,1-1.65-1.68,1.73,1.73,0,0,1,1.65-1.79" style="fill:none;stroke:#2196f3;stroke-linecap:round;stroke-linejoin:round"/><path d="M44.74,29.16a1.6,1.6,0,0,1,2.24-.6,1.76,1.76,0,0,1,.71,2.27" style="fill:none;stroke:#2196f3;stroke-linecap:round;stroke-linejoin:round"/><path d="M36.35,34.07a1.75,1.75,0,0,1,2.24-.72,1.91,1.91,0,0,1,.71,2.39" style="fill:none;stroke:#2196f3;stroke-linecap:round;stroke-linejoin:round"/><path d="M44,45.56a1.72,1.72,0,0,1,.24-2.39,1.67,1.67,0,0,1,2.36.24" style="fill:none;stroke:#2196f3;stroke-linecap:round;stroke-linejoin:round"/><path d="M45.21,17.79a1.55,1.55,0,0,1,2.24-.6A1.64,1.64,0,0,1,48,19.47" style="fill:none;stroke:#2196f3;stroke-linecap:round;stroke-linejoin:round"/><path d="M33,42.21a1.82,1.82,0,0,1,2.36-.6A1.64,1.64,0,0,1,36,43.88" style="fill:none;stroke:#2196f3;stroke-linecap:round;stroke-linejoin:round"/><path d="M33,16a1.7,1.7,0,1,1,3,1.68" style="fill:none;stroke:#2196f3;stroke-linecap:round;stroke-linejoin:round"/><path d="M17.93,25.09c-1.65,1.56-4.13.48-5.55-1.32A6.84,6.84,0,0,1,11.2,17a6.8,6.8,0,0,1,6.5,2.27c1.42,1.79,2,4.43.24,5.86Z" style="fill:#fff;stroke:#2196f3;stroke-linecap:round;stroke-linejoin:round;fill-rule:evenodd"/><line x1="11.55" y1="16.96" x2="17.93" y2="25.09" style="fill:#fff;stroke:#2196f3;stroke-linecap:round;stroke-linejoin:round"/><path d="M16.63,26.53a38,38,0,0,1,2-5.15,10.4,10.4,0,0,1,2.13-3.23.93.93,0,0,1,1.3-.12,10.87,10.87,0,0,1,1.18.6,7.73,7.73,0,0,1,1.3.48c.12.24,0,.48-.83,1.32S21.35,22.82,20.29,24s-1.65,2.27-2.13,2.75a8.7,8.7,0,0,1-1.06,1.08c-.35.12-.59.36-.71.24s-.24-.24.24-1.56Z" style="fill:#e3f2fd;stroke:#2196f3;stroke-linecap:round;stroke-linejoin:round;fill-rule:evenodd"/><path d="M17.57,51.78c3.9,1.91,6.85,1,10.75-4.19,10.87-14.12-.47-25.85-10.75-20.82m0,25c-3.9,1.91-6.73,1-10.63-4.19C-3.92,33.47,7.3,21.74,17.57,26.77" style="fill:#fff;stroke:#2196f3;stroke-linecap:round;stroke-linejoin:round;fill-rule:evenodd"/></g></g></svg>