<svg xmlns="http://www.w3.org/2000/svg" width="90" height="60" viewBox="0 0 90 60"><title>solutions-11</title><g id="5acd1d5f-7ac7-410e-841a-4a1f8fd3ecf2" data-name="solutions-11"><g id="88829e49-ea68-457d-8d35-4b77d8539f6c" data-name="icon"><path d="M19.13,32.4l8.27,16.16A2.58,2.58,0,0,1,27.51,51a2,2,0,0,1-1.77,1.29H4.49A2,2,0,0,1,2.71,51a3,3,0,0,1,.12-2.46L11.22,32.4V12.15a4,4,0,0,1,7.91,0Z" style="fill:#fff;stroke:#2196f3;stroke-linecap:round;stroke-linejoin:round;fill-rule:evenodd"/><path d="M23.73,41.3l3.66,7.26A2.58,2.58,0,0,1,27.51,51a2,2,0,0,1-1.77,1.29H4.49A2,2,0,0,1,2.71,51a3,3,0,0,1,.12-2.46L6.61,41.3Z" style="fill:#e1f5fe;stroke:#2196f3;stroke-linecap:round;stroke-linejoin:round;fill-rule:evenodd"/><path d="M11,10.74h8.38a1.46,1.46,0,0,0,1.42-1.52h0A1.46,1.46,0,0,0,19.36,7.7H11A1.56,1.56,0,0,0,9.44,9.22h0A1.56,1.56,0,0,0,11,10.74Z" style="fill:#fff;stroke:#2196f3;stroke-linecap:round;stroke-linejoin:round;fill-rule:evenodd"/><path d="M42.86,48.91h0a4,4,0,0,0,4-4V10.74h-8V44.93a4,4,0,0,0,4,4Z" style="fill:#fff;stroke:#2196f3;stroke-linecap:round;stroke-linejoin:round;fill-rule:evenodd"/><path d="M38.85,29.36V44.93a4,4,0,0,0,8,0V30.29a11.28,11.28,0,0,1-4,.23,17.35,17.35,0,0,1-4-1.17Z" style="fill:#e1f5fe;stroke:#2196f3;stroke-linecap:round;stroke-linejoin:round;fill-rule:evenodd"/><path d="M39.32,12.26h7.32a1.58,1.58,0,0,0,1.54-1.64h0A1.56,1.56,0,0,0,46.64,9.1H39.32a1.59,1.59,0,0,0-1.65,1.52h0a1.61,1.61,0,0,0,1.65,1.64Z" style="fill:#e1f5fe;stroke:#2196f3;stroke-linecap:round;stroke-linejoin:round;fill-rule:evenodd"/><path d="M59.16,48.91h0a4,4,0,0,0,4-4V10.74H55V44.93a4.07,4.07,0,0,0,4.13,4Z" style="fill:#fff;stroke:#2196f3;stroke-linecap:round;stroke-linejoin:round;fill-rule:evenodd"/><path d="M55,26.78V44.93a3.92,3.92,0,0,0,.59,2,4.13,4.13,0,0,0,3.54,2,4,4,0,0,0,4-4V26.78a20.58,20.58,0,0,1-7.56.12,1.07,1.07,0,0,1-.59-.12Z" style="fill:#e1f5fe;stroke:#2196f3;stroke-linecap:round;stroke-linejoin:round;fill-rule:evenodd"/><path d="M55.5,12.26h7.32a1.58,1.58,0,0,0,1.54-1.64h0A1.56,1.56,0,0,0,62.82,9.1H55.5a1.59,1.59,0,0,0-1.65,1.52h0a1.61,1.61,0,0,0,1.65,1.64Z" style="fill:#e1f5fe;stroke:#2196f3;stroke-linecap:round;stroke-linejoin:round;fill-rule:evenodd"/><path d="M75.34,48.91h0a4,4,0,0,0,4-4V10.74h-8V44.93a4,4,0,0,0,4,4Z" style="fill:#fff;stroke:#2196f3;stroke-linecap:round;stroke-linejoin:round;fill-rule:evenodd"/><path d="M71.32,42.59v2.34a4,4,0,0,0,8,0V27.25c-.12-.12.12,0-.59-.23a23.34,23.34,0,0,0-4-1.05,10.43,10.43,0,0,0-3.31,0h-.12Z" style="fill:#e1f5fe;stroke:#2196f3;stroke-linecap:round;stroke-linejoin:round;fill-rule:evenodd"/><path d="M71.68,12.26H79a1.68,1.68,0,0,0,1.65-1.64h0A1.67,1.67,0,0,0,79,9.1H71.68A1.59,1.59,0,0,0,70,10.62h0a1.61,1.61,0,0,0,1.65,1.64Z" style="fill:#e1f5fe;stroke:#2196f3;stroke-linecap:round;stroke-linejoin:round;fill-rule:evenodd"/><rect x="33.53" y="39.19" width="2.01" height="13.11" style="fill:#fff;stroke:#2196f3;stroke-linecap:round;stroke-linejoin:round"/><rect x="82.66" y="39.19" width="2.01" height="13.11" style="fill:#fff;stroke:#2196f3;stroke-linecap:round;stroke-linejoin:round"/><path d="M32.59,40.48h52.9a2,2,0,0,0,2-2h0a2,2,0,0,0-2-2H32.59a2,2,0,0,0-1.89,2h0a2,2,0,0,0,1.89,2Z" style="fill:#fff;stroke:#2196f3;stroke-linecap:round;stroke-linejoin:round;fill-rule:evenodd"/></g></g></svg>