<svg xmlns="http://www.w3.org/2000/svg" width="90" height="60" viewBox="0 0 90 60"><title>solutions-7</title><g id="f0f0004a-40c0-45ee-995c-de1b6f8d9654" data-name="solutions-7"><g id="ab99787d-9bd9-4935-83ce-c51042c0e768" data-name="icon"><path d="M2.5,51A105.67,105.67,0,0,1,14,50.51c4,.05,8.15.46,12.63.51s9.33-.36,12.87-.67a64.77,64.77,0,0,1,8.74-.31c3.07.2,7.08.77,11.57,1.23a122.41,122.41,0,0,0,13.1.61c3.54-.1,5.55-.61,7.79-.67A48,48,0,0,1,87.5,52" style="fill:#fff;stroke:#2196f3;stroke-linecap:round;stroke-linejoin:round;fill-rule:evenodd"/><path d="M60.82,9.62a5.28,5.28,0,0,1,3.66,4.92V27.88H60.94V14.54A1.78,1.78,0,0,0,59.76,13L58,12.43,59.17,9Z" style="fill:#e3f2fd;stroke:#2196f3;stroke-linecap:round;stroke-linejoin:round;fill-rule:evenodd"/><path d="M24.93,10.79H46.65L52,25.31h11c9.92,0,8.62,10.53,8.62,17.21H22.33V28.7Z" style="fill:#fff;stroke:#2196f3;stroke-linecap:round;stroke-linejoin:round;fill-rule:evenodd"/><polygon points="28.59 14.89 27.41 23.67 47.95 26.71 43.7 14.89 28.59 14.89" style="fill:#e3f2fd;stroke:#2196f3;stroke-linecap:round;stroke-linejoin:round;fill-rule:evenodd"/><path d="M24.34,12.67h25a1.93,1.93,0,0,0,1.89-1.87h0a2,2,0,0,0-1.89-2h-25a.8.8,0,0,0-.83.82v2.22a.8.8,0,0,0,.83.82Z" style="fill:#fff;stroke:#2196f3;stroke-linecap:round;stroke-linejoin:round;fill-rule:evenodd"/><path d="M28.71,39.7,43.35,48a17.2,17.2,0,0,0,2.24-8.31A16.81,16.81,0,0,0,13,34Z" style="fill:#fff;stroke:#2196f3;stroke-linecap:round;stroke-linejoin:round;fill-rule:evenodd"/><path d="M28.71,25.89A13.75,13.75,0,1,0,42.64,39.7,13.87,13.87,0,0,0,28.71,25.89Z" style="fill:#e3f2fd;stroke:#2196f3;stroke-linecap:round;stroke-linejoin:round;fill-rule:evenodd"/><path d="M28.71,30.34a9.31,9.31,0,1,0,9.44,9.36,9.41,9.41,0,0,0-9.44-9.36Z" style="fill:#fff;stroke:#2196f3;stroke-linecap:round;stroke-linejoin:round;fill-rule:evenodd"/><path d="M64.48,43.68H77.11a12.57,12.57,0,0,0-25.15,0,12.84,12.84,0,0,0,1.65,6.2Z" style="fill:#e3f2fd;stroke:#2196f3;stroke-linecap:round;stroke-linejoin:round;fill-rule:evenodd"/><path d="M64.48,33.85a9.83,9.83,0,0,0-9.8,9.83,9.73,9.73,0,0,0,9.8,9.71,9.83,9.83,0,0,0,9.92-9.71,9.93,9.93,0,0,0-9.92-9.83Z" style="fill:#fff;stroke:#2196f3;stroke-linecap:round;stroke-linejoin:round;fill-rule:evenodd"/><path d="M64.48,37a6.67,6.67,0,0,0-6.61,6.67,6.57,6.57,0,0,0,6.61,6.55,6.67,6.67,0,0,0,6.73-6.55A6.77,6.77,0,0,0,64.48,37Z" style="fill:#fff;stroke:#2196f3;stroke-linecap:round;stroke-linejoin:round;fill-rule:evenodd"/><path d="M28.71,37.25a2.48,2.48,0,0,0-2.48,2.46,2.56,2.56,0,0,0,2.48,2.46,2.48,2.48,0,0,0,2.48-2.46,2.41,2.41,0,0,0-2.48-2.46Z" style="fill:#e3f2fd;stroke:#2196f3;stroke-linecap:round;stroke-linejoin:round;fill-rule:evenodd"/><path d="M64.48,41.69a2,2,0,0,0-2,2,2.06,2.06,0,0,0,2,2,2,2,0,0,0,2-2,1.91,1.91,0,0,0-2-2Z" style="fill:#e3f2fd;stroke:#2196f3;stroke-linecap:round;stroke-linejoin:round;fill-rule:evenodd"/><path d="M14,16.6a2.48,2.48,0,0,0-.61.09,4,4,0,0,0-7.76,0,2.49,2.49,0,1,0,1.9,4.43,3.9,3.9,0,0,0,4.52-.41A2.5,2.5,0,1,0,14,16.6Z" style="fill:#fff;stroke:#2196f3;stroke-linecap:round;stroke-linejoin:round;fill-rule:evenodd"/><path d="M83,9.6a2.48,2.48,0,0,0-.61.09,4,4,0,0,0-7.76,0,2.49,2.49,0,1,0,1.9,4.43,3.9,3.9,0,0,0,4.52-.41A2.5,2.5,0,1,0,83,9.6Z" style="fill:#fff;stroke:#2196f3;stroke-linecap:round;stroke-linejoin:round;fill-rule:evenodd"/></g></g></svg>