<svg xmlns="http://www.w3.org/2000/svg" viewBox="0 0 90 60"><title>solutions-4</title><g id="463c2a10-bcfb-4819-b451-3f2d306145bd" data-name="solutions-4"><g id="f8c8d44d-d30e-443c-9b90-fbf6a9a95bd2" data-name="icon"><path d="M40,18.87A11.17,11.17,0,1,0,28.76,30,11.17,11.17,0,0,0,40,18.87Zm-4.61,0a6.56,6.56,0,1,0-6.62,6.56,6.56,6.56,0,0,0,6.62-6.56Z" style="fill:#e3f2fd;stroke:#2196f3;stroke-linecap:round;stroke-linejoin:round;fill-rule:evenodd"/><path d="M5.24,52.26H52.4c1.54,0,3.07-1.29,2.72-2.81L50,24.49C49,19,44.48,18.87,42.94,18.87H14.7c-1.54,0-7.33,0-8.27,5.62l-3.9,25a2.62,2.62,0,0,0,2.72,2.81Z" style="fill:#e3f2fd;stroke:#2196f3;stroke-linecap:round;stroke-linejoin:round;fill-rule:evenodd"/><path d="M52.4,49.57,47.44,25c-.59-2.58-1.89-3.28-4.49-3.28H14.7c-2.48,0-5.08.35-5.55,3.16L5.24,49.57H52.4Z" style="fill:#fff;stroke:#2196f3;stroke-linecap:round;stroke-linejoin:round;fill-rule:evenodd"/><path d="M67.17,10.78c-4.73-.7-9,1.17-12.65,3.75-1.65.47-4.25,11.6-7.68,33.16,1.89.35,3.66.7,5.2.94,2.13-14.18,4-22.5,6-24.84a24.34,24.34,0,0,1,1.54,7.73C58.54,34,57.48,40,56.3,49.57c2.36,1.52,6,2.46,10.87,2.7,5-.23,8.51-1.17,11-2.7C77,40,75.8,34,74.85,31.52a21.48,21.48,0,0,1,1.54-7.73c1.89,2.34,3.9,10.66,5.91,24.84,1.65-.23,3.31-.59,5.2-.94C84.07,26.13,81.59,15,79.82,14.53,76.15,12,72,10.08,67.17,10.78Z" style="fill:#fff;stroke:#2196f3;stroke-linecap:round;stroke-linejoin:round;fill-rule:evenodd"/><path d="M61.74,8.79a16.12,16.12,0,0,0-.59,5c.12-.94,1.89-3,6-3s6,2.11,6,3a15.69,15.69,0,0,0-.47-5,15,15,0,0,0-5.55-.94,14,14,0,0,0-5.44.94Z" style="fill:#e3f2fd;stroke:#2196f3;stroke-linecap:round;stroke-linejoin:round;fill-rule:evenodd"/><path d="M58.07,23.79a25.72,25.72,0,0,0-1.89-3.63" style="fill:#fff;stroke:#2196f3;stroke-linecap:round;stroke-linejoin:round;fill-rule:evenodd"/><path d="M67.17,22.38V40.66c-1.3,7.26-5,10.19-10.87,8.91" style="fill:none;stroke:#2196f3;stroke-linecap:round;stroke-linejoin:round"/><path d="M67.17,22.38c-3-4.8-4.85-9.37-5.44-13.59a4.93,4.93,0,0,0-2.13,2.93c.71,9.14,3.19,14.18,7.56,15V22.38Z" style="fill:#fff;stroke:#2196f3;stroke-linecap:round;stroke-linejoin:round;fill-rule:evenodd"/><path d="M76.39,23.79a17.39,17.39,0,0,1,1.89-3.63" style="fill:#fff;stroke:#2196f3;stroke-linecap:round;stroke-linejoin:round;fill-rule:evenodd"/><path d="M67.17,22.38V40.66c1.42,7.26,5,10.19,11,8.91" style="fill:none;stroke:#2196f3;stroke-linecap:round;stroke-linejoin:round"/><path d="M67.17,22.38A36.72,36.72,0,0,0,72.73,8.79a4.93,4.93,0,0,1,2.13,2.93c-.71,9.14-3.31,14.18-7.68,15V22.38Z" style="fill:#fff;stroke:#2196f3;stroke-linecap:round;stroke-linejoin:round;fill-rule:evenodd"/><path d="M78.16,49.57c-6,1.29-9.57-1.64-11-8.91-1.3,7.26-5,10.19-10.87,8.91,2.36,1.52,6,2.46,10.87,2.7,5-.23,8.51-1.17,11-2.7Z" style="fill:#e3f2fd;stroke:#2196f3;stroke-linecap:round;stroke-linejoin:round;fill-rule:evenodd"/><path d="M71.55,34.92c-.59,6.68,1.42,9.61,5.91,9-.59-3.87-1.18-6.8-1.65-9Z" style="fill:#e3f2fd;stroke:#2196f3;stroke-linecap:round;stroke-linejoin:round;fill-rule:evenodd"/><path d="M57,43.94c4.49.59,6.38-2.34,5.79-9H58.54c-.47,2.23-.95,5.16-1.54,9Z" style="fill:#e3f2fd;stroke:#2196f3;stroke-linecap:round;stroke-linejoin:round;fill-rule:evenodd"/><path d="M25.45,30h6.74a3.67,3.67,0,0,0,3.66-3.63h0a1.84,1.84,0,0,0-1.77-1.87H23.56a1.84,1.84,0,0,0-1.77,1.87h0A3.67,3.67,0,0,0,25.45,30Z" style="fill:#e3f2fd;stroke:#2196f3;stroke-linecap:round;stroke-linejoin:round;fill-rule:evenodd"/><path d="M25.34,39.26h7a.84.84,0,0,0,.83-.94h0a.8.8,0,0,0-.83-.82h-7a.8.8,0,0,0-.83.82h0a.84.84,0,0,0,.83.94Z" style="fill:#fff;stroke:#2196f3;stroke-linecap:round;stroke-linejoin:round;fill-rule:evenodd"/></g></g></svg>