<svg id="8e63e5b5-64a7-439b-b37c-3d4bd006dcf8" data-name="solutions-1" xmlns="http://www.w3.org/2000/svg" width="90" height="60" viewBox="0 0 90 60"><title>solutions-1</title><g id="0878cc56-5a1a-4e9a-8df9-277c421270a3" data-name="icon"><path d="M9.94,33.75A8.38,8.38,0,0,0,2.5,38.43H7.1a3.56,3.56,0,0,1,3.66,3.51h0A3.64,3.64,0,0,1,7.1,45.45H2.5a8.6,8.6,0,0,0,7.44,4.68,8.32,8.32,0,0,0,7.44-4.68H72.62a8.25,8.25,0,0,0,14.88,0H82.9a3.54,3.54,0,0,1-3.54-3.51h0a3.46,3.46,0,0,1,3.54-3.51h4.6a8.25,8.25,0,0,0-14.88,0H17.37a8.11,8.11,0,0,0-7.44-4.68Z" style="fill:#fff;stroke:#2196f3;stroke-linecap:round;stroke-linejoin:round;fill-rule:evenodd"/><path d="M21.15,52.24h2.36a1.91,1.91,0,0,0,2-2V41.12H19.15v9.13a2,2,0,0,0,2,2Z" style="fill:#e3f2fd;stroke:#2196f3;stroke-linecap:round;stroke-linejoin:round;fill-rule:evenodd"/><path d="M66.13,52.24h2.48a1.89,1.89,0,0,0,1.89-2V41.12H64.12v9.13a2,2,0,0,0,2,2Z" style="fill:#e3f2fd;stroke:#2196f3;stroke-linecap:round;stroke-linejoin:round;fill-rule:evenodd"/><polygon points="16.67 23.45 23.75 24.5 20.21 28.71 15.25 25.55 16.67 23.45" style="fill:#fff;stroke:#2196f3;stroke-linecap:round;stroke-linejoin:round;fill-rule:evenodd"/><path d="M15.72,20.52c-1.65,0-4.6.59-4.6,2.11s3,3.75,4.6,3.75a2.91,2.91,0,0,0,3-2.93,3,3,0,0,0-3-2.93Z" style="fill:#fff;stroke:#2196f3;stroke-linecap:round;stroke-linejoin:round;fill-rule:evenodd"/><polygon points="73.33 23.45 66.25 24.5 69.79 28.71 74.87 25.55 73.33 23.45" style="fill:#fff;stroke:#2196f3;stroke-linecap:round;stroke-linejoin:round;fill-rule:evenodd"/><path d="M74.28,20.52c1.65,0,4.6.59,4.6,2.11s-3,3.75-4.6,3.75a2.91,2.91,0,0,1-3-2.93,3,3,0,0,1,3-2.93Z" style="fill:#fff;stroke:#2196f3;stroke-linecap:round;stroke-linejoin:round;fill-rule:evenodd"/><path d="M45,46.74H25c-5,0-6.85-8.66-6.85-12.41,0-3.51.12-11.35,5-11.35H67c4.72,0,4.84,7.84,4.84,11.35,0,3.75-1.89,12.41-6.85,12.41Z" style="fill:#fff;stroke:#2196f3;stroke-linecap:round;stroke-linejoin:round;fill-rule:evenodd"/><path d="M45,46.74H25c-5,0-6.85-8.66-6.85-12.41,0-1.05.12-2.69.24-4.33H20a2.56,2.56,0,0,1,2.48,2.46V34.8H67.67V32.46A2.46,2.46,0,0,1,70,30h1.53a30.46,30.46,0,0,1,.24,4.33c0,3.75-1.89,12.41-6.85,12.41Z" style="fill:#e3f2fd;stroke:#2196f3;stroke-linecap:round;stroke-linejoin:round;fill-rule:evenodd"/><path d="M45,46.74H25c-2.24,0-3.9-1.87-5-4.1H69.91c-1.06,2.22-2.72,4.1-5,4.1Z" style="fill:#fff;stroke:#2196f3;stroke-linecap:round;stroke-linejoin:round;fill-rule:evenodd"/><path d="M23.16,25.9a20,20,0,0,1,11.33,5.62H25.4Z" style="fill:#fff;stroke:#2196f3;stroke-linecap:round;stroke-linejoin:round;fill-rule:evenodd"/><path d="M66.84,25.9a20.82,20.82,0,0,0-11.33,5.62H64.6Z" style="fill:#fff;stroke:#2196f3;stroke-linecap:round;stroke-linejoin:round;fill-rule:evenodd"/><path d="M21.86,23h46.4c0-4.8-7.08-15.22-10-15.22H31.78c-3,0-9.92,11.12-9.92,15.22Z" style="fill:#fff;stroke:#2196f3;stroke-linecap:round;stroke-linejoin:round;fill-rule:evenodd"/><path d="M25.4,20.17H64.72c-1.53-3.63-4.84-8.9-6.49-9.6H32.13c-1.77.94-5.19,6.09-6.73,9.6Z" style="fill:#e3f2fd;stroke:#2196f3;stroke-linecap:round;stroke-linejoin:round;fill-rule:evenodd"/><path d="M34.26,40.07h21.6a1.67,1.67,0,0,0,1.77-1.76V36.67H32.49v1.64a1.73,1.73,0,0,0,1.77,1.76Z" style="fill:#fff;stroke:#2196f3;stroke-linecap:round;stroke-linejoin:round;fill-rule:evenodd"/></g></svg>