<svg xmlns="http://www.w3.org/2000/svg" viewBox="0 0 90 60"><title>solutions-12</title><g id="bb6434cc-fdf3-423a-b144-c10506803bad" data-name="solutions-12"><polygon points="9.58 41.12 9.58 52.24 87.5 52.24 87.5 24.5 9.58 41.12" style="fill:#e1f5fe;stroke:#2196f3;stroke-linecap:round;stroke-linejoin:round;fill-rule:evenodd"/><path d="M9.58,41.12H80.42V7.76H9.58c-3.9,0-7.08,7.49-7.08,16.74S5.69,41.12,9.58,41.12Z" style="fill:#fff;stroke:#2196f3;stroke-linecap:round;stroke-linejoin:round;fill-rule:evenodd"/><path d="M87.5,24.5c0-9.25-3.19-16.74-7.08-16.74s-7.08,7.49-7.08,16.74,3.19,16.62,7.08,16.62S87.5,33.63,87.5,24.5Z" style="fill:#fff;stroke:#2196f3;stroke-linecap:round;stroke-linejoin:round;fill-rule:evenodd"/><path d="M80.42,12.68c-1.89,2.46-2.6,9.6-2.6,11.82s.71,9.36,2.6,11.7c1.89-2.34,2.6-9.48,2.6-11.7s-.71-9.36-2.6-11.82Z" style="fill:#e1f5fe;stroke:#2196f3;stroke-linecap:round;stroke-linejoin:round;fill-rule:evenodd"/><line x1="5.49" y1="16.54" x2="6.11" y2="16.54" style="fill:none;stroke:#2196f3;stroke-linecap:round;stroke-linejoin:round"/><line x1="9.86" y1="16.54" x2="67.99" y2="16.54" style="fill:none;stroke:#2196f3;stroke-linecap:round;stroke-linejoin:round;stroke-dasharray:1.249958872795105,3.7498764991760254"/><line x1="69.86" y1="16.54" x2="70.49" y2="16.54" style="fill:none;stroke:#2196f3;stroke-linecap:round;stroke-linejoin:round"/></g></svg>