<svg xmlns="http://www.w3.org/2000/svg" xmlns:xlink="http://www.w3.org/1999/xlink" width="86" height="45.48" viewBox="0 0 86 45.48"><defs><clipPath id="52ca33ba-d067-4a6b-a823-d5f45c5ce800" transform="translate(-2 -7.26)"><rect width="90" height="60" style="fill:none"/></clipPath></defs><title>5</title><g id="223d1c66-0587-4397-962c-402036afa518" data-name="Слой 2"><g id="0d924549-4362-4c16-8b19-7a9cdf39f90e" data-name="Слой 1"><g style="clip-path:url(#52ca33ba-d067-4a6b-a823-d5f45c5ce800)"><path d="M39.92,52.24H64.24a2.06,2.06,0,0,0,2-2V41.12H37.92v9.13a2,2,0,0,0,2,2Z" transform="translate(-2 -7.26)" style="fill:#fff;stroke:#2196f3;stroke-linecap:round;stroke-linejoin:round;fill-rule:evenodd"/><path d="M45,17.48H59.17V13.73a6,6,0,0,0-6-6H51a6,6,0,0,0-6,6Z" transform="translate(-2 -7.26)" style="fill:#e3f2fd;stroke:#2196f3;stroke-linecap:round;stroke-linejoin:round;fill-rule:evenodd"/><rect x="35.92" y="6.12" width="28.33" height="4.1" style="fill:#fff;stroke:#2196f3;stroke-linecap:round;stroke-linejoin:round"/><rect x="35.92" y="10.21" width="28.33" height="4.21" style="fill:#fff;stroke:#2196f3;stroke-linecap:round;stroke-linejoin:round"/><rect x="35.92" y="14.43" width="28.33" height="4.21" style="fill:#fff;stroke:#2196f3;stroke-linecap:round;stroke-linejoin:round"/><rect x="35.92" y="18.64" width="28.33" height="4.1" style="fill:#fff;stroke:#2196f3;stroke-linecap:round;stroke-linejoin:round"/><rect x="35.92" y="22.74" width="28.33" height="4.21" style="fill:#fff;stroke:#2196f3;stroke-linecap:round;stroke-linejoin:round"/><rect x="35.92" y="26.95" width="28.33" height="4.1" style="fill:#fff;stroke:#2196f3;stroke-linecap:round;stroke-linejoin:round"/><rect x="35.92" y="31.05" width="28.33" height="4.21" style="fill:#fff;stroke:#2196f3;stroke-linecap:round;stroke-linejoin:round"/><rect x="35.92" y="35.26" width="28.33" height="4.21" style="fill:#fff;stroke:#2196f3;stroke-linecap:round;stroke-linejoin:round"/><path d="M73.33,31.4H86.08A1.43,1.43,0,0,0,87.5,30h0a1.52,1.52,0,0,0-1.42-1.4H73.33Z" transform="translate(-2 -7.26)" style="fill:#e3f2fd;stroke:#2196f3;stroke-linecap:round;stroke-linejoin:round;fill-rule:evenodd"/><path d="M66.25,46.74h.12a14.1,14.1,0,0,0,14-13.93V27.19a14,14,0,0,0-14-13.81h-.12Z" transform="translate(-2 -7.26)" style="fill:#fff;stroke:#2196f3;stroke-linecap:round;stroke-linejoin:round;fill-rule:evenodd"/><path d="M37.92,46.74h-.24A14,14,0,0,1,23.75,32.81V27.19A13.9,13.9,0,0,1,37.68,13.38h.24Z" transform="translate(-2 -7.26)" style="fill:#fff;stroke:#2196f3;stroke-linecap:round;stroke-linejoin:round;fill-rule:evenodd"/><path d="M42.4,49.43a.93.93,0,0,0-.94-.94,1,1,0,0,0-.94.94.93.93,0,0,0,.94.94.87.87,0,0,0,.94-.94Z" transform="translate(-2 -7.26)" style="fill:#fff;stroke:#2196f3;stroke-linecap:round;stroke-linejoin:round;fill-rule:evenodd"/><path d="M61.65,49.43a1,1,0,0,1,.94-.94.93.93,0,0,1,.94.94.87.87,0,0,1-.94.94.93.93,0,0,1-.94-.94Z" transform="translate(-2 -7.26)" style="fill:#fff;stroke:#2196f3;stroke-linecap:round;stroke-linejoin:round;fill-rule:evenodd"/><path d="M47.36,30A22.43,22.43,0,1,0,24.93,52.24,22.33,22.33,0,0,0,47.36,30Z" transform="translate(-2 -7.26)" style="fill:#fff;stroke:#2196f3;stroke-linecap:round;stroke-linejoin:round;fill-rule:evenodd"/><line x1="0.5" y1="22.74" x2="2.15" y2="24.14" style="fill:#fff;stroke:#2196f3;stroke-linecap:round;stroke-linejoin:round"/><line x1="0.85" y1="26.6" x2="2.74" y2="27.65" style="fill:#fff;stroke:#2196f3;stroke-linecap:round;stroke-linejoin:round"/><line x1="1.8" y1="30.35" x2="3.92" y2="31.05" style="fill:#fff;stroke:#2196f3;stroke-linecap:round;stroke-linejoin:round"/><line x1="3.45" y1="33.86" x2="5.69" y2="34.21" style="fill:#fff;stroke:#2196f3;stroke-linecap:round;stroke-linejoin:round"/><line x1="5.69" y1="37.02" x2="7.94" y2="37.02" style="fill:#fff;stroke:#2196f3;stroke-linecap:round;stroke-linejoin:round"/><line x1="8.53" y1="39.83" x2="10.65" y2="39.36" style="fill:#fff;stroke:#2196f3;stroke-linecap:round;stroke-linejoin:round"/><line x1="11.72" y1="42.05" x2="13.72" y2="41.23" style="fill:#fff;stroke:#2196f3;stroke-linecap:round;stroke-linejoin:round"/><line x1="15.26" y1="43.69" x2="17.15" y2="42.52" style="fill:#fff;stroke:#2196f3;stroke-linecap:round;stroke-linejoin:round"/><line x1="19.03" y1="44.63" x2="20.69" y2="43.22" style="fill:#fff;stroke:#2196f3;stroke-linecap:round;stroke-linejoin:round"/><line x1="22.93" y1="44.98" x2="24.35" y2="43.34" style="fill:#fff;stroke:#2196f3;stroke-linecap:round;stroke-linejoin:round"/><line x1="26.83" y1="44.63" x2="27.89" y2="42.75" style="fill:#fff;stroke:#2196f3;stroke-linecap:round;stroke-linejoin:round"/><line x1="30.6" y1="43.69" x2="31.31" y2="41.58" style="fill:#fff;stroke:#2196f3;stroke-linecap:round;stroke-linejoin:round"/><line x1="34.15" y1="42.05" x2="34.5" y2="39.94" style="fill:#fff;stroke:#2196f3;stroke-linecap:round;stroke-linejoin:round"/><line x1="37.33" y1="39.83" x2="37.33" y2="37.6" style="fill:#fff;stroke:#2196f3;stroke-linecap:round;stroke-linejoin:round"/><line x1="40.05" y1="37.02" x2="39.69" y2="34.91" style="fill:#fff;stroke:#2196f3;stroke-linecap:round;stroke-linejoin:round"/><line x1="42.29" y1="33.86" x2="41.58" y2="31.87" style="fill:#fff;stroke:#2196f3;stroke-linecap:round;stroke-linejoin:round"/><line x1="43.94" y1="30.35" x2="42.88" y2="28.47" style="fill:#fff;stroke:#2196f3;stroke-linecap:round;stroke-linejoin:round"/><line x1="45.01" y1="26.6" x2="43.59" y2="24.96" style="fill:#fff;stroke:#2196f3;stroke-linecap:round;stroke-linejoin:round"/><line x1="45.36" y1="22.74" x2="43.71" y2="21.33" style="fill:#fff;stroke:#2196f3;stroke-linecap:round;stroke-linejoin:round"/><line x1="45.01" y1="18.88" x2="43.12" y2="17.82" style="fill:#fff;stroke:#2196f3;stroke-linecap:round;stroke-linejoin:round"/><line x1="43.94" y1="15.13" x2="41.94" y2="14.43" style="fill:#fff;stroke:#2196f3;stroke-linecap:round;stroke-linejoin:round"/><line x1="42.29" y1="11.62" x2="40.17" y2="11.27" style="fill:#fff;stroke:#2196f3;stroke-linecap:round;stroke-linejoin:round"/><line x1="40.05" y1="8.46" x2="37.92" y2="8.46" style="fill:#fff;stroke:#2196f3;stroke-linecap:round;stroke-linejoin:round"/><line x1="37.33" y1="5.77" x2="35.21" y2="6.12" style="fill:#fff;stroke:#2196f3;stroke-linecap:round;stroke-linejoin:round"/><line x1="34.15" y1="3.54" x2="32.14" y2="4.25" style="fill:#fff;stroke:#2196f3;stroke-linecap:round;stroke-linejoin:round"/><line x1="30.6" y1="1.9" x2="28.72" y2="2.96" style="fill:#fff;stroke:#2196f3;stroke-linecap:round;stroke-linejoin:round"/><line x1="26.83" y1="0.85" x2="25.17" y2="2.26" style="fill:#fff;stroke:#2196f3;stroke-linecap:round;stroke-linejoin:round"/><line x1="22.93" y1="0.5" x2="21.51" y2="2.14" style="fill:#fff;stroke:#2196f3;stroke-linecap:round;stroke-linejoin:round"/><line x1="19.03" y1="0.85" x2="17.97" y2="2.72" style="fill:#fff;stroke:#2196f3;stroke-linecap:round;stroke-linejoin:round"/><line x1="15.26" y1="1.9" x2="14.55" y2="3.89" style="fill:#fff;stroke:#2196f3;stroke-linecap:round;stroke-linejoin:round"/><line x1="11.72" y1="3.54" x2="11.36" y2="5.65" style="fill:#fff;stroke:#2196f3;stroke-linecap:round;stroke-linejoin:round"/><line x1="8.53" y1="5.77" x2="8.53" y2="7.87" style="fill:#fff;stroke:#2196f3;stroke-linecap:round;stroke-linejoin:round"/><line x1="5.69" y1="8.46" x2="6.17" y2="10.57" style="fill:#fff;stroke:#2196f3;stroke-linecap:round;stroke-linejoin:round"/><line x1="3.45" y1="11.62" x2="4.28" y2="13.61" style="fill:#fff;stroke:#2196f3;stroke-linecap:round;stroke-linejoin:round"/><line x1="1.8" y1="15.13" x2="2.98" y2="17" style="fill:#fff;stroke:#2196f3;stroke-linecap:round;stroke-linejoin:round"/><line x1="0.85" y1="18.88" x2="2.27" y2="20.52" style="fill:#fff;stroke:#2196f3;stroke-linecap:round;stroke-linejoin:round"/><line x1="0.5" y1="22.74" x2="2.15" y2="24.14" style="fill:#fff;stroke:#2196f3;stroke-linecap:round;stroke-linejoin:round"/><path d="M41,30A16.06,16.06,0,1,0,24.93,45.92,16,16,0,0,0,41,30Z" transform="translate(-2 -7.26)" style="fill:#e3f2fd;stroke:#2196f3;stroke-linecap:round;stroke-linejoin:round;fill-rule:evenodd"/><path d="M37.68,30a12.75,12.75,0,0,0-25.5,0,12.75,12.75,0,0,0,25.5,0Z" transform="translate(-2 -7.26)" style="fill:#fff;stroke:#2196f3;stroke-linecap:round;stroke-linejoin:round;fill-rule:evenodd"/><line x1="22.93" y1="10.1" x2="22.93" y2="35.38" style="fill:#fff;stroke:#2196f3;stroke-linecap:round;stroke-linejoin:round"/><line x1="35.68" y1="22.74" x2="10.18" y2="22.74" style="fill:#fff;stroke:#2196f3;stroke-linecap:round;stroke-linejoin:round"/><line x1="13.96" y1="13.84" x2="31.9" y2="31.63" style="fill:#fff;stroke:#2196f3;stroke-linecap:round;stroke-linejoin:round"/><line x1="31.9" y1="13.84" x2="13.96" y2="31.63" style="fill:#fff;stroke:#2196f3;stroke-linecap:round;stroke-linejoin:round"/><path d="M28.83,30a3.9,3.9,0,1,0-3.9,3.86A3.91,3.91,0,0,0,28.83,30Z" transform="translate(-2 -7.26)" style="fill:#e3f2fd;stroke:#2196f3;stroke-linecap:round;stroke-linejoin:round;fill-rule:evenodd"/></g></g></g></svg>