<svg xmlns="http://www.w3.org/2000/svg" xmlns:xlink="http://www.w3.org/1999/xlink" width="85.94" height="45.41" viewBox="0 0 85.94 45.41"><defs><clipPath id="5d2703fb-c46d-47b3-91b1-a9cccb57b665" transform="translate(-2.03 -7.29)"><rect width="90" height="60" style="fill:none"/></clipPath></defs><title>12</title><g id="ee2766dd-d4d0-471e-867b-6969439e013b" data-name="Слой 2"><g id="1648c5df-afaf-42c3-a32f-982f1023cefb" data-name="Слой 1"><g style="clip-path:url(#5d2703fb-c46d-47b3-91b1-a9cccb57b665)"><polygon points="7.55 33.83 7.55 44.95 10.27 42.14 13.1 44.95 15.93 42.14 18.65 44.95 21.48 42.14 24.2 44.95 27.03 42.14 29.75 44.95 32.58 42.14 35.3 44.95 38.13 42.14 40.96 44.95 43.68 42.14 46.51 44.95 49.23 42.14 52.06 44.95 54.77 42.14 57.61 44.95 60.44 42.14 63.16 44.95 65.99 42.14 68.7 44.95 71.54 42.14 74.25 44.95 77.09 42.14 79.8 44.95 82.64 42.14 85.47 44.95 85.47 17.21 7.55 33.83" style="fill:#e1f5fe;stroke:#2196f3;stroke-linecap:round;stroke-linejoin:round;stroke-width:0.9363762728827639px;fill-rule:evenodd"/><path d="M9.58,41.12H80.42V7.76H9.58c-3.9,0-7.08,7.49-7.08,16.74S5.69,41.12,9.58,41.12Z" transform="translate(-2.03 -7.29)" style="fill:#fff;stroke:#2196f3;stroke-linecap:round;stroke-linejoin:round;stroke-width:0.9363762728827639px;fill-rule:evenodd"/><path d="M87.5,24.5c0-9.25-3.19-16.74-7.08-16.74s-7.08,7.49-7.08,16.74,3.07,16.62,7.08,16.62S87.5,33.63,87.5,24.5Z" transform="translate(-2.03 -7.29)" style="fill:#fff;stroke:#2196f3;stroke-linecap:round;stroke-linejoin:round;stroke-width:0.9363762728827639px;fill-rule:evenodd"/><path d="M80.42,12.68c-1.89,2.46-2.6,9.48-2.6,11.82s.71,9.25,2.6,11.7c1.89-2.46,2.48-9.48,2.48-11.7s-.59-9.36-2.48-11.82Z" transform="translate(-2.03 -7.29)" style="fill:#e1f5fe;stroke:#2196f3;stroke-linecap:round;stroke-linejoin:round;stroke-width:0.9363762728827639px;fill-rule:evenodd"/></g></g></g></svg>