<svg xmlns="http://www.w3.org/2000/svg" xmlns:xlink="http://www.w3.org/1999/xlink" width="76.61" height="46" viewBox="0 0 76.61 46"><defs><clipPath id="8c86a7ef-69ce-4fc3-8606-797f2df9f60d" transform="translate(-6.7 -7)"><rect width="90" height="60" style="fill:none"/></clipPath></defs><title>8</title><g id="06242c3e-b674-46f8-a422-a9cead4380f0" data-name="Слой 2"><g id="64e3e2e2-7c51-411c-b86d-6280597c677f" data-name="Слой 1"><g style="clip-path:url(#8c86a7ef-69ce-4fc3-8606-797f2df9f60d)"><path d="M15.8,7.5H74.08a4.26,4.26,0,0,1,4.3,4.26V48.95H11.62V11.76A4.24,4.24,0,0,1,15.8,7.5Z" transform="translate(-6.7 -7)" style="fill:#fff;stroke:#2196f3;stroke-linecap:round;stroke-linejoin:round;fill-rule:evenodd"/><path d="M16.87,10.46H73a2.19,2.19,0,0,1,2.27,2.25V44H14.6V12.71a2.26,2.26,0,0,1,2.27-2.25Z" transform="translate(-6.7 -7)" style="fill:#e3f2fd;stroke:#2196f3;stroke-linecap:round;stroke-linejoin:round;fill-rule:evenodd"/><path d="M9.71,52.5H80.29A2.59,2.59,0,0,0,82.8,50V48.95H7.2V50A2.51,2.51,0,0,0,9.71,52.5Z" transform="translate(-6.7 -7)" style="fill:#e3f2fd;stroke:#2196f3;stroke-linecap:round;stroke-linejoin:round;fill-rule:evenodd"/><path d="M35.27,52.5H54.62a4.09,4.09,0,0,0,4.06-4V14.25a4,4,0,0,0-4.06-3.91H35.27a4.07,4.07,0,0,0-4.06,3.91V48.47a4.17,4.17,0,0,0,4.06,4Z" transform="translate(-6.7 -7)" style="fill:#e3f2fd;stroke:#2196f3;stroke-linecap:round;stroke-linejoin:round;fill-rule:evenodd"/><path d="M53.78,42.2H36.22a1.78,1.78,0,0,1-1.91-1.78V15a1.86,1.86,0,0,1,1.91-1.78H53.78A1.83,1.83,0,0,1,55.57,15V40.42a1.75,1.75,0,0,1-1.79,1.78Z" transform="translate(-6.7 -7)" style="fill:#fff;stroke:#2196f3;stroke-linecap:round;stroke-linejoin:round;fill-rule:evenodd"/><path d="M44.94,45.16a1.63,1.63,0,0,0-1.67,1.66,1.73,1.73,0,0,0,1.67,1.78,1.83,1.83,0,0,0,1.79-1.78,1.73,1.73,0,0,0-1.79-1.66Z" transform="translate(-6.7 -7)" style="fill:#fff;stroke:#2196f3;stroke-linecap:round;stroke-linejoin:round;fill-rule:evenodd"/></g></g></g></svg>