<?xml version="1.0" encoding="utf-8"?>
<!-- Generator: Adobe Illustrator 21.1.0, SVG Export Plug-In . SVG Version: 6.00 Build 0)  -->
<svg version="1.1" id="Слой_1" xmlns="http://www.w3.org/2000/svg" xmlns:xlink="http://www.w3.org/1999/xlink" x="0px" y="0px"
	 viewBox="0 0 20 20" style="enable-background:new 0 0 20 20;" xml:space="preserve">
<path style="fill:#2196F3;" d="M10,0.5c-4,0-8,0.5-8,4V14c0,1.9,1.6,3.5,3.5,3.5L4,19v0.5h2.2l2-2H12l2,2h2V19l-1.5-1.5
	c1.9,0,3.5-1.6,3.5-3.5V4.5C18,1,14.4,0.5,10,0.5z M5.5,15.5C4.7,15.5,4,14.8,4,14s0.7-1.5,1.5-1.5S7,13.2,7,14S6.3,15.5,5.5,15.5z
	 M9,8.5H4v-4h5V8.5z M11,8.5v-4h5v4H11z M14.5,15.5c-0.8,0-1.5-0.7-1.5-1.5s0.7-1.5,1.5-1.5S16,13.2,16,14S15.3,15.5,14.5,15.5z"/>
<path style="fill:none;" d="M0,0h20v20H0V0z"/>
</svg>
