<svg xmlns="http://www.w3.org/2000/svg" width="90" height="89.23" viewBox="0 0 90 89.23"><title>icon1</title><g id="02beb200-b5dc-4a41-a04e-1014bbe73915" data-name="Слой 2"><g id="8a607eb7-fac2-4717-9f43-f9c61844e47e" data-name="Слой 1"><path d="M45,0C20.2,0,0,20,0,44.62S20.2,89.23,45,89.23s45-20,45-44.62S69.8,0,45,0Z" style="fill:#e3f2fd;fill-rule:evenodd"/><path d="M55.87,55.47c1.42-.23,2.48-.47,2.72-2.22C58.7,52,58,51.6,57,50.9c1.42-.23,2.36-.7,2.48-2.34A2,2,0,0,0,58,46.33c3-1.05,2.48-4.57-.35-4.57H53.86a15.05,15.05,0,0,1-4.61-.23c-1.89-.82-1.18-2.58-.59-4.22.71-1.87,1.54-3.86.71-6A3.74,3.74,0,0,0,48,30.06a2.15,2.15,0,0,0-1.18-.23c-.12,0-.47.12-.59.12a4.93,4.93,0,0,0-.94.7,3.7,3.7,0,0,0-.35,1.05c-.94,5.27-3.9,6.44-5.67,9.72-1.06,2.11-1.65,1.76-4.37,1.76,0,2.22-.24,13.82.12,15.11,1.77.12,3.54.59,5.67.94s11,.12,13.23.12a4.92,4.92,0,0,0,2.24-.23c.94-.35,1.18-1.17,1.06-2.22a1.62,1.62,0,0,0-1.3-1.41Z" style="fill:#fff;stroke:#2196f3;stroke-linecap:round;stroke-linejoin:round;fill-rule:evenodd"/><rect x="30" y="42.12" width="4.96" height="17.21" style="fill:#fff;stroke:#2196f3;stroke-linecap:round;stroke-linejoin:round"/></g></g></svg>