<svg xmlns="http://www.w3.org/2000/svg" width="90.78" height="90" viewBox="0 0 90.78 90"><title>icon3</title><g id="70ad8224-d683-452d-b6bf-152ec83629b9" data-name="Слой 2"><g id="e649ed4a-9abf-4f40-9d88-0e16b488935a" data-name="Слой 1"><path d="M45.39,0C20.37,0,0,20.2,0,45S20.37,90,45.39,90,90.78,69.8,90.78,45,70.4,0,45.39,0Z" style="fill:#e3f2fd;fill-rule:evenodd"/><rect x="35.26" y="30" width="20.25" height="27.52" style="fill:#fff;stroke:#2196f3;stroke-linecap:round;stroke-linejoin:round"/><rect x="37.88" y="32.48" width="5" height="5.08" style="fill:#e3f2fd;stroke:#2196f3;stroke-linecap:round;stroke-linejoin:round"/><line x1="37.88" y1="40.04" x2="53.01" y2="40.04" style="fill:#fff;stroke:#2196f3;stroke-linecap:round;stroke-linejoin:round"/><line x1="37.88" y1="42.28" x2="50.39" y2="42.28" style="fill:#fff;stroke:#2196f3;stroke-linecap:round;stroke-linejoin:round"/><line x1="37.88" y1="45" x2="53.01" y2="45" style="fill:#fff;stroke:#2196f3;stroke-linecap:round;stroke-linejoin:round"/><line x1="37.88" y1="47.24" x2="50.39" y2="47.24" style="fill:#fff;stroke:#2196f3;stroke-linecap:round;stroke-linejoin:round"/><polygon points="53.01 52.56 47.89 52.56 47.89 60 50.39 57.52 53.01 60 53.01 52.56" style="fill:#fff;stroke:#2196f3;stroke-linecap:round;stroke-linejoin:round;fill-rule:evenodd"/><path d="M50.39,48.9a3.62,3.62,0,0,0-3.69,3.66,3.75,3.75,0,0,0,7.51,0,3.65,3.65,0,0,0-3.81-3.66Z" style="fill:#fff;stroke:#2196f3;stroke-linecap:round;stroke-linejoin:round;fill-rule:evenodd"/><path d="M50.39,50.79a1.81,1.81,0,0,0-1.67,1.77,1.79,1.79,0,0,0,1.67,1.65,1.71,1.71,0,1,0,0-3.43Z" style="fill:#e3f2fd;stroke:#2196f3;stroke-linecap:round;stroke-linejoin:round;fill-rule:evenodd"/></g></g></svg>