<?xml version="1.0" encoding="utf-8"?>
<!-- Generator: Adobe Illustrator 21.1.0, SVG Export Plug-In . SVG Version: 6.00 Build 0)  -->
<svg version="1.1" id="Слой_1" xmlns="http://www.w3.org/2000/svg" xmlns:xlink="http://www.w3.org/1999/xlink" x="0px" y="0px"
	 viewBox="0 0 20 20" style="enable-background:new 0 0 20 20;" xml:space="preserve">
<g id="icon">
	<g id="_x31_cb62956-75bc-4563-baa6-c77aa89a4a8d">
		<path style="fill:#2196F3;" d="M19.5,17.3L17.4,6.8C17.2,6.3,16.8,6,16.3,6h-3.6c0.9-1.5,0.4-3.5-1.1-4.4S8.1,1.2,7.2,2.7
			C6.6,3.7,6.6,5,7.2,6H3.6c-0.5,0-0.9,0.3-1,0.8L0.5,17.3c-0.2,0.6,0.2,1.2,0.8,1.4c0.1,0,0.2,0,0.3,0h16.8c0.6,0,1.1-0.5,1.1-1.1
			C19.5,17.6,19.5,17.4,19.5,17.3z M8.3,4.4c0-0.9,0.8-1.7,1.7-1.7s1.7,0.8,1.7,1.7c0,0.8-0.5,1.5-1.3,1.6H9.6
			C8.9,5.9,8.3,5.2,8.3,4.4z"/>
	</g>
</g>
<rect style="fill:none;" width="20" height="20"/>
</svg>
