<svg xmlns="http://www.w3.org/2000/svg" viewBox="0 0 100 85.87"><title>ьфклук</title><g id="5ffa225f-ae2d-4e4e-ab6c-9c4431a3badf" data-name="Слой 2"><g id="344fb722-7a40-44fc-8831-99ace0c7d998" data-name="Режим изоляции"><path d="M6.26,0H93.74A6.29,6.29,0,0,1,100,6.26v62.5A6.26,6.26,0,0,1,93.74,75H62a3,3,0,0,0-2.34,1.06l-7.57,8.75a3,3,0,0,1-2.34,1.06,3,3,0,0,1-2.34-1.06L39.9,76.06A3,3,0,0,0,37.59,75H6.26A6.26,6.26,0,0,1,0,68.76V6.26A6.29,6.29,0,0,1,6.26,0Z" style="fill:#fff"/><path d="M40.26,29.13c-.26.26-.51.48-.77.74a4.54,4.54,0,0,0-1.06,2.94,4.67,4.67,0,0,0,4.67,4.67h4.67V32.81h0a4.67,4.67,0,0,0-4.67-4.67,4.58,4.58,0,0,0-2.85,1Zm2.94-3.33a7,7,0,0,1,4.57,1.79V18.71a43.74,43.74,0,0,1-4.57,7.1Zm4.57-14c0,5.82-5.34,11.83-9.31,15.73-.16.16-.35.32-.51.51-3.87,3.74-10.17,9.4-15.83,9.4Zm-25.65,28c5.66,0,12,5.63,15.83,9.4l.51.48c4,3.9,9.31,9.91,9.31,15.73Zm28,25.62c0-5.82,5.31-11.83,9.27-15.73l.51-.48c3.9-3.77,10.17-9.4,15.83-9.4ZM75.73,37.48c-5.66,0-11.93-5.66-15.83-9.4-.16-.19-.35-.35-.51-.51-4-3.9-9.27-9.91-9.27-15.73ZM47.78,58.55a43.74,43.74,0,0,0-4.57-7.1,7,7,0,0,0,4.57-1.79ZM40.26,48.16l-.77-.77a4.54,4.54,0,0,1-1.06-2.94,4.65,4.65,0,0,1,4.67-4.64h4.67v4.64a4.67,4.67,0,0,1-4.67,4.67,4.56,4.56,0,0,1-2.85-1ZM36.1,44.52a64.27,64.27,0,0,0-6.94-4.7H37.9a6.81,6.81,0,0,0-1.79,4.64v.06Zm14,14a41.61,41.61,0,0,1,4.54-7.1,6.94,6.94,0,0,1-4.54-1.79Zm7.48-10.39.77-.77a4.54,4.54,0,0,0,1.06-2.94,4.65,4.65,0,0,0-4.67-4.64H50.11v4.64a4.65,4.65,0,0,0,4.64,4.67,4.56,4.56,0,0,0,2.85-1Zm4.16-3.65a64.27,64.27,0,0,1,6.94-4.7H60a6.81,6.81,0,0,1,1.79,4.64v.06ZM50.11,18.71a41.61,41.61,0,0,0,4.54,7.1,6.94,6.94,0,0,0-4.54,1.79Zm7.48,10.43c.26.26.51.48.77.74a4.54,4.54,0,0,1,1.06,2.94,4.67,4.67,0,0,1-4.67,4.67H50.11V32.81h0a4.65,4.65,0,0,1,4.64-4.67,4.58,4.58,0,0,1,2.85,1Zm4.16,3.65a75.16,75.16,0,0,0,6.94,4.7H60a7,7,0,0,0,1.79-4.67v0Zm-32.59,4.7H37.9a7,7,0,0,1-1.79-4.67v0a75.16,75.16,0,0,1-6.94,4.7Z" style="fill:#2196f3;fill-rule:evenodd"/></g></g></svg>