<?xml version="1.0" encoding="utf-8"?>
<!-- Generator: Adobe Illustrator 21.1.0, SVG Export Plug-In . SVG Version: 6.00 Build 0)  -->
<svg version="1.1" id="Слой_1" xmlns="http://www.w3.org/2000/svg" xmlns:xlink="http://www.w3.org/1999/xlink" x="0px" y="0px"
	 viewBox="0 0 40 34.3" style="enable-background:new 0 0 40 34.3;" xml:space="preserve">
<style type="text/css">
	.st0{fill:#FFFFFF;}
	.st1{fill:#2196F3;}
</style>
<title>white_marker</title>
<g>
	<g>
		<g id="_x37_448fb72-6c3c-4eb4-bbdd-e2f9c4e253d7_12_">
			<g id="fdd665b5-bd0e-41f7-b59e-c5e7860ad939_12_">
				<path class="st0" d="M2.5,0h35C38.9,0,40,1.1,40,2.5v25c0,1.4-1.1,2.5-2.5,2.5H24.8c-0.4,0-0.7,0.2-0.9,0.4l-3,3.5
					c-0.2,0.3-0.6,0.4-0.9,0.4c-0.4,0-0.7-0.2-0.9-0.4l-3-3.5c-0.2-0.3-0.6-0.5-1-0.4H2.5C1.1,30,0,28.9,0,27.5v-25
					C0,1.1,1.1,0,2.5,0z"/>
				<path class="st1" d="M16.1,11.6l-0.3,0.3c-0.3,0.3-0.4,0.7-0.4,1.2c0,1,0.8,1.9,1.9,1.9l0,0h1.9v-1.9l0,0c0-1-0.8-1.9-1.9-1.9
					l0,0C16.8,11.3,16.4,11.4,16.1,11.6z M17.3,10.3c0.7,0,1.3,0.3,1.8,0.7V7.5C18.6,8.5,18,9.4,17.3,10.3z M19.1,4.7
					c0,2.3-2.1,4.7-3.7,6.3c-0.1,0.1-0.1,0.1-0.2,0.2c-1.6,1.5-4.1,3.8-6.3,3.8L19.1,4.7z M8.9,15.9c2.3,0,4.8,2.3,6.3,3.8l0.2,0.2
					c1.6,1.6,3.7,4,3.7,6.3L8.9,15.9z M20,26.2c0-2.3,2.1-4.7,3.7-6.3l0.2-0.2c1.6-1.5,4.1-3.8,6.3-3.8L20,26.2z M30.3,15
					c-2.3,0-4.8-2.3-6.3-3.8c-0.1-0.1-0.1-0.1-0.2-0.2C22.2,9.4,20,7,20,4.7L30.3,15z M19.1,23.4c-0.5-1-1.1-2-1.8-2.8
					c0.7,0,1.3-0.3,1.8-0.7V23.4z M16.1,19.3L15.8,19c-0.3-0.3-0.4-0.7-0.4-1.2c0-1,0.8-1.9,1.9-1.9l0,0h1.9v1.9
					c0,1-0.8,1.9-1.9,1.9l0,0C16.8,19.7,16.4,19.6,16.1,19.3L16.1,19.3z M14.5,17.8c-0.9-0.7-1.8-1.3-2.8-1.9h3.5
					C14.7,16.4,14.4,17.1,14.5,17.8L14.5,17.8L14.5,17.8z M20,23.4c0.5-1,1.1-2,1.8-2.8c-0.7,0-1.3-0.3-1.8-0.7V23.4z M23,19.3
					l0.3-0.3c0.3-0.3,0.4-0.7,0.4-1.2c0-1-0.8-1.9-1.9-1.9l0,0H20v1.9c0,1,0.8,1.9,1.8,1.9l0,0C22.3,19.6,22.7,19.5,23,19.3z
					 M24.7,17.8c0.9-0.7,1.8-1.3,2.8-1.9H24C24.5,16.4,24.7,17.1,24.7,17.8L24.7,17.8L24.7,17.8z M20,7.5c0.5,1,1.1,2,1.8,2.8
					c-0.7,0-1.3,0.2-1.8,0.7V7.5z M23,11.6l0.3,0.3c0.3,0.3,0.4,0.7,0.4,1.2c0,1-0.8,1.9-1.8,1.9H20v-1.9l0,0c0-1,0.8-1.9,1.8-1.9
					l0,0C22.3,11.3,22.7,11.4,23,11.6L23,11.6z M24.7,13.1c0.9,0.7,1.8,1.3,2.8,1.9H24C24.5,14.5,24.7,13.8,24.7,13.1L24.7,13.1z
					 M11.7,15h3.5c-0.5-0.5-0.7-1.2-0.7-1.9l0,0C13.6,13.8,12.6,14.4,11.7,15z"/>
			</g>
		</g>
	</g>
</g>
</svg>
