<svg id="c27040f1-9b3f-4073-88db-ed340bfdf300" data-name="icon" xmlns="http://www.w3.org/2000/svg" width="60" height="60" viewBox="0 0 60 60"><title>icon-1</title><g id="0d4baaec-878d-44d0-baa9-ff550fe17f66" data-name="icon"><path d="M30,57.27A27.49,27.49,0,0,0,57.5,30a27.5,27.5,0,0,0-55,0A27.49,27.49,0,0,0,30,57.27Z" style="fill:#fff;stroke:#2196f3;stroke-linecap:round;stroke-miterlimit:10;fill-rule:evenodd"/><line x1="30" y1="14.55" x2="30" y2="45.45" style="fill:#e6fa08;stroke:#2196f3;stroke-linecap:round;stroke-linejoin:round"/><polyline points="33.9 14.55 32.01 16.54 30 18.41 28.11 16.54 26.11 14.55" style="fill:none;stroke:#2196f3;stroke-linecap:round;stroke-linejoin:round"/><polyline points="33.9 45.45 32.01 43.46 30 41.59 28.11 43.46 26.11 45.45" style="fill:none;stroke:#2196f3;stroke-linecap:round;stroke-linejoin:round"/><line x1="45.58" y1="30" x2="14.42" y2="30" style="fill:#e6fa08;stroke:#2196f3;stroke-linecap:round;stroke-linejoin:round"/><polyline points="45.58 33.86 43.57 31.99 41.69 30 43.57 28.13 45.58 26.14" style="fill:none;stroke:#2196f3;stroke-linecap:round;stroke-linejoin:round"/><polyline points="14.42 33.86 16.43 31.99 18.32 30 16.43 28.13 14.42 26.14" style="fill:none;stroke:#2196f3;stroke-linecap:round;stroke-linejoin:round"/><line x1="40.03" y1="41.82" x2="19.97" y2="18.18" style="fill:#e6fa08;stroke:#2196f3;stroke-linecap:round;stroke-linejoin:round"/><polyline points="37.08 44.28 37.32 41.59 37.55 38.89 40.27 39.13 42.98 39.36" style="fill:none;stroke:#2196f3;stroke-linecap:round;stroke-linejoin:round"/><polyline points="17.02 20.64 19.73 20.87 22.56 21.22 22.8 18.41 23.04 15.72" style="fill:none;stroke:#2196f3;stroke-linecap:round;stroke-linejoin:round"/><line x1="20.09" y1="41.82" x2="40.03" y2="18.18" style="fill:#e6fa08;stroke:#2196f3;stroke-linecap:round;stroke-linejoin:round"/><polyline points="17.02 39.36 19.73 39.13 22.56 38.89 22.8 41.59 23.04 44.28" style="fill:none;stroke:#2196f3;stroke-linecap:round;stroke-linejoin:round"/><polyline points="37.08 15.72 37.32 18.41 37.55 21.22 40.27 20.87 42.98 20.64" style="fill:none;stroke:#2196f3;stroke-linecap:round;stroke-linejoin:round"/></g></svg>