<svg xmlns="http://www.w3.org/2000/svg" width="60" height="60" viewBox="0 0 60 60"><title>icon-2</title><g id="4b754b80-fa40-4244-ad55-2f5ffd5a1e89" data-name="icon"><g id="c54d1c93-ae5b-4fb2-8d92-dbf9b7412000" data-name="icon"><path d="M56.26,39.28H9.73a1.69,1.69,0,0,0-1.66,1.65v8.23A1.61,1.61,0,0,0,9.73,50.8H56.26" style="fill:#e3f2fd;stroke:#2196f3;stroke-linecap:round;stroke-miterlimit:10;fill-rule:evenodd"/><path d="M20,44.34a6.52,6.52,0,1,0,6.52,6.46A6.58,6.58,0,0,0,20,44.34Z" style="fill:#fff;stroke:#2196f3;stroke-linecap:round;stroke-miterlimit:10;fill-rule:evenodd"/><path d="M7.24,53.5H10.8a9.93,9.93,0,0,1-.47-2.7A9.7,9.7,0,0,1,20,41.28H30.47V13.43a1.56,1.56,0,0,0-1.54-1.53H15.66A13,13,0,0,0,2.5,24.83v24a4.74,4.74,0,0,0,4.74,4.7Z" style="fill:#fff;stroke:#2196f3;stroke-linecap:round;stroke-linejoin:round;fill-rule:evenodd"/><path d="M3.21,20.72a12,12,0,0,0-.71,4.11V32.7H13.76a5.29,5.29,0,0,0,5.33-5.29V22.6a1.86,1.86,0,0,0-1.9-1.88Z" style="fill:#e3f2fd;stroke:#2196f3;stroke-linecap:round;stroke-miterlimit:10;fill-rule:evenodd"/><path d="M57.5,2.62H38.18A3.15,3.15,0,0,0,35.1,5.79V41.28a3.12,3.12,0,0,0,3.08,3.06H57.5" style="fill:#fff;stroke:#2196f3;stroke-linecap:round;stroke-miterlimit:10;fill-rule:evenodd"/><path d="M20,48.33a2.53,2.53,0,1,0,2.61,2.47A2.52,2.52,0,0,0,20,48.33Z" style="fill:#e3f2fd;stroke:#2196f3;stroke-linecap:round;stroke-miterlimit:10;fill-rule:evenodd"/><path d="M45.05,29.18A2,2,0,0,0,44,31.06a2.27,2.27,0,0,0,2.25,2.35,2.37,2.37,0,0,0,2.37-2.35,2,2,0,0,0-1.07-1.88V14.84a1.31,1.31,0,0,0-1.3-1.29h0a1.29,1.29,0,0,0-1.19,1.29Z" style="fill:#fff;stroke:#2196f3;stroke-linecap:round;stroke-linejoin:round;fill-rule:evenodd"/><path d="M45.05,29.18A2,2,0,0,0,44,31.06a2.27,2.27,0,0,0,2.25,2.35,2.37,2.37,0,0,0,2.37-2.35,2,2,0,0,0-1.07-1.88V21.89H45.05Z" style="fill:#e3f2fd;stroke:#2196f3;stroke-linecap:round;stroke-linejoin:round;fill-rule:evenodd"/></g></g></svg>