<svg xmlns="http://www.w3.org/2000/svg" width="150" height="120" viewBox="0 0 150 120"><title>service-12</title><g id="0022812e-da86-401f-82e2-c9fc484c66aa" data-name="temperature"><g style="opacity:0.2"><line x1="52.73" y1="41.03" x2="52.73" y2="62.77" style="fill:none;stroke:#fff;stroke-linecap:round;stroke-linejoin:round"/><polyline points="55.43 41.03 54.08 42.37 52.73 43.71 51.38 42.37 50.04 41.03" style="fill:none;stroke:#fff;stroke-linecap:round;stroke-linejoin:round"/><polyline points="55.43 62.77 54.08 61.43 52.73 60.09 51.38 61.43 50.04 62.77" style="fill:none;stroke:#fff;stroke-linecap:round;stroke-linejoin:round"/><line x1="63.7" y1="51.9" x2="41.77" y2="51.9" style="fill:none;stroke:#fff;stroke-linecap:round;stroke-linejoin:round"/><polyline points="63.7 54.57 62.35 53.24 61 51.9 62.35 50.56 63.7 49.22" style="fill:none;stroke:#fff;stroke-linecap:round;stroke-linejoin:round"/><polyline points="41.77 54.57 43.12 53.24 44.47 51.9 43.12 50.56 41.77 49.22" style="fill:none;stroke:#fff;stroke-linecap:round;stroke-linejoin:round"/><line x1="59.82" y1="60.26" x2="45.65" y2="43.54" style="fill:none;stroke:#fff;stroke-linecap:round;stroke-linejoin:round"/><polyline points="57.63 61.93 57.79 60.09 57.96 58.09 59.99 58.25 61.84 58.42" style="fill:none;stroke:#fff;stroke-linecap:round;stroke-linejoin:round"/><polyline points="43.63 45.38 45.48 45.55 47.51 45.71 47.67 43.71 47.84 41.87" style="fill:none;stroke:#fff;stroke-linecap:round;stroke-linejoin:round"/><line x1="45.65" y1="60.26" x2="59.82" y2="43.54" style="fill:none;stroke:#fff;stroke-linecap:round;stroke-linejoin:round"/><polyline points="43.63 58.42 45.48 58.25 47.51 58.09 47.67 60.09 47.84 61.93" style="fill:none;stroke:#fff;stroke-linecap:round;stroke-linejoin:round"/><polyline points="57.63 41.87 57.79 43.71 57.96 45.71 59.99 45.55 61.84 45.38" style="fill:none;stroke:#fff;stroke-linecap:round;stroke-linejoin:round"/><path d="M105,60.87c2-5.54,1.59-11.47.48-16.32.13-.24.26-.46.37-.65l.8-.47,1.67-.14a10.15,10.15,0,0,1,1.55,1c.16.12.31.25.45.37a7.45,7.45,0,0,1,.75.73,12.75,12.75,0,0,1,3.07,6.33c3.19,19.79-15.94,29.74-15.94,29.74C74.58,91.6,65.37,78,65.37,78l1.77-2v-.23a35.09,35.09,0,0,0,21.11-.09,32.71,32.71,0,0,0,9.6-5.18A21.1,21.1,0,0,0,105,60.87Z" style="fill:none;stroke:#fff;stroke-linecap:round;stroke-linejoin:round"/><path d="M106.59,37.61l1.77,4.8-.06,0,0,0-3.1.85L103.65,38Z" style="fill:none;stroke:#fff;stroke-linecap:round;stroke-linejoin:round"/><path d="M108.33,43.29l-1.67.14.85-.51A7.59,7.59,0,0,1,108.33,43.29Z" style="fill:none;stroke:#fff;stroke-linecap:round;stroke-linejoin:round"/><path d="M109.07,43.23a5.52,5.52,0,0,1,.81,1,10.15,10.15,0,0,0-1.55-1Z" style="fill:none;stroke:#fff;stroke-linecap:round;stroke-linejoin:round"/><path d="M110.33,44.61c-.14-.12-.29-.25-.45-.37a5.52,5.52,0,0,0-.81-1l-.74.06a7.59,7.59,0,0,0-.82-.37l.79-.47A8.23,8.23,0,0,1,110.33,44.61Z" style="fill:none;stroke:#fff;stroke-linecap:round;stroke-linejoin:round"/><path d="M68.21,51l-.34,1.31,0,0v.12l-2,.82-.11-1.06,1.53-1.4Z" style="fill:none;stroke:#fff;stroke-linecap:round;stroke-linejoin:round"/><path d="M62.3,60.8l-.1,1.53h0v.24L60.06,64l-.36-1.29,1.54-2Z" style="fill:none;stroke:#fff;stroke-linecap:round;stroke-linejoin:round"/><path d="M65.84,53.19A13.16,13.16,0,0,0,68.45,59,18.29,18.29,0,0,0,74.38,64c5.08.69,10.61.54,15.44-1.46a18.44,18.44,0,0,0,7.65-6.1A12.26,12.26,0,0,1,92,59.63C81.9,62,74.24,57.54,69.85,54c-.76-.61-1.42-1.2-2-1.72l0,.1Z" style="fill:none;stroke:#fff;stroke-linecap:round;stroke-linejoin:round"/><path d="M68.45,59A18.29,18.29,0,0,0,74.38,64a50.14,50.14,0,0,1-7.92-1.74A16.15,16.15,0,0,0,68.45,59Z" style="fill:none;stroke:#fff;stroke-linecap:round;stroke-linejoin:round"/><path d="M60.06,64a12.73,12.73,0,0,0,1.4,2.7,20.22,20.22,0,0,0,10.95,7.93c7,0,16-1.34,22.37-6.3a16.15,16.15,0,0,0,2.78-2.76c3.67-4.59,4.6-10.44,4.9-13.05a14.76,14.76,0,0,1,.59-3.16l.2-.67c-.09.16-.18.32-.28.48C101.11,55,98.1,62.82,92.06,65.48a29.42,29.42,0,0,1-5.81,2c-8.72,1.9-16.31-.89-21.25-3.49-1.06-.56-2-1.11-2.8-1.61l0,.23Z" style="fill:none;stroke:#fff;stroke-linecap:round;stroke-linejoin:round"/><path d="M67.87,52.27l0,.1v-.12Z" style="fill:none;stroke:#fff;stroke-linecap:round;stroke-linejoin:round"/><path d="M62.2,62.33c.8.5,1.74,1.05,2.8,1.61,4.94,2.6,12.53,5.39,21.25,3.49a29.42,29.42,0,0,0,5.81-2c6-2.66,9-10.46,10.91-16.35a32.34,32.34,0,0,1-5.5,7.33,18.44,18.44,0,0,1-7.65,6.1C85,64.56,79.46,64.71,74.38,64a50.14,50.14,0,0,1-7.92-1.74c-1.56-.48-3-1-4.16-1.48Z" style="fill:none;stroke:#fff;stroke-linecap:round;stroke-linejoin:round"/><path d="M88.25,75.7a35.09,35.09,0,0,1-21.11.09V76l-.35-1.75a48.4,48.4,0,0,0,5.62.32c7,0,16-1.34,22.37-6.3a16.15,16.15,0,0,0,2.78-2.76c3.67-4.59,4.6-10.44,4.9-13.05a14.76,14.76,0,0,1,.59-3.16l.2-.67c.89-1.56,1.64-3,2.24-4.1C106.6,49.4,107,55.33,105,60.87a21.1,21.1,0,0,1-7.16,9.65A32.71,32.71,0,0,1,88.25,75.7Z" style="fill:none;stroke:#fff;stroke-linecap:round;stroke-linejoin:round"/><polygon points="103.64 37.96 103.65 37.99 101.99 38.2 103.64 37.96" style="fill:none;stroke:#fff;stroke-linecap:round;stroke-linejoin:round"/><path d="M104.13,45.62l-.88,3c-.09.16-.18.32-.28.48.4-1.23.74-2.38,1-3.38Z" style="fill:none;stroke:#fff;stroke-linecap:round;stroke-linejoin:round"/><path d="M103.94,44.83l.35,0-.28.89-.49.53a14.23,14.23,0,0,0-1.65,2.11,2.79,2.79,0,0,1-.17.25,8.94,8.94,0,0,1,.76-1.31Z" style="fill:none;stroke:#fff;stroke-linecap:round;stroke-linejoin:round"/><path d="M103.94,44.83l.88-1.48c-.17.42-.34.93-.53,1.51Z" style="fill:none;stroke:#fff;stroke-linecap:round;stroke-linejoin:round"/><polygon points="105.41 44.17 105.41 44.18 104.35 44.87 105.41 44.17" style="fill:none;stroke:#fff;stroke-linecap:round;stroke-linejoin:round"/><path d="M67.87,52.27c.56.52,1.22,1.11,2,1.72,4.39,3.55,12.05,8,22.1,5.64a12.26,12.26,0,0,0,5.52-3.17,32.34,32.34,0,0,0,5.5-7.33c.4-1.23.74-2.38,1-3.38l-.49.53a14.23,14.23,0,0,0-1.65,2.11,2.79,2.79,0,0,1-.17.25l0,0c-1.46,2.26-5.39,7.13-11.15,8.25C83.09,58.38,75,55.05,70,52.07Q69,51.5,68.21,51Z" style="fill:none;stroke:#fff;stroke-linecap:round;stroke-linejoin:round"/><path d="M70,51.9v.17Q69,51.5,68.21,51l-.95-.23-1.53,1.4.11,1.06A13.16,13.16,0,0,0,68.45,59a16.15,16.15,0,0,1-2,3.32c-1.56-.48-3-1-4.16-1.48l-1.06-.12-1.54,2L60.06,64a12.73,12.73,0,0,0,1.4,2.7A17.08,17.08,0,1,1,70,51.9Z" style="fill:none;stroke:#fff;stroke-linecap:round;stroke-linejoin:round"/><path d="M105.42,44.22c0,.11,0,.22.07.33-.6,1.09-1.35,2.54-2.24,4.1l.88-3Z" style="fill:none;stroke:#fff;stroke-linecap:round;stroke-linejoin:round"/><path d="M105.42,44.22l-1.29,1.4.22-.75,1.06-.69A.06.06,0,0,1,105.42,44.22Z" style="fill:none;stroke:#fff;stroke-linecap:round;stroke-linejoin:round"/><polygon points="105.54 44.1 105.41 44.18 105.41 44.17 105.54 44.1" style="fill:none;stroke:#fff;stroke-linecap:round;stroke-linejoin:round"/><path d="M105.54,44.1l-.12.12a.06.06,0,0,0,0,0Z" style="fill:none;stroke:#fff;stroke-linecap:round;stroke-linejoin:round"/><polygon points="105.56 44.07 105.55 44.09 105.54 44.1 105.41 44.17 105.56 44.07" style="fill:none;stroke:#fff;stroke-linecap:round;stroke-linejoin:round"/><path d="M105.66,44l.2-.12c-.11.19-.24.41-.37.65,0-.11,0-.22-.07-.33l.12-.12h0Z" style="fill:none;stroke:#fff;stroke-linecap:round;stroke-linejoin:round"/><path d="M105.87,43.87a0,0,0,0,1,0,0l-.2.13-.11.07v0Z" style="fill:none;stroke:#fff;stroke-linecap:round;stroke-linejoin:round"/><path d="M105.56,44.07l.56-.6-.25.4Z" style="fill:none;stroke:#fff;stroke-linecap:round;stroke-linejoin:round"/><polygon points="66.79 74.27 67.14 76.02 65.37 78.01 64.66 76.84 65.61 74.5 66.79 74.27" style="fill:none;stroke:#fff;stroke-linecap:round;stroke-linejoin:round"/><path d="M104.35,44.87l-.22.75-.12.13.28-.89Z" style="fill:none;stroke:#fff;stroke-linecap:round;stroke-linejoin:round"/><path d="M105.15,43.26l.26.91-1.06.7h-.06c.19-.58.36-1.09.53-1.51Z" style="fill:none;stroke:#fff;stroke-linecap:round;stroke-linejoin:round"/><path d="M62.2,62.33l0,.23v-.24Z" style="fill:none;stroke:#fff;stroke-linecap:round;stroke-linejoin:round"/><polygon points="103.65 37.99 105.15 43.26 104.82 43.35 103.94 44.83 103.17 44.76 101.99 38.2 103.65 37.99" style="fill:none;stroke:#fff;stroke-linecap:round;stroke-linejoin:round"/><path d="M105.86,43.89s0,0,0,0l-.2.12Z" style="fill:none;stroke:#fff;stroke-linecap:round;stroke-linejoin:round"/><path d="M106.56,43.43l-.7.46a0,0,0,0,0,0,0Z" style="fill:none;stroke:#fff;stroke-linecap:round;stroke-linejoin:round"/><path d="M106.66,43.43l-.8.47s0,0,0,0l.7-.46h.1Z" style="fill:none;stroke:#fff;stroke-linecap:round;stroke-linejoin:round"/><path d="M107.51,42.92l-.85.51h-.09l.85-.55Z" style="fill:none;stroke:#fff;stroke-linecap:round;stroke-linejoin:round"/><path d="M108.25,42.41l0,0-.79.47-.09,0-.85.55h0l-.44,0-.56.6-.15.1-.26-.91Z" style="fill:none;stroke:#fff;stroke-linecap:round;stroke-linejoin:round"/><path d="M106.56,43.43l-.69.44.25-.4Z" style="fill:none;stroke:#fff;stroke-linecap:round;stroke-linejoin:round"/></g></g></svg>