<svg xmlns="http://www.w3.org/2000/svg" width="60" height="60" viewBox="0 0 60 60"><title>icon-2</title><g id="3fe62372-5bdf-4d01-8000-1681687145b6" data-name="icon"><g id="8e617182-71a6-4e56-bc31-f0e6f7f52c6e" data-name="icon"><path d="M57.5,39.32H9.76A1.7,1.7,0,0,0,8.1,41v8.26a1.62,1.62,0,0,0,1.67,1.65H57.5" style="fill:#e3f2fd;stroke:#2196f3;stroke-linecap:round;stroke-miterlimit:10;fill-rule:evenodd"/><path d="M20.12,44.4a6.55,6.55,0,1,0,6.55,6.49,6.6,6.6,0,0,0-6.55-6.49Z" style="fill:#fff;stroke:#2196f3;stroke-linecap:round;stroke-miterlimit:10;fill-rule:evenodd"/><path d="M7.26,53.61h3.57a10,10,0,0,1-.48-2.71,9.74,9.74,0,0,1,9.76-9.56H30.6v-28A1.57,1.57,0,0,0,29,11.82H15.71a13.1,13.1,0,0,0-13.21,13V48.88a4.76,4.76,0,0,0,4.76,4.72Z" style="fill:#fff;stroke:#2196f3;stroke-linecap:round;stroke-linejoin:round;fill-rule:evenodd"/><path d="M3.21,20.68a12.06,12.06,0,0,0-.71,4.13v7.91H13.81a5.31,5.31,0,0,0,5.36-5.31V22.56a1.87,1.87,0,0,0-1.9-1.89Z" style="fill:#e3f2fd;stroke:#2196f3;stroke-linecap:round;stroke-miterlimit:10;fill-rule:evenodd"/><path d="M57.5,2.5H38.1A3.16,3.16,0,0,0,35,5.69V41.33a3.14,3.14,0,0,0,3.1,3.07H57.5" style="fill:#fff;stroke:#2196f3;stroke-linecap:round;stroke-miterlimit:10;fill-rule:evenodd"/><path d="M20.12,48.41a2.54,2.54,0,1,0,2.62,2.48,2.53,2.53,0,0,0-2.62-2.48Z" style="fill:#e3f2fd;stroke:#2196f3;stroke-linecap:round;stroke-miterlimit:10;fill-rule:evenodd"/></g></g></svg>