<svg id="ca9c97d3-c0ed-48a7-84b6-134f0680ba67" data-name="icon" xmlns="http://www.w3.org/2000/svg" width="60" height="60" viewBox="0 0 60 60"><title>icon-1</title><g id="a641223d-fffd-4357-ab7b-9d403db199c3" data-name="icon"><path d="M31.16,3.42l26.22,52.1a1.07,1.07,0,0,1-.12,1.17,1.24,1.24,0,0,1-1.06.59H3.76a1.24,1.24,0,0,1-1.06-.59,1.37,1.37,0,0,1-.12-1.17L28.91,3.42A1.36,1.36,0,0,1,30,2.72a1.57,1.57,0,0,1,1.18.7Z" style="fill:#e3f2fd;stroke:#2196f3;stroke-linecap:round;stroke-linejoin:round;fill-rule:evenodd"/><polygon points="29.97 7.05 6 54.7 54.06 54.7 29.97 7.05" style="fill:#fff;stroke:#2196f3;stroke-linecap:round;stroke-linejoin:round;fill-rule:evenodd"/><path d="M24,34.21A8.16,8.16,0,0,0,23,43.35a5.83,5.83,0,0,0,2.24,2.46l1.18.59a3.55,3.55,0,0,1,1.18.47H28a5,5,0,0,1-.83-.59A3.09,3.09,0,0,1,26,43.58a4,4,0,0,1,.94-2.93,8.81,8.81,0,0,0,1.89-4.57,15.12,15.12,0,0,1,2.83,5.5,6.93,6.93,0,0,0,1.18-3.51c1.18,2,2,6.67-.24,8.2a4,4,0,0,1-1.42.7,5.87,5.87,0,0,0,3-.94,6.42,6.42,0,0,0,1.54-1.17c3.78-3.75,2.48-9.13-.24-13.11a4.1,4.1,0,0,1-.59-.94c-.24-.12-.47-.59-.59-.7C33,28.71,30.56,26,29,25.2a7.52,7.52,0,0,1-1.18,4.68c-.83,1.64-2.6,2.93-3.9,4.33Z" style="fill:#e3f2fd;stroke:#2196f3;stroke-linecap:round;stroke-linejoin:round;fill-rule:evenodd"/></g></svg>