<svg id="9d08f4b2-5576-45d5-bb6d-d886da1a9f0f" data-name="Слой 1" xmlns="http://www.w3.org/2000/svg" width="150" height="120" viewBox="0 0 150 120"><title>service-10</title><g style="opacity:0.2"><path d="M114.92,75.16a.81.81,0,0,1,0,.71.67.67,0,0,1-.59.35H95.13l-2.07-4.1h15.71L98.62,52,90.75,67.57,88.4,62.91l9.51-18.78a.8.8,0,0,1,.71-.47c.23,0,.47.24.71.47Z" style="fill:none;stroke:#fff;stroke-linecap:round;stroke-linejoin:round"/><path d="M52.08,44.13,61.65,63l-2.29,4.54L51.49,52,41.33,72.12H57.05L55,76.22H35.78a.67.67,0,0,1-.59-.35.58.58,0,0,1-.12-.71l15.71-31a.82.82,0,0,1,.71-.47A.79.79,0,0,1,52.08,44.13Z" style="fill:none;stroke:#fff;stroke-linecap:round;stroke-linejoin:round"/><polygon points="59.58 76.22 61.65 72.12 63.95 67.57 74.99 45.66 86.04 67.57 90.41 76.22 91.41 78.21 58.58 78.21 59.58 76.22" style="fill:none;stroke:#fff;stroke-linecap:round;stroke-linejoin:round"/><polygon points="98.62 51.98 108.77 72.12 93.06 72.12 90.75 67.57 98.62 51.98" style="fill:none;stroke:#fff;stroke-linecap:round;stroke-linejoin:round"/><polygon points="59.36 67.57 57.05 72.12 41.33 72.12 51.49 51.98 59.36 67.57" style="fill:none;stroke:#fff;stroke-linecap:round;stroke-linejoin:round"/><path d="M93.06,72.12l2.07,4.1,2.31,4.57a1.16,1.16,0,0,1-.12,1,1,1,0,0,1-.83.47H53.62a1.25,1.25,0,0,1-.95-.47,1.12,1.12,0,0,1,0-1L55,76.22l2.07-4.1,2.31-4.55L61.65,63,74.17,38.28a.89.89,0,0,1,.82-.59.94.94,0,0,1,1,.59L88.4,62.91l2.35,4.66Zm-33.48,4.1,2.07-4.1L64,67.57,75,45.66,86,67.57l4.37,8.65,1,2H58.58Z" style="fill:none;stroke:#fff;stroke-linecap:round;stroke-linejoin:round;fill-rule:evenodd"/></g></svg>